<svg width="122" height="120" viewBox="0 0 122 120" fill="none" xmlns="http://www.w3.org/2000/svg">
<path d="M61.5 38.6356C71.7173 38.6356 80 30.3036 80 20.0257C80 9.7478 71.7173 1.41589 61.5 1.41589C51.2827 1.41589 43 9.7478 43 20.0257C43 30.3036 51.2827 38.6356 61.5 38.6356Z" stroke="white" stroke-width="2.5" stroke-miterlimit="10"/>
<path d="M32 58.2792V49.7083C32 43.5918 37.2196 38.6355 43.6609 38.6355H80.3391C86.7804 38.6355 92 43.5918 92 49.7083V58.2792" stroke="white" stroke-width="2.5" stroke-miterlimit="10"/>
<path d="M28.9266 100C28.715 100 28.6092 99.8836 28.6092 99.6509V91.2466C28.6092 91.0138 28.715 90.8975 28.9266 90.8975H34.4808C34.7135 90.8975 34.8299 90.9927 34.8299 91.1831V91.6528C34.8299 91.8433 34.7135 91.9385 34.4808 91.9385H29.8279V94.7568H34.0999C34.3327 94.7568 34.449 94.8521 34.449 95.0425V95.5122C34.449 95.7026 34.3327 95.7979 34.0999 95.7979H29.8279V98.959H34.6712C34.9039 98.959 35.0203 99.0542 35.0203 99.2446V99.7144C35.0203 99.9048 34.9039 100 34.6712 100H28.9266ZM37.0386 100C36.8482 100 36.753 99.9048 36.753 99.7144V93.6206C36.753 93.4302 36.8482 93.335 37.0386 93.335H37.5718C37.7622 93.335 37.8575 93.4302 37.8575 93.6206V94.1284H37.8829C38.1579 93.8237 38.4541 93.5973 38.7715 93.4492C39.0889 93.3011 39.4846 93.2271 39.9585 93.2271C40.7287 93.2271 41.281 93.445 41.6153 93.8809C41.9538 94.3125 42.1231 94.9049 42.1231 95.6582V99.7144C42.1231 99.9048 42.0279 100 41.8374 100H41.2915C41.1011 100 41.0059 99.9048 41.0059 99.7144V95.9629C41.0059 95.1335 40.8684 94.6087 40.5933 94.3887C40.3182 94.1644 39.9691 94.0522 39.5459 94.0522C38.9958 94.0522 38.579 94.2173 38.2954 94.5474C38.0119 94.8732 37.8702 95.4339 37.8702 96.2295V99.7144C37.8702 99.9048 37.7749 100 37.5845 100H37.0386ZM43.8494 94.1729C43.659 94.1729 43.5638 94.0988 43.5638 93.9507V93.5571C43.5638 93.409 43.659 93.335 43.8494 93.335H44.5984V92.7637C44.5984 92.679 44.6196 92.5986 44.6619 92.5225L45.1062 91.7163C45.1866 91.5682 45.2522 91.4941 45.303 91.4941H45.5252C45.6521 91.4941 45.7156 91.5682 45.7156 91.7163V93.335H47.0677C47.2581 93.335 47.3533 93.409 47.3533 93.5571V93.9507C47.3533 94.0988 47.2581 94.1729 47.0677 94.1729H45.7156V98.2163C45.7156 98.6606 45.7812 98.9505 45.9124 99.0859C46.0478 99.2171 46.2086 99.2827 46.3948 99.2827C46.5387 99.2827 46.7101 99.2404 46.909 99.1558C47.1121 99.0711 47.2517 98.9992 47.3279 98.9399C47.4041 98.8807 47.4633 98.8997 47.5056 98.9971L47.7151 99.4858C47.749 99.5705 47.7236 99.6382 47.6389 99.689C47.4739 99.7863 47.2327 99.8815 46.9153 99.9746C46.5979 100.063 46.2805 100.108 45.9632 100.108C45.5231 100.108 45.1845 99.9492 44.9475 99.6318C44.7148 99.3145 44.5984 98.8659 44.5984 98.2861V94.1729H43.8494ZM49.5303 100C49.3399 100 49.2447 99.9048 49.2447 99.7144V93.6206C49.2447 93.4302 49.3399 93.335 49.5303 93.335H50.0635C50.2539 93.335 50.3491 93.4302 50.3491 93.6206V94.3823H50.3745C50.5777 94.0015 50.8168 93.7137 51.0918 93.519C51.3669 93.3244 51.7097 93.2271 52.1201 93.2271C52.391 93.2271 52.5814 93.2503 52.6914 93.2969C52.7888 93.335 52.8247 93.3984 52.7993 93.4873L52.6533 94.0078C52.6322 94.084 52.5772 94.1136 52.4883 94.0967C52.3402 94.0671 52.2005 94.0522 52.0694 94.0522C51.5742 94.0522 51.1659 94.2765 50.8443 94.7251C50.5226 95.1694 50.3618 95.7767 50.3618 96.5469V99.7144C50.3618 99.9048 50.2666 100 50.0762 100H49.5303ZM53.7258 96.6675C53.7258 95.618 53.9882 94.7822 54.513 94.1602C55.0377 93.5381 55.7888 93.2271 56.7664 93.2271C57.5789 93.2271 58.2517 93.5127 58.7849 94.084C59.3224 94.651 59.5911 95.5588 59.5911 96.8071C59.5911 96.9976 59.5043 97.0928 59.3308 97.0928H54.9065C54.9784 97.9095 55.1985 98.4787 55.5667 98.8003C55.9348 99.1177 56.3517 99.2764 56.8172 99.2764C57.308 99.2764 57.6847 99.1938 57.947 99.0288C58.2094 98.8638 58.4019 98.7008 58.5247 98.54C58.6601 98.3623 58.7913 98.3285 58.9182 98.4385L59.2927 98.7622C59.3901 98.8468 59.3901 98.9632 59.2927 99.1113C59.2123 99.234 58.9817 99.4308 58.6008 99.7017C58.2242 99.9725 57.6297 100.108 56.8172 100.108C55.7592 100.108 54.9784 99.7969 54.4749 99.1748C53.9755 98.5527 53.7258 97.717 53.7258 96.6675ZM54.8811 96.2676H58.4675C58.4506 95.6751 58.2983 95.1567 58.0105 94.7124C57.7227 94.2638 57.2996 94.0396 56.741 94.0396C56.2501 94.0396 55.8333 94.2046 55.4905 94.5347C55.1477 94.8605 54.9446 95.4382 54.8811 96.2676ZM60.8096 93.646C60.7376 93.4386 60.7948 93.335 60.981 93.335H61.6729C61.8083 93.335 61.9035 93.4175 61.9585 93.5825L63.3042 97.772C63.4142 98.1147 63.4883 98.3517 63.5264 98.4829C63.5687 98.6099 63.6068 98.7686 63.6406 98.959H63.666C63.6999 98.7686 63.7358 98.6099 63.7739 98.4829C63.8162 98.3517 63.8924 98.1147 64.0024 97.772L65.3481 93.5825C65.4032 93.4175 65.4984 93.335 65.6338 93.335H66.3257C66.5119 93.335 66.569 93.4386 66.4971 93.646L64.415 99.6128C64.3262 99.8709 64.2119 100 64.0723 100H63.2344C63.0947 100 62.9805 99.8709 62.8916 99.6128L60.8096 93.646ZM68.1218 100C67.9314 100 67.8362 99.9048 67.8362 99.7144V93.6206C67.8362 93.4302 67.9314 93.335 68.1218 93.335H68.6677C68.8581 93.335 68.9534 93.4302 68.9534 93.6206V99.7144C68.9534 99.9048 68.8581 100 68.6677 100H68.1218ZM68.1218 92.1289C67.9314 92.1289 67.8362 92.0337 67.8362 91.8433V91.2974C67.8362 91.1069 67.9314 91.0117 68.1218 91.0117H68.6677C68.8581 91.0117 68.9534 91.1069 68.9534 91.2974V91.8433C68.9534 92.0337 68.8581 92.1289 68.6677 92.1289H68.1218ZM70.7558 99.3779C70.6247 99.2552 70.5972 99.141 70.6733 99.0352L70.959 98.6353C71.0521 98.5083 71.1896 98.5146 71.3716 98.6543C71.6212 98.8447 71.8984 98.9971 72.2031 99.1113C72.512 99.2256 72.8633 99.2827 73.2568 99.2827C73.4896 99.2827 73.6969 99.2552 73.8789 99.2002C74.0609 99.141 74.2195 99.033 74.355 98.8765C74.4946 98.7199 74.5644 98.5104 74.5644 98.248C74.5644 98.0957 74.5306 97.9518 74.4629 97.8164C74.3994 97.681 74.2978 97.5731 74.1582 97.4927C74.0228 97.408 73.8895 97.3424 73.7583 97.2959C73.5425 97.2155 73.3266 97.1499 73.1108 97.0991C72.8992 97.0441 72.6199 96.9616 72.2729 96.8516C72.0402 96.7796 71.8201 96.6781 71.6128 96.5469C71.4054 96.4115 71.2235 96.2295 71.0669 96.001C70.9145 95.7725 70.8384 95.4572 70.8384 95.0552C70.8384 94.6447 70.9632 94.2913 71.2129 93.9951C71.4625 93.6989 71.7757 93.4979 72.1523 93.3921C72.529 93.2821 72.895 93.2271 73.2505 93.2271C73.7752 93.2271 74.1963 93.2884 74.5137 93.4111C74.8353 93.5296 75.1125 93.6714 75.3452 93.8364C75.4806 93.9338 75.4997 94.0459 75.4023 94.1729L75.1167 94.5537C75.0278 94.6764 74.8903 94.6722 74.7041 94.541C74.5475 94.431 74.3253 94.3273 74.0376 94.23C73.7498 94.1326 73.498 94.084 73.2822 94.084C73.0156 94.084 72.7871 94.1136 72.5967 94.1729C72.4062 94.2321 72.2518 94.3337 72.1333 94.4775C72.0148 94.6214 71.9556 94.7907 71.9556 94.9854C71.9556 95.1335 71.9788 95.2668 72.0254 95.3853C72.0719 95.4995 72.1587 95.6053 72.2856 95.7026C72.4126 95.8 72.5903 95.8783 72.8188 95.9375C73.1743 96.0306 73.498 96.1152 73.79 96.1914C74.0862 96.2676 74.3528 96.3607 74.5898 96.4707C74.8987 96.6146 75.1357 96.7733 75.3008 96.9468C75.47 97.1203 75.5864 97.3086 75.6499 97.5117C75.7134 97.7106 75.7451 97.9328 75.7451 98.1782C75.7451 98.631 75.6097 99.014 75.3389 99.3271C75.0723 99.6403 74.7739 99.8498 74.4438 99.9556C74.1138 100.057 73.716 100.108 73.2505 100.108C72.6199 100.108 72.0783 100.019 71.6255 99.8413C71.1769 99.6593 70.887 99.5049 70.7558 99.3779ZM76.9445 94.1729C76.7541 94.1729 76.6589 94.0988 76.6589 93.9507V93.5571C76.6589 93.409 76.7541 93.335 76.9445 93.335H77.6936V92.7637C77.6936 92.679 77.7147 92.5986 77.757 92.5225L78.2014 91.7163C78.2818 91.5682 78.3474 91.4941 78.3982 91.4941H78.6203C78.7473 91.4941 78.8108 91.5682 78.8108 91.7163V93.335H80.1628C80.3532 93.335 80.4485 93.409 80.4485 93.5571V93.9507C80.4485 94.0988 80.3532 94.1729 80.1628 94.1729H78.8108V98.2163C78.8108 98.6606 78.8764 98.9505 79.0075 99.0859C79.143 99.2171 79.3038 99.2827 79.49 99.2827C79.6338 99.2827 79.8052 99.2404 80.0041 99.1558C80.2072 99.0711 80.3469 98.9992 80.4231 98.9399C80.4992 98.8807 80.5585 98.8997 80.6008 98.9971L80.8103 99.4858C80.8441 99.5705 80.8187 99.6382 80.7341 99.689C80.5691 99.7863 80.3279 99.8815 80.0105 99.9746C79.6931 100.063 79.3757 100.108 79.0583 100.108C78.6182 100.108 78.2797 99.9492 78.0427 99.6318C77.8099 99.3145 77.6936 98.8659 77.6936 98.2861V94.1729H76.9445ZM81.978 98.2227C81.978 97.4694 82.3292 96.9172 83.0317 96.5659C83.7384 96.2147 84.7921 96.0094 86.1928 95.9502V95.5186C86.1928 95.1208 86.1018 94.778 85.9199 94.4902C85.7421 94.1982 85.3867 94.0522 84.8535 94.0522C84.5149 94.0522 84.2441 94.0861 84.041 94.1538C83.8379 94.2173 83.6517 94.304 83.4824 94.4141C83.3173 94.5199 83.1587 94.6574 83.0063 94.8267C82.8921 94.9536 82.7841 94.96 82.6826 94.8457L82.3525 94.4648C82.2594 94.359 82.2911 94.2321 82.4477 94.084C82.672 93.8724 82.8899 93.7137 83.1015 93.6079C83.3131 93.5021 83.5755 93.4132 83.8886 93.3413C84.206 93.2651 84.5276 93.2271 84.8535 93.2271C85.7379 93.2271 86.3685 93.4556 86.7451 93.9126C87.1217 94.3654 87.31 94.9875 87.31 95.7788V99.7144C87.31 99.9048 87.2148 100 87.0244 100H86.4531C86.288 100 86.2055 99.9048 86.2055 99.7144V99.4033H86.1928C85.8585 99.6657 85.5306 99.8498 85.2089 99.9556C84.8916 100.057 84.5361 100.108 84.1425 100.108C83.4485 100.108 82.9132 99.9429 82.5366 99.6128C82.1642 99.2785 81.978 98.8151 81.978 98.2227ZM83.1333 98.248C83.1333 98.5104 83.1883 98.722 83.2983 98.8828C83.4083 99.0394 83.5607 99.141 83.7553 99.1875C83.95 99.2298 84.1531 99.251 84.3647 99.251C84.6906 99.251 84.9995 99.2192 85.2915 99.1558C85.5835 99.0923 85.8839 98.9251 86.1928 98.6543V96.7817C85.338 96.8452 84.7286 96.9235 84.3647 97.0166C84.0008 97.1055 83.7046 97.262 83.476 97.4863C83.2475 97.7064 83.1333 97.9603 83.1333 98.248ZM89.1189 99.3779C88.9877 99.2552 88.9602 99.141 89.0363 99.0352L89.322 98.6353C89.4151 98.5083 89.5526 98.5146 89.7346 98.6543C89.9842 98.8447 90.2614 98.9971 90.5661 99.1113C90.875 99.2256 91.2263 99.2827 91.6198 99.2827C91.8526 99.2827 92.0599 99.2552 92.2419 99.2002C92.4239 99.141 92.5826 99.033 92.718 98.8765C92.8576 98.7199 92.9274 98.5104 92.9274 98.248C92.9274 98.0957 92.8936 97.9518 92.8259 97.8164C92.7624 97.681 92.6608 97.5731 92.5212 97.4927C92.3858 97.408 92.2525 97.3424 92.1213 97.2959C91.9055 97.2155 91.6897 97.1499 91.4738 97.0991C91.2622 97.0441 90.9829 96.9616 90.6359 96.8516C90.4032 96.7796 90.1831 96.6781 89.9758 96.5469C89.7684 96.4115 89.5865 96.2295 89.4299 96.001C89.2775 95.7725 89.2014 95.4572 89.2014 95.0552C89.2014 94.6447 89.3262 94.2913 89.5759 93.9951C89.8256 93.6989 90.1387 93.4979 90.5153 93.3921C90.892 93.2821 91.258 93.2271 91.6135 93.2271C92.1382 93.2271 92.5593 93.2884 92.8767 93.4111C93.1983 93.5296 93.4755 93.6714 93.7082 93.8364C93.8436 93.9338 93.8627 94.0459 93.7653 94.1729L93.4797 94.5537C93.3908 94.6764 93.2533 94.6722 93.0671 94.541C92.9105 94.431 92.6883 94.3273 92.4006 94.23C92.1128 94.1326 91.861 94.084 91.6452 94.084C91.3786 94.084 91.1501 94.1136 90.9597 94.1729C90.7692 94.2321 90.6148 94.3337 90.4963 94.4775C90.3778 94.6214 90.3186 94.7907 90.3186 94.9854C90.3186 95.1335 90.3418 95.2668 90.3884 95.3853C90.4349 95.4995 90.5217 95.6053 90.6486 95.7026C90.7756 95.8 90.9533 95.8783 91.1818 95.9375C91.5373 96.0306 91.861 96.1152 92.153 96.1914C92.4493 96.2676 92.7159 96.3607 92.9528 96.4707C93.2618 96.6146 93.4987 96.7733 93.6638 96.9468C93.833 97.1203 93.9494 97.3086 94.0129 97.5117C94.0764 97.7106 94.1081 97.9328 94.1081 98.1782C94.1081 98.631 93.9727 99.014 93.7019 99.3271C93.4353 99.6403 93.1369 99.8498 92.8068 99.9556C92.4768 100.057 92.079 100.108 91.6135 100.108C90.9829 100.108 90.4413 100.019 89.9885 99.8413C89.5399 99.6593 89.25 99.5049 89.1189 99.3779ZM38.5811 116C38.3695 116 38.2637 115.884 38.2637 115.651V107.247C38.2637 107.014 38.3695 106.897 38.5811 106.897H39.1651C39.3767 106.897 39.4825 107.014 39.4825 107.247V115.651C39.4825 115.884 39.3767 116 39.1651 116H38.5811ZM42.0086 116C41.8181 116 41.7229 115.905 41.7229 115.714V109.621C41.7229 109.43 41.8181 109.335 42.0086 109.335H42.5418C42.7322 109.335 42.8274 109.43 42.8274 109.621V110.128H42.8528C43.1279 109.824 43.4241 109.597 43.7415 109.449C44.0589 109.301 44.4545 109.227 44.9285 109.227C45.6987 109.227 46.2509 109.445 46.5852 109.881C46.9238 110.312 47.093 110.905 47.093 111.658V115.714C47.093 115.905 46.9978 116 46.8074 116H46.2615C46.0711 116 45.9759 115.905 45.9759 115.714V111.963C45.9759 111.133 45.8383 110.609 45.5633 110.389C45.2882 110.164 44.9391 110.052 44.5159 110.052C43.9658 110.052 43.5489 110.217 43.2654 110.547C42.9819 110.873 42.8401 111.434 42.8401 112.229V115.714C42.8401 115.905 42.7449 116 42.5545 116H42.0086ZM49.4287 116C49.2383 116 49.1431 115.905 49.1431 115.714V109.621C49.1431 109.43 49.2383 109.335 49.4287 109.335H49.9746C50.1651 109.335 50.2603 109.43 50.2603 109.621V115.714C50.2603 115.905 50.1651 116 49.9746 116H49.4287ZM49.4287 108.129C49.2383 108.129 49.1431 108.034 49.1431 107.843V107.297C49.1431 107.107 49.2383 107.012 49.4287 107.012H49.9746C50.1651 107.012 50.2603 107.107 50.2603 107.297V107.843C50.2603 108.034 50.1651 108.129 49.9746 108.129H49.4287ZM51.9612 112.667C51.9612 111.673 52.2066 110.852 52.6975 110.205C53.1926 109.553 53.948 109.227 54.9636 109.227C55.6492 109.227 56.1718 109.35 56.5315 109.595C56.8954 109.836 57.1578 110.084 57.3186 110.338C57.4075 110.478 57.3884 110.59 57.2615 110.674L56.8616 110.935C56.7346 111.023 56.6077 110.966 56.4807 110.763C56.358 110.569 56.1845 110.401 55.9602 110.262C55.7402 110.122 55.408 110.052 54.9636 110.052C54.3839 110.052 53.9353 110.266 53.6179 110.693C53.3005 111.121 53.1419 111.779 53.1419 112.667C53.1419 113.556 53.3005 114.214 53.6179 114.642C53.9353 115.069 54.3839 115.283 54.9636 115.283C55.4334 115.283 55.7931 115.194 56.0427 115.016C56.2924 114.834 56.4744 114.637 56.5886 114.426C56.6987 114.227 56.8235 114.17 56.9631 114.254L57.3884 114.508C57.5154 114.584 57.5344 114.699 57.4456 114.851C57.3398 115.033 57.0986 115.289 56.7219 115.619C56.3495 115.945 55.7634 116.108 54.9636 116.108C53.948 116.108 53.1926 115.784 52.6975 115.137C52.2066 114.485 51.9612 113.662 51.9612 112.667ZM59.3813 116C59.1909 116 59.0957 115.905 59.0957 115.714V109.621C59.0957 109.43 59.1909 109.335 59.3813 109.335H59.9272C60.1177 109.335 60.2129 109.43 60.2129 109.621V115.714C60.2129 115.905 60.1177 116 59.9272 116H59.3813ZM59.3813 108.129C59.1909 108.129 59.0957 108.034 59.0957 107.843V107.297C59.0957 107.107 59.1909 107.012 59.3813 107.012H59.9272C60.1177 107.012 60.2129 107.107 60.2129 107.297V107.843C60.2129 108.034 60.1177 108.129 59.9272 108.129H59.3813ZM61.9138 114.223C61.9138 113.469 62.265 112.917 62.9675 112.566C63.6742 112.215 64.7279 112.009 66.1287 111.95V111.519C66.1287 111.121 66.0377 110.778 65.8557 110.49C65.678 110.198 65.3225 110.052 64.7893 110.052C64.4508 110.052 64.1799 110.086 63.9768 110.154C63.7737 110.217 63.5875 110.304 63.4182 110.414C63.2532 110.52 63.0945 110.657 62.9421 110.827C62.8279 110.954 62.72 110.96 62.6184 110.846L62.2883 110.465C62.1952 110.359 62.227 110.232 62.3835 110.084C62.6078 109.872 62.8258 109.714 63.0373 109.608C63.2489 109.502 63.5113 109.413 63.8245 109.341C64.1418 109.265 64.4634 109.227 64.7893 109.227C65.6737 109.227 66.3043 109.456 66.6809 109.913C67.0575 110.365 67.2458 110.987 67.2458 111.779V115.714C67.2458 115.905 67.1506 116 66.9602 116H66.3889C66.2239 116 66.1413 115.905 66.1413 115.714V115.403H66.1287C65.7943 115.666 65.4664 115.85 65.1448 115.956C64.8274 116.057 64.4719 116.108 64.0784 116.108C63.3843 116.108 62.849 115.943 62.4724 115.613C62.1 115.278 61.9138 114.815 61.9138 114.223ZM63.0691 114.248C63.0691 114.51 63.1241 114.722 63.2341 114.883C63.3441 115.039 63.4965 115.141 63.6912 115.188C63.8858 115.23 64.0889 115.251 64.3005 115.251C64.6264 115.251 64.9353 115.219 65.2273 115.156C65.5193 115.092 65.8197 114.925 66.1287 114.654V112.782C65.2738 112.845 64.6645 112.924 64.3005 113.017C63.9366 113.105 63.6404 113.262 63.4119 113.486C63.1833 113.706 63.0691 113.96 63.0691 114.248ZM69.6006 116C69.4101 116 69.3149 115.905 69.3149 115.714V107.792C69.3149 107.708 69.3361 107.627 69.3784 107.551L69.8227 106.745C69.9031 106.597 69.9687 106.523 70.0195 106.523H70.2417C70.3686 106.523 70.4321 106.597 70.4321 106.745V115.714C70.4321 115.905 70.3369 116 70.1465 116H69.6006ZM72.133 112.667C72.133 111.618 72.3954 110.782 72.9201 110.16C73.4449 109.538 74.196 109.227 75.1736 109.227C75.9861 109.227 76.6589 109.513 77.1921 110.084C77.7295 110.651 77.9983 111.559 77.9983 112.807C77.9983 112.998 77.9115 113.093 77.738 113.093H73.3137C73.3856 113.91 73.6057 114.479 73.9738 114.8C74.342 115.118 74.7588 115.276 75.2243 115.276C75.7152 115.276 76.0918 115.194 76.3542 115.029C76.6166 114.864 76.8091 114.701 76.9319 114.54C77.0673 114.362 77.1985 114.328 77.3254 114.438L77.6999 114.762C77.7973 114.847 77.7973 114.963 77.6999 115.111C77.6195 115.234 77.3889 115.431 77.008 115.702C76.6314 115.972 76.0368 116.108 75.2243 116.108C74.1664 116.108 73.3856 115.797 72.882 115.175C72.3827 114.553 72.133 113.717 72.133 112.667ZM73.2883 112.268H76.8747C76.8578 111.675 76.7055 111.157 76.4177 110.712C76.1299 110.264 75.7068 110.04 75.1482 110.04C74.6573 110.04 74.2404 110.205 73.8977 110.535C73.5549 110.861 73.3518 111.438 73.2883 112.268ZM79.4643 115.378C79.3331 115.255 79.3056 115.141 79.3818 115.035L79.6674 114.635C79.7605 114.508 79.8981 114.515 80.08 114.654C80.3297 114.845 80.6069 114.997 80.9116 115.111C81.2205 115.226 81.5717 115.283 81.9653 115.283C82.198 115.283 82.4054 115.255 82.5874 115.2C82.7693 115.141 82.928 115.033 83.0634 114.876C83.2031 114.72 83.2729 114.51 83.2729 114.248C83.2729 114.096 83.2391 113.952 83.1713 113.816C83.1079 113.681 83.0063 113.573 82.8667 113.493C82.7312 113.408 82.5979 113.342 82.4668 113.296C82.2509 113.215 82.0351 113.15 81.8193 113.099C81.6077 113.044 81.3284 112.962 80.9814 112.852C80.7487 112.78 80.5286 112.678 80.3213 112.547C80.1139 112.411 79.9319 112.229 79.7754 112.001C79.623 111.772 79.5468 111.457 79.5468 111.055C79.5468 110.645 79.6717 110.291 79.9213 109.995C80.171 109.699 80.4842 109.498 80.8608 109.392C81.2374 109.282 81.6035 109.227 81.9589 109.227C82.4837 109.227 82.9047 109.288 83.2221 109.411C83.5437 109.53 83.8209 109.671 84.0537 109.836C84.1891 109.934 84.2081 110.046 84.1108 110.173L83.8252 110.554C83.7363 110.676 83.5988 110.672 83.4126 110.541C83.256 110.431 83.0338 110.327 82.7461 110.23C82.4583 110.133 82.2065 110.084 81.9907 110.084C81.7241 110.084 81.4956 110.114 81.3051 110.173C81.1147 110.232 80.9602 110.334 80.8418 110.478C80.7233 110.621 80.664 110.791 80.664 110.985C80.664 111.133 80.6873 111.267 80.7338 111.385C80.7804 111.5 80.8671 111.605 80.9941 111.703C81.1211 111.8 81.2988 111.878 81.5273 111.938C81.8828 112.031 82.2065 112.115 82.4985 112.191C82.7947 112.268 83.0613 112.361 83.2983 112.471C83.6072 112.615 83.8442 112.773 84.0092 112.947C84.1785 113.12 84.2949 113.309 84.3584 113.512C84.4218 113.711 84.4536 113.933 84.4536 114.178C84.4536 114.631 84.3182 115.014 84.0473 115.327C83.7807 115.64 83.4824 115.85 83.1523 115.956C82.8222 116.057 82.4244 116.108 81.9589 116.108C81.3284 116.108 80.7867 116.019 80.3339 115.841C79.8854 115.659 79.5955 115.505 79.4643 115.378Z" fill="white"/>
</svg>
