<svg width="143" height="127" viewBox="0 0 143 127" fill="none" xmlns="http://www.w3.org/2000/svg">
<g clip-path="url(#clip0_164_201)">
<path d="M76.6524 1.33632C75.8955 0.702254 74.7637 0.804523 74.1296 1.56132L68.1433 8.73381C67.8433 8.99971 67.2978 9.36788 66.5751 9.31334C66.1251 9.27925 65.7705 9.10198 65.5387 8.93835L65.2455 8.6929L58.8228 3.33399C58.066 2.69992 56.9342 2.80219 56.3001 3.55898C55.666 4.31577 55.7683 5.44755 56.5251 6.08162L64.6251 12.8382C64.6933 13.07 65.0546 14.3791 64.516 15.3745C64.0592 16.2063 63.0364 16.704 61.9183 16.6972L58.8978 17.1404C58.1887 17.2426 57.7046 17.8972 57.8069 18.6062C57.9092 19.3153 58.5637 19.7994 59.2728 19.6971L64.3864 18.9471C64.3864 18.9471 64.4546 18.9335 64.4887 18.9267C65.3955 18.8789 66.1864 19.3017 66.4796 19.9834C66.6569 20.3857 66.6092 20.7743 66.5614 20.9993C65.8524 21.6811 65.4705 22.6834 65.6205 23.7333C65.8728 25.4583 67.4751 26.6514 69.2069 26.3991C70.9387 26.1469 72.1251 24.5447 71.8728 22.8129C71.7228 21.7834 71.0887 20.9448 70.2296 20.488C70.1137 20.2766 69.9501 19.9084 70.0114 19.4585C70.1137 18.6949 70.8228 18.0403 71.7842 17.8562L77.3819 17.1267C78.091 17.0245 78.5751 16.3699 78.4728 15.6609C78.3705 14.9518 77.716 14.4677 77.0069 14.57C76.3728 14.6654 76.0592 14.6723 74.9137 14.8768C74.2387 14.9995 73.6728 15.0404 73.291 15.0609C71.8796 15.0609 70.7137 14.2495 70.4137 13.1519C70.1683 12.2587 70.5774 11.4814 70.7069 11.2496L76.891 3.83852C77.5251 3.08172 77.4228 1.94994 76.666 1.31587L76.6524 1.33632Z" stroke="white" stroke-width="1.5" stroke-miterlimit="10"/>
<path d="M43.3317 14.1268C42.4181 14.5154 41.9954 15.5654 42.384 16.479L46.0522 25.0696C46.1545 25.4583 46.2295 26.106 45.8545 26.7332C45.6226 27.1218 45.3022 27.3537 45.0499 27.49L44.7022 27.64L37.0113 30.9195C36.0976 31.3081 35.6749 32.358 36.0636 33.2716C36.4522 34.1853 37.5022 34.608 38.4158 34.2193L48.1181 30.0808C48.3567 30.1286 49.6863 30.4013 50.3272 31.3353C50.8658 32.1194 50.8386 33.2648 50.3272 34.2534L49.3454 37.1443C49.1136 37.8192 49.4817 38.5556 50.1567 38.7806C50.8317 39.0056 51.5681 38.6442 51.7931 37.9692L53.4499 33.0739C53.4499 33.0739 53.4704 33.0057 53.4772 32.9785C53.8454 32.1535 54.5886 31.6353 55.3249 31.6831C55.7613 31.7103 56.0886 31.9285 56.2658 32.0717C56.5522 33.0126 57.2681 33.8103 58.2772 34.1512C59.9272 34.7102 61.7204 33.8239 62.2795 32.174C62.8386 30.524 61.9522 28.7309 60.3022 28.1718C59.3136 27.8377 58.2772 28.0218 57.4863 28.5741C57.2476 28.5809 56.8454 28.5536 56.4704 28.3014C55.8363 27.865 55.8499 25.9969 55.8499 25.9969C55.9522 25.8742 57.7454 20.6857 57.7454 20.6857C57.9772 20.0107 57.609 19.2744 56.934 19.0494C56.259 18.8244 55.5226 19.1857 55.2976 19.8607C55.0931 20.4675 54.9567 20.7539 54.6158 21.8652C54.4181 22.5265 54.1999 23.0447 54.0431 23.3924C53.409 24.6537 52.1476 25.3219 51.0295 25.0901C50.1295 24.8992 49.6113 24.1833 49.4681 23.9651L45.684 15.0881C45.2954 14.1745 44.2454 13.7518 43.3317 14.1405V14.1268Z" stroke="white" stroke-width="1.5" stroke-miterlimit="10"/>
<path d="M103.516 23.9856C103.768 23.0311 103.189 22.0493 102.234 21.8039L93.1931 19.4517C92.825 19.2949 92.2659 18.9608 92 18.279C91.8363 17.8563 91.85 17.4608 91.8977 17.1813L91.9931 16.8131L94.1 8.7202C94.3522 7.76568 93.7727 6.7839 92.8181 6.53845C91.8636 6.28619 90.8818 6.86571 90.6363 7.82023L87.984 18.0267C87.8 18.1903 86.7704 19.0767 85.6454 19.0085C84.6977 18.954 83.8045 18.2381 83.3409 17.2222C82.775 16.3768 82.2159 15.5313 81.65 14.6791C81.2545 14.0859 80.45 13.9223 79.8568 14.3177C79.2636 14.7132 79.1 15.5177 79.4954 16.1109L82.359 20.413C82.359 20.413 82.4 20.4675 82.4204 20.4948C82.85 21.2925 82.8022 22.1925 82.3181 22.7447C82.0318 23.072 81.6568 23.2015 81.4318 23.2561C80.5113 22.9084 79.4409 22.9902 78.5545 23.5765C77.1022 24.5447 76.7068 26.5014 77.675 27.9537C78.6431 29.4059 80.6 29.8013 82.0522 28.8332C82.9181 28.2537 83.409 27.3196 83.4568 26.3583C83.5522 26.2151 83.825 25.8674 84.2954 25.7242C84.8477 25.5606 85.325 25.7856 85.625 25.9287C86.1772 26.1946 86.5045 26.6037 86.6613 26.8423C87.6227 28.3559 88.584 29.8763 89.5454 31.3899C89.9409 31.9831 90.7454 32.1467 91.3386 31.7513C91.9318 31.3558 92.0954 30.5513 91.7 29.9581C91.3454 29.4263 91.2022 29.1468 90.5272 28.1923C90.125 27.6332 89.8454 27.1355 89.6681 26.8014C89.0613 25.5265 89.3 24.122 90.1659 23.3788C90.8681 22.7788 91.7477 22.8129 92.0068 22.8334L101.348 25.2606C102.302 25.5128 103.284 24.9333 103.53 23.9788L103.516 23.9856Z" stroke="white" stroke-width="1.5" stroke-miterlimit="10"/>
<path d="M39.8681 49.5734C39.8408 50.562 40.6249 51.387 41.6136 51.4143L50.9545 51.6597C51.3499 51.7279 51.9704 51.9324 52.3863 52.5324C52.6454 52.9074 52.7204 53.296 52.734 53.5824V53.9574H52.7272L52.5022 62.3162C52.4749 63.3048 53.259 64.1298 54.2477 64.157C55.2363 64.1843 56.0613 63.4002 56.0886 62.4116L56.3681 51.8711C56.5113 51.6733 57.3159 50.5757 58.4272 50.3847C59.3613 50.2211 60.3909 50.7188 61.0795 51.6052L63.2954 53.6983C63.8136 54.1892 64.6318 54.1619 65.1227 53.6437C65.6136 53.1256 65.5863 52.3074 65.0681 51.8165L61.3113 48.2712C61.3113 48.2712 61.2636 48.2235 61.2363 48.203C60.6363 47.528 60.4795 46.6349 60.8272 45.9872C61.0318 45.5985 61.3658 45.394 61.5772 45.2917C62.5522 45.4281 63.5749 45.1076 64.3045 44.3304C65.5045 43.0623 65.4431 41.0646 64.1749 39.8646C62.9068 38.6647 60.909 38.726 59.709 39.9942C58.9931 40.751 58.7272 41.7737 58.9045 42.7282C58.8159 42.9463 58.6181 43.3077 58.2295 43.5327C57.5681 43.9281 56.6136 43.7781 55.8704 43.1373L51.8272 39.1965C51.309 38.7056 50.4908 38.7329 49.9999 39.251C49.509 39.7692 49.5363 40.5873 50.0545 41.0782C50.5181 41.5146 50.7227 41.76 51.5954 42.5305C52.1136 42.9873 52.4954 43.4032 52.7477 43.6895C53.6272 44.794 53.709 46.219 53.034 47.1326C52.4886 47.8757 51.6227 48.0394 51.3636 48.0803L41.7158 47.8212C40.7272 47.7939 39.9022 48.578 39.8749 49.5666L39.8681 49.5734Z" stroke="white" stroke-width="1.5" stroke-miterlimit="10"/>
<path d="M65.2795 67.8865C65.9409 68.6228 67.0727 68.6842 67.8091 68.0296L74.7704 61.798C75.1045 61.5798 75.6977 61.2935 76.4068 61.4503C76.85 61.5458 77.1704 61.7776 77.3818 61.9753L77.6341 62.2548L83.2113 68.4864C83.8727 69.2228 85.0045 69.2841 85.7409 68.6296C86.4773 67.9751 86.5386 66.8365 85.8841 66.1002L78.8545 58.239C78.8204 57.9936 78.65 56.6505 79.3318 55.7437C79.9045 54.9869 80.9886 54.6392 82.0932 54.8096H85.1477C85.8636 54.8096 86.4432 54.2301 86.4432 53.5142C86.4432 52.7983 85.8636 52.2188 85.1477 52.2188H79.9795C79.9454 52.2188 79.9113 52.2188 79.8773 52.2188C78.9773 52.137 78.2545 51.5984 78.0568 50.8825C77.9409 50.4598 78.0432 50.0779 78.125 49.8598C78.9295 49.2871 79.4545 48.353 79.4545 47.2894C79.4545 45.544 78.0432 44.1327 76.2977 44.1327C74.5523 44.1327 73.1409 45.544 73.1409 47.2894C73.1409 48.3326 73.6454 49.253 74.4295 49.8325C74.5114 50.0575 74.6204 50.4461 74.4977 50.8825C74.2864 51.6256 73.4886 52.1711 72.5136 52.212L66.875 52.1233C66.1591 52.1233 65.5795 52.7029 65.5795 53.4187C65.5795 54.1346 66.1591 54.7142 66.875 54.7142C67.5159 54.7142 67.8295 54.7483 68.9954 54.7142C69.6841 54.6937 70.25 54.7278 70.6318 54.7687C72.0295 54.9664 73.0659 55.9482 73.2023 57.08C73.3113 57.9936 72.8 58.7095 72.6364 58.9208L65.4432 65.357C64.7068 66.0183 64.6454 67.1501 65.3 67.8865H65.2795Z" stroke="white" stroke-width="1.5" stroke-miterlimit="10"/>
<path d="M100.993 55.8459C101.845 55.3482 102.139 54.2505 101.641 53.3983L96.9432 45.3258C96.7932 44.9576 96.6363 44.3167 96.9295 43.6554C97.1136 43.2395 97.4 42.9736 97.6386 42.81L97.9659 42.6191L105.193 38.4124C106.045 37.9147 106.339 36.817 105.841 35.9647C105.343 35.1125 104.245 34.8193 103.393 35.317L94.2772 40.6214C94.0318 40.6078 92.6818 40.4987 91.9318 39.6533C91.3045 38.9442 91.1886 37.8056 91.5772 36.7556L92.1909 33.7694C92.3341 33.0671 91.8841 32.3853 91.1886 32.2421C90.4932 32.099 89.8045 32.5489 89.6613 33.2444L88.6182 38.3101C88.6182 38.3101 88.6045 38.3783 88.6045 38.4124C88.3454 39.2783 87.6704 39.8783 86.9341 39.926C86.4977 39.9533 86.1432 39.776 85.9454 39.6533C85.5432 38.7533 84.7318 38.051 83.6954 37.8397C81.9841 37.4852 80.3136 38.5897 79.9659 40.301C79.6182 42.0123 80.7159 43.6827 82.4272 44.0304C83.45 44.2418 84.4522 43.9281 85.175 43.2804C85.4068 43.2395 85.8159 43.2191 86.2182 43.4304C86.9 43.7849 87.275 44.6781 87.1182 45.6463L85.8909 51.1552C85.7477 51.8574 86.1977 52.5392 86.8932 52.6824C87.5886 52.8256 88.2772 52.3756 88.4204 51.6802C88.55 51.0529 88.6454 50.7529 88.85 49.6075C88.9659 48.9325 89.1159 48.3803 89.2318 48.0189C89.7091 46.6894 90.875 45.8712 92.0136 45.9667C92.9341 46.0417 93.5341 46.6894 93.6977 46.8871L98.5522 55.2255C99.05 56.0777 100.148 56.3709 101 55.8732L100.993 55.8459Z" stroke="white" stroke-width="1.5" stroke-miterlimit="10"/>
</g>
<path d="M26.5634 102.449C26.5634 100.968 26.9295 99.8081 27.6616 98.9702C28.3979 98.1281 29.4537 97.707 30.829 97.707C31.6331 97.707 32.2975 97.8446 32.8222 98.1196C33.3469 98.3905 33.7236 98.7629 33.9521 99.2368C34.0706 99.4823 34.0515 99.6515 33.895 99.7446L33.3935 100.037C33.2242 100.134 33.074 100.054 32.9428 99.7954C32.8032 99.5288 32.5746 99.2791 32.2573 99.0464C31.9399 98.8136 31.485 98.6973 30.8925 98.6973C29.8346 98.6973 29.0644 99.0273 28.582 99.6875C28.1038 100.343 27.8647 101.264 27.8647 102.449C27.8647 103.634 28.1038 104.556 28.582 105.216C29.0644 105.872 29.8346 106.2 30.8925 106.2C31.5019 106.2 31.9885 106.061 32.3525 105.781C32.7206 105.502 32.9872 105.21 33.1523 104.905C33.2835 104.66 33.4358 104.586 33.6093 104.683L34.1362 104.981C34.2885 105.07 34.3012 105.24 34.1743 105.489C33.9246 105.976 33.5183 106.382 32.9555 106.708C32.3927 107.03 31.6839 107.19 30.829 107.19C29.4537 107.19 28.3979 106.771 27.6616 105.934C26.9295 105.091 26.5634 103.93 26.5634 102.449ZM35.6784 103.667C35.6784 102.673 35.9408 101.852 36.4655 101.205C36.9945 100.553 37.7668 100.227 38.7824 100.227C39.798 100.227 40.5682 100.553 41.0929 101.205C41.6219 101.852 41.8864 102.673 41.8864 103.667C41.8864 104.662 41.6219 105.485 41.0929 106.137C40.5682 106.784 39.798 107.108 38.7824 107.108C37.7668 107.108 36.9945 106.784 36.4655 106.137C35.9408 105.485 35.6784 104.662 35.6784 103.667ZM36.8591 103.667C36.8591 104.556 37.0347 105.214 37.3859 105.642C37.7372 106.069 38.2026 106.283 38.7824 106.283C39.3622 106.283 39.8276 106.069 40.1789 105.642C40.5301 105.214 40.7057 104.556 40.7057 103.667C40.7057 102.779 40.5301 102.121 40.1789 101.693C39.8276 101.266 39.3622 101.052 38.7824 101.052C38.2026 101.052 37.7372 101.266 37.3859 101.693C37.0347 102.121 36.8591 102.779 36.8591 103.667ZM43.873 107C43.6825 107 43.5873 106.905 43.5873 106.714V100.621C43.5873 100.43 43.6825 100.335 43.873 100.335H44.4062C44.5966 100.335 44.6918 100.43 44.6918 100.621V101.128H44.7172C44.9923 100.824 45.2885 100.597 45.6059 100.449C45.9233 100.301 46.3189 100.227 46.7929 100.227C47.5631 100.227 48.1153 100.445 48.4496 100.881C48.7882 101.312 48.9574 101.905 48.9574 102.658V106.714C48.9574 106.905 48.8622 107 48.6718 107H48.1259C47.9355 107 47.8403 106.905 47.8403 106.714V102.963C47.8403 102.133 47.7027 101.609 47.4277 101.389C47.1526 101.164 46.8035 101.052 46.3803 101.052C45.8302 101.052 45.4133 101.217 45.1298 101.547C44.8463 101.873 44.7045 102.434 44.7045 103.229V106.714C44.7045 106.905 44.6093 107 44.4189 107H43.873ZM50.7472 106.378C50.616 106.255 50.5885 106.141 50.6647 106.035L50.9504 105.635C51.0435 105.508 51.181 105.515 51.363 105.654C51.6126 105.845 51.8898 105.997 52.1945 106.111C52.5034 106.226 52.8547 106.283 53.2482 106.283C53.481 106.283 53.6883 106.255 53.8703 106.2C54.0522 106.141 54.2109 106.033 54.3464 105.876C54.486 105.72 54.5558 105.51 54.5558 105.248C54.5558 105.096 54.522 104.952 54.4543 104.816C54.3908 104.681 54.2892 104.573 54.1496 104.493C54.0142 104.408 53.8809 104.342 53.7497 104.296C53.5339 104.215 53.318 104.15 53.1022 104.099C52.8906 104.044 52.6113 103.962 52.2643 103.852C52.0316 103.78 51.8115 103.678 51.6042 103.547C51.3968 103.411 51.2148 103.229 51.0583 103.001C50.9059 102.772 50.8298 102.457 50.8298 102.055C50.8298 101.645 50.9546 101.291 51.2043 100.995C51.4539 100.699 51.7671 100.498 52.1437 100.392C52.5203 100.282 52.8864 100.227 53.2419 100.227C53.7666 100.227 54.1877 100.288 54.505 100.411C54.8267 100.53 55.1038 100.671 55.3366 100.836C55.472 100.934 55.491 101.046 55.3937 101.173L55.1081 101.554C55.0192 101.676 54.8817 101.672 54.6955 101.541C54.5389 101.431 54.3167 101.327 54.029 101.23C53.7412 101.133 53.4894 101.084 53.2736 101.084C53.007 101.084 52.7785 101.114 52.5881 101.173C52.3976 101.232 52.2432 101.334 52.1247 101.478C52.0062 101.621 51.9469 101.791 51.9469 101.985C51.9469 102.133 51.9702 102.267 52.0168 102.385C52.0633 102.5 52.1501 102.605 52.277 102.703C52.404 102.8 52.5817 102.878 52.8102 102.938C53.1657 103.031 53.4894 103.115 53.7814 103.191C54.0776 103.268 54.3442 103.361 54.5812 103.471C54.8901 103.615 55.1271 103.773 55.2922 103.947C55.4614 104.12 55.5778 104.309 55.6413 104.512C55.7048 104.711 55.7365 104.933 55.7365 105.178C55.7365 105.631 55.6011 106.014 55.3302 106.327C55.0636 106.64 54.7653 106.85 54.4352 106.956C54.1051 107.057 53.7074 107.108 53.2419 107.108C52.6113 107.108 52.0697 107.019 51.6169 106.841C51.1683 106.659 50.8784 106.505 50.7472 106.378ZM56.9359 101.173C56.7455 101.173 56.6503 101.099 56.6503 100.951V100.557C56.6503 100.409 56.7455 100.335 56.9359 100.335H57.685V99.7637C57.685 99.679 57.7061 99.5986 57.7484 99.5225L58.1928 98.7163C58.2732 98.5682 58.3388 98.4941 58.3896 98.4941H58.6117C58.7387 98.4941 58.8022 98.5682 58.8022 98.7163V100.335H60.1542C60.3446 100.335 60.4398 100.409 60.4398 100.557V100.951C60.4398 101.099 60.3446 101.173 60.1542 101.173H58.8022V105.216C58.8022 105.661 58.8677 105.951 58.9989 106.086C59.1343 106.217 59.2952 106.283 59.4813 106.283C59.6252 106.283 59.7966 106.24 59.9955 106.156C60.1986 106.071 60.3383 105.999 60.4145 105.94C60.4906 105.881 60.5499 105.9 60.5922 105.997L60.8017 106.486C60.8355 106.57 60.8101 106.638 60.7255 106.689C60.5605 106.786 60.3192 106.882 60.0019 106.975C59.6845 107.063 59.3671 107.108 59.0497 107.108C58.6096 107.108 58.2711 106.949 58.0341 106.632C57.8013 106.314 57.685 105.866 57.685 105.286V101.173H56.9359ZM61.9694 103.667C61.9694 102.618 62.2317 101.782 62.7565 101.16C63.2812 100.538 64.0324 100.227 65.0099 100.227C65.8224 100.227 66.4953 100.513 67.0285 101.084C67.5659 101.651 67.8346 102.559 67.8346 103.807C67.8346 103.998 67.7479 104.093 67.5744 104.093H63.15C63.222 104.91 63.442 105.479 63.8102 105.8C64.1784 106.118 64.5952 106.276 65.0607 106.276C65.5516 106.276 65.9282 106.194 66.1906 106.029C66.4529 105.864 66.6455 105.701 66.7682 105.54C66.9036 105.362 67.0348 105.328 67.1618 105.438L67.5363 105.762C67.6336 105.847 67.6336 105.963 67.5363 106.111C67.4559 106.234 67.2252 106.431 66.8444 106.702C66.4677 106.972 65.8732 107.108 65.0607 107.108C64.0027 107.108 63.222 106.797 62.7184 106.175C62.2191 105.553 61.9694 104.717 61.9694 103.667ZM63.1246 103.268H66.7111C66.6941 102.675 66.5418 102.157 66.254 101.712C65.9663 101.264 65.5431 101.04 64.9845 101.04C64.4936 101.04 64.0768 101.205 63.734 101.535C63.3913 101.861 63.1881 102.438 63.1246 103.268ZM69.8466 107C69.6561 107 69.5609 106.905 69.5609 106.714V98.7925C69.5609 98.7078 69.5821 98.6274 69.6244 98.5513L70.0687 97.7451C70.1491 97.597 70.2147 97.5229 70.2655 97.5229H70.4877C70.6146 97.5229 70.6781 97.597 70.6781 97.7451V106.714C70.6781 106.905 70.5829 107 70.3925 107H69.8466ZM72.379 105.223C72.379 104.469 72.7303 103.917 73.4327 103.566C74.1394 103.215 75.1932 103.009 76.5939 102.95V102.519C76.5939 102.121 76.5029 101.778 76.3209 101.49C76.1432 101.198 75.7877 101.052 75.2545 101.052C74.916 101.052 74.6451 101.086 74.442 101.154C74.2389 101.217 74.0527 101.304 73.8834 101.414C73.7184 101.52 73.5597 101.657 73.4073 101.827C73.2931 101.954 73.1852 101.96 73.0836 101.846L72.7535 101.465C72.6604 101.359 72.6922 101.232 72.8488 101.084C73.073 100.872 73.291 100.714 73.5026 100.608C73.7142 100.502 73.9765 100.413 74.2897 100.341C74.6071 100.265 74.9287 100.227 75.2545 100.227C76.139 100.227 76.7695 100.456 77.1461 100.913C77.5227 101.365 77.7111 101.987 77.7111 102.779V106.714C77.7111 106.905 77.6158 107 77.4254 107H76.8541C76.6891 107 76.6066 106.905 76.6066 106.714V106.403H76.5939C76.2596 106.666 75.9316 106.85 75.61 106.956C75.2926 107.057 74.9371 107.108 74.5436 107.108C73.8496 107.108 73.3142 106.943 72.9376 106.613C72.5652 106.278 72.379 105.815 72.379 105.223ZM73.5343 105.248C73.5343 105.51 73.5893 105.722 73.6993 105.883C73.8094 106.039 73.9617 106.141 74.1564 106.188C74.351 106.23 74.5542 106.251 74.7657 106.251C75.0916 106.251 75.4005 106.219 75.6925 106.156C75.9845 106.092 76.285 105.925 76.5939 105.654V103.782C75.7391 103.845 75.1297 103.924 74.7657 104.017C74.4018 104.105 74.1056 104.262 73.8771 104.486C73.6486 104.706 73.5343 104.96 73.5343 105.248ZM79.4183 103.667C79.4183 102.673 79.6638 101.852 80.1546 101.205C80.6498 100.553 81.4051 100.227 82.4208 100.227C83.1063 100.227 83.6289 100.35 83.9886 100.595C84.3526 100.836 84.6149 101.084 84.7757 101.338C84.8646 101.478 84.8456 101.59 84.7186 101.674L84.3187 101.935C84.1918 102.023 84.0648 101.966 83.9379 101.763C83.8151 101.569 83.6416 101.401 83.4173 101.262C83.1973 101.122 82.8651 101.052 82.4208 101.052C81.841 101.052 81.3924 101.266 81.0751 101.693C80.7577 102.121 80.599 102.779 80.599 103.667C80.599 104.556 80.7577 105.214 81.0751 105.642C81.3924 106.069 81.841 106.283 82.4208 106.283C82.8905 106.283 83.2502 106.194 83.4999 106.016C83.7495 105.834 83.9315 105.637 84.0458 105.426C84.1558 105.227 84.2806 105.17 84.4203 105.254L84.8456 105.508C84.9725 105.584 84.9916 105.699 84.9027 105.851C84.7969 106.033 84.5557 106.289 84.1791 106.619C83.8067 106.945 83.2206 107.108 82.4208 107.108C81.4051 107.108 80.6498 106.784 80.1546 106.137C79.6638 105.485 79.4183 104.662 79.4183 103.667ZM86.8385 107C86.648 107 86.5528 106.905 86.5528 106.714V100.621C86.5528 100.43 86.648 100.335 86.8385 100.335H87.3844C87.5748 100.335 87.67 100.43 87.67 100.621V106.714C87.67 106.905 87.5748 107 87.3844 107H86.8385ZM86.8385 99.1289C86.648 99.1289 86.5528 99.0337 86.5528 98.8433V98.2974C86.5528 98.1069 86.648 98.0117 86.8385 98.0117H87.3844C87.5748 98.0117 87.67 98.1069 87.67 98.2974V98.8433C87.67 99.0337 87.5748 99.1289 87.3844 99.1289H86.8385ZM89.3709 103.667C89.3709 102.673 89.6333 101.852 90.1581 101.205C90.687 100.553 91.4593 100.227 92.4749 100.227C93.4906 100.227 94.2608 100.553 94.7855 101.205C95.3145 101.852 95.5789 102.673 95.5789 103.667C95.5789 104.662 95.3145 105.485 94.7855 106.137C94.2608 106.784 93.4906 107.108 92.4749 107.108C91.4593 107.108 90.687 106.784 90.1581 106.137C89.6333 105.485 89.3709 104.662 89.3709 103.667ZM90.5516 103.667C90.5516 104.556 90.7272 105.214 91.0785 105.642C91.4297 106.069 91.8952 106.283 92.4749 106.283C93.0547 106.283 93.5202 106.069 93.8714 105.642C94.2227 105.214 94.3983 104.556 94.3983 103.667C94.3983 102.779 94.2227 102.121 93.8714 101.693C93.5202 101.266 93.0547 101.052 92.4749 101.052C91.8952 101.052 91.4297 101.266 91.0785 101.693C90.7272 102.121 90.5516 102.779 90.5516 103.667ZM97.5655 107C97.3751 107 97.2799 106.905 97.2799 106.714V100.621C97.2799 100.43 97.3751 100.335 97.5655 100.335H98.0987C98.2891 100.335 98.3844 100.43 98.3844 100.621V101.128H98.4097C98.6848 100.824 98.981 100.597 99.2984 100.449C99.6158 100.301 100.011 100.227 100.485 100.227C101.256 100.227 101.808 100.445 102.142 100.881C102.481 101.312 102.65 101.905 102.65 102.658V106.714C102.65 106.905 102.555 107 102.364 107H101.818C101.628 107 101.533 106.905 101.533 106.714V102.963C101.533 102.133 101.395 101.609 101.12 101.389C100.845 101.164 100.496 101.052 100.073 101.052C99.5227 101.052 99.1059 101.217 98.8223 101.547C98.5388 101.873 98.397 102.434 98.397 103.229V106.714C98.397 106.905 98.3018 107 98.1114 107H97.5655ZM104.338 103.667C104.338 102.618 104.601 101.782 105.125 101.16C105.65 100.538 106.401 100.227 107.379 100.227C108.191 100.227 108.864 100.513 109.397 101.084C109.935 101.651 110.203 102.559 110.203 103.807C110.203 103.998 110.117 104.093 109.943 104.093H105.519C105.591 104.91 105.811 105.479 106.179 105.8C106.547 106.118 106.964 106.276 107.43 106.276C107.92 106.276 108.297 106.194 108.559 106.029C108.822 105.864 109.014 105.701 109.137 105.54C109.272 105.362 109.404 105.328 109.531 105.438L109.905 105.762C110.002 105.847 110.002 105.963 109.905 106.111C109.825 106.234 109.594 106.431 109.213 106.702C108.837 106.972 108.242 107.108 107.43 107.108C106.372 107.108 105.591 106.797 105.087 106.175C104.588 105.553 104.338 104.717 104.338 103.667ZM105.493 103.268H109.08C109.063 102.675 108.911 102.157 108.623 101.712C108.335 101.264 107.912 101.04 107.353 101.04C106.862 101.04 106.446 101.205 106.103 101.535C105.76 101.861 105.557 102.438 105.493 103.268ZM111.669 106.378C111.538 106.255 111.511 106.141 111.587 106.035L111.873 105.635C111.966 105.508 112.103 105.515 112.285 105.654C112.535 105.845 112.812 105.997 113.117 106.111C113.426 106.226 113.777 106.283 114.17 106.283C114.403 106.283 114.611 106.255 114.793 106.2C114.975 106.141 115.133 106.033 115.269 105.876C115.408 105.72 115.478 105.51 115.478 105.248C115.478 105.096 115.444 104.952 115.377 104.816C115.313 104.681 115.211 104.573 115.072 104.493C114.936 104.408 114.803 104.342 114.672 104.296C114.456 104.215 114.24 104.15 114.024 104.099C113.813 104.044 113.534 103.962 113.187 103.852C112.954 103.78 112.734 103.678 112.526 103.547C112.319 103.411 112.137 103.229 111.981 103.001C111.828 102.772 111.752 102.457 111.752 102.055C111.752 101.645 111.877 101.291 112.127 100.995C112.376 100.699 112.689 100.498 113.066 100.392C113.443 100.282 113.809 100.227 114.164 100.227C114.689 100.227 115.11 100.288 115.427 100.411C115.749 100.53 116.026 100.671 116.259 100.836C116.394 100.934 116.413 101.046 116.316 101.173L116.03 101.554C115.941 101.676 115.804 101.672 115.618 101.541C115.461 101.431 115.239 101.327 114.951 101.23C114.663 101.133 114.412 101.084 114.196 101.084C113.929 101.084 113.701 101.114 113.51 101.173C113.32 101.232 113.165 101.334 113.047 101.478C112.928 101.621 112.869 101.791 112.869 101.985C112.869 102.133 112.892 102.267 112.939 102.385C112.986 102.5 113.072 102.605 113.199 102.703C113.326 102.8 113.504 102.878 113.732 102.938C114.088 103.031 114.412 103.115 114.704 103.191C115 103.268 115.266 103.361 115.503 103.471C115.812 103.615 116.049 103.773 116.214 103.947C116.384 104.12 116.5 104.309 116.564 104.512C116.627 104.711 116.659 104.933 116.659 105.178C116.659 105.631 116.523 106.014 116.253 106.327C115.986 106.64 115.688 106.85 115.357 106.956C115.027 107.057 114.63 107.108 114.164 107.108C113.534 107.108 112.992 107.019 112.539 106.841C112.091 106.659 111.801 106.505 111.669 106.378ZM45.777 118.449C45.777 116.968 46.16 115.808 46.9259 114.97C47.6919 114.128 48.7562 113.707 50.1188 113.707C50.9355 113.707 51.602 113.849 52.1183 114.132C52.6346 114.412 53.0133 114.742 53.2546 115.123C53.4027 115.36 53.4005 115.531 53.2482 115.637L52.7721 115.967C52.6156 116.077 52.459 116.011 52.3024 115.77C52.1754 115.58 51.9364 115.353 51.5851 115.091C51.2339 114.828 50.7663 114.697 50.1823 114.697C49.1455 114.697 48.369 115.027 47.8527 115.688C47.3364 116.343 47.0783 117.264 47.0783 118.449C47.0783 119.634 47.3301 120.556 47.8337 121.216C48.3372 121.872 49.1413 122.2 50.2458 122.2C50.7959 122.2 51.2741 122.135 51.6803 122.003C52.0908 121.868 52.3786 121.682 52.5436 121.445V119.763H50.6584C50.4256 119.763 50.3092 119.667 50.3092 119.477V119.007C50.3092 118.817 50.4256 118.722 50.6584 118.722H53.4132C53.646 118.722 53.7624 118.817 53.7624 119.007V122.003C53.2461 122.38 52.7298 122.672 52.2135 122.879C51.6973 123.087 51.0202 123.19 50.1823 123.19C48.7858 123.19 47.7025 122.771 46.9323 121.934C46.1621 121.091 45.777 119.93 45.777 118.449ZM55.9711 123C55.7807 123 55.6854 122.905 55.6854 122.714V116.621C55.6854 116.43 55.7807 116.335 55.9711 116.335H56.5043C56.6947 116.335 56.7899 116.43 56.7899 116.621V117.382H56.8153C57.0185 117.001 57.2576 116.714 57.5326 116.519C57.8077 116.324 58.1505 116.227 58.5609 116.227C58.8318 116.227 59.0222 116.25 59.1322 116.297C59.2296 116.335 59.2655 116.398 59.2401 116.487L59.0941 117.008C59.073 117.084 59.018 117.114 58.9291 117.097C58.781 117.067 58.6413 117.052 58.5102 117.052C58.015 117.052 57.6067 117.277 57.2851 117.725C56.9634 118.169 56.8026 118.777 56.8026 119.547V122.714C56.8026 122.905 56.7074 123 56.517 123H55.9711ZM60.5158 120.677V116.621C60.5158 116.43 60.611 116.335 60.8014 116.335H61.3473C61.5377 116.335 61.6329 116.43 61.6329 116.621V120.372C61.6329 121.201 61.7705 121.728 62.0455 121.953C62.3206 122.173 62.6613 122.283 63.0675 122.283C63.6007 122.283 64.0091 122.12 64.2926 121.794C64.5761 121.464 64.7179 120.901 64.7179 120.105V116.621C64.7179 116.43 64.8131 116.335 65.0036 116.335H65.5495C65.7399 116.335 65.8351 116.43 65.8351 116.621V122.714C65.8351 122.905 65.7399 123 65.5495 123H65.0163C64.8258 123 64.7306 122.905 64.7306 122.714V122.207H64.7052C64.4302 122.511 64.1339 122.738 63.8165 122.886C63.4992 123.034 63.112 123.108 62.6549 123.108C61.9144 123.108 61.3727 122.892 61.0299 122.46C60.6871 122.025 60.5158 121.43 60.5158 120.677ZM68.1835 125.539C67.993 125.539 67.8978 125.444 67.8978 125.253V116.621C67.8978 116.43 67.993 116.335 68.1835 116.335H68.7167C68.869 116.335 68.9515 116.43 68.9642 116.621L69.0023 117.128H69.015C69.2478 116.849 69.5101 116.629 69.8021 116.468C70.0941 116.307 70.4834 116.227 70.9701 116.227C71.8165 116.227 72.4597 116.574 72.8998 117.268C73.3399 117.958 73.5599 118.758 73.5599 119.667C73.5599 120.577 73.3399 121.379 72.8998 122.073C72.4597 122.763 71.8165 123.108 70.9701 123.108C70.4834 123.108 70.0941 123.028 69.8021 122.867C69.5101 122.706 69.2478 122.486 69.015 122.207H69.0023C69.0108 122.333 69.015 122.463 69.015 122.594V125.253C69.015 125.444 68.9198 125.539 68.7294 125.539H68.1835ZM69.015 120.397C69.015 121.032 69.1653 121.506 69.4657 121.819C69.7704 122.128 70.1513 122.283 70.6083 122.283C71.2515 122.283 71.7064 122.042 71.973 121.559C72.2439 121.077 72.3793 120.446 72.3793 119.667C72.3793 118.889 72.2439 118.258 71.973 117.776C71.7064 117.293 71.2515 117.052 70.6083 117.052C70.1513 117.052 69.7704 117.209 69.4657 117.522C69.1653 117.831 69.015 118.303 69.015 118.938V120.397ZM74.9054 121.223C74.9054 120.469 75.2566 119.917 75.9591 119.566C76.6658 119.215 77.7195 119.009 79.1202 118.95V118.519C79.1202 118.121 79.0293 117.778 78.8473 117.49C78.6696 117.198 78.3141 117.052 77.7809 117.052C77.4423 117.052 77.1715 117.086 76.9684 117.154C76.7653 117.217 76.5791 117.304 76.4098 117.414C76.2448 117.52 76.0861 117.657 75.9337 117.827C75.8195 117.954 75.7115 117.96 75.61 117.846L75.2799 117.465C75.1868 117.359 75.2185 117.232 75.3751 117.084C75.5994 116.872 75.8173 116.714 76.0289 116.608C76.2405 116.502 76.5029 116.413 76.816 116.341C77.1334 116.265 77.455 116.227 77.7809 116.227C78.6653 116.227 79.2959 116.456 79.6725 116.913C80.0491 117.365 80.2374 117.987 80.2374 118.779V122.714C80.2374 122.905 80.1422 123 79.9518 123H79.3805C79.2155 123 79.1329 122.905 79.1329 122.714V122.403H79.1202C78.7859 122.666 78.458 122.85 78.1364 122.956C77.819 123.057 77.4635 123.108 77.0699 123.108C76.3759 123.108 75.8406 122.943 75.464 122.613C75.0916 122.278 74.9054 121.815 74.9054 121.223ZM76.0607 121.248C76.0607 121.51 76.1157 121.722 76.2257 121.883C76.3357 122.039 76.4881 122.141 76.6827 122.188C76.8774 122.23 77.0805 122.251 77.2921 122.251C77.618 122.251 77.9269 122.219 78.2189 122.156C78.5109 122.092 78.8113 121.925 79.1202 121.654V119.782C78.2654 119.845 77.656 119.924 77.2921 120.017C76.9282 120.105 76.632 120.262 76.4034 120.486C76.1749 120.706 76.0607 120.96 76.0607 121.248ZM82.5921 123C82.4017 123 82.3065 122.905 82.3065 122.714V114.792C82.3065 114.708 82.3277 114.627 82.37 114.551L82.8143 113.745C82.8947 113.597 82.9603 113.523 83.0111 113.523H83.2333C83.3602 113.523 83.4237 113.597 83.4237 113.745V122.714C83.4237 122.905 83.3285 123 83.138 123H82.5921ZM85.1246 119.667C85.1246 118.618 85.387 117.782 85.9117 117.16C86.4365 116.538 87.1876 116.227 88.1651 116.227C88.9776 116.227 89.6505 116.513 90.1837 117.084C90.7211 117.651 90.9898 118.559 90.9898 119.807C90.9898 119.998 90.9031 120.093 90.7296 120.093H86.3053C86.3772 120.91 86.5973 121.479 86.9654 121.8C87.3336 122.118 87.7504 122.276 88.2159 122.276C88.7068 122.276 89.0834 122.194 89.3458 122.029C89.6082 121.864 89.8007 121.701 89.9234 121.54C90.0589 121.362 90.19 121.328 90.317 121.438L90.6915 121.762C90.7888 121.847 90.7888 121.963 90.6915 122.111C90.6111 122.234 90.3805 122.431 89.9996 122.702C89.623 122.972 89.0284 123.108 88.2159 123.108C87.158 123.108 86.3772 122.797 85.8736 122.175C85.3743 121.553 85.1246 120.717 85.1246 119.667ZM86.2799 119.268H89.8663C89.8494 118.675 89.697 118.157 89.4093 117.712C89.1215 117.264 88.6983 117.04 88.1397 117.04C87.6489 117.04 87.232 117.205 86.8893 117.535C86.5465 117.861 86.3434 118.438 86.2799 119.268ZM92.4559 122.378C92.3247 122.255 92.2972 122.141 92.3734 122.035L92.659 121.635C92.7521 121.508 92.8897 121.515 93.0716 121.654C93.3213 121.845 93.5985 121.997 93.9032 122.111C94.2121 122.226 94.5633 122.283 94.9569 122.283C95.1896 122.283 95.397 122.255 95.5789 122.2C95.7609 122.141 95.9196 122.033 96.055 121.876C96.1947 121.72 96.2645 121.51 96.2645 121.248C96.2645 121.096 96.2306 120.952 96.1629 120.816C96.0995 120.681 95.9979 120.573 95.8582 120.493C95.7228 120.408 95.5895 120.342 95.4583 120.296C95.2425 120.215 95.0267 120.15 94.8109 120.099C94.5993 120.044 94.32 119.962 93.973 119.852C93.7402 119.78 93.5202 119.678 93.3128 119.547C93.1055 119.411 92.9235 119.229 92.7669 119.001C92.6146 118.772 92.5384 118.457 92.5384 118.055C92.5384 117.645 92.6633 117.291 92.9129 116.995C93.1626 116.699 93.4758 116.498 93.8524 116.392C94.229 116.282 94.5951 116.227 94.9505 116.227C95.4753 116.227 95.8963 116.288 96.2137 116.411C96.5353 116.53 96.8125 116.671 97.0453 116.836C97.1807 116.934 97.1997 117.046 97.1024 117.173L96.8167 117.554C96.7279 117.676 96.5903 117.672 96.4041 117.541C96.2476 117.431 96.0254 117.327 95.7376 117.23C95.4499 117.133 95.1981 117.084 94.9823 117.084C94.7157 117.084 94.4872 117.114 94.2967 117.173C94.1063 117.232 93.9518 117.334 93.8333 117.478C93.7149 117.621 93.6556 117.791 93.6556 117.985C93.6556 118.133 93.6789 118.267 93.7254 118.385C93.772 118.5 93.8587 118.605 93.9857 118.703C94.1126 118.8 94.2904 118.878 94.5189 118.938C94.8744 119.031 95.1981 119.115 95.4901 119.191C95.7863 119.268 96.0529 119.361 96.2899 119.471C96.5988 119.615 96.8358 119.773 97.0008 119.947C97.1701 120.12 97.2865 120.309 97.3499 120.512C97.4134 120.711 97.4452 120.933 97.4452 121.178C97.4452 121.631 97.3097 122.014 97.0389 122.327C96.7723 122.64 96.474 122.85 96.1439 122.956C95.8138 123.057 95.416 123.108 94.9505 123.108C94.32 123.108 93.7783 123.019 93.3255 122.841C92.877 122.659 92.5871 122.505 92.4559 122.378Z" fill="white"/>
<defs>
<clipPath id="clip0_164_201">
<rect width="72" height="70" fill="white" transform="translate(35)"/>
</clipPath>
</defs>
</svg>
