<svg width="129" height="112" viewBox="0 0 129 112" fill="none" xmlns="http://www.w3.org/2000/svg">
<path d="M41.0545 89.5221C41.0545 88.1549 41.3924 87.0846 42.0682 86.3112C42.7479 85.5338 43.7225 85.1451 44.992 85.1451C45.7342 85.1451 46.3475 85.2721 46.8319 85.526C47.3162 85.776 47.6639 86.1198 47.8748 86.5573C47.9842 86.7838 47.9666 86.9401 47.8221 87.026L47.3592 87.2955C47.203 87.3854 47.0643 87.3112 46.9432 87.0729C46.8143 86.8268 46.6034 86.5963 46.3104 86.3815C46.0174 86.1666 45.5975 86.0592 45.0506 86.0592C44.0741 86.0592 43.3631 86.3639 42.9178 86.9733C42.4764 87.5787 42.2557 88.4283 42.2557 89.5221C42.2557 90.6158 42.4764 91.4674 42.9178 92.0768C43.3631 92.6823 44.0741 92.985 45.0506 92.985C45.6131 92.985 46.0623 92.8561 46.3983 92.5983C46.7381 92.3405 46.9842 92.0709 47.1366 91.7897C47.2577 91.5631 47.3983 91.4948 47.5584 91.5846L48.0448 91.86C48.1854 91.942 48.1971 92.0983 48.0799 92.3287C47.8495 92.778 47.4745 93.153 46.9549 93.4537C46.4354 93.7506 45.7811 93.899 44.992 93.899C43.7225 93.899 42.7479 93.5123 42.0682 92.7389C41.3924 91.9615 41.0545 90.8893 41.0545 89.5221ZM50.066 93.7233C49.8902 93.7233 49.8023 93.6354 49.8023 93.4596V86.1471C49.8023 86.069 49.8219 85.9948 49.8609 85.9244L50.2711 85.1803C50.3453 85.0436 50.4059 84.9752 50.4527 84.9752H50.6578C50.775 84.9752 50.8336 85.0436 50.8336 85.1803V93.4596C50.8336 93.6354 50.7457 93.7233 50.5699 93.7233H50.066ZM52.4037 92.0826C52.4037 91.3873 52.7279 90.8776 53.3763 90.5533C54.0287 90.2291 55.0013 90.0397 56.2943 89.985V89.5865C56.2943 89.2194 56.2103 88.903 56.0423 88.6373C55.8783 88.3678 55.5502 88.233 55.058 88.233C54.7455 88.233 54.4955 88.2643 54.308 88.3268C54.1205 88.3854 53.9486 88.4655 53.7923 88.567C53.64 88.6647 53.4935 88.7916 53.3529 88.9479C53.2474 89.0651 53.1478 89.0709 53.0541 88.9655L52.7494 88.6139C52.6634 88.5162 52.6927 88.399 52.8373 88.2623C53.0443 88.067 53.2455 87.9205 53.4408 87.8229C53.6361 87.7252 53.8783 87.6432 54.1673 87.5768C54.4603 87.5065 54.7572 87.4713 55.058 87.4713C55.8744 87.4713 56.4564 87.6823 56.8041 88.1041C57.1517 88.5221 57.3255 89.0963 57.3255 89.8268V93.4596C57.3255 93.6354 57.2377 93.7233 57.0619 93.7233H56.5345C56.3822 93.7233 56.306 93.6354 56.306 93.4596V93.1725H56.2943C55.9857 93.4147 55.683 93.5846 55.3861 93.6823C55.0931 93.776 54.765 93.8229 54.4017 93.8229C53.7611 93.8229 53.267 93.6705 52.9193 93.3658C52.5755 93.0573 52.4037 92.6295 52.4037 92.0826ZM53.4701 92.1061C53.4701 92.3483 53.5209 92.5436 53.6224 92.692C53.724 92.8365 53.8646 92.9303 54.0443 92.9733C54.224 93.0123 54.4115 93.0319 54.6068 93.0319C54.9076 93.0319 55.1927 93.0026 55.4623 92.944C55.7318 92.8854 56.0091 92.7311 56.2943 92.4811V90.7526C55.5052 90.8112 54.9427 90.8834 54.6068 90.9694C54.2709 91.0514 53.9974 91.1959 53.7865 91.403C53.5755 91.6061 53.4701 91.8405 53.4701 92.1061ZM58.9952 93.149C58.8741 93.0358 58.8487 92.9303 58.9191 92.8326L59.1827 92.4635C59.2687 92.3463 59.3956 92.3522 59.5636 92.4811C59.7941 92.6569 60.0499 92.7975 60.3312 92.903C60.6163 93.0084 60.9405 93.0612 61.3038 93.0612C61.5187 93.0612 61.7101 93.0358 61.878 92.985C62.046 92.9303 62.1925 92.8307 62.3175 92.6862C62.4464 92.5416 62.5109 92.3483 62.5109 92.1061C62.5109 91.9655 62.4796 91.8326 62.4171 91.7076C62.3585 91.5826 62.2648 91.483 62.1359 91.4088C62.0109 91.3307 61.8878 91.2701 61.7667 91.2272C61.5675 91.153 61.3683 91.0924 61.1691 91.0455C60.9737 90.9948 60.7159 90.9186 60.3956 90.817C60.1808 90.7506 59.9777 90.6569 59.7862 90.5358C59.5948 90.4108 59.4269 90.2428 59.2823 90.0319C59.1417 89.8209 59.0714 89.5299 59.0714 89.1588C59.0714 88.7799 59.1866 88.4537 59.4171 88.1803C59.6476 87.9069 59.9366 87.7213 60.2843 87.6237C60.632 87.5221 60.9698 87.4713 61.298 87.4713C61.7823 87.4713 62.171 87.528 62.464 87.6412C62.7609 87.7506 63.0167 87.8815 63.2316 88.0338C63.3566 88.1237 63.3741 88.2272 63.2843 88.3444L63.0206 88.6959C62.9386 88.8092 62.8116 88.8053 62.6398 88.6842C62.4952 88.5826 62.2902 88.4869 62.0245 88.3971C61.7589 88.3073 61.5265 88.2623 61.3273 88.2623C61.0812 88.2623 60.8702 88.2897 60.6945 88.3444C60.5187 88.399 60.3761 88.4928 60.2667 88.6256C60.1573 88.7584 60.1027 88.9147 60.1027 89.0944C60.1027 89.2311 60.1241 89.3541 60.1671 89.4635C60.2101 89.569 60.2902 89.6666 60.4073 89.7565C60.5245 89.8463 60.6886 89.9186 60.8995 89.9733C61.2277 90.0592 61.5265 90.1373 61.796 90.2076C62.0695 90.278 62.3155 90.3639 62.5343 90.4655C62.8195 90.5983 63.0382 90.7448 63.1905 90.9049C63.3468 91.0651 63.4542 91.2389 63.5128 91.4264C63.5714 91.61 63.6007 91.8151 63.6007 92.0416C63.6007 92.4596 63.4757 92.8131 63.2257 93.1022C62.9796 93.3912 62.7042 93.5846 62.3995 93.6823C62.0948 93.776 61.7277 93.8229 61.298 93.8229C60.7159 93.8229 60.2159 93.7408 59.798 93.5768C59.3839 93.4088 59.1163 93.2662 58.9952 93.149ZM64.6727 90.6471C64.6727 89.6783 64.9149 88.9069 65.3993 88.3326C65.8837 87.7584 66.577 87.4713 67.4794 87.4713C68.2294 87.4713 68.8505 87.735 69.3427 88.2623C69.8387 88.7858 70.0868 89.6237 70.0868 90.776C70.0868 90.9518 70.0067 91.0397 69.8466 91.0397H65.7626C65.829 91.7936 66.0321 92.319 66.3719 92.6158C66.7118 92.9088 67.0966 93.0553 67.5262 93.0553C67.9794 93.0553 68.327 92.9791 68.5692 92.8268C68.8114 92.6744 68.9891 92.524 69.1024 92.3756C69.2274 92.2115 69.3485 92.1803 69.4657 92.2819L69.8114 92.5807C69.9012 92.6588 69.9012 92.7662 69.8114 92.903C69.7372 93.0162 69.5243 93.1979 69.1727 93.4479C68.8251 93.6979 68.2762 93.8229 67.5262 93.8229C66.5497 93.8229 65.829 93.5358 65.3641 92.9615C64.9032 92.3873 64.6727 91.6158 64.6727 90.6471ZM65.7391 90.278H69.0497C69.0341 89.7311 68.8934 89.2526 68.6278 88.8424C68.3622 88.4283 67.9716 88.2213 67.4559 88.2213C67.0028 88.2213 66.618 88.3737 66.3016 88.6783C65.9852 88.9791 65.7977 89.5123 65.7391 90.278ZM71.4401 93.149C71.319 93.0358 71.2936 92.9303 71.3639 92.8326L71.6276 92.4635C71.7135 92.3463 71.8405 92.3522 72.0084 92.4811C72.2389 92.6569 72.4948 92.7975 72.776 92.903C73.0612 93.0084 73.3854 93.0612 73.7487 93.0612C73.9635 93.0612 74.1549 93.0358 74.3229 92.985C74.4909 92.9303 74.6373 92.8307 74.7623 92.6862C74.8913 92.5416 74.9557 92.3483 74.9557 92.1061C74.9557 91.9655 74.9245 91.8326 74.862 91.7076C74.8034 91.5826 74.7096 91.483 74.5807 91.4088C74.4557 91.3307 74.3327 91.2701 74.2116 91.2272C74.0123 91.153 73.8131 91.0924 73.6139 91.0455C73.4186 90.9948 73.1608 90.9186 72.8405 90.817C72.6256 90.7506 72.4225 90.6569 72.2311 90.5358C72.0397 90.4108 71.8717 90.2428 71.7272 90.0319C71.5866 89.8209 71.5163 89.5299 71.5163 89.1588C71.5163 88.7799 71.6315 88.4537 71.862 88.1803C72.0924 87.9069 72.3815 87.7213 72.7291 87.6237C73.0768 87.5221 73.4147 87.4713 73.7428 87.4713C74.2272 87.4713 74.6159 87.528 74.9088 87.6412C75.2057 87.7506 75.4616 87.8815 75.6764 88.0338C75.8014 88.1237 75.819 88.2272 75.7291 88.3444L75.4655 88.6959C75.3834 88.8092 75.2565 88.8053 75.0846 88.6842C74.9401 88.5826 74.735 88.4869 74.4694 88.3971C74.2038 88.3073 73.9713 88.2623 73.7721 88.2623C73.526 88.2623 73.3151 88.2897 73.1393 88.3444C72.9635 88.399 72.8209 88.4928 72.7116 88.6256C72.6022 88.7584 72.5475 88.9147 72.5475 89.0944C72.5475 89.2311 72.569 89.3541 72.612 89.4635C72.6549 89.569 72.735 89.6666 72.8522 89.7565C72.9694 89.8463 73.1334 89.9186 73.3444 89.9733C73.6725 90.0592 73.9713 90.1373 74.2409 90.2076C74.5143 90.278 74.7604 90.3639 74.9791 90.4655C75.2643 90.5983 75.483 90.7448 75.6354 90.9049C75.7916 91.0651 75.8991 91.2389 75.9577 91.4264C76.0163 91.61 76.0455 91.8151 76.0455 92.0416C76.0455 92.4596 75.9205 92.8131 75.6705 93.1022C75.4245 93.3912 75.1491 93.5846 74.8444 93.6823C74.5397 93.776 74.1725 93.8229 73.7428 93.8229C73.1608 93.8229 72.6608 93.7408 72.2428 93.5768C71.8288 93.4088 71.5612 93.2662 71.4401 93.149ZM81.424 85.7076C81.256 85.4498 81.3087 85.3209 81.5822 85.3209H82.2384C82.4103 85.3209 82.5509 85.4166 82.6603 85.608L84.1486 88.1686C84.3127 88.4498 84.4533 88.6959 84.5705 88.9069C84.6877 89.1139 84.8009 89.3346 84.9103 89.569H84.9337C85.0431 89.3346 85.1564 89.1139 85.2736 88.9069C85.3908 88.6959 85.5314 88.4498 85.6955 88.1686L87.1837 85.608C87.2931 85.4166 87.4337 85.3209 87.6056 85.3209H88.2619C88.5353 85.3209 88.588 85.4498 88.4201 85.7076L85.4845 90.2662V93.401C85.4845 93.6158 85.3869 93.7233 85.1916 93.7233H84.6525C84.4572 93.7233 84.3595 93.6158 84.3595 93.401V90.2662L81.424 85.7076ZM44.0545 100.329C43.8397 100.329 43.7323 100.241 43.7323 100.065V99.5846C43.7323 99.4088 43.8397 99.3209 44.0545 99.3209H50.2537C50.4686 99.3209 50.576 99.4088 50.576 99.5846V100.065C50.576 100.241 50.4686 100.329 50.2537 100.329H47.7166V107.401C47.7166 107.616 47.619 107.723 47.4237 107.723H46.8846C46.6893 107.723 46.5916 107.616 46.5916 107.401V100.329H44.0545ZM50.2594 106.083C50.2594 105.387 50.5836 104.878 51.232 104.553C51.8844 104.229 52.857 104.04 54.15 103.985V103.587C54.15 103.219 54.066 102.903 53.898 102.637C53.734 102.368 53.4059 102.233 52.9137 102.233C52.6012 102.233 52.3512 102.264 52.1637 102.327C51.9762 102.385 51.8043 102.465 51.648 102.567C51.4957 102.665 51.3492 102.792 51.2086 102.948C51.1031 103.065 51.0035 103.071 50.9098 102.965L50.6051 102.614C50.5191 102.516 50.5484 102.399 50.693 102.262C50.9 102.067 51.1012 101.921 51.2965 101.823C51.4918 101.725 51.734 101.643 52.023 101.577C52.316 101.506 52.6129 101.471 52.9137 101.471C53.7301 101.471 54.3121 101.682 54.6598 102.104C55.0074 102.522 55.1813 103.096 55.1813 103.827V107.46C55.1813 107.635 55.0934 107.723 54.9176 107.723H54.3902C54.2379 107.723 54.1617 107.635 54.1617 107.46V107.172H54.15C53.8414 107.415 53.5387 107.585 53.2418 107.682C52.9488 107.776 52.6207 107.823 52.2574 107.823C51.6168 107.823 51.1227 107.671 50.775 107.366C50.4313 107.057 50.2594 106.63 50.2594 106.083ZM51.3258 106.106C51.3258 106.348 51.3766 106.544 51.4781 106.692C51.5797 106.837 51.7203 106.93 51.9 106.973C52.0797 107.012 52.2672 107.032 52.4625 107.032C52.7633 107.032 53.0484 107.003 53.318 106.944C53.5875 106.885 53.8648 106.731 54.15 106.481V104.753C53.3609 104.811 52.7984 104.883 52.4625 104.969C52.1266 105.051 51.8531 105.196 51.6422 105.403C51.4313 105.606 51.3258 105.84 51.3258 106.106ZM57.3548 107.723C57.1791 107.723 57.0912 107.635 57.0912 107.46V100.147C57.0912 100.069 57.1107 99.9948 57.1498 99.9244L57.5599 99.1803C57.6341 99.0436 57.6947 98.9752 57.7416 98.9752H57.9466C58.0638 98.9752 58.1224 99.0436 58.1224 99.1803V107.46C58.1224 107.635 58.0345 107.723 57.8587 107.723H57.3548ZM60.2902 107.723C60.1144 107.723 60.0265 107.635 60.0265 107.46V100.147C60.0265 100.069 60.046 99.9948 60.0851 99.9244L60.4952 99.1803C60.5695 99.0436 60.63 98.9752 60.6769 98.9752H60.882C60.9991 98.9752 61.0577 99.0436 61.0577 99.1803V107.46C61.0577 107.635 60.9698 107.723 60.7941 107.723H60.2902ZM62.6278 104.647C62.6278 103.678 62.87 102.907 63.3544 102.333C63.8387 101.758 64.5321 101.471 65.4345 101.471C66.1845 101.471 66.8055 101.735 67.2977 102.262C67.7938 102.786 68.0419 103.624 68.0419 104.776C68.0419 104.952 67.9618 105.04 67.8016 105.04H63.7177C63.7841 105.794 63.9872 106.319 64.327 106.616C64.6669 106.909 65.0516 107.055 65.4813 107.055C65.9345 107.055 66.2821 106.979 66.5243 106.827C66.7665 106.674 66.9442 106.524 67.0575 106.376C67.1825 106.212 67.3036 106.18 67.4208 106.282L67.7665 106.581C67.8563 106.659 67.8563 106.766 67.7665 106.903C67.6923 107.016 67.4794 107.198 67.1278 107.448C66.7802 107.698 66.2313 107.823 65.4813 107.823C64.5048 107.823 63.7841 107.536 63.3192 106.962C62.8583 106.387 62.6278 105.616 62.6278 104.647ZM63.6942 104.278H67.0048C66.9891 103.731 66.8485 103.253 66.5829 102.842C66.3173 102.428 65.9266 102.221 65.411 102.221C64.9579 102.221 64.5731 102.374 64.2567 102.678C63.9403 102.979 63.7528 103.512 63.6942 104.278ZM69.8991 107.723C69.7233 107.723 69.6354 107.635 69.6354 107.46V101.835C69.6354 101.659 69.7233 101.571 69.8991 101.571H70.3913C70.567 101.571 70.6549 101.659 70.6549 101.835V102.538H70.6784C70.8659 102.186 71.0866 101.921 71.3405 101.741C71.5944 101.561 71.9108 101.471 72.2897 101.471C72.5397 101.471 72.7155 101.493 72.817 101.536C72.9069 101.571 72.9401 101.63 72.9166 101.712L72.7819 102.192C72.7623 102.262 72.7116 102.29 72.6295 102.274C72.4928 102.247 72.3639 102.233 72.2428 102.233C71.7858 102.233 71.4088 102.44 71.112 102.854C70.8151 103.264 70.6666 103.825 70.6666 104.536V107.46C70.6666 107.635 70.5788 107.723 70.403 107.723H69.8991ZM73.7719 104.647C73.7719 103.678 74.0141 102.907 74.4984 102.333C74.9828 101.758 75.6762 101.471 76.5785 101.471C77.3285 101.471 77.9496 101.735 78.4418 102.262C78.9379 102.786 79.1859 103.624 79.1859 104.776C79.1859 104.952 79.1059 105.04 78.9457 105.04H74.8617C74.9281 105.794 75.1312 106.319 75.4711 106.616C75.8109 106.909 76.1957 107.055 76.6254 107.055C77.0785 107.055 77.4262 106.979 77.6684 106.827C77.9105 106.674 78.0883 106.524 78.2016 106.376C78.3266 106.212 78.4477 106.18 78.5648 106.282L78.9105 106.581C79.0004 106.659 79.0004 106.766 78.9105 106.903C78.8363 107.016 78.6234 107.198 78.2719 107.448C77.9242 107.698 77.3754 107.823 76.6254 107.823C75.6488 107.823 74.9281 107.536 74.4633 106.962C74.0023 106.387 73.7719 105.616 73.7719 104.647ZM74.8383 104.278H78.1488C78.1332 103.731 77.9926 103.253 77.727 102.842C77.4613 102.428 77.0707 102.221 76.5551 102.221C76.102 102.221 75.7172 102.374 75.4008 102.678C75.0844 102.979 74.8969 103.512 74.8383 104.278ZM80.5392 107.149C80.4181 107.036 80.3927 106.93 80.463 106.833L80.7267 106.464C80.8127 106.346 80.9396 106.352 81.1076 106.481C81.338 106.657 81.5939 106.797 81.8752 106.903C82.1603 107.008 82.4845 107.061 82.8478 107.061C83.0627 107.061 83.2541 107.036 83.422 106.985C83.59 106.93 83.7365 106.831 83.8615 106.686C83.9904 106.542 84.0548 106.348 84.0548 106.106C84.0548 105.965 84.0236 105.833 83.9611 105.708C83.9025 105.583 83.8087 105.483 83.6798 105.409C83.5548 105.331 83.4318 105.27 83.3107 105.227C83.1115 105.153 82.9123 105.092 82.713 105.046C82.5177 104.995 82.2599 104.919 81.9396 104.817C81.7248 104.751 81.5216 104.657 81.3302 104.536C81.1388 104.411 80.9709 104.243 80.8263 104.032C80.6857 103.821 80.6154 103.53 80.6154 103.159C80.6154 102.78 80.7306 102.454 80.9611 102.18C81.1916 101.907 81.4806 101.721 81.8283 101.624C82.1759 101.522 82.5138 101.471 82.8419 101.471C83.3263 101.471 83.715 101.528 84.008 101.641C84.3048 101.751 84.5607 101.881 84.7755 102.034C84.9005 102.124 84.9181 102.227 84.8283 102.344L84.5646 102.696C84.4826 102.809 84.3556 102.805 84.1837 102.684C84.0392 102.583 83.8341 102.487 83.5685 102.397C83.3029 102.307 83.0705 102.262 82.8712 102.262C82.6252 102.262 82.4142 102.29 82.2384 102.344C82.0627 102.399 81.9201 102.493 81.8107 102.626C81.7013 102.758 81.6466 102.915 81.6466 103.094C81.6466 103.231 81.6681 103.354 81.7111 103.464C81.7541 103.569 81.8341 103.667 81.9513 103.756C82.0685 103.846 82.2326 103.919 82.4435 103.973C82.7716 104.059 83.0705 104.137 83.34 104.208C83.6134 104.278 83.8595 104.364 84.0783 104.465C84.3634 104.598 84.5822 104.745 84.7345 104.905C84.8908 105.065 84.9982 105.239 85.0568 105.426C85.1154 105.61 85.1447 105.815 85.1447 106.042C85.1447 106.46 85.0197 106.813 84.7697 107.102C84.5236 107.391 84.2482 107.585 83.9435 107.682C83.6388 107.776 83.2716 107.823 82.8419 107.823C82.2599 107.823 81.7599 107.741 81.3419 107.577C80.9279 107.409 80.6603 107.266 80.5392 107.149Z" fill="white"/>
<g clip-path="url(#clip0_167_226)">
<path d="M75.5747 40.1971V55.8877" stroke="white" stroke-width="1.5" stroke-miterlimit="10"/>
<path d="M72.2109 26.8486L67.3369 11.2908" stroke="white" stroke-width="1.5" stroke-miterlimit="10"/>
<path d="M78.9321 25.933L83.8061 11.3438" stroke="white" stroke-width="1.5" stroke-miterlimit="10"/>
<path d="M75.5747 21.6605C77.6112 21.6605 79.2622 20.0357 79.2622 18.0314C79.2622 16.0271 77.6112 14.4023 75.5747 14.4023C73.5381 14.4023 71.8872 16.0271 71.8872 18.0314C71.8872 20.0357 73.5381 21.6605 75.5747 21.6605Z" stroke="white" stroke-width="1.5" stroke-miterlimit="10"/>
<path d="M53.7734 26.8353L48.8994 11.3438" stroke="white" stroke-width="1.5" stroke-miterlimit="10"/>
<path d="M60.4878 25.9263L65.3617 11.3438" stroke="white" stroke-width="1.5" stroke-miterlimit="10"/>
<path d="M57.1172 21.6605C59.1537 21.6605 60.8047 20.0357 60.8047 18.0314C60.8047 16.0271 59.1537 14.4023 57.1172 14.4023C55.0806 14.4023 53.4297 16.0271 53.4297 18.0314C53.4297 20.0357 55.0806 21.6605 57.1172 21.6605Z" stroke="white" stroke-width="1.5" stroke-miterlimit="10"/>
<path d="M72.2112 35.2213H60.8252" stroke="white" stroke-width="1.5" stroke-miterlimit="10"/>
<path d="M78.9321 35.2213H88.2419C90.5946 35.2213 92.5226 33.3239 92.5226 31.0084V5.71778C92.5226 3.40235 90.5946 1.50488 88.2419 1.50488H45.7583C43.4055 1.50488 41.4775 3.40235 41.4775 5.71778V31.0018C41.4775 33.3172 43.4055 35.2147 45.7583 35.2147H53.4029" stroke="white" stroke-width="1.5" stroke-miterlimit="10"/>
<path d="M72.2109 35.2213V25.8136C72.2109 25.0971 72.7974 24.5199 73.5255 24.5199H77.6107C78.3388 24.5199 78.9253 25.0971 78.9253 25.8136V35.2213" stroke="white" stroke-width="1.5" stroke-miterlimit="10"/>
<path d="M72.2109 35.2213V55.8877H75.5748H78.932V35.2213" stroke="white" stroke-width="1.5" stroke-miterlimit="10"/>
<path d="M53.4029 35.2213L49.8232 46.0355H53.7736V55.8745H57.1308H60.488V46.0355H64.0474L60.825 35.2213" stroke="white" stroke-width="1.5" stroke-miterlimit="10"/>
<path d="M53.4028 35.2213L53.7736 34.1067V25.8003C53.7736 25.0838 54.3601 24.5066 55.0882 24.5066H59.1734C59.9014 24.5066 60.4879 25.0838 60.4879 25.8003V34.1067L60.8182 35.2213" stroke="white" stroke-width="1.5" stroke-miterlimit="10"/>
<path d="M57.1172 45.2527V55.8878" stroke="white" stroke-width="1.5" stroke-miterlimit="10"/>
</g>
<defs>
<clipPath id="clip0_167_226">
<rect width="53" height="56.3069" fill="white" transform="translate(40.5 0.542847)"/>
</clipPath>
</defs>
</svg>
