<svg width="194" height="122" viewBox="0 0 194 122" fill="none" xmlns="http://www.w3.org/2000/svg">
<g clip-path="url(#clip0_164_204)">
<path d="M92.5177 29.8641C94.6433 29.8641 96.3665 28.2911 96.3665 26.3507C96.3665 24.4103 94.6433 22.8373 92.5177 22.8373C90.3921 22.8373 88.6689 24.4103 88.6689 26.3507C88.6689 28.2911 90.3921 29.8641 92.5177 29.8641Z" stroke="#EFEFEF" stroke-width="1.5" stroke-miterlimit="10"/>
<path d="M103.006 16.2822C101.742 17.9228 100.04 20.6305 99.7938 24.0858C99.1815 32.6734 108.128 37.1305 112.445 46.3133C114.632 50.9592 116.342 58.3417 112.859 69.6079" stroke="white" stroke-width="1.5" stroke-miterlimit="10"/>
<path d="M82.0689 16.2314C83.4367 17.9591 85.1543 20.6958 85.361 24.1294C85.8143 31.8096 78.3156 36.0925 74.0692 43.4387C71.1985 48.4113 68.9322 56.2947 72.28 68.853C86.1165 68.8821 99.9529 68.9111 113.797 68.9329" stroke="white" stroke-width="1.5" stroke-miterlimit="10"/>
<path d="M103.173 16.0209C103.173 17.3639 98.3783 18.4527 92.47 18.4527C86.5617 18.4527 81.7666 17.3639 81.7666 16.0209C81.7666 14.678 86.5617 13.5891 92.47 13.5891C98.3783 13.5891 103.173 14.678 103.173 16.0209Z" stroke="white" stroke-width="1.5" stroke-miterlimit="10"/>
<path d="M63.843 20.2312C63.843 20.2312 69.3458 25.5885 79.9935 25.4215" stroke="white" stroke-width="1.5" stroke-miterlimit="10"/>
<path d="M78.7051 21.7412L83.1105 25.4289L78.7051 29.1092V21.7412Z" fill="white"/>
<path d="M103.173 6.78003C101.726 7.1938 98.259 8.37704 95.5474 11.5348C91.4282 16.3258 92.3109 21.8718 92.4859 22.8373" stroke="white" stroke-width="1.5" stroke-miterlimit="10"/>
<path d="M95.1261 15.9556C97.2517 15.9556 98.9749 14.3826 98.9749 12.4421C98.9749 10.5017 97.2517 8.92871 95.1261 8.92871C93.0005 8.92871 91.2773 10.5017 91.2773 12.4421C91.2773 14.3826 93.0005 15.9556 95.1261 15.9556Z" fill="#242424" stroke="#EFEFEF" stroke-width="1.5" stroke-miterlimit="10"/>
<path d="M106.171 8.08667C108.297 8.08667 110.02 6.51366 110.02 4.57324C110.02 2.63283 108.297 1.05981 106.171 1.05981C104.046 1.05981 102.323 2.63283 102.323 4.57324C102.323 6.51366 104.046 8.08667 106.171 8.08667Z" stroke="#EFEFEF" stroke-width="1.5" stroke-miterlimit="10"/>
<path d="M92.3904 53.4056C95.4822 53.4056 97.9886 51.1176 97.9886 48.2951C97.9886 45.4727 95.4822 43.1847 92.3904 43.1847C89.2986 43.1847 86.7922 45.4727 86.7922 48.2951C86.7922 51.1176 89.2986 53.4056 92.3904 53.4056Z" stroke="#EFEFEF" stroke-width="1.5" stroke-miterlimit="10"/>
<path d="M92.5178 29.8641V43.6565" stroke="white" stroke-width="1.5" stroke-miterlimit="10"/>
<path d="M102.529 62.7481C105.621 62.7481 108.128 60.4601 108.128 57.6377C108.128 54.8152 105.621 52.5272 102.529 52.5272C99.4376 52.5272 96.9312 54.8152 96.9312 57.6377C96.9312 60.4601 99.4376 62.7481 102.529 62.7481Z" stroke="#EFEFEF" stroke-width="1.5" stroke-miterlimit="10"/>
<path d="M81.9654 62.7481C85.0572 62.7481 87.5636 60.4601 87.5636 57.6377C87.5636 54.8152 85.0572 52.5272 81.9654 52.5272C78.8736 52.5272 76.3672 54.8152 76.3672 57.6377C76.3672 60.4601 78.8736 62.7481 81.9654 62.7481Z" stroke="#EFEFEF" stroke-width="1.5" stroke-miterlimit="10"/>
<path d="M107.308 19.2754C104.482 22.3992 103.151 27.8986 110.425 33.4783" stroke="white"/>
</g>
<path d="M39.2386 102C39.027 102 38.9212 101.884 38.9212 101.651V93.2466C38.9212 93.0138 39.027 92.8975 39.2386 92.8975H39.8226C40.0342 92.8975 40.14 93.0138 40.14 93.2466V101.651C40.14 101.884 40.0342 102 39.8226 102H39.2386ZM42.6661 102C42.4757 102 42.3804 101.905 42.3804 101.714V95.6206C42.3804 95.4302 42.4757 95.335 42.6661 95.335H43.1993C43.3897 95.335 43.4849 95.4302 43.4849 95.6206V96.1284H43.5103C43.7854 95.8237 44.0816 95.5973 44.399 95.4492C44.7164 95.3011 45.1121 95.2271 45.586 95.2271C46.3562 95.2271 46.9084 95.445 47.2428 95.8809C47.5813 96.3125 47.7506 96.9049 47.7506 97.6582V101.714C47.7506 101.905 47.6553 102 47.4649 102H46.919C46.7286 102 46.6334 101.905 46.6334 101.714V97.9629C46.6334 97.1335 46.4958 96.6087 46.2208 96.3887C45.9457 96.1644 45.5966 96.0522 45.1734 96.0522C44.6233 96.0522 44.2065 96.2173 43.9229 96.5474C43.6394 96.8732 43.4976 97.4339 43.4976 98.2295V101.714C43.4976 101.905 43.4024 102 43.212 102H42.6661ZM49.4769 96.1729C49.2864 96.1729 49.1912 96.0988 49.1912 95.9507V95.5571C49.1912 95.409 49.2864 95.335 49.4769 95.335H50.2259V94.7637C50.2259 94.679 50.2471 94.5986 50.2894 94.5225L50.7337 93.7163C50.8141 93.5682 50.8797 93.4941 50.9305 93.4941H51.1527C51.2796 93.4941 51.3431 93.5682 51.3431 93.7163V95.335H52.6951C52.8856 95.335 52.9808 95.409 52.9808 95.5571V95.9507C52.9808 96.0988 52.8856 96.1729 52.6951 96.1729H51.3431V100.216C51.3431 100.661 51.4087 100.951 51.5399 101.086C51.6753 101.217 51.8361 101.283 52.0223 101.283C52.1662 101.283 52.3376 101.24 52.5364 101.156C52.7396 101.071 52.8792 100.999 52.9554 100.94C53.0316 100.881 53.0908 100.9 53.1331 100.997L53.3426 101.486C53.3765 101.57 53.3511 101.638 53.2664 101.689C53.1014 101.786 52.8602 101.882 52.5428 101.975C52.2254 102.063 51.908 102.108 51.5906 102.108C51.1505 102.108 50.812 101.949 50.575 101.632C50.3423 101.314 50.2259 100.866 50.2259 100.286V96.1729H49.4769ZM54.5103 98.6675C54.5103 97.618 54.7727 96.7822 55.2974 96.1602C55.8222 95.5381 56.5733 95.2271 57.5508 95.2271C58.3633 95.2271 59.0362 95.5127 59.5694 96.084C60.1068 96.651 60.3755 97.5588 60.3755 98.8071C60.3755 98.9976 60.2888 99.0928 60.1153 99.0928H55.691C55.7629 99.9095 55.983 100.479 56.3511 100.8C56.7193 101.118 57.1361 101.276 57.6016 101.276C58.0925 101.276 58.4691 101.194 58.7315 101.029C58.9939 100.864 59.1864 100.701 59.3091 100.54C59.4446 100.362 59.5757 100.328 59.7027 100.438L60.0772 100.762C60.1745 100.847 60.1745 100.963 60.0772 101.111C59.9968 101.234 59.7662 101.431 59.3853 101.702C59.0087 101.972 58.4141 102.108 57.6016 102.108C56.5437 102.108 55.7629 101.797 55.2593 101.175C54.76 100.553 54.5103 99.717 54.5103 98.6675ZM55.6656 98.2676H59.252C59.2351 97.6751 59.0827 97.1567 58.795 96.7124C58.5072 96.2638 58.084 96.0396 57.5255 96.0396C57.0346 96.0396 56.6177 96.2046 56.275 96.5347C55.9322 96.8605 55.7291 97.4382 55.6656 98.2676ZM62.3875 102C62.1971 102 62.1019 101.905 62.1019 101.714V95.6206C62.1019 95.4302 62.1971 95.335 62.3875 95.335H62.9207C63.1111 95.335 63.2063 95.4302 63.2063 95.6206V96.3823H63.2317C63.4349 96.0015 63.674 95.7137 63.949 95.519C64.2241 95.3244 64.5669 95.2271 64.9773 95.2271C65.2482 95.2271 65.4386 95.2503 65.5486 95.2969C65.646 95.335 65.6819 95.3984 65.6565 95.4873L65.5105 96.0078C65.4894 96.084 65.4344 96.1136 65.3455 96.0967C65.1974 96.0671 65.0577 96.0522 64.9266 96.0522C64.4314 96.0522 64.0231 96.2765 63.7015 96.7251C63.3799 97.1694 63.219 97.7767 63.219 98.5469V101.714C63.219 101.905 63.1238 102 62.9334 102H62.3875ZM66.437 95.646C66.3651 95.4386 66.4222 95.335 66.6084 95.335H67.3003C67.4357 95.335 67.531 95.4175 67.586 95.5825L68.9317 99.772C69.0417 100.115 69.1158 100.352 69.1538 100.483C69.1962 100.61 69.2343 100.769 69.2681 100.959H69.2935C69.3273 100.769 69.3633 100.61 69.4014 100.483C69.4437 100.352 69.5199 100.115 69.6299 99.772L70.9756 95.5825C71.0306 95.4175 71.1259 95.335 71.2613 95.335H71.9532C72.1394 95.335 72.1965 95.4386 72.1245 95.646L70.0425 101.613C69.9537 101.871 69.8394 102 69.6997 102H68.8619C68.7222 102 68.6079 101.871 68.5191 101.613L66.437 95.646ZM73.1018 98.6675C73.1018 97.618 73.3642 96.7822 73.8889 96.1602C74.4137 95.5381 75.1648 95.2271 76.1424 95.2271C76.9549 95.2271 77.6277 95.5127 78.1609 96.084C78.6984 96.651 78.9671 97.5588 78.9671 98.8071C78.9671 98.9976 78.8803 99.0928 78.7068 99.0928H74.2825C74.3544 99.9095 74.5745 100.479 74.9427 100.8C75.3108 101.118 75.7277 101.276 76.1931 101.276C76.684 101.276 77.0607 101.194 77.323 101.029C77.5854 100.864 77.7779 100.701 77.9007 100.54C78.0361 100.362 78.1673 100.328 78.2942 100.438L78.6687 100.762C78.7661 100.847 78.7661 100.963 78.6687 101.111C78.5883 101.234 78.3577 101.431 77.9768 101.702C77.6002 101.972 77.0056 102.108 76.1931 102.108C75.1352 102.108 74.3544 101.797 73.8509 101.175C73.3515 100.553 73.1018 99.717 73.1018 98.6675ZM74.2571 98.2676H77.8435C77.8266 97.6751 77.6743 97.1567 77.3865 96.7124C77.0987 96.2638 76.6756 96.0396 76.117 96.0396C75.6261 96.0396 75.2093 96.2046 74.8665 96.5347C74.5237 96.8605 74.3206 97.4382 74.2571 98.2676ZM80.979 102C80.7886 102 80.6934 101.905 80.6934 101.714V95.6206C80.6934 95.4302 80.7886 95.335 80.979 95.335H81.5122C81.7027 95.335 81.7979 95.4302 81.7979 95.6206V96.1284H81.8233C82.0983 95.8237 82.3945 95.5973 82.7119 95.4492C83.0293 95.3011 83.425 95.2271 83.8989 95.2271C84.6691 95.2271 85.2214 95.445 85.5557 95.8809C85.8942 96.3125 86.0635 96.9049 86.0635 97.6582V101.714C86.0635 101.905 85.9683 102 85.7778 102H85.2319C85.0415 102 84.9463 101.905 84.9463 101.714V97.9629C84.9463 97.1335 84.8088 96.6087 84.5337 96.3887C84.2586 96.1644 83.9095 96.0522 83.4863 96.0522C82.9362 96.0522 82.5194 96.2173 82.2359 96.5474C81.9523 96.8732 81.8106 97.4339 81.8106 98.2295V101.714C81.8106 101.905 81.7153 102 81.5249 102H80.979ZM87.7517 98.6675C87.7517 97.673 87.9972 96.8521 88.4881 96.2046C88.9832 95.5529 89.7385 95.2271 90.7542 95.2271C91.4397 95.2271 91.9623 95.3498 92.322 95.5952C92.686 95.8364 92.9483 96.084 93.1091 96.3379C93.198 96.4775 93.179 96.5897 93.052 96.6743L92.6521 96.9346C92.5252 97.0234 92.3982 96.9663 92.2713 96.7632C92.1485 96.5685 91.975 96.4014 91.7507 96.2617C91.5307 96.1221 91.1985 96.0522 90.7542 96.0522C90.1744 96.0522 89.7258 96.266 89.4085 96.6934C89.0911 97.1208 88.9324 97.7788 88.9324 98.6675C88.9324 99.5562 89.0911 100.214 89.4085 100.642C89.7258 101.069 90.1744 101.283 90.7542 101.283C91.2239 101.283 91.5836 101.194 91.8333 101.016C92.0829 100.834 92.2649 100.637 92.3792 100.426C92.4892 100.227 92.614 100.17 92.7537 100.254L93.179 100.508C93.3059 100.584 93.325 100.699 93.2361 100.851C93.1303 101.033 92.8891 101.289 92.5125 101.619C92.1401 101.945 91.554 102.108 90.7542 102.108C89.7385 102.108 88.9832 101.784 88.4881 101.137C87.9972 100.485 87.7517 99.6619 87.7517 98.6675ZM95.1719 102C94.9814 102 94.8862 101.905 94.8862 101.714V95.6206C94.8862 95.4302 94.9814 95.335 95.1719 95.335H95.7178C95.9082 95.335 96.0034 95.4302 96.0034 95.6206V101.714C96.0034 101.905 95.9082 102 95.7178 102H95.1719ZM95.1719 94.1289C94.9814 94.1289 94.8862 94.0337 94.8862 93.8433V93.2974C94.8862 93.1069 94.9814 93.0117 95.1719 93.0117H95.7178C95.9082 93.0117 96.0034 93.1069 96.0034 93.2974V93.8433C96.0034 94.0337 95.9082 94.1289 95.7178 94.1289H95.1719ZM97.7043 98.6675C97.7043 97.673 97.9667 96.8521 98.4914 96.2046C99.0204 95.5529 99.7927 95.2271 100.808 95.2271C101.824 95.2271 102.594 95.5529 103.119 96.2046C103.648 96.8521 103.912 97.673 103.912 98.6675C103.912 99.6619 103.648 100.485 103.119 101.137C102.594 101.784 101.824 102.108 100.808 102.108C99.7927 102.108 99.0204 101.784 98.4914 101.137C97.9667 100.485 97.7043 99.6619 97.7043 98.6675ZM98.885 98.6675C98.885 99.5562 99.0606 100.214 99.4118 100.642C99.7631 101.069 100.229 101.283 100.808 101.283C101.388 101.283 101.854 101.069 102.205 100.642C102.556 100.214 102.732 99.5562 102.732 98.6675C102.732 97.7788 102.556 97.1208 102.205 96.6934C101.854 96.266 101.388 96.0522 100.808 96.0522C100.229 96.0522 99.7631 96.266 99.4118 96.6934C99.0606 97.1208 98.885 97.7788 98.885 98.6675ZM105.899 102C105.708 102 105.613 101.905 105.613 101.714V95.6206C105.613 95.4302 105.708 95.335 105.899 95.335H106.432C106.623 95.335 106.718 95.4302 106.718 95.6206V96.1284H106.743C107.018 95.8237 107.314 95.5973 107.632 95.4492C107.949 95.3011 108.345 95.2271 108.819 95.2271C109.589 95.2271 110.141 95.445 110.476 95.8809C110.814 96.3125 110.983 96.9049 110.983 97.6582V101.714C110.983 101.905 110.888 102 110.698 102H110.152C109.961 102 109.866 101.905 109.866 101.714V97.9629C109.866 97.1335 109.729 96.6087 109.454 96.3887C109.179 96.1644 108.829 96.0522 108.406 96.0522C107.856 96.0522 107.439 96.2173 107.156 96.5474C106.872 96.8732 106.73 97.4339 106.73 98.2295V101.714C106.73 101.905 106.635 102 106.445 102H105.899ZM112.672 98.6675C112.672 97.618 112.934 96.7822 113.459 96.1602C113.983 95.5381 114.735 95.2271 115.712 95.2271C116.525 95.2271 117.197 95.5127 117.731 96.084C118.268 96.651 118.537 97.5588 118.537 98.8071C118.537 98.9976 118.45 99.0928 118.277 99.0928H113.852C113.924 99.9095 114.144 100.479 114.512 100.8C114.881 101.118 115.297 101.276 115.763 101.276C116.254 101.276 116.63 101.194 116.893 101.029C117.155 100.864 117.348 100.701 117.47 100.54C117.606 100.362 117.737 100.328 117.864 100.438L118.238 100.762C118.336 100.847 118.336 100.963 118.238 101.111C118.158 101.234 117.927 101.431 117.547 101.702C117.17 101.972 116.575 102.108 115.763 102.108C114.705 102.108 113.924 101.797 113.421 101.175C112.921 100.553 112.672 99.717 112.672 98.6675ZM113.827 98.2676H117.413C117.396 97.6751 117.244 97.1567 116.956 96.7124C116.669 96.2638 116.245 96.0396 115.687 96.0396C115.196 96.0396 114.779 96.2046 114.436 96.5347C114.093 96.8605 113.89 97.4382 113.827 98.2676ZM120.003 101.378C119.872 101.255 119.844 101.141 119.92 101.035L120.206 100.635C120.299 100.508 120.437 100.515 120.619 100.654C120.868 100.845 121.145 100.997 121.45 101.111C121.759 101.226 122.11 101.283 122.504 101.283C122.737 101.283 122.944 101.255 123.126 101.2C123.308 101.141 123.467 101.033 123.602 100.876C123.742 100.72 123.811 100.51 123.811 100.248C123.811 100.096 123.778 99.9518 123.71 99.8164C123.646 99.681 123.545 99.5731 123.405 99.4927C123.27 99.408 123.137 99.3424 123.005 99.2959C122.79 99.2155 122.574 99.1499 122.358 99.0991C122.146 99.0441 121.867 98.9616 121.52 98.8516C121.287 98.7796 121.067 98.6781 120.86 98.5469C120.652 98.4115 120.47 98.2295 120.314 98.001C120.162 97.7725 120.085 97.4572 120.085 97.0552C120.085 96.6447 120.21 96.2913 120.46 95.9951C120.71 95.6989 121.023 95.4979 121.399 95.3921C121.776 95.2821 122.142 95.2271 122.498 95.2271C123.022 95.2271 123.443 95.2884 123.761 95.4111C124.082 95.5296 124.359 95.6714 124.592 95.8364C124.728 95.9338 124.747 96.0459 124.649 96.1729L124.364 96.5537C124.275 96.6764 124.137 96.6722 123.951 96.541C123.795 96.431 123.572 96.3273 123.285 96.23C122.997 96.1326 122.745 96.084 122.529 96.084C122.263 96.084 122.034 96.1136 121.844 96.1729C121.653 96.2321 121.499 96.3337 121.38 96.4775C121.262 96.6214 121.203 96.7907 121.203 96.9854C121.203 97.1335 121.226 97.2668 121.272 97.3853C121.319 97.4995 121.406 97.6053 121.533 97.7026C121.66 97.8 121.837 97.8783 122.066 97.9375C122.421 98.0306 122.745 98.1152 123.037 98.1914C123.333 98.2676 123.6 98.3607 123.837 98.4707C124.146 98.6146 124.383 98.7733 124.548 98.9468C124.717 99.1203 124.833 99.3086 124.897 99.5117C124.96 99.7106 124.992 99.9328 124.992 100.178C124.992 100.631 124.857 101.014 124.586 101.327C124.319 101.64 124.021 101.85 123.691 101.956C123.361 102.057 122.963 102.108 122.498 102.108C121.867 102.108 121.325 102.019 120.873 101.841C120.424 101.659 120.134 101.505 120.003 101.378ZM130.787 97.4487C130.787 95.9676 131.151 94.8081 131.879 93.9702C132.611 93.1281 133.665 92.707 135.04 92.707C136.415 92.707 137.467 93.1281 138.195 93.9702C138.927 94.8081 139.293 95.9676 139.293 97.4487C139.293 98.9299 138.927 100.091 138.195 100.934C137.467 101.771 136.415 102.19 135.04 102.19C133.665 102.19 132.611 101.771 131.879 100.934C131.151 100.091 130.787 98.9299 130.787 97.4487ZM132.088 97.4487C132.088 98.6336 132.332 99.5562 132.818 100.216C133.305 100.872 134.046 101.2 135.04 101.2C136.034 101.2 136.775 100.872 137.262 100.216C137.748 99.5562 137.992 98.6336 137.992 97.4487C137.992 96.2638 137.748 95.3434 137.262 94.6875C136.775 94.0273 136.034 93.6973 135.04 93.6973C134.046 93.6973 133.305 94.0273 132.818 94.6875C132.332 95.3434 132.088 96.2638 132.088 97.4487ZM141.324 102C141.133 102 141.038 101.905 141.038 101.714V95.6206C141.038 95.4302 141.133 95.335 141.324 95.335H141.857C142.048 95.335 142.143 95.4302 142.143 95.6206V96.3823H142.168C142.371 96.0015 142.61 95.7137 142.885 95.519C143.161 95.3244 143.503 95.2271 143.914 95.2271C144.185 95.2271 144.375 95.2503 144.485 95.2969C144.582 95.335 144.618 95.3984 144.593 95.4873L144.447 96.0078C144.426 96.084 144.371 96.1136 144.282 96.0967C144.134 96.0671 143.994 96.0522 143.863 96.0522C143.368 96.0522 142.959 96.2765 142.638 96.7251C142.316 97.1694 142.155 97.7767 142.155 98.5469V101.714C142.155 101.905 142.06 102 141.87 102H141.324ZM145.519 98.6675C145.519 97.7576 145.74 96.9578 146.18 96.2681C146.62 95.5741 147.263 95.2271 148.109 95.2271C148.596 95.2271 148.985 95.3075 149.277 95.4683C149.569 95.6291 149.832 95.8491 150.064 96.1284H150.077L150.115 95.6206C150.128 95.4302 150.21 95.335 150.363 95.335H150.896C151.086 95.335 151.182 95.4302 151.182 95.6206V102.051C151.182 102.863 150.993 103.498 150.617 103.955C150.244 104.416 149.506 104.647 148.401 104.647C147.661 104.647 147.106 104.562 146.738 104.393C146.37 104.228 146.108 104.052 145.951 103.866C145.837 103.727 145.83 103.608 145.932 103.511L146.281 103.168C146.379 103.075 146.514 103.104 146.687 103.257C146.912 103.46 147.128 103.604 147.335 103.688C147.542 103.777 147.9 103.822 148.408 103.822C148.983 103.822 149.402 103.699 149.664 103.454C149.931 103.208 150.064 102.7 150.064 101.93V101.549C150.064 101.418 150.069 101.289 150.077 101.162H150.064C149.844 101.454 149.584 101.685 149.284 101.854C148.987 102.023 148.596 102.108 148.109 102.108C147.263 102.108 146.62 101.763 146.18 101.073C145.74 100.379 145.519 99.5773 145.519 98.6675ZM146.7 98.6675C146.7 99.4461 146.833 100.077 147.1 100.559C147.371 101.042 147.828 101.283 148.471 101.283C148.928 101.283 149.307 101.128 149.607 100.819C149.912 100.506 150.064 100.032 150.064 99.3975V97.9375C150.064 97.3027 149.912 96.8309 149.607 96.522C149.307 96.2088 148.928 96.0522 148.471 96.0522C147.828 96.0522 147.371 96.2935 147.1 96.7759C146.833 97.2583 146.7 97.8888 146.7 98.6675ZM153.898 102C153.708 102 153.612 101.905 153.612 101.714V100.94C153.612 100.75 153.708 100.654 153.898 100.654H154.609C154.799 100.654 154.895 100.75 154.895 100.94V101.714C154.895 101.905 154.799 102 154.609 102H153.898ZM53.9042 118C53.6927 118 53.5869 117.884 53.5869 117.651V109.247C53.5869 109.014 53.6927 108.897 53.9042 108.897H56.5703C58.0091 108.897 58.9802 109.141 59.4838 109.627C59.9874 110.11 60.2392 110.774 60.2392 111.621C60.2392 112.467 59.9874 113.133 59.4838 113.62C58.9802 114.103 58.0091 114.344 56.5703 114.344H54.8056V117.651C54.8056 117.884 54.6998 118 54.4882 118H53.9042ZM54.8056 113.303H56.5893C57.5203 113.303 58.1551 113.172 58.4936 112.909C58.8321 112.643 59.0014 112.213 59.0014 111.621C59.0014 111.028 58.8321 110.601 58.4936 110.338C58.1551 110.072 57.5203 109.938 56.5893 109.938H54.8056V113.303ZM61.61 114.667C61.61 113.618 61.8724 112.782 62.3971 112.16C62.9219 111.538 63.673 111.227 64.6506 111.227C65.4631 111.227 66.1359 111.513 66.6691 112.084C67.2066 112.651 67.4753 113.559 67.4753 114.807C67.4753 114.998 67.3885 115.093 67.215 115.093H62.7907C62.8626 115.91 63.0827 116.479 63.4509 116.8C63.819 117.118 64.2359 117.276 64.7013 117.276C65.1922 117.276 65.5689 117.194 65.8312 117.029C66.0936 116.864 66.2861 116.701 66.4089 116.54C66.5443 116.362 66.6755 116.328 66.8024 116.438L67.1769 116.762C67.2743 116.847 67.2743 116.963 67.1769 117.111C67.0965 117.234 66.8659 117.431 66.485 117.702C66.1084 117.972 65.5138 118.108 64.7013 118.108C63.6434 118.108 62.8626 117.797 62.3591 117.175C61.8597 116.553 61.61 115.717 61.61 114.667ZM62.7653 114.268H66.3517C66.3348 113.675 66.1825 113.157 65.8947 112.712C65.6069 112.264 65.1838 112.04 64.6252 112.04C64.1343 112.04 63.7175 112.205 63.3747 112.535C63.0319 112.861 62.8288 113.438 62.7653 114.268ZM69.4872 118C69.2968 118 69.2016 117.905 69.2016 117.714V111.621C69.2016 111.43 69.2968 111.335 69.4872 111.335H70.0204C70.2109 111.335 70.3061 111.43 70.3061 111.621V112.382H70.3315C70.5346 112.001 70.7737 111.714 71.0488 111.519C71.3238 111.324 71.6666 111.227 72.0771 111.227C72.3479 111.227 72.5383 111.25 72.6484 111.297C72.7457 111.335 72.7817 111.398 72.7563 111.487L72.6103 112.008C72.5891 112.084 72.5341 112.114 72.4452 112.097C72.2971 112.067 72.1575 112.052 72.0263 112.052C71.5312 112.052 71.1228 112.277 70.8012 112.725C70.4796 113.169 70.3188 113.777 70.3188 114.547V117.714C70.3188 117.905 70.2236 118 70.0331 118H69.4872ZM73.7843 117.378C73.6532 117.255 73.6256 117.141 73.7018 117.035L73.9875 116.635C74.0806 116.508 74.2181 116.515 74.4001 116.654C74.6497 116.845 74.9269 116.997 75.2316 117.111C75.5405 117.226 75.8918 117.283 76.2853 117.283C76.5181 117.283 76.7254 117.255 76.9074 117.2C77.0894 117.141 77.248 117.033 77.3835 116.876C77.5231 116.72 77.5929 116.51 77.5929 116.248C77.5929 116.096 77.5591 115.952 77.4914 115.816C77.4279 115.681 77.3263 115.573 77.1867 115.493C77.0513 115.408 76.918 115.342 76.7868 115.296C76.571 115.215 76.3551 115.15 76.1393 115.099C75.9277 115.044 75.6484 114.962 75.3014 114.852C75.0687 114.78 74.8486 114.678 74.6413 114.547C74.4339 114.411 74.252 114.229 74.0954 114.001C73.943 113.772 73.8669 113.457 73.8669 113.055C73.8669 112.645 73.9917 112.291 74.2414 111.995C74.491 111.699 74.8042 111.498 75.1808 111.392C75.5575 111.282 75.9235 111.227 76.279 111.227C76.8037 111.227 77.2248 111.288 77.5422 111.411C77.8638 111.53 78.1409 111.671 78.3737 111.836C78.5091 111.934 78.5282 112.046 78.4308 112.173L78.1452 112.554C78.0563 112.676 77.9188 112.672 77.7326 112.541C77.576 112.431 77.3538 112.327 77.0661 112.23C76.7783 112.133 76.5265 112.084 76.3107 112.084C76.0441 112.084 75.8156 112.114 75.6252 112.173C75.4347 112.232 75.2803 112.334 75.1618 112.478C75.0433 112.621 74.984 112.791 74.984 112.985C74.984 113.133 75.0073 113.267 75.0539 113.385C75.1004 113.5 75.1872 113.605 75.3141 113.703C75.4411 113.8 75.6188 113.878 75.8473 113.938C76.2028 114.031 76.5265 114.115 76.8185 114.191C77.1147 114.268 77.3813 114.361 77.6183 114.471C77.9272 114.615 78.1642 114.773 78.3293 114.947C78.4985 115.12 78.6149 115.309 78.6784 115.512C78.7419 115.711 78.7736 115.933 78.7736 116.178C78.7736 116.631 78.6382 117.014 78.3673 117.327C78.1007 117.64 77.8024 117.85 77.4723 117.956C77.1423 118.057 76.7445 118.108 76.279 118.108C75.6484 118.108 75.1068 118.019 74.654 117.841C74.2054 117.659 73.9155 117.505 73.7843 117.378ZM79.935 114.667C79.935 113.673 80.1973 112.852 80.7221 112.205C81.251 111.553 82.0233 111.227 83.039 111.227C84.0546 111.227 84.8248 111.553 85.3495 112.205C85.8785 112.852 86.143 113.673 86.143 114.667C86.143 115.662 85.8785 116.485 85.3495 117.137C84.8248 117.784 84.0546 118.108 83.039 118.108C82.0233 118.108 81.251 117.784 80.7221 117.137C80.1973 116.485 79.935 115.662 79.935 114.667ZM81.1156 114.667C81.1156 115.556 81.2912 116.214 81.6425 116.642C81.9937 117.069 82.4592 117.283 83.039 117.283C83.6187 117.283 84.0842 117.069 84.4355 116.642C84.7867 116.214 84.9623 115.556 84.9623 114.667C84.9623 113.779 84.7867 113.121 84.4355 112.693C84.0842 112.266 83.6187 112.052 83.039 112.052C82.4592 112.052 81.9937 112.266 81.6425 112.693C81.2912 113.121 81.1156 113.779 81.1156 114.667ZM88.1295 118C87.9391 118 87.8439 117.905 87.8439 117.714V111.621C87.8439 111.43 87.9391 111.335 88.1295 111.335H88.6627C88.8532 111.335 88.9484 111.43 88.9484 111.621V112.128H88.9738C89.2488 111.824 89.5451 111.597 89.8624 111.449C90.1798 111.301 90.5755 111.227 91.0495 111.227C91.8196 111.227 92.3719 111.445 92.7062 111.881C93.0447 112.312 93.214 112.905 93.214 113.658V117.714C93.214 117.905 93.1188 118 92.9284 118H92.3825C92.192 118 92.0968 117.905 92.0968 117.714V113.963C92.0968 113.133 91.9593 112.609 91.6842 112.389C91.4092 112.164 91.06 112.052 90.6369 112.052C90.0867 112.052 89.6699 112.217 89.3864 112.547C89.1028 112.873 88.9611 113.434 88.9611 114.229V117.714C88.9611 117.905 88.8659 118 88.6754 118H88.1295ZM94.9022 116.223C94.9022 115.469 95.2535 114.917 95.9559 114.566C96.6626 114.215 97.7164 114.009 99.1171 113.95V113.519C99.1171 113.121 99.0261 112.778 98.8441 112.49C98.6664 112.198 98.3109 112.052 97.7777 112.052C97.4392 112.052 97.1683 112.086 96.9652 112.154C96.7621 112.217 96.5759 112.304 96.4066 112.414C96.2416 112.52 96.0829 112.657 95.9305 112.827C95.8163 112.954 95.7084 112.96 95.6068 112.846L95.2767 112.465C95.1836 112.359 95.2154 112.232 95.372 112.084C95.5962 111.872 95.8142 111.714 96.0258 111.608C96.2374 111.502 96.4997 111.413 96.8129 111.341C97.1303 111.265 97.4519 111.227 97.7777 111.227C98.6622 111.227 99.2927 111.456 99.6693 111.913C100.046 112.365 100.234 112.987 100.234 113.779V117.714C100.234 117.905 100.139 118 99.9486 118H99.3773C99.2123 118 99.1298 117.905 99.1298 117.714V117.403H99.1171C98.7828 117.666 98.4548 117.85 98.1332 117.956C97.8158 118.057 97.4603 118.108 97.0668 118.108C96.3728 118.108 95.8375 117.943 95.4608 117.613C95.0884 117.278 94.9022 116.815 94.9022 116.223ZM96.0575 116.248C96.0575 116.51 96.1125 116.722 96.2225 116.883C96.3326 117.039 96.4849 117.141 96.6796 117.188C96.8742 117.23 97.0774 117.251 97.2889 117.251C97.6148 117.251 97.9237 117.219 98.2157 117.156C98.5077 117.092 98.8082 116.925 99.1171 116.654V114.782C98.2623 114.845 97.6529 114.924 97.2889 115.017C96.925 115.105 96.6288 115.262 96.4003 115.486C96.1718 115.706 96.0575 115.96 96.0575 116.248ZM102.589 118C102.399 118 102.303 117.905 102.303 117.714V109.792C102.303 109.708 102.325 109.627 102.367 109.551L102.811 108.745C102.892 108.597 102.957 108.523 103.008 108.523H103.23C103.357 108.523 103.421 108.597 103.421 108.745V117.714C103.421 117.905 103.325 118 103.135 118H102.589ZM105.769 118C105.578 118 105.483 117.905 105.483 117.714V111.621C105.483 111.43 105.578 111.335 105.769 111.335H106.315C106.505 111.335 106.6 111.43 106.6 111.621V117.714C106.6 117.905 106.505 118 106.315 118H105.769ZM105.769 110.129C105.578 110.129 105.483 110.034 105.483 109.843V109.297C105.483 109.107 105.578 109.012 105.769 109.012H106.315C106.505 109.012 106.6 109.107 106.6 109.297V109.843C106.6 110.034 106.505 110.129 106.315 110.129H105.769ZM108.397 118C108.206 118 108.111 117.926 108.111 117.778V117.454C108.111 117.31 108.185 117.141 108.333 116.946L112.002 112.173V112.16C111.875 112.169 111.748 112.173 111.621 112.173H108.549C108.358 112.173 108.263 112.099 108.263 111.951V111.557C108.263 111.409 108.358 111.335 108.549 111.335H113.005C113.195 111.335 113.291 111.409 113.291 111.557V111.855C113.291 111.982 113.212 112.147 113.056 112.351L109.361 117.162V117.175C109.488 117.166 109.615 117.162 109.742 117.162H113.157C113.348 117.162 113.443 117.236 113.443 117.384V117.778C113.443 117.926 113.348 118 113.157 118H108.397ZM114.592 116.223C114.592 115.469 114.943 114.917 115.645 114.566C116.352 114.215 117.406 114.009 118.806 113.95V113.519C118.806 113.121 118.716 112.778 118.534 112.49C118.356 112.198 118 112.052 117.467 112.052C117.129 112.052 116.858 112.086 116.655 112.154C116.452 112.217 116.265 112.304 116.096 112.414C115.931 112.52 115.772 112.657 115.62 112.827C115.506 112.954 115.398 112.96 115.296 112.846L114.966 112.465C114.873 112.359 114.905 112.232 115.061 112.084C115.286 111.872 115.504 111.714 115.715 111.608C115.927 111.502 116.189 111.413 116.502 111.341C116.82 111.265 117.141 111.227 117.467 111.227C118.352 111.227 118.982 111.456 119.359 111.913C119.735 112.365 119.924 112.987 119.924 113.779V117.714C119.924 117.905 119.828 118 119.638 118H119.067C118.902 118 118.819 117.905 118.819 117.714V117.403H118.806C118.472 117.666 118.144 117.85 117.823 117.956C117.505 118.057 117.15 118.108 116.756 118.108C116.062 118.108 115.527 117.943 115.15 117.613C114.778 117.278 114.592 116.815 114.592 116.223ZM115.747 116.248C115.747 116.51 115.802 116.722 115.912 116.883C116.022 117.039 116.174 117.141 116.369 117.188C116.564 117.23 116.767 117.251 116.978 117.251C117.304 117.251 117.613 117.219 117.905 117.156C118.197 117.092 118.498 116.925 118.806 116.654V114.782C117.952 114.845 117.342 114.924 116.978 115.017C116.614 115.105 116.318 115.262 116.09 115.486C115.861 115.706 115.747 115.96 115.747 116.248ZM121.631 114.667C121.631 113.758 121.851 112.958 122.291 112.268C122.731 111.574 123.374 111.227 124.221 111.227C124.707 111.227 125.097 111.307 125.389 111.468C125.681 111.629 125.943 111.849 126.176 112.128H126.189C126.18 112.001 126.176 111.872 126.176 111.741V108.917C126.176 108.726 126.271 108.631 126.462 108.631H127.007C127.198 108.631 127.293 108.726 127.293 108.917V117.714C127.293 117.905 127.198 118 127.007 118H126.474C126.322 118 126.239 117.905 126.227 117.714L126.189 117.207H126.176C125.943 117.486 125.681 117.706 125.389 117.867C125.097 118.028 124.707 118.108 124.221 118.108C123.374 118.108 122.731 117.763 122.291 117.073C121.851 116.379 121.631 115.577 121.631 114.667ZM122.812 114.667C122.812 115.446 122.945 116.077 123.212 116.559C123.482 117.042 123.939 117.283 124.583 117.283C125.04 117.283 125.418 117.128 125.719 116.819C126.024 116.506 126.176 116.032 126.176 115.397V113.938C126.176 113.303 126.024 112.831 125.719 112.522C125.418 112.209 125.04 112.052 124.583 112.052C123.939 112.052 123.482 112.293 123.212 112.776C122.945 113.258 122.812 113.889 122.812 114.667ZM129 116.223C129 115.469 129.352 114.917 130.054 114.566C130.761 114.215 131.814 114.009 133.215 113.95V113.519C133.215 113.121 133.124 112.778 132.942 112.49C132.764 112.198 132.409 112.052 131.876 112.052C131.537 112.052 131.266 112.086 131.063 112.154C130.86 112.217 130.674 112.304 130.505 112.414C130.34 112.52 130.181 112.657 130.029 112.827C129.914 112.954 129.806 112.96 129.705 112.846L129.375 112.465C129.282 112.359 129.313 112.232 129.47 112.084C129.694 111.872 129.912 111.714 130.124 111.608C130.335 111.502 130.598 111.413 130.911 111.341C131.228 111.265 131.55 111.227 131.876 111.227C132.76 111.227 133.391 111.456 133.767 111.913C134.144 112.365 134.332 112.987 134.332 113.779V117.714C134.332 117.905 134.237 118 134.047 118H133.475C133.31 118 133.228 117.905 133.228 117.714V117.403H133.215C132.881 117.666 132.553 117.85 132.231 117.956C131.914 118.057 131.558 118.108 131.165 118.108C130.471 118.108 129.936 117.943 129.559 117.613C129.187 117.278 129 116.815 129 116.223ZM130.156 116.248C130.156 116.51 130.211 116.722 130.321 116.883C130.431 117.039 130.583 117.141 130.778 117.188C130.972 117.23 131.175 117.251 131.387 117.251C131.713 117.251 132.022 117.219 132.314 117.156C132.606 117.092 132.906 116.925 133.215 116.654V114.782C132.36 114.845 131.751 114.924 131.387 115.017C131.023 115.105 130.727 115.262 130.498 115.486C130.27 115.706 130.156 115.96 130.156 116.248ZM136.141 117.378C136.01 117.255 135.982 117.141 136.059 117.035L136.344 116.635C136.437 116.508 136.575 116.515 136.757 116.654C137.007 116.845 137.284 116.997 137.588 117.111C137.897 117.226 138.249 117.283 138.642 117.283C138.875 117.283 139.082 117.255 139.264 117.2C139.446 117.141 139.605 117.033 139.74 116.876C139.88 116.72 139.95 116.51 139.95 116.248C139.95 116.096 139.916 115.952 139.848 115.816C139.785 115.681 139.683 115.573 139.544 115.493C139.408 115.408 139.275 115.342 139.144 115.296C138.928 115.215 138.712 115.15 138.496 115.099C138.285 115.044 138.005 114.962 137.658 114.852C137.426 114.78 137.205 114.678 136.998 114.547C136.791 114.411 136.609 114.229 136.452 114.001C136.3 113.772 136.224 113.457 136.224 113.055C136.224 112.645 136.349 112.291 136.598 111.995C136.848 111.699 137.161 111.498 137.538 111.392C137.914 111.282 138.28 111.227 138.636 111.227C139.161 111.227 139.582 111.288 139.899 111.411C140.221 111.53 140.498 111.671 140.731 111.836C140.866 111.934 140.885 112.046 140.788 112.173L140.502 112.554C140.413 112.676 140.276 112.672 140.089 112.541C139.933 112.431 139.711 112.327 139.423 112.23C139.135 112.133 138.883 112.084 138.668 112.084C138.401 112.084 138.172 112.114 137.982 112.173C137.792 112.232 137.637 112.334 137.519 112.478C137.4 112.621 137.341 112.791 137.341 112.985C137.341 113.133 137.364 113.267 137.411 113.385C137.457 113.5 137.544 113.605 137.671 113.703C137.798 113.8 137.976 113.878 138.204 113.938C138.56 114.031 138.883 114.115 139.175 114.191C139.472 114.268 139.738 114.361 139.975 114.471C140.284 114.615 140.521 114.773 140.686 114.947C140.855 115.12 140.972 115.309 141.035 115.512C141.099 115.711 141.13 115.933 141.13 116.178C141.13 116.631 140.995 117.014 140.724 117.327C140.458 117.64 140.159 117.85 139.829 117.956C139.499 118.057 139.101 118.108 138.636 118.108C138.005 118.108 137.464 118.019 137.011 117.841C136.562 117.659 136.272 117.505 136.141 117.378Z" fill="white"/>
<defs>
<clipPath id="clip0_164_204">
<rect width="53" height="70" fill="white" transform="translate(63)"/>
</clipPath>
</defs>
</svg>
