<svg width="189" height="123" viewBox="0 0 189 123" fill="none" xmlns="http://www.w3.org/2000/svg">
<path d="M104 49L104 61" stroke="white" stroke-width="1.5" stroke-miterlimit="10"/>
<path d="M100.096 31.3014L94.3943 12.7889" stroke="white" stroke-width="1.5" stroke-miterlimit="10"/>
<path d="M107.958 30.212L113.66 12.8522" stroke="white" stroke-width="1.5" stroke-miterlimit="10"/>
<path d="M104.031 25.128C106.413 25.128 108.345 23.1946 108.345 20.8097C108.345 18.4248 106.413 16.4915 104.031 16.4915C101.649 16.4915 99.7173 18.4248 99.7173 20.8097C99.7173 23.1946 101.649 25.128 104.031 25.128Z" stroke="white" stroke-width="1.5" stroke-miterlimit="10"/>
<path d="M78.5275 31.2857L72.8259 12.8522" stroke="white" stroke-width="1.5" stroke-miterlimit="10"/>
<path d="M86.3821 30.2041L92.0837 12.8522" stroke="white" stroke-width="1.5" stroke-miterlimit="10"/>
<path d="M82.4391 25.128C84.8215 25.128 86.7528 23.1946 86.7528 20.8097C86.7528 18.4248 84.8215 16.4915 82.4391 16.4915C80.0568 16.4915 78.1255 18.4248 78.1255 20.8097C78.1255 23.1946 80.0568 25.128 82.4391 25.128Z" stroke="white" stroke-width="1.5" stroke-miterlimit="10"/>
<path d="M100.096 38.254H86.7764" stroke="white" stroke-width="1.5" stroke-miterlimit="10"/>
<path d="M107.958 38.2539H118.849C121.601 38.2539 123.857 36.1655 123.857 33.6171V5.78149C123.857 3.23306 121.601 1.14465 118.849 1.14465H69.1512C66.399 1.14465 64.1436 3.23306 64.1436 5.78149V33.6098C64.1436 36.1582 66.399 38.2466 69.1512 38.2466H78.0939" stroke="white" stroke-width="1.5" stroke-miterlimit="10"/>
<path d="M100.096 38.2539V27.8995C100.096 27.1109 100.782 26.4756 101.634 26.4756H106.413C107.264 26.4756 107.95 27.1109 107.95 27.8995V38.2539" stroke="white" stroke-width="1.5" stroke-miterlimit="10"/>
<path d="M100.096 38.254V61.0001H104.031H107.958V38.254" stroke="white" stroke-width="1.5" stroke-miterlimit="10"/>
<path d="M78.094 38.254L73.9065 50.1565H78.5277V60.9855H82.455H86.3822V50.1565H90.546L86.7765 38.254" stroke="white" stroke-width="1.5" stroke-miterlimit="10"/>
<path d="M78.094 38.254L78.5277 37.0272V27.885C78.5277 27.0963 79.2138 26.4611 80.0655 26.4611H84.8444C85.6961 26.4611 86.3822 27.0963 86.3822 27.885V37.0272L86.7686 38.254" stroke="white" stroke-width="1.5" stroke-miterlimit="10"/>
<path d="M82.439 49.2948V61.0001" stroke="white" stroke-width="1.5" stroke-miterlimit="10"/>
<path d="M37.6463 94.9893C37.4136 94.9893 37.2972 94.894 37.2972 94.7036V94.1831C37.2972 93.9927 37.4136 93.8975 37.6463 93.8975H44.3621C44.5949 93.8975 44.7113 93.9927 44.7113 94.1831V94.7036C44.7113 94.894 44.5949 94.9893 44.3621 94.9893H41.6136V102.651C41.6136 102.884 41.5078 103 41.2962 103H40.7122C40.5007 103 40.3949 102.884 40.3949 102.651V94.9893H37.6463ZM44.3682 101.223C44.3682 100.469 44.7195 99.9172 45.422 99.5659C46.1287 99.2147 47.1824 99.0094 48.5831 98.9502V98.5186C48.5831 98.1208 48.4921 97.778 48.3101 97.4902C48.1324 97.1982 47.7769 97.0522 47.2437 97.0522C46.9052 97.0522 46.6344 97.0861 46.4312 97.1538C46.2281 97.2173 46.0419 97.304 45.8726 97.4141C45.7076 97.5199 45.5489 97.6574 45.3966 97.8267C45.2823 97.9536 45.1744 97.96 45.0728 97.8457L44.7428 97.4648C44.6497 97.359 44.6814 97.2321 44.838 97.084C45.0623 96.8724 45.2802 96.7137 45.4918 96.6079C45.7034 96.5021 45.9657 96.4132 46.2789 96.3413C46.5963 96.2651 46.9179 96.2271 47.2437 96.2271C48.1282 96.2271 48.7587 96.4556 49.1353 96.9126C49.512 97.3654 49.7003 97.9875 49.7003 98.7788V102.714C49.7003 102.905 49.6051 103 49.4146 103H48.8433C48.6783 103 48.5958 102.905 48.5958 102.714V102.403H48.5831C48.2488 102.666 47.9208 102.85 47.5992 102.956C47.2818 103.057 46.9263 103.108 46.5328 103.108C45.8388 103.108 45.3035 102.943 44.9268 102.613C44.5544 102.278 44.3682 101.815 44.3682 101.223ZM45.5235 101.248C45.5235 101.51 45.5785 101.722 45.6886 101.883C45.7986 102.039 45.9509 102.141 46.1456 102.188C46.3402 102.23 46.5434 102.251 46.755 102.251C47.0808 102.251 47.3897 102.219 47.6817 102.156C47.9737 102.092 48.2742 101.925 48.5831 101.654V99.7817C47.7283 99.8452 47.1189 99.9235 46.755 100.017C46.391 100.105 46.0948 100.262 45.8663 100.486C45.6378 100.706 45.5235 100.96 45.5235 101.248ZM52.055 103C51.8646 103 51.7694 102.905 51.7694 102.714V94.7925C51.7694 94.7078 51.7905 94.6274 51.8328 94.5513L52.2772 93.7451C52.3576 93.597 52.4232 93.5229 52.4739 93.5229H52.6961C52.8231 93.5229 52.8865 93.597 52.8865 93.7451V102.714C52.8865 102.905 52.7913 103 52.6009 103H52.055ZM55.2349 103C55.0445 103 54.9493 102.905 54.9493 102.714V94.7925C54.9493 94.7078 54.9704 94.6274 55.0128 94.5513L55.4571 93.7451C55.5375 93.597 55.6031 93.5229 55.6539 93.5229H55.876C56.003 93.5229 56.0665 93.597 56.0665 93.7451V102.714C56.0665 102.905 55.9713 103 55.7808 103H55.2349ZM57.7674 99.6675C57.7674 98.618 58.0298 97.7822 58.5545 97.1602C59.0792 96.5381 59.8304 96.2271 60.8079 96.2271C61.6204 96.2271 62.2933 96.5127 62.8265 97.084C63.3639 97.651 63.6326 98.5588 63.6326 99.8071C63.6326 99.9976 63.5459 100.093 63.3724 100.093H58.948C59.02 100.91 59.24 101.479 59.6082 101.8C59.9764 102.118 60.3932 102.276 60.8587 102.276C61.3496 102.276 61.7262 102.194 61.9886 102.029C62.2509 101.864 62.4435 101.701 62.5662 101.54C62.7016 101.362 62.8328 101.328 62.9598 101.438L63.3343 101.762C63.4316 101.847 63.4316 101.963 63.3343 102.111C63.2539 102.234 63.0232 102.431 62.6424 102.702C62.2658 102.972 61.6712 103.108 60.8587 103.108C59.8007 103.108 59.02 102.797 58.5164 102.175C58.0171 101.553 57.7674 100.717 57.7674 99.6675ZM58.9227 99.2676H62.5091C62.4922 98.6751 62.3398 98.1567 62.0521 97.7124C61.7643 97.2638 61.3411 97.0396 60.7825 97.0396C60.2916 97.0396 59.8748 97.2046 59.532 97.5347C59.1893 97.8605 58.9861 98.4382 58.9227 99.2676ZM65.6446 103C65.4541 103 65.3589 102.905 65.3589 102.714V96.6206C65.3589 96.4302 65.4541 96.335 65.6446 96.335H66.1778C66.3682 96.335 66.4634 96.4302 66.4634 96.6206V97.3823H66.4888C66.6919 97.0015 66.931 96.7137 67.2061 96.519C67.4812 96.3244 67.8239 96.2271 68.2344 96.2271C68.5052 96.2271 68.6957 96.2503 68.8057 96.2969C68.903 96.335 68.939 96.3984 68.9136 96.4873L68.7676 97.0078C68.7465 97.084 68.6914 97.1136 68.6026 97.0967C68.4545 97.0671 68.3148 97.0522 68.1836 97.0522C67.6885 97.0522 67.2801 97.2765 66.9585 97.7251C66.6369 98.1694 66.4761 98.7767 66.4761 99.5469V102.714C66.4761 102.905 66.3809 103 66.1905 103H65.6446ZM69.8401 99.6675C69.8401 98.618 70.1025 97.7822 70.6272 97.1602C71.152 96.5381 71.9031 96.2271 72.8806 96.2271C73.6931 96.2271 74.366 96.5127 74.8992 97.084C75.4366 97.651 75.7054 98.5588 75.7054 99.8071C75.7054 99.9976 75.6186 100.093 75.4451 100.093H71.0208C71.0927 100.91 71.3128 101.479 71.6809 101.8C72.0491 102.118 72.4659 102.276 72.9314 102.276C73.4223 102.276 73.7989 102.194 74.0613 102.029C74.3237 101.864 74.5162 101.701 74.6389 101.54C74.7744 101.362 74.9055 101.328 75.0325 101.438L75.407 101.762C75.5043 101.847 75.5043 101.963 75.407 102.111C75.3266 102.234 75.096 102.431 74.7151 102.702C74.3385 102.972 73.7439 103.108 72.9314 103.108C71.8735 103.108 71.0927 102.797 70.5891 102.175C70.0898 101.553 69.8401 100.717 69.8401 99.6675ZM70.9954 99.2676H74.5818C74.5649 98.6751 74.4125 98.1567 74.1248 97.7124C73.837 97.2638 73.4138 97.0396 72.8553 97.0396C72.3644 97.0396 71.9475 97.2046 71.6048 97.5347C71.262 97.8605 71.0589 98.4382 70.9954 99.2676ZM77.1714 102.378C77.0402 102.255 77.0127 102.141 77.0889 102.035L77.3745 101.635C77.4676 101.508 77.6052 101.515 77.7871 101.654C78.0368 101.845 78.314 101.997 78.6187 102.111C78.9276 102.226 79.2788 102.283 79.6724 102.283C79.9051 102.283 80.1125 102.255 80.2944 102.2C80.4764 102.141 80.6351 102.033 80.7705 101.876C80.9102 101.72 80.98 101.51 80.98 101.248C80.98 101.096 80.9461 100.952 80.8784 100.816C80.815 100.681 80.7134 100.573 80.5737 100.493C80.4383 100.408 80.305 100.342 80.1738 100.296C79.958 100.215 79.7422 100.15 79.5264 100.099C79.3148 100.044 79.0355 99.9616 78.6885 99.8516C78.4557 99.7796 78.2357 99.6781 78.0283 99.5469C77.821 99.4115 77.639 99.2295 77.4824 99.001C77.3301 98.7725 77.2539 98.4572 77.2539 98.0552C77.2539 97.6447 77.3788 97.2913 77.6284 96.9951C77.8781 96.6989 78.1913 96.4979 78.5679 96.3921C78.9445 96.2821 79.3106 96.2271 79.666 96.2271C80.1908 96.2271 80.6118 96.2884 80.9292 96.4111C81.2508 96.5296 81.528 96.6714 81.7608 96.8364C81.8962 96.9338 81.9152 97.0459 81.8179 97.1729L81.5322 97.5537C81.4434 97.6764 81.3058 97.6722 81.1196 97.541C80.9631 97.431 80.7409 97.3273 80.4531 97.23C80.1654 97.1326 79.9136 97.084 79.6978 97.084C79.4312 97.084 79.2027 97.1136 79.0122 97.1729C78.8218 97.2321 78.6673 97.3337 78.5488 97.4775C78.4304 97.6214 78.3711 97.7907 78.3711 97.9854C78.3711 98.1335 78.3944 98.2668 78.4409 98.3853C78.4875 98.4995 78.5742 98.6053 78.7012 98.7026C78.8281 98.8 79.0059 98.8783 79.2344 98.9375C79.5899 99.0306 79.9136 99.1152 80.2056 99.1914C80.5018 99.2676 80.7684 99.3607 81.0054 99.4707C81.3143 99.6146 81.5513 99.7733 81.7163 99.9468C81.8856 100.12 82.002 100.309 82.0654 100.512C82.1289 100.711 82.1607 100.933 82.1607 101.178C82.1607 101.631 82.0252 102.014 81.7544 102.327C81.4878 102.64 81.1895 102.85 80.8594 102.956C80.5293 103.057 80.1315 103.108 79.666 103.108C79.0355 103.108 78.4938 103.019 78.041 102.841C77.5925 102.659 77.3026 102.505 77.1714 102.378ZM87.9492 94.9893C87.7165 94.9893 87.6001 94.894 87.6001 94.7036V94.1831C87.6001 93.9927 87.7165 93.8975 87.9492 93.8975H94.665C94.8978 93.8975 95.0142 93.9927 95.0142 94.1831V94.7036C95.0142 94.894 94.8978 94.9893 94.665 94.9893H91.9165V102.651C91.9165 102.884 91.8107 103 91.5991 103H91.0151C90.8035 103 90.6978 102.884 90.6978 102.651V94.9893H87.9492ZM94.1379 99.6675C94.1379 98.618 94.4003 97.7822 94.925 97.1602C95.4498 96.5381 96.2009 96.2271 97.1785 96.2271C97.991 96.2271 98.6638 96.5127 99.197 97.084C99.7344 97.651 100.003 98.5588 100.003 99.8071C100.003 99.9976 99.9164 100.093 99.7429 100.093H95.3186C95.3905 100.91 95.6106 101.479 95.9787 101.8C96.3469 102.118 96.7637 102.276 97.2292 102.276C97.7201 102.276 98.0967 102.194 98.3591 102.029C98.6215 101.864 98.814 101.701 98.9368 101.54C99.0722 101.362 99.2034 101.328 99.3303 101.438L99.7048 101.762C99.8021 101.847 99.8021 101.963 99.7048 102.111C99.6244 102.234 99.3938 102.431 99.0129 102.702C98.6363 102.972 98.0417 103.108 97.2292 103.108C96.1713 103.108 95.3905 102.797 94.8869 102.175C94.3876 101.553 94.1379 100.717 94.1379 99.6675ZM95.2932 99.2676H98.8796C98.8627 98.6751 98.7104 98.1567 98.4226 97.7124C98.1348 97.2638 97.7117 97.0396 97.1531 97.0396C96.6622 97.0396 96.2453 97.2046 95.9026 97.5347C95.5598 97.8605 95.3567 98.4382 95.2932 99.2676ZM102.015 103C101.825 103 101.729 102.905 101.729 102.714V96.6206C101.729 96.4302 101.825 96.335 102.015 96.335H102.548C102.739 96.335 102.834 96.4302 102.834 96.6206V97.1284H102.859C103.134 96.8237 103.433 96.5973 103.754 96.4492C104.076 96.3011 104.385 96.2271 104.681 96.2271C105.227 96.2271 105.646 96.3646 105.938 96.6396C106.234 96.9105 106.425 97.1834 106.509 97.4585H106.535C106.767 97.1115 107.062 96.8195 107.417 96.5825C107.772 96.3455 108.151 96.2271 108.553 96.2271C109.226 96.2271 109.734 96.445 110.077 96.8809C110.419 97.3125 110.591 97.9049 110.591 98.6582V102.714C110.591 102.905 110.496 103 110.305 103H109.759C109.569 103 109.474 102.905 109.474 102.714V99.0264C109.474 98.1969 109.37 97.6616 109.163 97.4204C108.955 97.175 108.636 97.0522 108.204 97.0522C107.781 97.0522 107.428 97.2342 107.144 97.5981C106.86 97.9578 106.719 98.5016 106.719 99.2295V102.714C106.719 102.905 106.624 103 106.433 103H105.887C105.697 103 105.602 102.905 105.602 102.714V99.0264C105.602 98.1969 105.498 97.6616 105.291 97.4204C105.083 97.175 104.764 97.0522 104.332 97.0522C103.909 97.0522 103.555 97.2173 103.272 97.5474C102.988 97.8732 102.847 98.4339 102.847 99.2295V102.714C102.847 102.905 102.751 103 102.561 103H102.015ZM114.342 95.7002C114.13 95.7002 114.105 95.5881 114.266 95.3638L115.148 94.126C115.258 93.9694 115.43 93.8911 115.662 93.8911H116.367C116.617 93.8911 116.646 94.0011 116.456 94.2212L115.326 95.5161C115.22 95.6388 115.049 95.7002 114.812 95.7002H114.342ZM112.279 101.223C112.279 100.469 112.63 99.9172 113.333 99.5659C114.039 99.2147 115.093 99.0094 116.494 98.9502V98.5186C116.494 98.1208 116.403 97.778 116.221 97.4902C116.043 97.1982 115.688 97.0522 115.155 97.0522C114.816 97.0522 114.545 97.0861 114.342 97.1538C114.139 97.2173 113.953 97.304 113.783 97.4141C113.618 97.5199 113.46 97.6574 113.307 97.8267C113.193 97.9536 113.085 97.96 112.984 97.8457L112.654 97.4648C112.56 97.359 112.592 97.2321 112.749 97.084C112.973 96.8724 113.191 96.7137 113.403 96.6079C113.614 96.5021 113.877 96.4132 114.19 96.3413C114.507 96.2651 114.829 96.2271 115.155 96.2271C116.039 96.2271 116.669 96.4556 117.046 96.9126C117.423 97.3654 117.611 97.9875 117.611 98.7788V102.714C117.611 102.905 117.516 103 117.325 103H116.754C116.589 103 116.507 102.905 116.507 102.714V102.403H116.494C116.16 102.666 115.832 102.85 115.51 102.956C115.193 103.057 114.837 103.108 114.444 103.108C113.75 103.108 113.214 102.943 112.838 102.613C112.465 102.278 112.279 101.815 112.279 101.223ZM113.434 101.248C113.434 101.51 113.489 101.722 113.599 101.883C113.709 102.039 113.862 102.141 114.056 102.188C114.251 102.23 114.454 102.251 114.666 102.251C114.992 102.251 115.301 102.219 115.592 102.156C115.884 102.092 116.185 101.925 116.494 101.654V99.7817C115.639 99.8452 115.03 99.9235 114.666 100.017C114.302 100.105 114.006 100.262 113.777 100.486C113.549 100.706 113.434 100.96 113.434 101.248ZM119.356 97.1729C119.166 97.1729 119.071 97.0988 119.071 96.9507V96.5571C119.071 96.409 119.166 96.335 119.356 96.335H120.105V95.7637C120.105 95.679 120.127 95.5986 120.169 95.5225L120.613 94.7163C120.694 94.5682 120.759 94.4941 120.81 94.4941H121.032C121.159 94.4941 121.223 94.5682 121.223 94.7163V96.335H122.575C122.765 96.335 122.86 96.409 122.86 96.5571V96.9507C122.86 97.0988 122.765 97.1729 122.575 97.1729H121.223V101.216C121.223 101.661 121.288 101.951 121.419 102.086C121.555 102.217 121.716 102.283 121.902 102.283C122.046 102.283 122.217 102.24 122.416 102.156C122.619 102.071 122.759 101.999 122.835 101.94C122.911 101.881 122.97 101.9 123.013 101.997L123.222 102.486C123.256 102.57 123.231 102.638 123.146 102.689C122.981 102.786 122.74 102.882 122.422 102.975C122.105 103.063 121.788 103.108 121.47 103.108C121.03 103.108 120.692 102.949 120.455 102.632C120.222 102.314 120.105 101.866 120.105 101.286V97.1729H119.356ZM125.037 103C124.847 103 124.752 102.905 124.752 102.714V96.6206C124.752 96.4302 124.847 96.335 125.037 96.335H125.583C125.774 96.335 125.869 96.4302 125.869 96.6206V102.714C125.869 102.905 125.774 103 125.583 103H125.037ZM125.037 95.1289C124.847 95.1289 124.752 95.0337 124.752 94.8433V94.2974C124.752 94.1069 124.847 94.0117 125.037 94.0117H125.583C125.774 94.0117 125.869 94.1069 125.869 94.2974V94.8433C125.869 95.0337 125.774 95.1289 125.583 95.1289H125.037ZM127.57 99.6675C127.57 98.673 127.815 97.8521 128.306 97.2046C128.801 96.5529 129.557 96.2271 130.572 96.2271C131.258 96.2271 131.78 96.3498 132.14 96.5952C132.504 96.8364 132.766 97.084 132.927 97.3379C133.016 97.4775 132.997 97.5897 132.87 97.6743L132.47 97.9346C132.343 98.0234 132.216 97.9663 132.089 97.7632C131.967 97.5685 131.793 97.4014 131.569 97.2617C131.349 97.1221 131.017 97.0522 130.572 97.0522C129.992 97.0522 129.544 97.266 129.227 97.6934C128.909 98.1208 128.75 98.7788 128.75 99.6675C128.75 100.556 128.909 101.214 129.227 101.642C129.544 102.069 129.992 102.283 130.572 102.283C131.042 102.283 131.402 102.194 131.651 102.016C131.901 101.834 132.083 101.637 132.197 101.426C132.307 101.227 132.432 101.17 132.572 101.254L132.997 101.508C133.124 101.584 133.143 101.699 133.054 101.851C132.948 102.033 132.707 102.289 132.331 102.619C131.958 102.945 131.372 103.108 130.572 103.108C129.557 103.108 128.801 102.784 128.306 102.137C127.815 101.485 127.57 100.662 127.57 99.6675ZM134.342 99.6675C134.342 98.673 134.605 97.8521 135.13 97.2046C135.659 96.5529 136.431 96.2271 137.446 96.2271C138.462 96.2271 139.232 96.5529 139.757 97.2046C140.286 97.8521 140.55 98.673 140.55 99.6675C140.55 100.662 140.286 101.485 139.757 102.137C139.232 102.784 138.462 103.108 137.446 103.108C136.431 103.108 135.659 102.784 135.13 102.137C134.605 101.485 134.342 100.662 134.342 99.6675ZM135.523 99.6675C135.523 100.556 135.699 101.214 136.05 101.642C136.401 102.069 136.867 102.283 137.446 102.283C138.026 102.283 138.492 102.069 138.843 101.642C139.194 101.214 139.37 100.556 139.37 99.6675C139.37 98.7788 139.194 98.1208 138.843 97.6934C138.492 97.266 138.026 97.0522 137.446 97.0522C136.867 97.0522 136.401 97.266 136.05 97.6934C135.699 98.1208 135.523 98.7788 135.523 99.6675ZM141.991 102.378C141.86 102.255 141.832 102.141 141.909 102.035L142.194 101.635C142.287 101.508 142.425 101.515 142.607 101.654C142.857 101.845 143.134 101.997 143.438 102.111C143.747 102.226 144.099 102.283 144.492 102.283C144.725 102.283 144.932 102.255 145.114 102.2C145.296 102.141 145.455 102.033 145.59 101.876C145.73 101.72 145.8 101.51 145.8 101.248C145.8 101.096 145.766 100.952 145.698 100.816C145.635 100.681 145.533 100.573 145.393 100.493C145.258 100.408 145.125 100.342 144.994 100.296C144.778 100.215 144.562 100.15 144.346 100.099C144.135 100.044 143.855 99.9616 143.508 99.8516C143.275 99.7796 143.055 99.6781 142.848 99.5469C142.641 99.4115 142.459 99.2295 142.302 99.001C142.15 98.7725 142.074 98.4572 142.074 98.0552C142.074 97.6447 142.198 97.2913 142.448 96.9951C142.698 96.6989 143.011 96.4979 143.388 96.3921C143.764 96.2821 144.13 96.2271 144.486 96.2271C145.011 96.2271 145.432 96.2884 145.749 96.4111C146.071 96.5296 146.348 96.6714 146.58 96.8364C146.716 96.9338 146.735 97.0459 146.638 97.1729L146.352 97.5537C146.263 97.6764 146.126 97.6722 145.939 97.541C145.783 97.431 145.561 97.3273 145.273 97.23C144.985 97.1326 144.733 97.084 144.518 97.084C144.251 97.084 144.022 97.1136 143.832 97.1729C143.642 97.2321 143.487 97.3337 143.369 97.4775C143.25 97.6214 143.191 97.7907 143.191 97.9854C143.191 98.1335 143.214 98.2668 143.261 98.3853C143.307 98.4995 143.394 98.6053 143.521 98.7026C143.648 98.8 143.826 98.8783 144.054 98.9375C144.41 99.0306 144.733 99.1152 145.025 99.1914C145.322 99.2676 145.588 99.3607 145.825 99.4707C146.134 99.6146 146.371 99.7733 146.536 99.9468C146.705 100.12 146.822 100.309 146.885 100.512C146.949 100.711 146.98 100.933 146.98 101.178C146.98 101.631 146.845 102.014 146.574 102.327C146.308 102.64 146.009 102.85 145.679 102.956C145.349 103.057 144.951 103.108 144.486 103.108C143.855 103.108 143.314 103.019 142.861 102.841C142.412 102.659 142.122 102.505 141.991 102.378ZM46.8436 110.316C46.6616 110.037 46.7187 109.897 47.015 109.897H47.7259C47.9121 109.897 48.0644 110.001 48.1829 110.208L49.7952 112.982C49.973 113.287 50.1253 113.554 50.2523 113.782C50.3792 114.007 50.5019 114.246 50.6204 114.5H50.6458C50.7643 114.246 50.887 114.007 51.014 113.782C51.1409 113.554 51.2933 113.287 51.471 112.982L53.0833 110.208C53.2018 110.001 53.3542 109.897 53.5404 109.897H54.2513C54.5475 109.897 54.6046 110.037 54.4227 110.316L51.2425 115.255V118.651C51.2425 118.884 51.1367 119 50.9251 119H50.3411C50.1295 119 50.0238 118.884 50.0238 118.651V115.255L46.8436 110.316ZM60.7381 119C60.5265 119 60.4207 118.884 60.4207 118.651V110.247C60.4207 110.014 60.5265 109.897 60.7381 109.897H66.2923C66.525 109.897 66.6414 109.993 66.6414 110.183V110.653C66.6414 110.843 66.525 110.938 66.2923 110.938H61.6395V113.757H65.9114C66.1442 113.757 66.2605 113.852 66.2605 114.042V114.512C66.2605 114.703 66.1442 114.798 65.9114 114.798H61.6395V117.959H66.4827C66.7155 117.959 66.8318 118.054 66.8318 118.245V118.714C66.8318 118.905 66.7155 119 66.4827 119H60.7381ZM68.8501 119C68.6597 119 68.5645 118.905 68.5645 118.714V112.621C68.5645 112.43 68.6597 112.335 68.8501 112.335H69.3833C69.5738 112.335 69.669 112.43 69.669 112.621V113.128H69.6944C69.9694 112.824 70.2678 112.597 70.5894 112.449C70.911 112.301 71.2199 112.227 71.5162 112.227C72.062 112.227 72.481 112.365 72.773 112.64C73.0692 112.91 73.2596 113.183 73.3443 113.458H73.3697C73.6024 113.111 73.8965 112.819 74.252 112.583C74.6075 112.346 74.9862 112.227 75.3882 112.227C76.0611 112.227 76.5689 112.445 76.9117 112.881C77.2544 113.312 77.4258 113.905 77.4258 114.658V118.714C77.4258 118.905 77.3306 119 77.1402 119H76.5943C76.4038 119 76.3086 118.905 76.3086 118.714V115.026C76.3086 114.197 76.205 113.662 75.9976 113.42C75.7902 113.175 75.4707 113.052 75.0391 113.052C74.6159 113.052 74.2626 113.234 73.979 113.598C73.6955 113.958 73.5537 114.502 73.5537 115.229V118.714C73.5537 118.905 73.4585 119 73.2681 119H72.7222C72.5318 119 72.4366 118.905 72.4366 118.714V115.026C72.4366 114.197 72.3329 113.662 72.1255 113.42C71.9182 113.175 71.5987 113.052 71.167 113.052C70.7439 113.052 70.3905 113.217 70.107 113.547C69.8234 113.873 69.6817 114.434 69.6817 115.229V118.714C69.6817 118.905 69.5865 119 69.396 119H68.8501ZM79.7615 121.539C79.5711 121.539 79.4759 121.444 79.4759 121.253V112.621C79.4759 112.43 79.5711 112.335 79.7615 112.335H80.2947C80.4471 112.335 80.5296 112.43 80.5423 112.621L80.5804 113.128H80.593C80.8258 112.849 81.0882 112.629 81.3802 112.468C81.6721 112.307 82.0615 112.227 82.5481 112.227C83.3945 112.227 84.0377 112.574 84.4778 113.268C84.9179 113.958 85.138 114.758 85.138 115.667C85.138 116.577 84.9179 117.379 84.4778 118.073C84.0377 118.763 83.3945 119.108 82.5481 119.108C82.0615 119.108 81.6721 119.028 81.3802 118.867C81.0882 118.706 80.8258 118.486 80.593 118.207H80.5804C80.5888 118.333 80.593 118.463 80.593 118.594V121.253C80.593 121.444 80.4978 121.539 80.3074 121.539H79.7615ZM80.593 116.397C80.593 117.032 80.7433 117.506 81.0437 117.819C81.3484 118.128 81.7293 118.283 82.1863 118.283C82.8295 118.283 83.2845 118.042 83.5511 117.559C83.8219 117.077 83.9573 116.446 83.9573 115.667C83.9573 114.889 83.8219 114.258 83.5511 113.776C83.2845 113.293 82.8295 113.052 82.1863 113.052C81.7293 113.052 81.3484 113.209 81.0437 113.522C80.7433 113.831 80.593 114.303 80.593 114.938V116.397ZM87.1309 119C86.9404 119 86.8452 118.905 86.8452 118.714V112.621C86.8452 112.43 86.9404 112.335 87.1309 112.335H87.6641C87.8545 112.335 87.9497 112.43 87.9497 112.621V113.382H87.9751C88.1782 113.001 88.4173 112.714 88.6924 112.519C88.9675 112.324 89.3102 112.227 89.7207 112.227C89.9916 112.227 90.182 112.25 90.292 112.297C90.3893 112.335 90.4253 112.398 90.3999 112.487L90.2539 113.008C90.2328 113.084 90.1777 113.114 90.0889 113.097C89.9408 113.067 89.8011 113.052 89.6699 113.052C89.1748 113.052 88.7665 113.277 88.4448 113.725C88.1232 114.169 87.9624 114.777 87.9624 115.547V118.714C87.9624 118.905 87.8672 119 87.6768 119H87.1309ZM91.3264 115.667C91.3264 114.618 91.5888 113.782 92.1135 113.16C92.6383 112.538 93.3894 112.227 94.367 112.227C95.1795 112.227 95.8523 112.513 96.3855 113.084C96.9229 113.651 97.1917 114.559 97.1917 115.807C97.1917 115.998 97.1049 116.093 96.9314 116.093H92.5071C92.579 116.91 92.7991 117.479 93.1673 117.8C93.5354 118.118 93.9522 118.276 94.4177 118.276C94.9086 118.276 95.2853 118.194 95.5476 118.029C95.81 117.864 96.0025 117.701 96.1253 117.54C96.2607 117.362 96.3919 117.328 96.5188 117.438L96.8933 117.762C96.9907 117.847 96.9907 117.963 96.8933 118.111C96.8129 118.234 96.5823 118.431 96.2014 118.702C95.8248 118.972 95.2302 119.108 94.4177 119.108C93.3598 119.108 92.579 118.797 92.0755 118.175C91.5761 117.553 91.3264 116.717 91.3264 115.667ZM92.4817 115.268H96.0681C96.0512 114.675 95.8989 114.157 95.6111 113.712C95.3233 113.264 94.9002 113.04 94.3416 113.04C93.8507 113.04 93.4339 113.205 93.0911 113.535C92.7483 113.861 92.5452 114.438 92.4817 115.268ZM98.6577 118.378C98.5265 118.255 98.499 118.141 98.5752 118.035L98.8608 117.635C98.9539 117.508 99.0915 117.515 99.2734 117.654C99.5231 117.845 99.8003 117.997 100.105 118.111C100.414 118.226 100.765 118.283 101.159 118.283C101.391 118.283 101.599 118.255 101.781 118.2C101.963 118.141 102.121 118.033 102.257 117.876C102.396 117.72 102.466 117.51 102.466 117.248C102.466 117.096 102.432 116.952 102.365 116.816C102.301 116.681 102.2 116.573 102.06 116.493C101.925 116.408 101.791 116.342 101.66 116.296C101.444 116.215 101.229 116.15 101.013 116.099C100.801 116.044 100.522 115.962 100.175 115.852C99.9421 115.78 99.722 115.678 99.5146 115.547C99.3073 115.411 99.1253 115.229 98.9688 115.001C98.8164 114.772 98.7402 114.457 98.7402 114.055C98.7402 113.645 98.8651 113.291 99.1147 112.995C99.3644 112.699 99.6776 112.498 100.054 112.392C100.431 112.282 100.797 112.227 101.152 112.227C101.677 112.227 102.098 112.288 102.416 112.411C102.737 112.53 103.014 112.671 103.247 112.836C103.382 112.934 103.402 113.046 103.304 113.173L103.019 113.554C102.93 113.676 102.792 113.672 102.606 113.541C102.449 113.431 102.227 113.327 101.939 113.23C101.652 113.133 101.4 113.084 101.184 113.084C100.917 113.084 100.689 113.114 100.499 113.173C100.308 113.232 100.154 113.334 100.035 113.478C99.9167 113.621 99.8574 113.791 99.8574 113.985C99.8574 114.133 99.8807 114.267 99.9272 114.385C99.9738 114.5 100.061 114.605 100.188 114.703C100.314 114.8 100.492 114.878 100.721 114.938C101.076 115.031 101.4 115.115 101.692 115.191C101.988 115.268 102.255 115.361 102.492 115.471C102.801 115.615 103.038 115.773 103.203 115.947C103.372 116.12 103.488 116.309 103.552 116.512C103.615 116.711 103.647 116.933 103.647 117.178C103.647 117.631 103.512 118.014 103.241 118.327C102.974 118.64 102.676 118.85 102.346 118.956C102.016 119.057 101.618 119.108 101.152 119.108C100.522 119.108 99.9801 119.019 99.5273 118.841C99.0788 118.659 98.7889 118.505 98.6577 118.378ZM104.808 117.223C104.808 116.469 105.16 115.917 105.862 115.566C106.569 115.215 107.622 115.009 109.023 114.95V114.519C109.023 114.121 108.932 113.778 108.75 113.49C108.573 113.198 108.217 113.052 107.684 113.052C107.345 113.052 107.074 113.086 106.871 113.154C106.668 113.217 106.482 113.304 106.313 113.414C106.148 113.52 105.989 113.657 105.837 113.827C105.722 113.954 105.614 113.96 105.513 113.846L105.183 113.465C105.09 113.359 105.121 113.232 105.278 113.084C105.502 112.872 105.72 112.714 105.932 112.608C106.143 112.502 106.406 112.413 106.719 112.341C107.036 112.265 107.358 112.227 107.684 112.227C108.568 112.227 109.199 112.456 109.575 112.913C109.952 113.365 110.14 113.987 110.14 114.779V118.714C110.14 118.905 110.045 119 109.855 119H109.283C109.118 119 109.036 118.905 109.036 118.714V118.403H109.023C108.689 118.666 108.361 118.85 108.039 118.956C107.722 119.057 107.366 119.108 106.973 119.108C106.279 119.108 105.744 118.943 105.367 118.613C104.995 118.278 104.808 117.815 104.808 117.223ZM105.964 117.248C105.964 117.51 106.019 117.722 106.129 117.883C106.239 118.039 106.391 118.141 106.586 118.188C106.78 118.23 106.983 118.251 107.195 118.251C107.521 118.251 107.83 118.219 108.122 118.156C108.414 118.092 108.714 117.925 109.023 117.654V115.782C108.168 115.845 107.559 115.924 107.195 116.017C106.831 116.105 106.535 116.262 106.306 116.486C106.078 116.706 105.964 116.96 105.964 117.248ZM112.495 119C112.305 119 112.209 118.905 112.209 118.714V112.621C112.209 112.43 112.305 112.335 112.495 112.335H113.028C113.219 112.335 113.314 112.43 113.314 112.621V113.382H113.339C113.542 113.001 113.782 112.714 114.057 112.519C114.332 112.324 114.674 112.227 115.085 112.227C115.356 112.227 115.546 112.25 115.656 112.297C115.754 112.335 115.79 112.398 115.764 112.487L115.618 113.008C115.597 113.084 115.542 113.114 115.453 113.097C115.305 113.067 115.165 113.052 115.034 113.052C114.539 113.052 114.131 113.277 113.809 113.725C113.487 114.169 113.327 114.777 113.327 115.547V118.714C113.327 118.905 113.231 119 113.041 119H112.495ZM117.338 119C117.148 119 117.052 118.905 117.052 118.714V112.621C117.052 112.43 117.148 112.335 117.338 112.335H117.884C118.074 112.335 118.17 112.43 118.17 112.621V118.714C118.17 118.905 118.074 119 117.884 119H117.338ZM117.338 111.129C117.148 111.129 117.052 111.034 117.052 110.843V110.297C117.052 110.107 117.148 110.012 117.338 110.012H117.884C118.074 110.012 118.17 110.107 118.17 110.297V110.843C118.17 111.034 118.074 111.129 117.884 111.129H117.338ZM119.871 117.223C119.871 116.469 120.222 115.917 120.924 115.566C121.631 115.215 122.685 115.009 124.085 114.95V114.519C124.085 114.121 123.994 113.778 123.812 113.49C123.635 113.198 123.279 113.052 122.746 113.052C122.408 113.052 122.137 113.086 121.934 113.154C121.73 113.217 121.544 113.304 121.375 113.414C121.21 113.52 121.051 113.657 120.899 113.827C120.785 113.954 120.677 113.96 120.575 113.846L120.245 113.465C120.152 113.359 120.184 113.232 120.34 113.084C120.565 112.872 120.783 112.714 120.994 112.608C121.206 112.502 121.468 112.413 121.781 112.341C122.099 112.265 122.42 112.227 122.746 112.227C123.63 112.227 124.261 112.456 124.638 112.913C125.014 113.365 125.203 113.987 125.203 114.779V118.714C125.203 118.905 125.107 119 124.917 119H124.346C124.181 119 124.098 118.905 124.098 118.714V118.403H124.085C123.751 118.666 123.423 118.85 123.102 118.956C122.784 119.057 122.429 119.108 122.035 119.108C121.341 119.108 120.806 118.943 120.429 118.613C120.057 118.278 119.871 117.815 119.871 117.223ZM121.026 117.248C121.026 117.51 121.081 117.722 121.191 117.883C121.301 118.039 121.453 118.141 121.648 118.188C121.843 118.23 122.046 118.251 122.257 118.251C122.583 118.251 122.892 118.219 123.184 118.156C123.476 118.092 123.776 117.925 124.085 117.654V115.782C123.231 115.845 122.621 115.924 122.257 116.017C121.893 116.105 121.597 116.262 121.369 116.486C121.14 116.706 121.026 116.96 121.026 117.248ZM127.557 119C127.367 119 127.272 118.905 127.272 118.714V110.792C127.272 110.708 127.293 110.627 127.335 110.551L127.779 109.745C127.86 109.597 127.925 109.523 127.976 109.523H128.198C128.325 109.523 128.389 109.597 128.389 109.745V118.714C128.389 118.905 128.294 119 128.103 119H127.557ZM130.09 115.667C130.09 114.618 130.352 113.782 130.877 113.16C131.402 112.538 132.153 112.227 133.13 112.227C133.943 112.227 134.616 112.513 135.149 113.084C135.686 113.651 135.955 114.559 135.955 115.807C135.955 115.998 135.868 116.093 135.695 116.093H131.27C131.342 116.91 131.562 117.479 131.931 117.8C132.299 118.118 132.716 118.276 133.181 118.276C133.672 118.276 134.049 118.194 134.311 118.029C134.573 117.864 134.766 117.701 134.889 117.54C135.024 117.362 135.155 117.328 135.282 117.438L135.657 117.762C135.754 117.847 135.754 117.963 135.657 118.111C135.576 118.234 135.346 118.431 134.965 118.702C134.588 118.972 133.994 119.108 133.181 119.108C132.123 119.108 131.342 118.797 130.839 118.175C130.339 117.553 130.09 116.717 130.09 115.667ZM131.245 115.268H134.831C134.815 114.675 134.662 114.157 134.374 113.712C134.087 113.264 133.664 113.04 133.105 113.04C132.614 113.04 132.197 113.205 131.854 113.535C131.512 113.861 131.309 114.438 131.245 115.268ZM137.421 118.378C137.29 118.255 137.262 118.141 137.339 118.035L137.624 117.635C137.717 117.508 137.855 117.515 138.037 117.654C138.286 117.845 138.564 117.997 138.868 118.111C139.177 118.226 139.529 118.283 139.922 118.283C140.155 118.283 140.362 118.255 140.544 118.2C140.726 118.141 140.885 118.033 141.02 117.876C141.16 117.72 141.23 117.51 141.23 117.248C141.23 117.096 141.196 116.952 141.128 116.816C141.065 116.681 140.963 116.573 140.823 116.493C140.688 116.408 140.555 116.342 140.424 116.296C140.208 116.215 139.992 116.15 139.776 116.099C139.564 116.044 139.285 115.962 138.938 115.852C138.705 115.78 138.485 115.678 138.278 115.547C138.071 115.411 137.889 115.229 137.732 115.001C137.58 114.772 137.504 114.457 137.504 114.055C137.504 113.645 137.628 113.291 137.878 112.995C138.128 112.699 138.441 112.498 138.818 112.392C139.194 112.282 139.56 112.227 139.916 112.227C140.44 112.227 140.862 112.288 141.179 112.411C141.501 112.53 141.778 112.671 142.01 112.836C142.146 112.934 142.165 113.046 142.068 113.173L141.782 113.554C141.693 113.676 141.556 113.672 141.369 113.541C141.213 113.431 140.991 113.327 140.703 113.23C140.415 113.133 140.163 113.084 139.947 113.084C139.681 113.084 139.452 113.114 139.262 113.173C139.071 113.232 138.917 113.334 138.799 113.478C138.68 113.621 138.621 113.791 138.621 113.985C138.621 114.133 138.644 114.267 138.691 114.385C138.737 114.5 138.824 114.605 138.951 114.703C139.078 114.8 139.256 114.878 139.484 114.938C139.84 115.031 140.163 115.115 140.455 115.191C140.751 115.268 141.018 115.361 141.255 115.471C141.564 115.615 141.801 115.773 141.966 115.947C142.135 116.12 142.252 116.309 142.315 116.512C142.379 116.711 142.41 116.933 142.41 117.178C142.41 117.631 142.275 118.014 142.004 118.327C141.737 118.64 141.439 118.85 141.109 118.956C140.779 119.057 140.381 119.108 139.916 119.108C139.285 119.108 138.744 119.019 138.291 118.841C137.842 118.659 137.552 118.505 137.421 118.378Z" fill="white"/>
</svg>
