<svg width="122" height="121" viewBox="0 0 122 121" fill="none" xmlns="http://www.w3.org/2000/svg">
<g clip-path="url(#clip0_164_199)">
<path d="M56.466 18.4007C61.2376 18.4007 65.1058 14.538 65.1058 9.77317C65.1058 5.00831 61.2376 1.14563 56.466 1.14563C51.6943 1.14563 47.8262 5.00831 47.8262 9.77317C47.8262 14.538 51.6943 18.4007 56.466 18.4007Z" stroke="white" stroke-width="2" stroke-miterlimit="10"/>
<path d="M25.4276 45.0338C25.4118 41.518 25.396 37.9943 25.3801 34.4785C25.3801 31.3972 27.8803 28.9006 30.9659 28.9006H48.5303C51.616 28.9006 54.1161 31.3972 54.1161 34.4785V38.8002" stroke="white" stroke-width="2" stroke-miterlimit="10"/>
<path d="M58.3489 38.6343V34.3126C58.3489 31.2314 60.849 28.7347 63.9347 28.7347H81.4991C84.5847 28.7347 87.0849 31.2314 87.0849 34.3126C87.0849 37.6151 87.0849 40.9176 87.077 44.2201" stroke="white" stroke-width="2" stroke-miterlimit="10"/>
<path d="M57.004 61.8544C76.8027 61.8544 92.8528 56.7431 92.8528 50.438C92.8528 44.1328 76.8027 39.0215 57.004 39.0215C37.2052 39.0215 21.1552 44.1328 21.1552 50.438C21.1552 56.7431 37.2052 61.8544 57.004 61.8544Z" stroke="white" stroke-width="2" stroke-miterlimit="10"/>
<path d="M69.9004 28.0237V28.1106" stroke="white" stroke-width="2" stroke-miterlimit="10"/>
<path d="M47.4463 18.4006H64.4173C64.5202 18.4006 64.623 18.4085 64.7259 18.4164" stroke="white" stroke-width="2" stroke-miterlimit="10"/>
<path d="M64.7261 18.4165C65.454 14.2923 69.0539 11.1478 73.3896 11.1478C78.2554 11.1478 82.1956 15.0824 82.1956 19.9413C82.1956 24.8002 78.2554 28.7347 73.3896 28.7347C72.1474 28.7347 70.9686 28.474 69.8925 28.0158" stroke="white" stroke-width="2" stroke-miterlimit="10"/>
<path d="M64.7259 18.4165C64.6389 18.9142 64.5835 19.4199 64.5835 19.9492C64.5835 23.5677 66.7751 26.6727 69.9003 28.0237" stroke="white" stroke-width="2" stroke-miterlimit="10"/>
<path d="M47.4464 18.4007C46.7106 14.2844 43.1186 11.1478 38.7829 11.1478C33.9171 11.1478 29.9769 15.0824 29.9769 19.9413C29.9769 24.8002 33.9171 28.7347 38.7829 28.7347C43.6487 28.7347 47.5888 24.8002 47.5888 19.9413C47.5888 19.4119 47.5334 18.8984 47.4464 18.3927" stroke="white" stroke-width="2" stroke-miterlimit="10"/>
</g>
<path d="M32.0684 96.4487C32.0684 94.9676 32.4344 93.8081 33.1665 92.9702C33.9029 92.1281 34.9587 91.707 36.334 91.707C37.1381 91.707 37.8024 91.8446 38.3272 92.1196C38.8519 92.3905 39.2286 92.7629 39.4571 93.2368C39.5756 93.4823 39.5565 93.6515 39.3999 93.7446L38.8985 94.0366C38.7292 94.134 38.579 94.0535 38.4478 93.7954C38.3081 93.5288 38.0796 93.2791 37.7622 93.0464C37.4449 92.8136 36.9899 92.6973 36.3975 92.6973C35.3396 92.6973 34.5694 93.0273 34.087 93.6875C33.6088 94.3434 33.3697 95.2638 33.3697 96.4487C33.3697 97.6336 33.6088 98.5562 34.087 99.2163C34.5694 99.8722 35.3396 100.2 36.3975 100.2C37.0069 100.2 37.4935 100.061 37.8575 99.7812C38.2256 99.502 38.4922 99.21 38.6573 98.9053C38.7884 98.6598 38.9408 98.5858 39.1143 98.6831L39.6412 98.9814C39.7935 99.0703 39.8062 99.2396 39.6792 99.4893C39.4296 99.9759 39.0233 100.382 38.4605 100.708C37.8977 101.03 37.1888 101.19 36.334 101.19C34.9587 101.19 33.9029 100.771 33.1665 99.9336C32.4344 99.0915 32.0684 97.9299 32.0684 96.4487ZM41.1834 97.6675C41.1834 96.673 41.4457 95.8521 41.9705 95.2046C42.4995 94.5529 43.2718 94.2271 44.2874 94.2271C45.303 94.2271 46.0732 94.5529 46.5979 95.2046C47.1269 95.8521 47.3914 96.673 47.3914 97.6675C47.3914 98.6619 47.1269 99.485 46.5979 100.137C46.0732 100.784 45.303 101.108 44.2874 101.108C43.2718 101.108 42.4995 100.784 41.9705 100.137C41.4457 99.485 41.1834 98.6619 41.1834 97.6675ZM42.364 97.6675C42.364 98.5562 42.5397 99.2142 42.8909 99.6416C43.2421 100.069 43.7076 100.283 44.2874 100.283C44.8671 100.283 45.3326 100.069 45.6839 99.6416C46.0351 99.2142 46.2107 98.5562 46.2107 97.6675C46.2107 96.7788 46.0351 96.1208 45.6839 95.6934C45.3326 95.266 44.8671 95.0522 44.2874 95.0522C43.7076 95.0522 43.2421 95.266 42.8909 95.6934C42.5397 96.1208 42.364 96.7788 42.364 97.6675ZM49.3779 101C49.1875 101 49.0923 100.905 49.0923 100.714V94.6206C49.0923 94.4302 49.1875 94.335 49.3779 94.335H49.9112C50.1016 94.335 50.1968 94.4302 50.1968 94.6206V95.1284H50.2222C50.4973 94.8237 50.7935 94.5973 51.1109 94.4492C51.4282 94.3011 51.8239 94.2271 52.2979 94.2271C53.0681 94.2271 53.6203 94.445 53.9546 94.8809C54.2932 95.3125 54.4624 95.9049 54.4624 96.6582V100.714C54.4624 100.905 54.3672 101 54.1768 101H53.6309C53.4404 101 53.3452 100.905 53.3452 100.714V96.9629C53.3452 96.1335 53.2077 95.6087 52.9326 95.3887C52.6576 95.1644 52.3085 95.0522 51.8853 95.0522C51.3351 95.0522 50.9183 95.2173 50.6348 95.5474C50.3513 95.8732 50.2095 96.4339 50.2095 97.2295V100.714C50.2095 100.905 50.1143 101 49.9238 101H49.3779ZM56.2522 100.378C56.121 100.255 56.0935 100.141 56.1697 100.035L56.4553 99.6353C56.5484 99.5083 56.686 99.5146 56.8679 99.6543C57.1176 99.8447 57.3948 99.9971 57.6995 100.111C58.0084 100.226 58.3596 100.283 58.7532 100.283C58.9859 100.283 59.1933 100.255 59.3753 100.2C59.5572 100.141 59.7159 100.033 59.8513 99.8765C59.991 99.7199 60.0608 99.5104 60.0608 99.248C60.0608 99.0957 60.0269 98.9518 59.9592 98.8164C59.8958 98.681 59.7942 98.5731 59.6545 98.4927C59.5191 98.408 59.3858 98.3424 59.2546 98.2959C59.0388 98.2155 58.823 98.1499 58.6072 98.0991C58.3956 98.0441 58.1163 97.9616 57.7693 97.8516C57.5365 97.7796 57.3165 97.6781 57.1091 97.5469C56.9018 97.4115 56.7198 97.2295 56.5632 97.001C56.4109 96.7725 56.3347 96.4572 56.3347 96.0552C56.3347 95.6447 56.4596 95.2913 56.7092 94.9951C56.9589 94.6989 57.2721 94.4979 57.6487 94.3921C58.0253 94.2821 58.3914 94.2271 58.7468 94.2271C59.2716 94.2271 59.6926 94.2884 60.01 94.4111C60.3316 94.5296 60.6088 94.6714 60.8416 94.8364C60.977 94.9338 60.996 95.0459 60.8987 95.1729L60.613 95.5537C60.5242 95.6764 60.3866 95.6722 60.2004 95.541C60.0439 95.431 59.8217 95.3273 59.5339 95.23C59.2462 95.1326 58.9944 95.084 58.7786 95.084C58.512 95.084 58.2835 95.1136 58.093 95.1729C57.9026 95.2321 57.7481 95.3337 57.6296 95.4775C57.5112 95.6214 57.4519 95.7907 57.4519 95.9854C57.4519 96.1335 57.4752 96.2668 57.5217 96.3853C57.5683 96.4995 57.655 96.6053 57.782 96.7026C57.9089 96.8 58.0867 96.8783 58.3152 96.9375C58.6707 97.0306 58.9944 97.1152 59.2864 97.1914C59.5826 97.2676 59.8492 97.3607 60.0862 97.4707C60.3951 97.6146 60.6321 97.7733 60.7971 97.9468C60.9664 98.1203 61.0828 98.3086 61.1462 98.5117C61.2097 98.7106 61.2415 98.9328 61.2415 99.1782C61.2415 99.631 61.106 100.014 60.8352 100.327C60.5686 100.64 60.2703 100.85 59.9402 100.956C59.6101 101.057 59.2123 101.108 58.7468 101.108C58.1163 101.108 57.5746 101.019 57.1218 100.841C56.6733 100.659 56.3834 100.505 56.2522 100.378ZM62.752 98.6768V94.6206C62.752 94.4302 62.8472 94.335 63.0376 94.335H63.5835C63.7739 94.335 63.8691 94.4302 63.8691 94.6206V98.3721C63.8691 99.2015 64.0067 99.7284 64.2817 99.9526C64.5568 100.173 64.8975 100.283 65.3037 100.283C65.8369 100.283 66.2453 100.12 66.5288 99.7939C66.8123 99.4639 66.9541 98.901 66.9541 98.1055V94.6206C66.9541 94.4302 67.0493 94.335 67.2397 94.335H67.7856C67.9761 94.335 68.0713 94.4302 68.0713 94.6206V100.714C68.0713 100.905 67.9761 101 67.7856 101H67.2524C67.062 101 66.9668 100.905 66.9668 100.714V100.207H66.9414C66.6663 100.511 66.3701 100.738 66.0527 100.886C65.7354 101.034 65.3481 101.108 64.8911 101.108C64.1506 101.108 63.6089 100.892 63.2661 100.46C62.9233 100.025 62.752 99.43 62.752 98.6768ZM70.4197 101C70.2292 101 70.134 100.905 70.134 100.714V92.7925C70.134 92.7078 70.1552 92.6274 70.1975 92.5513L70.6418 91.7451C70.7222 91.597 70.7878 91.5229 70.8386 91.5229H71.0608C71.1877 91.5229 71.2512 91.597 71.2512 91.7451V100.714C71.2512 100.905 71.156 101 70.9656 101H70.4197ZM72.9902 95.1729C72.7998 95.1729 72.7046 95.0988 72.7046 94.9507V94.5571C72.7046 94.409 72.7998 94.335 72.9902 94.335H73.7392V93.7637C73.7392 93.679 73.7604 93.5986 73.8027 93.5225L74.2471 92.7163C74.3275 92.5682 74.3931 92.4941 74.4438 92.4941H74.666C74.793 92.4941 74.8564 92.5682 74.8564 92.7163V94.335H76.2085C76.3989 94.335 76.4941 94.409 76.4941 94.5571V94.9507C76.4941 95.0988 76.3989 95.1729 76.2085 95.1729H74.8564V99.2163C74.8564 99.6606 74.922 99.9505 75.0532 100.086C75.1886 100.217 75.3494 100.283 75.5356 100.283C75.6795 100.283 75.8509 100.24 76.0498 100.156C76.2529 100.071 76.3926 99.9992 76.4687 99.9399C76.5449 99.8807 76.6042 99.8997 76.6465 99.9971L76.8559 100.486C76.8898 100.57 76.8644 100.638 76.7798 100.689C76.6147 100.786 76.3735 100.882 76.0561 100.975C75.7388 101.063 75.4214 101.108 75.104 101.108C74.6639 101.108 74.3253 100.949 74.0884 100.632C73.8556 100.314 73.7392 99.8659 73.7392 99.2861V95.1729H72.9902ZM78.0237 99.2227C78.0237 98.4694 78.3749 97.9172 79.0774 97.5659C79.7841 97.2147 80.8378 97.0094 82.2385 96.9502V96.5186C82.2385 96.1208 82.1475 95.778 81.9655 95.4902C81.7878 95.1982 81.4323 95.0522 80.8991 95.0522C80.5606 95.0522 80.2898 95.0861 80.0866 95.1538C79.8835 95.2173 79.6973 95.304 79.528 95.4141C79.363 95.5199 79.2043 95.6574 79.052 95.8267C78.9377 95.9536 78.8298 95.96 78.7282 95.8457L78.3982 95.4648C78.3051 95.359 78.3368 95.2321 78.4934 95.084C78.7177 94.8724 78.9356 94.7137 79.1472 94.6079C79.3588 94.5021 79.6211 94.4132 79.9343 94.3413C80.2517 94.2651 80.5733 94.2271 80.8991 94.2271C81.7836 94.2271 82.4141 94.4556 82.7907 94.9126C83.1674 95.3654 83.3557 95.9875 83.3557 96.7788V100.714C83.3557 100.905 83.2605 101 83.07 101H82.4987C82.3337 101 82.2512 100.905 82.2512 100.714V100.403H82.2385C81.9042 100.666 81.5762 100.85 81.2546 100.956C80.9372 101.057 80.5818 101.108 80.1882 101.108C79.4942 101.108 78.9589 100.943 78.5822 100.613C78.2098 100.278 78.0237 99.8151 78.0237 99.2227ZM79.1789 99.248C79.1789 99.5104 79.2339 99.722 79.344 99.8828C79.454 100.039 79.6063 100.141 79.801 100.188C79.9957 100.23 80.1988 100.251 80.4104 100.251C80.7362 100.251 81.0451 100.219 81.3371 100.156C81.6291 100.092 81.9296 99.9251 82.2385 99.6543V97.7817C81.3837 97.8452 80.7743 97.9235 80.4104 98.0166C80.0464 98.1055 79.7502 98.262 79.5217 98.4863C79.2932 98.7064 79.1789 98.9603 79.1789 99.248ZM85.1645 100.378C85.0333 100.255 85.0058 100.141 85.082 100.035L85.3676 99.6353C85.4607 99.5083 85.5983 99.5146 85.7802 99.6543C86.0299 99.8447 86.3071 99.9971 86.6118 100.111C86.9207 100.226 87.2719 100.283 87.6655 100.283C87.8982 100.283 88.1056 100.255 88.2876 100.2C88.4695 100.141 88.6282 100.033 88.7636 99.8765C88.9033 99.7199 88.9731 99.5104 88.9731 99.248C88.9731 99.0957 88.9393 98.9518 88.8715 98.8164C88.8081 98.681 88.7065 98.5731 88.5669 98.4927C88.4314 98.408 88.2981 98.3424 88.167 98.2959C87.9511 98.2155 87.7353 98.1499 87.5195 98.0991C87.3079 98.0441 87.0286 97.9616 86.6816 97.8516C86.4489 97.7796 86.2288 97.6781 86.0214 97.5469C85.8141 97.4115 85.6321 97.2295 85.4755 97.001C85.3232 96.7725 85.247 96.4572 85.247 96.0552C85.247 95.6447 85.3719 95.2913 85.6215 94.9951C85.8712 94.6989 86.1844 94.4979 86.561 94.3921C86.9376 94.2821 87.3037 94.2271 87.6591 94.2271C88.1839 94.2271 88.6049 94.2884 88.9223 94.4111C89.2439 94.5296 89.5211 94.6714 89.7539 94.8364C89.8893 94.9338 89.9083 95.0459 89.811 95.1729L89.5254 95.5537C89.4365 95.6764 89.299 95.6722 89.1128 95.541C88.9562 95.431 88.734 95.3273 88.4463 95.23C88.1585 95.1326 87.9067 95.084 87.6909 95.084C87.4243 95.084 87.1958 95.1136 87.0053 95.1729C86.8149 95.2321 86.6604 95.3337 86.542 95.4775C86.4235 95.6214 86.3642 95.7907 86.3642 95.9854C86.3642 96.1335 86.3875 96.2668 86.434 96.3853C86.4806 96.4995 86.5673 96.6053 86.6943 96.7026C86.8213 96.8 86.999 96.8783 87.2275 96.9375C87.583 97.0306 87.9067 97.1152 88.1987 97.1914C88.4949 97.2676 88.7615 97.3607 88.9985 97.4707C89.3074 97.6146 89.5444 97.7733 89.7094 97.9468C89.8787 98.1203 89.9951 98.3086 90.0586 98.5117C90.122 98.7106 90.1538 98.9328 90.1538 99.1782C90.1538 99.631 90.0184 100.014 89.7475 100.327C89.4809 100.64 89.1826 100.85 88.8525 100.956C88.5224 101.057 88.1246 101.108 87.6591 101.108C87.0286 101.108 86.4869 101.019 86.0341 100.841C85.5856 100.659 85.2957 100.505 85.1645 100.378ZM35.277 112.449C35.277 110.968 35.66 109.808 36.4259 108.97C37.1919 108.128 38.2562 107.707 39.6188 107.707C40.4355 107.707 41.102 107.849 41.6183 108.132C42.1346 108.412 42.5133 108.742 42.7546 109.123C42.9027 109.36 42.9005 109.531 42.7482 109.637L42.2721 109.967C42.1156 110.077 41.959 110.011 41.8024 109.77C41.6754 109.58 41.4364 109.353 41.0851 109.091C40.7339 108.828 40.2663 108.697 39.6823 108.697C38.6455 108.697 37.869 109.027 37.3527 109.688C36.8364 110.343 36.5783 111.264 36.5783 112.449C36.5783 113.634 36.8301 114.556 37.3337 115.216C37.8372 115.872 38.6413 116.2 39.7458 116.2C40.2959 116.2 40.7741 116.135 41.1803 116.003C41.5908 115.868 41.8786 115.682 42.0436 115.445V113.763H40.1584C39.9256 113.763 39.8092 113.667 39.8092 113.477V113.007C39.8092 112.817 39.9256 112.722 40.1584 112.722H42.9132C43.146 112.722 43.2624 112.817 43.2624 113.007V116.003C42.7461 116.38 42.2298 116.672 41.7135 116.879C41.1973 117.087 40.5202 117.19 39.6823 117.19C38.2858 117.19 37.2025 116.771 36.4323 115.934C35.6621 115.091 35.277 113.93 35.277 112.449ZM45.4711 117C45.2807 117 45.1854 116.905 45.1854 116.714V110.621C45.1854 110.43 45.2807 110.335 45.4711 110.335H46.0043C46.1947 110.335 46.2899 110.43 46.2899 110.621V111.382H46.3153C46.5185 111.001 46.7576 110.714 47.0326 110.519C47.3077 110.324 47.6505 110.227 48.0609 110.227C48.3318 110.227 48.5222 110.25 48.6322 110.297C48.7296 110.335 48.7655 110.398 48.7401 110.487L48.5941 111.008C48.573 111.084 48.518 111.114 48.4291 111.097C48.281 111.067 48.1413 111.052 48.0102 111.052C47.515 111.052 47.1067 111.277 46.7851 111.725C46.4634 112.169 46.3026 112.777 46.3026 113.547V116.714C46.3026 116.905 46.2074 117 46.017 117H45.4711ZM50.0158 114.677V110.621C50.0158 110.43 50.111 110.335 50.3014 110.335H50.8473C51.0377 110.335 51.1329 110.43 51.1329 110.621V114.372C51.1329 115.201 51.2705 115.728 51.5455 115.953C51.8206 116.173 52.1613 116.283 52.5675 116.283C53.1007 116.283 53.5091 116.12 53.7926 115.794C54.0761 115.464 54.2179 114.901 54.2179 114.105V110.621C54.2179 110.43 54.3131 110.335 54.5036 110.335H55.0495C55.2399 110.335 55.3351 110.43 55.3351 110.621V116.714C55.3351 116.905 55.2399 117 55.0495 117H54.5163C54.3258 117 54.2306 116.905 54.2306 116.714V116.207H54.2052C53.9302 116.511 53.6339 116.738 53.3165 116.886C52.9992 117.034 52.612 117.108 52.1549 117.108C51.4144 117.108 50.8727 116.892 50.5299 116.46C50.1871 116.025 50.0158 115.43 50.0158 114.677ZM57.6835 119.539C57.493 119.539 57.3978 119.444 57.3978 119.253V110.621C57.3978 110.43 57.493 110.335 57.6835 110.335H58.2167C58.369 110.335 58.4515 110.43 58.4642 110.621L58.5023 111.128H58.515C58.7478 110.849 59.0101 110.629 59.3021 110.468C59.5941 110.307 59.9834 110.227 60.4701 110.227C61.3165 110.227 61.9597 110.574 62.3998 111.268C62.8399 111.958 63.0599 112.758 63.0599 113.667C63.0599 114.577 62.8399 115.379 62.3998 116.073C61.9597 116.763 61.3165 117.108 60.4701 117.108C59.9834 117.108 59.5941 117.028 59.3021 116.867C59.0101 116.706 58.7478 116.486 58.515 116.207H58.5023C58.5108 116.333 58.515 116.463 58.515 116.594V119.253C58.515 119.444 58.4198 119.539 58.2294 119.539H57.6835ZM58.515 114.397C58.515 115.032 58.6653 115.506 58.9657 115.819C59.2704 116.128 59.6513 116.283 60.1083 116.283C60.7515 116.283 61.2064 116.042 61.473 115.559C61.7439 115.077 61.8793 114.446 61.8793 113.667C61.8793 112.889 61.7439 112.258 61.473 111.776C61.2064 111.293 60.7515 111.052 60.1083 111.052C59.6513 111.052 59.2704 111.209 58.9657 111.522C58.6653 111.831 58.515 112.303 58.515 112.938V114.397ZM64.4054 115.223C64.4054 114.469 64.7566 113.917 65.4591 113.566C66.1658 113.215 67.2195 113.009 68.6202 112.95V112.519C68.6202 112.121 68.5293 111.778 68.3473 111.49C68.1696 111.198 67.8141 111.052 67.2809 111.052C66.9423 111.052 66.6715 111.086 66.4684 111.154C66.2653 111.217 66.0791 111.304 65.9098 111.414C65.7447 111.52 65.5861 111.657 65.4337 111.827C65.3195 111.954 65.2115 111.96 65.11 111.846L64.7799 111.465C64.6868 111.359 64.7185 111.232 64.8751 111.084C65.0994 110.872 65.3173 110.714 65.5289 110.608C65.7405 110.502 66.0029 110.413 66.316 110.341C66.6334 110.265 66.955 110.227 67.2809 110.227C68.1653 110.227 68.7959 110.456 69.1725 110.913C69.5491 111.365 69.7374 111.987 69.7374 112.779V116.714C69.7374 116.905 69.6422 117 69.4518 117H68.8805C68.7155 117 68.6329 116.905 68.6329 116.714V116.403H68.6202C68.2859 116.666 67.958 116.85 67.6363 116.956C67.319 117.057 66.9635 117.108 66.5699 117.108C65.8759 117.108 65.3406 116.943 64.964 116.613C64.5916 116.278 64.4054 115.815 64.4054 115.223ZM65.5607 115.248C65.5607 115.51 65.6157 115.722 65.7257 115.883C65.8357 116.039 65.9881 116.141 66.1827 116.188C66.3774 116.23 66.5805 116.251 66.7921 116.251C67.118 116.251 67.4269 116.219 67.7189 116.156C68.0109 116.092 68.3113 115.925 68.6202 115.654V113.782C67.7654 113.845 67.156 113.924 66.7921 114.017C66.4282 114.105 66.132 114.262 65.9034 114.486C65.6749 114.706 65.5607 114.96 65.5607 115.248ZM72.0921 117C71.9017 117 71.8065 116.905 71.8065 116.714V108.792C71.8065 108.708 71.8277 108.627 71.87 108.551L72.3143 107.745C72.3947 107.597 72.4603 107.523 72.5111 107.523H72.7333C72.8602 107.523 72.9237 107.597 72.9237 107.745V116.714C72.9237 116.905 72.8285 117 72.638 117H72.0921ZM74.6246 113.667C74.6246 112.618 74.887 111.782 75.4117 111.16C75.9365 110.538 76.6876 110.227 77.6651 110.227C78.4776 110.227 79.1505 110.513 79.6837 111.084C80.2211 111.651 80.4898 112.559 80.4898 113.807C80.4898 113.998 80.4031 114.093 80.2296 114.093H75.8053C75.8772 114.91 76.0973 115.479 76.4654 115.8C76.8336 116.118 77.2504 116.276 77.7159 116.276C78.2068 116.276 78.5834 116.194 78.8458 116.029C79.1082 115.864 79.3007 115.701 79.4234 115.54C79.5589 115.362 79.69 115.328 79.817 115.438L80.1915 115.762C80.2888 115.847 80.2888 115.963 80.1915 116.111C80.1111 116.234 79.8805 116.431 79.4996 116.702C79.123 116.972 78.5284 117.108 77.7159 117.108C76.658 117.108 75.8772 116.797 75.3736 116.175C74.8743 115.553 74.6246 114.717 74.6246 113.667ZM75.7799 113.268H79.3663C79.3494 112.675 79.197 112.157 78.9093 111.712C78.6215 111.264 78.1983 111.04 77.6397 111.04C77.1489 111.04 76.732 111.205 76.3893 111.535C76.0465 111.861 75.8434 112.438 75.7799 113.268ZM81.9559 116.378C81.8247 116.255 81.7972 116.141 81.8734 116.035L82.159 115.635C82.2521 115.508 82.3897 115.515 82.5716 115.654C82.8213 115.845 83.0985 115.997 83.4032 116.111C83.7121 116.226 84.0633 116.283 84.4569 116.283C84.6896 116.283 84.897 116.255 85.0789 116.2C85.2609 116.141 85.4196 116.033 85.555 115.876C85.6947 115.72 85.7645 115.51 85.7645 115.248C85.7645 115.096 85.7306 114.952 85.6629 114.816C85.5995 114.681 85.4979 114.573 85.3582 114.493C85.2228 114.408 85.0895 114.342 84.9583 114.296C84.7425 114.215 84.5267 114.15 84.3109 114.099C84.0993 114.044 83.82 113.962 83.473 113.852C83.2402 113.78 83.0202 113.678 82.8128 113.547C82.6055 113.411 82.4235 113.229 82.2669 113.001C82.1146 112.772 82.0384 112.457 82.0384 112.055C82.0384 111.645 82.1633 111.291 82.4129 110.995C82.6626 110.699 82.9758 110.498 83.3524 110.392C83.729 110.282 84.0951 110.227 84.4505 110.227C84.9753 110.227 85.3963 110.288 85.7137 110.411C86.0353 110.53 86.3125 110.671 86.5453 110.836C86.6807 110.934 86.6997 111.046 86.6024 111.173L86.3167 111.554C86.2279 111.676 86.0903 111.672 85.9041 111.541C85.7476 111.431 85.5254 111.327 85.2376 111.23C84.9499 111.133 84.6981 111.084 84.4823 111.084C84.2157 111.084 83.9872 111.114 83.7967 111.173C83.6063 111.232 83.4518 111.334 83.3333 111.478C83.2149 111.621 83.1556 111.791 83.1556 111.985C83.1556 112.133 83.1789 112.267 83.2254 112.385C83.272 112.5 83.3587 112.605 83.4857 112.703C83.6126 112.8 83.7904 112.878 84.0189 112.938C84.3744 113.031 84.6981 113.115 84.9901 113.191C85.2863 113.268 85.5529 113.361 85.7899 113.471C86.0988 113.615 86.3358 113.773 86.5008 113.947C86.6701 114.12 86.7865 114.309 86.8499 114.512C86.9134 114.711 86.9452 114.933 86.9452 115.178C86.9452 115.631 86.8097 116.014 86.5389 116.327C86.2723 116.64 85.974 116.85 85.6439 116.956C85.3138 117.057 84.916 117.108 84.4505 117.108C83.82 117.108 83.2783 117.019 82.8255 116.841C82.377 116.659 82.0871 116.505 81.9559 116.378Z" fill="white"/>
<defs>
<clipPath id="clip0_164_199">
<rect width="74" height="63" fill="white" transform="translate(20)"/>
</clipPath>
</defs>
</svg>
