<svg width="129" height="117" viewBox="0 0 129 117" fill="none" xmlns="http://www.w3.org/2000/svg">
<path d="M37.0078 11.5181C39.3966 11.5181 41.3331 9.2658 41.3331 6.4874C41.3331 3.709 39.3966 1.45667 37.0078 1.45667C34.6191 1.45667 32.6826 3.709 32.6826 6.4874C32.6826 9.2658 34.6191 11.5181 37.0078 11.5181Z" stroke="#EFEFEF" stroke-width="1.5" stroke-miterlimit="10"/>
<path d="M31.6013 19.9025V35.9049C31.6013 37.3788 32.7835 38.572 34.2438 38.572H43.732C45.1923 38.572 46.3744 39.7651 46.3744 41.239V50.215C46.3744 51.6889 47.5566 52.8821 49.0169 52.8821H49.496C50.9563 52.8821 52.1384 51.6889 52.1384 50.215V35.3044C52.1384 33.8305 50.9563 32.6373 49.496 32.6373H43.4924C42.0321 32.6373 40.85 31.4442 40.85 29.9703V24.0279L42.0476 25.0105C42.5189 25.4004 43.1061 25.611 43.7165 25.611H49.5037C50.964 25.611 52.1462 24.4178 52.1462 22.9439C52.1462 21.47 50.964 20.2768 49.5037 20.2768H45.3777C44.3655 20.2768 43.4075 19.7231 42.9748 18.7951C42.5112 17.8047 41.669 16.557 40.1932 15.7303C39.6755 15.4418 38.0221 14.545 36.0054 14.9973C33.502 15.5666 32.2658 17.8047 31.8099 18.8653C31.6709 19.2006 31.6013 19.5516 31.6013 19.9103V19.9025Z" stroke="#EFEFEF" stroke-width="1.5" stroke-miterlimit="10"/>
<path d="M43.4957 42.7866H34.1504C33.4166 42.8563 31.5662 42.9259 29.7159 41.8267C26.5462 39.9302 26.2261 36.261 26.1948 35.8662V20.4618" stroke="white" stroke-width="1.5" stroke-miterlimit="10"/>
<path d="M34.8455 42.8206V54" stroke="white" stroke-width="1.5" stroke-miterlimit="10"/>
<path d="M28.3574 54H40.2518" stroke="white" stroke-width="1.5" stroke-miterlimit="10"/>
<path d="M89.992 11.5181C92.3807 11.5181 94.3172 9.2658 94.3172 6.4874C94.3172 3.709 92.3807 1.45667 89.992 1.45667C87.6032 1.45667 85.6667 3.709 85.6667 6.4874C85.6667 9.2658 87.6032 11.5181 89.992 11.5181Z" stroke="#EFEFEF" stroke-width="1.5" stroke-miterlimit="10"/>
<path d="M95.3986 19.9025V35.9049C95.3986 37.3788 94.2164 38.572 92.7561 38.572H83.268C81.8076 38.572 80.6255 39.7651 80.6255 41.239V50.215C80.6255 51.6889 79.4433 52.8821 77.983 52.8821H77.504C76.0436 52.8821 74.8615 51.6889 74.8615 50.215V35.3044C74.8615 33.8305 76.0436 32.6373 77.504 32.6373H83.5075C84.9678 32.6373 86.1499 31.4442 86.1499 29.9703V24.0279L84.9523 25.0105C84.481 25.4004 83.8938 25.611 83.2834 25.611H77.4962C76.0359 25.611 74.8538 24.4178 74.8538 22.9439C74.8538 21.47 76.0359 20.2768 77.4962 20.2768H81.6222C82.6344 20.2768 83.5925 19.7231 84.0251 18.7951C84.4887 17.8047 85.3309 16.557 86.8067 15.7303C87.3244 15.4418 88.9779 14.545 90.9945 14.9973C93.4979 15.5666 94.7341 17.8047 95.19 18.8653C95.3291 19.2006 95.3986 19.5516 95.3986 19.9103V19.9025Z" stroke="#EFEFEF" stroke-width="1.5" stroke-miterlimit="10"/>
<path d="M83.5042 42.7866H92.8495C93.5833 42.8563 95.4337 42.9259 97.284 41.8267C100.454 39.9302 100.774 36.261 100.805 35.8662V20.4618" stroke="white" stroke-width="1.5" stroke-miterlimit="10"/>
<path d="M91.0732 42.8206V54" stroke="white" stroke-width="1.5" stroke-miterlimit="10"/>
<path d="M96.4798 54H85.6667" stroke="white" stroke-width="1.5" stroke-miterlimit="10"/>
<path d="M81.3416 28.2872H45.6584" stroke="white" stroke-width="1.5" stroke-miterlimit="10"/>
<path d="M62.9592 28.2872V53.9999" stroke="white" stroke-width="1.5" stroke-miterlimit="10"/>
<path d="M70.5284 54H54.3088" stroke="white" stroke-width="1.5" stroke-miterlimit="10"/>
<path d="M19.5634 92.4487C19.5634 90.9676 19.9295 89.8081 20.6616 88.9702C21.3979 88.1281 22.4537 87.707 23.829 87.707C24.6331 87.707 25.2975 87.8446 25.8222 88.1196C26.3469 88.3905 26.7236 88.7629 26.9521 89.2368C27.0706 89.4823 27.0515 89.6515 26.895 89.7446L26.3935 90.0366C26.2242 90.134 26.074 90.0535 25.9428 89.7954C25.8032 89.5288 25.5746 89.2791 25.2573 89.0464C24.9399 88.8136 24.485 88.6973 23.8925 88.6973C22.8346 88.6973 22.0644 89.0273 21.582 89.6875C21.1038 90.3434 20.8647 91.2638 20.8647 92.4487C20.8647 93.6336 21.1038 94.5562 21.582 95.2163C22.0644 95.8722 22.8346 96.2002 23.8925 96.2002C24.5019 96.2002 24.9885 96.0605 25.3525 95.7812C25.7206 95.502 25.9872 95.21 26.1523 94.9053C26.2835 94.6598 26.4358 94.5858 26.6093 94.6831L27.1362 94.9814C27.2885 95.0703 27.3012 95.2396 27.1743 95.4893C26.9246 95.9759 26.5183 96.3822 25.9555 96.708C25.3927 97.0296 24.6839 97.1904 23.829 97.1904C22.4537 97.1904 21.3979 96.7715 20.6616 95.9336C19.9295 95.0915 19.5634 93.9299 19.5634 92.4487ZM28.6784 93.6675C28.6784 92.673 28.9408 91.8521 29.4655 91.2046C29.9945 90.5529 30.7668 90.2271 31.7824 90.2271C32.798 90.2271 33.5682 90.5529 34.093 91.2046C34.6219 91.8521 34.8864 92.673 34.8864 93.6675C34.8864 94.6619 34.6219 95.485 34.093 96.1367C33.5682 96.7842 32.798 97.1079 31.7824 97.1079C30.7668 97.1079 29.9945 96.7842 29.4655 96.1367C28.9408 95.485 28.6784 94.6619 28.6784 93.6675ZM29.8591 93.6675C29.8591 94.5562 30.0347 95.2142 30.3859 95.6416C30.7372 96.069 31.2027 96.2827 31.7824 96.2827C32.3622 96.2827 32.8277 96.069 33.1789 95.6416C33.5301 95.2142 33.7057 94.5562 33.7057 93.6675C33.7057 92.7788 33.5301 92.1208 33.1789 91.6934C32.8277 91.266 32.3622 91.0522 31.7824 91.0522C31.2027 91.0522 30.7372 91.266 30.3859 91.6934C30.0347 92.1208 29.8591 92.7788 29.8591 93.6675ZM36.873 97C36.6825 97 36.5873 96.9048 36.5873 96.7144V90.6206C36.5873 90.4302 36.6825 90.335 36.873 90.335H37.4062C37.5966 90.335 37.6918 90.4302 37.6918 90.6206V91.1284H37.7172C37.9923 90.8237 38.2885 90.5973 38.6059 90.4492C38.9233 90.3011 39.3189 90.2271 39.7929 90.2271C40.5631 90.2271 41.1153 90.445 41.4496 90.8809C41.7882 91.3125 41.9574 91.9049 41.9574 92.6582V96.7144C41.9574 96.9048 41.8622 97 41.6718 97H41.1259C40.9355 97 40.8403 96.9048 40.8403 96.7144V92.9629C40.8403 92.1335 40.7027 91.6087 40.4277 91.3887C40.1526 91.1644 39.8035 91.0522 39.3803 91.0522C38.8302 91.0522 38.4133 91.2173 38.1298 91.5474C37.8463 91.8732 37.7045 92.4339 37.7045 93.2295V96.7144C37.7045 96.9048 37.6093 97 37.4189 97H36.873ZM43.7472 96.3779C43.616 96.2552 43.5885 96.141 43.6647 96.0352L43.9504 95.6353C44.0435 95.5083 44.181 95.5146 44.363 95.6543C44.6126 95.8447 44.8898 95.9971 45.1945 96.1113C45.5034 96.2256 45.8547 96.2827 46.2482 96.2827C46.481 96.2827 46.6883 96.2552 46.8703 96.2002C47.0522 96.141 47.2109 96.033 47.3464 95.8765C47.486 95.7199 47.5558 95.5104 47.5558 95.248C47.5558 95.0957 47.522 94.9518 47.4543 94.8164C47.3908 94.681 47.2892 94.5731 47.1496 94.4927C47.0142 94.408 46.8809 94.3424 46.7497 94.2959C46.5339 94.2155 46.318 94.1499 46.1022 94.0991C45.8906 94.0441 45.6113 93.9616 45.2643 93.8516C45.0316 93.7796 44.8115 93.6781 44.6042 93.5469C44.3968 93.4115 44.2148 93.2295 44.0583 93.001C43.9059 92.7725 43.8298 92.4572 43.8298 92.0552C43.8298 91.6447 43.9546 91.2913 44.2043 90.9951C44.4539 90.6989 44.7671 90.4979 45.1437 90.3921C45.5203 90.2821 45.8864 90.2271 46.2419 90.2271C46.7666 90.2271 47.1877 90.2884 47.505 90.4111C47.8267 90.5296 48.1038 90.6714 48.3366 90.8364C48.472 90.9338 48.491 91.0459 48.3937 91.1729L48.1081 91.5537C48.0192 91.6764 47.8817 91.6722 47.6955 91.541C47.5389 91.431 47.3167 91.3273 47.029 91.23C46.7412 91.1326 46.4894 91.084 46.2736 91.084C46.007 91.084 45.7785 91.1136 45.5881 91.1729C45.3976 91.2321 45.2432 91.3337 45.1247 91.4775C45.0062 91.6214 44.9469 91.7907 44.9469 91.9854C44.9469 92.1335 44.9702 92.2668 45.0168 92.3853C45.0633 92.4995 45.1501 92.6053 45.277 92.7026C45.404 92.8 45.5817 92.8783 45.8102 92.9375C46.1657 93.0306 46.4894 93.1152 46.7814 93.1914C47.0776 93.2676 47.3442 93.3607 47.5812 93.4707C47.8901 93.6146 48.1271 93.7733 48.2922 93.9468C48.4614 94.1203 48.5778 94.3086 48.6413 94.5117C48.7048 94.7106 48.7365 94.9328 48.7365 95.1782C48.7365 95.631 48.6011 96.014 48.3302 96.3271C48.0636 96.6403 47.7653 96.8498 47.4352 96.9556C47.1051 97.0571 46.7074 97.1079 46.2419 97.1079C45.6113 97.1079 45.0697 97.019 44.6169 96.8413C44.1683 96.6593 43.8784 96.5049 43.7472 96.3779ZM49.9359 91.1729C49.7455 91.1729 49.6503 91.0988 49.6503 90.9507V90.5571C49.6503 90.409 49.7455 90.335 49.9359 90.335H50.685V89.7637C50.685 89.679 50.7061 89.5986 50.7484 89.5225L51.1928 88.7163C51.2732 88.5682 51.3388 88.4941 51.3896 88.4941H51.6117C51.7387 88.4941 51.8022 88.5682 51.8022 88.7163V90.335H53.1542C53.3446 90.335 53.4398 90.409 53.4398 90.5571V90.9507C53.4398 91.0988 53.3446 91.1729 53.1542 91.1729H51.8022V95.2163C51.8022 95.6606 51.8677 95.9505 51.9989 96.0859C52.1343 96.2171 52.2952 96.2827 52.4813 96.2827C52.6252 96.2827 52.7966 96.2404 52.9955 96.1558C53.1986 96.0711 53.3383 95.9992 53.4145 95.9399C53.4906 95.8807 53.5499 95.8997 53.5922 95.9971L53.8017 96.4858C53.8355 96.5705 53.8101 96.6382 53.7255 96.689C53.5605 96.7863 53.3192 96.8815 53.0019 96.9746C52.6845 97.0635 52.3671 97.1079 52.0497 97.1079C51.6096 97.1079 51.2711 96.9492 51.0341 96.6318C50.8013 96.3145 50.685 95.8659 50.685 95.2861V91.1729H49.9359ZM54.9694 93.6675C54.9694 92.618 55.2317 91.7822 55.7565 91.1602C56.2812 90.5381 57.0324 90.2271 58.0099 90.2271C58.8224 90.2271 59.4953 90.5127 60.0285 91.084C60.5659 91.651 60.8346 92.5588 60.8346 93.8071C60.8346 93.9976 60.7479 94.0928 60.5744 94.0928H56.15C56.222 94.9095 56.442 95.4787 56.8102 95.8003C57.1784 96.1177 57.5952 96.2764 58.0607 96.2764C58.5516 96.2764 58.9282 96.1938 59.1906 96.0288C59.4529 95.8638 59.6455 95.7008 59.7682 95.54C59.9036 95.3623 60.0348 95.3285 60.1618 95.4385L60.5363 95.7622C60.6336 95.8468 60.6336 95.9632 60.5363 96.1113C60.4559 96.234 60.2252 96.4308 59.8444 96.7017C59.4677 96.9725 58.8732 97.1079 58.0607 97.1079C57.0027 97.1079 56.222 96.7969 55.7184 96.1748C55.2191 95.5527 54.9694 94.717 54.9694 93.6675ZM56.1246 93.2676H59.7111C59.6941 92.6751 59.5418 92.1567 59.254 91.7124C58.9663 91.2638 58.5431 91.0396 57.9845 91.0396C57.4936 91.0396 57.0768 91.2046 56.734 91.5347C56.3913 91.8605 56.1881 92.4382 56.1246 93.2676ZM62.8466 97C62.6561 97 62.5609 96.9048 62.5609 96.7144V88.7925C62.5609 88.7078 62.5821 88.6274 62.6244 88.5513L63.0687 87.7451C63.1491 87.597 63.2147 87.5229 63.2655 87.5229H63.4877C63.6146 87.5229 63.6781 87.597 63.6781 87.7451V96.7144C63.6781 96.9048 63.5829 97 63.3925 97H62.8466ZM65.379 95.2227C65.379 94.4694 65.7303 93.9172 66.4327 93.5659C67.1394 93.2147 68.1932 93.0094 69.5939 92.9502V92.5186C69.5939 92.1208 69.5029 91.778 69.3209 91.4902C69.1432 91.1982 68.7877 91.0522 68.2545 91.0522C67.916 91.0522 67.6451 91.0861 67.442 91.1538C67.2389 91.2173 67.0527 91.304 66.8834 91.4141C66.7184 91.5199 66.5597 91.6574 66.4073 91.8267C66.2931 91.9536 66.1852 91.96 66.0836 91.8457L65.7535 91.4648C65.6604 91.359 65.6922 91.2321 65.8488 91.084C66.073 90.8724 66.291 90.7137 66.5026 90.6079C66.7142 90.5021 66.9765 90.4132 67.2897 90.3413C67.6071 90.2651 67.9287 90.2271 68.2545 90.2271C69.139 90.2271 69.7695 90.4556 70.1461 90.9126C70.5227 91.3654 70.7111 91.9875 70.7111 92.7788V96.7144C70.7111 96.9048 70.6158 97 70.4254 97H69.8541C69.6891 97 69.6066 96.9048 69.6066 96.7144V96.4033H69.5939C69.2596 96.6657 68.9316 96.8498 68.61 96.9556C68.2926 97.0571 67.9371 97.1079 67.5436 97.1079C66.8496 97.1079 66.3142 96.9429 65.9376 96.6128C65.5652 96.2785 65.379 95.8151 65.379 95.2227ZM66.5343 95.248C66.5343 95.5104 66.5893 95.722 66.6993 95.8828C66.8094 96.0394 66.9617 96.141 67.1564 96.1875C67.351 96.2298 67.5542 96.251 67.7657 96.251C68.0916 96.251 68.4005 96.2192 68.6925 96.1558C68.9845 96.0923 69.285 95.9251 69.5939 95.6543V93.7817C68.7391 93.8452 68.1297 93.9235 67.7657 94.0166C67.4018 94.1055 67.1056 94.262 66.8771 94.4863C66.6486 94.7064 66.5343 94.9603 66.5343 95.248ZM72.4183 93.6675C72.4183 92.673 72.6638 91.8521 73.1546 91.2046C73.6498 90.5529 74.4051 90.2271 75.4208 90.2271C76.1063 90.2271 76.6289 90.3498 76.9886 90.5952C77.3526 90.8364 77.6149 91.084 77.7757 91.3379C77.8646 91.4775 77.8456 91.5897 77.7186 91.6743L77.3187 91.9346C77.1918 92.0234 77.0648 91.9663 76.9379 91.7632C76.8151 91.5685 76.6416 91.4014 76.4173 91.2617C76.1973 91.1221 75.8651 91.0522 75.4208 91.0522C74.841 91.0522 74.3924 91.266 74.0751 91.6934C73.7577 92.1208 73.599 92.7788 73.599 93.6675C73.599 94.5562 73.7577 95.2142 74.0751 95.6416C74.3924 96.069 74.841 96.2827 75.4208 96.2827C75.8905 96.2827 76.2502 96.1938 76.4999 96.0161C76.7495 95.8341 76.9315 95.6374 77.0458 95.4258C77.1558 95.2269 77.2806 95.1698 77.4203 95.2544L77.8456 95.5083C77.9725 95.5845 77.9916 95.6987 77.9027 95.8511C77.7969 96.033 77.5557 96.2891 77.1791 96.6191C76.8067 96.945 76.2206 97.1079 75.4208 97.1079C74.4051 97.1079 73.6498 96.7842 73.1546 96.1367C72.6638 95.485 72.4183 94.6619 72.4183 93.6675ZM79.8385 97C79.648 97 79.5528 96.9048 79.5528 96.7144V90.6206C79.5528 90.4302 79.648 90.335 79.8385 90.335H80.3844C80.5748 90.335 80.67 90.4302 80.67 90.6206V96.7144C80.67 96.9048 80.5748 97 80.3844 97H79.8385ZM79.8385 89.1289C79.648 89.1289 79.5528 89.0337 79.5528 88.8433V88.2974C79.5528 88.1069 79.648 88.0117 79.8385 88.0117H80.3844C80.5748 88.0117 80.67 88.1069 80.67 88.2974V88.8433C80.67 89.0337 80.5748 89.1289 80.3844 89.1289H79.8385ZM82.3709 93.6675C82.3709 92.673 82.6333 91.8521 83.1581 91.2046C83.687 90.5529 84.4593 90.2271 85.4749 90.2271C86.4906 90.2271 87.2608 90.5529 87.7855 91.2046C88.3145 91.8521 88.5789 92.673 88.5789 93.6675C88.5789 94.6619 88.3145 95.485 87.7855 96.1367C87.2608 96.7842 86.4906 97.1079 85.4749 97.1079C84.4593 97.1079 83.687 96.7842 83.1581 96.1367C82.6333 95.485 82.3709 94.6619 82.3709 93.6675ZM83.5516 93.6675C83.5516 94.5562 83.7272 95.2142 84.0785 95.6416C84.4297 96.069 84.8952 96.2827 85.4749 96.2827C86.0547 96.2827 86.5202 96.069 86.8714 95.6416C87.2227 95.2142 87.3983 94.5562 87.3983 93.6675C87.3983 92.7788 87.2227 92.1208 86.8714 91.6934C86.5202 91.266 86.0547 91.0522 85.4749 91.0522C84.8952 91.0522 84.4297 91.266 84.0785 91.6934C83.7272 92.1208 83.5516 92.7788 83.5516 93.6675ZM90.5655 97C90.3751 97 90.2799 96.9048 90.2799 96.7144V90.6206C90.2799 90.4302 90.3751 90.335 90.5655 90.335H91.0987C91.2891 90.335 91.3844 90.4302 91.3844 90.6206V91.1284H91.4097C91.6848 90.8237 91.981 90.5973 92.2984 90.4492C92.6158 90.3011 93.0115 90.2271 93.4854 90.2271C94.2556 90.2271 94.8079 90.445 95.1422 90.8809C95.4807 91.3125 95.65 91.9049 95.65 92.6582V96.7144C95.65 96.9048 95.5548 97 95.3643 97H94.8184C94.628 97 94.5328 96.9048 94.5328 96.7144V92.9629C94.5328 92.1335 94.3953 91.6087 94.1202 91.3887C93.8451 91.1644 93.496 91.0522 93.0728 91.0522C92.5227 91.0522 92.1059 91.2173 91.8223 91.5474C91.5388 91.8732 91.397 92.4339 91.397 93.2295V96.7144C91.397 96.9048 91.3018 97 91.1114 97H90.5655ZM97.3382 93.6675C97.3382 92.618 97.6006 91.7822 98.1253 91.1602C98.6501 90.5381 99.4012 90.2271 100.379 90.2271C101.191 90.2271 101.864 90.5127 102.397 91.084C102.935 91.651 103.203 92.5588 103.203 93.8071C103.203 93.9976 103.117 94.0928 102.943 94.0928H98.5189C98.5908 94.9095 98.8109 95.4787 99.179 95.8003C99.5472 96.1177 99.964 96.2764 100.43 96.2764C100.92 96.2764 101.297 96.1938 101.559 96.0288C101.822 95.8638 102.014 95.7008 102.137 95.54C102.272 95.3623 102.404 95.3285 102.531 95.4385L102.905 95.7622C103.002 95.8468 103.002 95.9632 102.905 96.1113C102.825 96.234 102.594 96.4308 102.213 96.7017C101.837 96.9725 101.242 97.1079 100.43 97.1079C99.3716 97.1079 98.5908 96.7969 98.0872 96.1748C97.5879 95.5527 97.3382 94.717 97.3382 93.6675ZM98.4935 93.2676H102.08C102.063 92.6751 101.911 92.1567 101.623 91.7124C101.335 91.2638 100.912 91.0396 100.353 91.0396C99.8625 91.0396 99.4456 91.2046 99.1029 91.5347C98.7601 91.8605 98.557 92.4382 98.4935 93.2676ZM104.669 96.3779C104.538 96.2552 104.511 96.141 104.587 96.0352L104.873 95.6353C104.966 95.5083 105.103 95.5146 105.285 95.6543C105.535 95.8447 105.812 95.9971 106.117 96.1113C106.426 96.2256 106.777 96.2827 107.17 96.2827C107.403 96.2827 107.611 96.2552 107.793 96.2002C107.975 96.141 108.133 96.033 108.269 95.8765C108.408 95.7199 108.478 95.5104 108.478 95.248C108.478 95.0957 108.444 94.9518 108.377 94.8164C108.313 94.681 108.211 94.5731 108.072 94.4927C107.936 94.408 107.803 94.3424 107.672 94.2959C107.456 94.2155 107.24 94.1499 107.024 94.0991C106.813 94.0441 106.534 93.9616 106.187 93.8516C105.954 93.7796 105.734 93.6781 105.526 93.5469C105.319 93.4115 105.137 93.2295 104.981 93.001C104.828 92.7725 104.752 92.4572 104.752 92.0552C104.752 91.6447 104.877 91.2913 105.127 90.9951C105.376 90.6989 105.689 90.4979 106.066 90.3921C106.443 90.2821 106.809 90.2271 107.164 90.2271C107.689 90.2271 108.11 90.2884 108.427 90.4111C108.749 90.5296 109.026 90.6714 109.259 90.8364C109.394 90.9338 109.413 91.0459 109.316 91.1729L109.03 91.5537C108.941 91.6764 108.804 91.6722 108.618 91.541C108.461 91.431 108.239 91.3273 107.951 91.23C107.663 91.1326 107.412 91.084 107.196 91.084C106.929 91.084 106.701 91.1136 106.51 91.1729C106.32 91.2321 106.165 91.3337 106.047 91.4775C105.928 91.6214 105.869 91.7907 105.869 91.9854C105.869 92.1335 105.892 92.2668 105.939 92.3853C105.986 92.4995 106.072 92.6053 106.199 92.7026C106.326 92.8 106.504 92.8783 106.732 92.9375C107.088 93.0306 107.412 93.1152 107.704 93.1914C108 93.2676 108.266 93.3607 108.503 93.4707C108.812 93.6146 109.049 93.7733 109.214 93.9468C109.384 94.1203 109.5 94.3086 109.564 94.5117C109.627 94.7106 109.659 94.9328 109.659 95.1782C109.659 95.631 109.523 96.014 109.253 96.3271C108.986 96.6403 108.688 96.8498 108.357 96.9556C108.027 97.0571 107.63 97.1079 107.164 97.1079C106.534 97.1079 105.992 97.019 105.539 96.8413C105.091 96.6593 104.801 96.5049 104.669 96.3779ZM31.154 113C30.9424 113 30.8366 112.884 30.8366 112.651V104.247C30.8366 104.014 30.9424 103.897 31.154 103.897H31.738C31.9496 103.897 32.0554 104.014 32.0554 104.247V112.651C32.0554 112.884 31.9496 113 31.738 113H31.154ZM34.5815 113C34.391 113 34.2958 112.905 34.2958 112.714V106.621C34.2958 106.43 34.391 106.335 34.5815 106.335H35.1147C35.3051 106.335 35.4003 106.43 35.4003 106.621V107.128H35.4257C35.7008 106.824 35.997 106.597 36.3144 106.449C36.6318 106.301 37.0274 106.227 37.5014 106.227C38.2716 106.227 38.8238 106.445 39.1581 106.881C39.4967 107.312 39.6659 107.905 39.6659 108.658V112.714C39.6659 112.905 39.5707 113 39.3803 113H38.8344C38.644 113 38.5487 112.905 38.5487 112.714V108.963C38.5487 108.133 38.4112 107.609 38.1362 107.389C37.8611 107.164 37.512 107.052 37.0888 107.052C36.5387 107.052 36.1218 107.217 35.8383 107.547C35.5548 107.873 35.413 108.434 35.413 109.229V112.714C35.413 112.905 35.3178 113 35.1274 113H34.5815ZM41.3542 109.667C41.3542 108.758 41.5742 107.958 42.0143 107.268C42.4544 106.574 43.0976 106.227 43.944 106.227C44.4307 106.227 44.82 106.307 45.112 106.468C45.404 106.629 45.6663 106.849 45.8991 107.128H45.9118C45.9033 107.001 45.8991 106.872 45.8991 106.741V103.917C45.8991 103.726 45.9943 103.631 46.1847 103.631H46.7306C46.9211 103.631 47.0163 103.726 47.0163 103.917V112.714C47.0163 112.905 46.9211 113 46.7306 113H46.1974C46.0451 113 45.9626 112.905 45.9499 112.714L45.9118 112.207H45.8991C45.6663 112.486 45.404 112.706 45.112 112.867C44.82 113.028 44.4307 113.108 43.944 113.108C43.0976 113.108 42.4544 112.763 42.0143 112.073C41.5742 111.379 41.3542 110.577 41.3542 109.667ZM42.5348 109.667C42.5348 110.446 42.6681 111.077 42.9347 111.559C43.2056 112.042 43.6626 112.283 44.3058 112.283C44.7629 112.283 45.1416 112.128 45.4421 111.819C45.7467 111.506 45.8991 111.032 45.8991 110.397V108.938C45.8991 108.303 45.7467 107.831 45.4421 107.522C45.1416 107.209 44.7629 107.052 44.3058 107.052C43.6626 107.052 43.2056 107.293 42.9347 107.776C42.6681 108.258 42.5348 108.889 42.5348 109.667ZM49.371 113C49.1806 113 49.0854 112.905 49.0854 112.714V106.621C49.0854 106.43 49.1806 106.335 49.371 106.335H49.9169C50.1073 106.335 50.2025 106.43 50.2025 106.621V112.714C50.2025 112.905 50.1073 113 49.9169 113H49.371ZM49.371 105.129C49.1806 105.129 49.0854 105.034 49.0854 104.843V104.297C49.0854 104.107 49.1806 104.012 49.371 104.012H49.9169C50.1073 104.012 50.2025 104.107 50.2025 104.297V104.843C50.2025 105.034 50.1073 105.129 49.9169 105.129H49.371ZM51.7575 106.646C51.6855 106.439 51.7427 106.335 51.9288 106.335H52.6207C52.7562 106.335 52.8514 106.417 52.9064 106.583L54.2521 110.772C54.3621 111.115 54.4362 111.352 54.4743 111.483C54.5166 111.61 54.5547 111.769 54.5885 111.959H54.6139C54.6478 111.769 54.6837 111.61 54.7218 111.483C54.7641 111.352 54.8403 111.115 54.9503 110.772L56.296 106.583C56.351 106.417 56.4463 106.335 56.5817 106.335H57.2736C57.4598 106.335 57.5169 106.439 57.445 106.646L55.3629 112.613C55.2741 112.871 55.1598 113 55.0202 113H54.1823C54.0426 113 53.9284 112.871 53.8395 112.613L51.7575 106.646ZM59.0697 113C58.8793 113 58.7841 112.905 58.7841 112.714V106.621C58.7841 106.43 58.8793 106.335 59.0697 106.335H59.6156C59.806 106.335 59.9012 106.43 59.9012 106.621V112.714C59.9012 112.905 59.806 113 59.6156 113H59.0697ZM59.0697 105.129C58.8793 105.129 58.7841 105.034 58.7841 104.843V104.297C58.7841 104.107 58.8793 104.012 59.0697 104.012H59.6156C59.806 104.012 59.9012 104.107 59.9012 104.297V104.843C59.9012 105.034 59.806 105.129 59.6156 105.129H59.0697ZM61.6022 109.667C61.6022 108.758 61.8222 107.958 62.2623 107.268C62.7024 106.574 63.3457 106.227 64.192 106.227C64.6787 106.227 65.068 106.307 65.36 106.468C65.652 106.629 65.9143 106.849 66.1471 107.128H66.1598C66.1513 107.001 66.1471 106.872 66.1471 106.741V103.917C66.1471 103.726 66.2423 103.631 66.4327 103.631H66.9786C67.1691 103.631 67.2643 103.726 67.2643 103.917V112.714C67.2643 112.905 67.1691 113 66.9786 113H66.4454C66.2931 113 66.2106 112.905 66.1979 112.714L66.1598 112.207H66.1471C65.9143 112.486 65.652 112.706 65.36 112.867C65.068 113.028 64.6787 113.108 64.192 113.108C63.3457 113.108 62.7024 112.763 62.2623 112.073C61.8222 111.379 61.6022 110.577 61.6022 109.667ZM62.7828 109.667C62.7828 110.446 62.9161 111.077 63.1827 111.559C63.4536 112.042 63.9106 112.283 64.5538 112.283C65.0109 112.283 65.3896 112.128 65.6901 111.819C65.9947 111.506 66.1471 111.032 66.1471 110.397V108.938C66.1471 108.303 65.9947 107.831 65.6901 107.522C65.3896 107.209 65.0109 107.052 64.5538 107.052C63.9106 107.052 63.4536 107.293 63.1827 107.776C62.9161 108.258 62.7828 108.889 62.7828 109.667ZM69.3207 110.677V106.621C69.3207 106.43 69.4159 106.335 69.6063 106.335H70.1522C70.3426 106.335 70.4379 106.43 70.4379 106.621V110.372C70.4379 111.201 70.5754 111.728 70.8504 111.953C71.1255 112.173 71.4662 112.283 71.8724 112.283C72.4056 112.283 72.814 112.12 73.0975 111.794C73.381 111.464 73.5228 110.901 73.5228 110.105V106.621C73.5228 106.43 73.618 106.335 73.8085 106.335H74.3544C74.5448 106.335 74.64 106.43 74.64 106.621V112.714C74.64 112.905 74.5448 113 74.3544 113H73.8212C73.6307 113 73.5355 112.905 73.5355 112.714V112.207H73.5101C73.2351 112.511 72.9388 112.738 72.6214 112.886C72.3041 113.034 71.9169 113.108 71.4598 113.108C70.7193 113.108 70.1776 112.892 69.8348 112.46C69.4921 112.025 69.3207 111.43 69.3207 110.677ZM76.3409 111.223C76.3409 110.469 76.6922 109.917 77.3946 109.566C78.1013 109.215 79.155 109.009 80.5558 108.95V108.519C80.5558 108.121 80.4648 107.778 80.2828 107.49C80.1051 107.198 79.7496 107.052 79.2164 107.052C78.8779 107.052 78.607 107.086 78.4039 107.154C78.2008 107.217 78.0146 107.304 77.8453 107.414C77.6803 107.52 77.5216 107.657 77.3692 107.827C77.255 107.954 77.1471 107.96 77.0455 107.846L76.7154 107.465C76.6223 107.359 76.6541 107.232 76.8106 107.084C77.0349 106.872 77.2529 106.714 77.4645 106.608C77.676 106.502 77.9384 106.413 78.2516 106.341C78.5689 106.265 78.8906 106.227 79.2164 106.227C80.1008 106.227 80.7314 106.456 81.108 106.913C81.4846 107.365 81.673 107.987 81.673 108.779V112.714C81.673 112.905 81.5777 113 81.3873 113H80.816C80.651 113 80.5685 112.905 80.5685 112.714V112.403H80.5558C80.2215 112.666 79.8935 112.85 79.5719 112.956C79.2545 113.057 78.899 113.108 78.5055 113.108C77.8115 113.108 77.2761 112.943 76.8995 112.613C76.5271 112.278 76.3409 111.815 76.3409 111.223ZM77.4962 111.248C77.4962 111.51 77.5512 111.722 77.6612 111.883C77.7713 112.039 77.9236 112.141 78.1183 112.188C78.3129 112.23 78.516 112.251 78.7276 112.251C79.0535 112.251 79.3624 112.219 79.6544 112.156C79.9464 112.092 80.2468 111.925 80.5558 111.654V109.782C79.7009 109.845 79.0916 109.924 78.7276 110.017C78.3637 110.105 78.0675 110.262 77.839 110.486C77.6105 110.706 77.4962 110.96 77.4962 111.248ZM84.0277 113C83.8372 113 83.742 112.905 83.742 112.714V104.792C83.742 104.708 83.7632 104.627 83.8055 104.551L84.2498 103.745C84.3303 103.597 84.3958 103.523 84.4466 103.523H84.6688C84.7957 103.523 84.8592 103.597 84.8592 103.745V112.714C84.8592 112.905 84.764 113 84.5736 113H84.0277ZM86.5601 109.667C86.5601 108.618 86.8225 107.782 87.3472 107.16C87.872 106.538 88.6231 106.227 89.6007 106.227C90.4132 106.227 91.086 106.513 91.6192 107.084C92.1567 107.651 92.4254 108.559 92.4254 109.807C92.4254 109.998 92.3386 110.093 92.1651 110.093H87.7408C87.8127 110.91 88.0328 111.479 88.401 111.8C88.7691 112.118 89.1859 112.276 89.6514 112.276C90.1423 112.276 90.519 112.194 90.7813 112.029C91.0437 111.864 91.2362 111.701 91.359 111.54C91.4944 111.362 91.6256 111.328 91.7525 111.438L92.127 111.762C92.2244 111.847 92.2244 111.963 92.127 112.111C92.0466 112.234 91.816 112.431 91.4351 112.702C91.0585 112.972 90.4639 113.108 89.6514 113.108C88.5935 113.108 87.8127 112.797 87.3092 112.175C86.8098 111.553 86.5601 110.717 86.5601 109.667ZM87.7154 109.268H91.3018C91.2849 108.675 91.1326 108.157 90.8448 107.712C90.557 107.264 90.1339 107.04 89.5753 107.04C89.0844 107.04 88.6676 107.205 88.3248 107.535C87.982 107.861 87.7789 108.438 87.7154 109.268ZM93.8914 112.378C93.7602 112.255 93.7327 112.141 93.8089 112.035L94.0946 111.635C94.1877 111.508 94.3252 111.515 94.5071 111.654C94.7568 111.845 95.034 111.997 95.3387 112.111C95.6476 112.226 95.9988 112.283 96.3924 112.283C96.6252 112.283 96.8325 112.255 97.0145 112.2C97.1964 112.141 97.3551 112.033 97.4905 111.876C97.6302 111.72 97.7 111.51 97.7 111.248C97.7 111.096 97.6662 110.952 97.5985 110.816C97.535 110.681 97.4334 110.573 97.2938 110.493C97.1584 110.408 97.0251 110.342 96.8939 110.296C96.678 110.215 96.4622 110.15 96.2464 110.099C96.0348 110.044 95.7555 109.962 95.4085 109.852C95.1758 109.78 94.9557 109.678 94.7484 109.547C94.541 109.411 94.359 109.229 94.2025 109.001C94.0501 108.772 93.9739 108.457 93.9739 108.055C93.9739 107.645 94.0988 107.291 94.3485 106.995C94.5981 106.699 94.9113 106.498 95.2879 106.392C95.6645 106.282 96.0306 106.227 96.3861 106.227C96.9108 106.227 97.3319 106.288 97.6492 106.411C97.9709 106.53 98.248 106.671 98.4808 106.836C98.6162 106.934 98.6352 107.046 98.5379 107.173L98.2523 107.554C98.1634 107.676 98.0259 107.672 97.8397 107.541C97.6831 107.431 97.4609 107.327 97.1732 107.23C96.8854 107.133 96.6336 107.084 96.4178 107.084C96.1512 107.084 95.9227 107.114 95.7322 107.173C95.5418 107.232 95.3874 107.334 95.2689 107.478C95.1504 107.621 95.0911 107.791 95.0911 107.985C95.0911 108.133 95.1144 108.267 95.161 108.385C95.2075 108.5 95.2943 108.605 95.4212 108.703C95.5482 108.8 95.7259 108.878 95.9544 108.938C96.3099 109.031 96.6336 109.115 96.9256 109.191C97.2218 109.268 97.4884 109.361 97.7254 109.471C98.0343 109.615 98.2713 109.773 98.4363 109.947C98.6056 110.12 98.722 110.309 98.7855 110.512C98.8489 110.711 98.8807 110.933 98.8807 111.178C98.8807 111.631 98.7453 112.014 98.4744 112.327C98.2078 112.64 97.9095 112.85 97.5794 112.956C97.2493 113.057 96.8515 113.108 96.3861 113.108C95.7555 113.108 95.2139 113.019 94.7611 112.841C94.3125 112.659 94.0226 112.505 93.8914 112.378Z" fill="white"/>
</svg>
