<svg width="129" height="112" viewBox="0 0 129 112" fill="none" xmlns="http://www.w3.org/2000/svg">
<path d="M37.0078 12.2321C39.3966 12.2321 41.3331 9.83922 41.3331 6.88747C41.3331 3.93572 39.3966 1.54285 37.0078 1.54285C34.6191 1.54285 32.6826 3.93572 32.6826 6.88747C32.6826 9.83922 34.6191 12.2321 37.0078 12.2321Z" stroke="#EFEFEF" stroke-width="1.5" stroke-miterlimit="10"/>
<path d="M31.6016 21.1396V38.1404C31.6016 39.7063 32.7837 40.9739 34.244 40.9739H43.7322C45.1925 40.9739 46.3747 42.2415 46.3747 43.8074V53.3434C46.3747 54.9093 47.5568 56.1769 49.0172 56.1769H49.4962C50.9565 56.1769 52.1387 54.9093 52.1387 53.3434V37.5025C52.1387 35.9366 50.9565 34.669 49.4962 34.669H43.4927C42.0324 34.669 40.8502 33.4014 40.8502 31.8355V25.5224L42.0478 26.5663C42.5191 26.9805 43.1064 27.2042 43.7168 27.2042H49.5039C50.9642 27.2042 52.1464 25.9366 52.1464 24.3707C52.1464 22.8049 50.9642 21.5373 49.5039 21.5373H45.378C44.3658 21.5373 43.4077 20.949 42.975 19.9631C42.5114 18.9109 41.6692 17.5853 40.1935 16.7071C39.6758 16.4006 38.0223 15.4478 36.0057 15.9283C33.5023 16.5331 32.266 18.9109 31.8102 20.0377C31.6711 20.3939 31.6016 20.7668 31.6016 21.1479V21.1396Z" stroke="#EFEFEF" stroke-width="1.5" stroke-miterlimit="10"/>
<path d="M43.4957 45.4515H34.1504C33.4166 45.5255 31.5662 45.5995 29.7159 44.4317C26.5462 42.4169 26.2261 38.5188 26.1948 38.0993V21.7338" stroke="white" stroke-width="1.5" stroke-miterlimit="10"/>
<path d="M34.8452 45.4875V57.3645" stroke="white" stroke-width="1.5" stroke-miterlimit="10"/>
<path d="M28.3574 57.3646H40.2518" stroke="white" stroke-width="1.5" stroke-miterlimit="10"/>
<path d="M89.9922 12.2321C92.381 12.2321 94.3175 9.83922 94.3175 6.88747C94.3175 3.93572 92.381 1.54285 89.9922 1.54285C87.6035 1.54285 85.667 3.93572 85.667 6.88747C85.667 9.83922 87.6035 12.2321 89.9922 12.2321Z" stroke="#EFEFEF" stroke-width="1.5" stroke-miterlimit="10"/>
<path d="M95.3984 21.1396V38.1404C95.3984 39.7063 94.2162 40.9739 92.7559 40.9739H83.2677C81.8074 40.9739 80.6252 42.2415 80.6252 43.8074V53.3434C80.6252 54.9093 79.4431 56.1769 77.9828 56.1769H77.5037C76.0434 56.1769 74.8612 54.9093 74.8612 53.3434V37.5025C74.8612 35.9366 76.0434 34.669 77.5037 34.669H83.5072C84.9675 34.669 86.1497 33.4014 86.1497 31.8355V25.5224L84.9521 26.5663C84.4808 26.9805 83.8936 27.2042 83.2832 27.2042H77.496C76.0357 27.2042 74.8535 25.9366 74.8535 24.3707C74.8535 22.8049 76.0357 21.5373 77.496 21.5373H81.622C82.6341 21.5373 83.5922 20.949 84.0249 19.9631C84.4885 18.9109 85.3307 17.5853 86.8065 16.7071C87.3241 16.4006 88.9776 15.4478 90.9942 15.9283C93.4976 16.5331 94.7339 18.9109 95.1897 20.0377C95.3288 20.3939 95.3984 20.7668 95.3984 21.1479V21.1396Z" stroke="#EFEFEF" stroke-width="1.5" stroke-miterlimit="10"/>
<path d="M83.5044 45.4515H92.8497C93.5836 45.5255 95.4339 45.5995 97.2842 44.4317C100.454 42.4169 100.774 38.5188 100.805 38.0993V21.7338" stroke="white" stroke-width="1.5" stroke-miterlimit="10"/>
<path d="M91.0732 45.4875V57.3645" stroke="white" stroke-width="1.5" stroke-miterlimit="10"/>
<path d="M96.4801 57.3646H85.667" stroke="white" stroke-width="1.5" stroke-miterlimit="10"/>
<path d="M81.3414 30.0475H45.6582" stroke="white" stroke-width="1.5" stroke-miterlimit="10"/>
<path d="M62.9595 30.0475V57.3645" stroke="white" stroke-width="1.5" stroke-miterlimit="10"/>
<path d="M70.5287 57.3646H54.3091" stroke="white" stroke-width="1.5" stroke-miterlimit="10"/>
<path d="M39.9069 91.2383C39.6953 91.2383 39.5895 91.1219 39.5895 90.8892V82.4849C39.5895 82.2521 39.6953 82.1357 39.9069 82.1357H40.4909C40.7025 82.1357 40.8083 82.2521 40.8083 82.4849V90.8892C40.8083 91.1219 40.7025 91.2383 40.4909 91.2383H39.9069ZM43.3344 91.2383C43.1439 91.2383 43.0487 91.1431 43.0487 90.9526V84.8589C43.0487 84.6685 43.1439 84.5732 43.3344 84.5732H43.8676C44.058 84.5732 44.1532 84.6685 44.1532 84.8589V85.3667H44.1786C44.4537 85.062 44.7499 84.8356 45.0673 84.6875C45.3847 84.5394 45.7803 84.4653 46.2543 84.4653C47.0245 84.4653 47.5767 84.6833 47.911 85.1191C48.2496 85.5508 48.4188 86.1432 48.4188 86.8965V90.9526C48.4188 91.1431 48.3236 91.2383 48.1332 91.2383H47.5873C47.3969 91.2383 47.3017 91.1431 47.3017 90.9526V87.2012C47.3017 86.3717 47.1641 85.847 46.8891 85.627C46.614 85.4027 46.2649 85.2905 45.8417 85.2905C45.2916 85.2905 44.8747 85.4556 44.5912 85.7856C44.3077 86.1115 44.1659 86.6722 44.1659 87.4678V90.9526C44.1659 91.1431 44.0707 91.2383 43.8803 91.2383H43.3344ZM50.1388 85.4111C49.9484 85.4111 49.8532 85.3371 49.8532 85.189V84.7954C49.8532 84.6473 49.9484 84.5732 50.1388 84.5732H50.818V83.6274C50.818 82.9207 51.0084 82.4341 51.3893 82.1675C51.7702 81.8966 52.206 81.7612 52.6969 81.7612C52.9889 81.7612 53.2238 81.776 53.4015 81.8057C53.5835 81.8353 53.7972 81.9009 54.0426 82.0024C54.1357 82.0405 54.1632 82.1082 54.1251 82.2056L53.9284 82.707C53.8945 82.7917 53.8204 82.8086 53.7062 82.7578C53.6131 82.7155 53.4988 82.6774 53.3634 82.6436C53.228 82.6055 53.082 82.5864 52.9254 82.5864C52.5742 82.5864 52.3203 82.6711 52.1637 82.8403C52.0114 83.0096 51.9352 83.3333 51.9352 83.8115V84.5732H53.0968C53.2872 84.5732 53.3825 84.6473 53.3825 84.7954V85.189C53.3825 85.3371 53.2872 85.4111 53.0968 85.4111H51.9352V90.9526C51.9352 91.1431 51.84 91.2383 51.6496 91.2383H51.1037C50.9132 91.2383 50.818 91.1431 50.818 90.9526V85.4111H50.1388ZM54.5057 87.9058C54.5057 86.9113 54.7681 86.0903 55.2929 85.4429C55.8218 84.7912 56.5941 84.4653 57.6097 84.4653C58.6254 84.4653 59.3956 84.7912 59.9203 85.4429C60.4493 86.0903 60.7137 86.9113 60.7137 87.9058C60.7137 88.9002 60.4493 89.7233 59.9203 90.375C59.3956 91.0225 58.6254 91.3462 57.6097 91.3462C56.5941 91.3462 55.8218 91.0225 55.2929 90.375C54.7681 89.7233 54.5057 88.9002 54.5057 87.9058ZM55.6864 87.9058C55.6864 88.7944 55.862 89.4525 56.2133 89.8799C56.5645 90.3073 57.03 90.521 57.6097 90.521C58.1895 90.521 58.655 90.3073 59.0062 89.8799C59.3575 89.4525 59.5331 88.7944 59.5331 87.9058C59.5331 87.0171 59.3575 86.359 59.0062 85.9316C58.655 85.5042 58.1895 85.2905 57.6097 85.2905C57.03 85.2905 56.5645 85.5042 56.2133 85.9316C55.862 86.359 55.6864 87.0171 55.6864 87.9058ZM62.7003 91.2383C62.5099 91.2383 62.4147 91.1431 62.4147 90.9526V84.8589C62.4147 84.6685 62.5099 84.5732 62.7003 84.5732H63.2335C63.4239 84.5732 63.5192 84.6685 63.5192 84.8589V85.6206H63.5446C63.7477 85.2397 63.9868 84.952 64.2618 84.7573C64.5369 84.5627 64.8797 84.4653 65.2902 84.4653C65.561 84.4653 65.7514 84.4886 65.8614 84.5352C65.9588 84.5732 65.9947 84.6367 65.9694 84.7256L65.8234 85.2461C65.8022 85.3223 65.7472 85.3519 65.6583 85.335C65.5102 85.3053 65.3706 85.2905 65.2394 85.2905C64.7443 85.2905 64.3359 85.5148 64.0143 85.9634C63.6927 86.4077 63.5319 87.015 63.5319 87.7852V90.9526C63.5319 91.1431 63.4366 91.2383 63.2462 91.2383H62.7003ZM67.5433 91.2383C67.3529 91.2383 67.2577 91.1431 67.2577 90.9526V84.8589C67.2577 84.6685 67.3529 84.5732 67.5433 84.5732H68.0765C68.267 84.5732 68.3622 84.6685 68.3622 84.8589V85.3667H68.3876C68.6626 85.062 68.961 84.8356 69.2826 84.6875C69.6042 84.5394 69.9131 84.4653 70.2093 84.4653C70.7552 84.4653 71.1742 84.6029 71.4662 84.8779C71.7624 85.1488 71.9528 85.4217 72.0375 85.6968H72.0629C72.2956 85.3498 72.5897 85.0578 72.9452 84.8208C73.3006 84.5838 73.6794 84.4653 74.0814 84.4653C74.7543 84.4653 75.2621 84.6833 75.6048 85.1191C75.9476 85.5508 76.119 86.1432 76.119 86.8965V90.9526C76.119 91.1431 76.0238 91.2383 75.8334 91.2383H75.2875C75.097 91.2383 75.0018 91.1431 75.0018 90.9526V87.2646C75.0018 86.4352 74.8981 85.8999 74.6908 85.6587C74.4834 85.4132 74.1639 85.2905 73.7323 85.2905C73.3091 85.2905 72.9558 85.4725 72.6722 85.8364C72.3887 86.1961 72.2469 86.7399 72.2469 87.4678V90.9526C72.2469 91.1431 72.1517 91.2383 71.9613 91.2383H71.4154C71.225 91.2383 71.1297 91.1431 71.1297 90.9526V87.2646C71.1297 86.4352 71.0261 85.8999 70.8187 85.6587C70.6114 85.4132 70.2919 85.2905 69.8602 85.2905C69.437 85.2905 69.0837 85.4556 68.8002 85.7856C68.5166 86.1115 68.3749 86.6722 68.3749 87.4678V90.9526C68.3749 91.1431 68.2796 91.2383 68.0892 91.2383H67.5433ZM77.8072 87.9058C77.8072 86.8563 78.0696 86.0205 78.5943 85.3984C79.1191 84.7764 79.8702 84.4653 80.8478 84.4653C81.6603 84.4653 82.3331 84.751 82.8663 85.3223C83.4037 85.8893 83.6725 86.797 83.6725 88.0454C83.6725 88.2358 83.5857 88.3311 83.4122 88.3311H78.9879C79.0598 89.1478 79.2799 89.717 79.648 90.0386C80.0162 90.356 80.433 90.5146 80.8985 90.5146C81.3894 90.5146 81.766 90.4321 82.0284 90.2671C82.2908 90.1021 82.4833 89.9391 82.6061 89.7783C82.7415 89.6006 82.8727 89.5667 82.9996 89.6768L83.3741 90.0005C83.4715 90.0851 83.4715 90.2015 83.3741 90.3496C83.2937 90.4723 83.0631 90.6691 82.6822 90.9399C82.3056 91.2108 81.711 91.3462 80.8985 91.3462C79.8406 91.3462 79.0598 91.0352 78.5563 90.4131C78.0569 89.791 77.8072 88.9552 77.8072 87.9058ZM78.9625 87.5059H82.5489C82.532 86.9134 82.3797 86.395 82.0919 85.9507C81.8041 85.5021 81.381 85.2778 80.8224 85.2778C80.3315 85.2778 79.9146 85.4429 79.5719 85.7729C79.2291 86.0988 79.026 86.6764 78.9625 87.5059ZM85.1385 90.6162C85.0073 90.4935 84.9798 90.3792 85.056 90.2734L85.3416 89.8735C85.4347 89.7466 85.5723 89.7529 85.7542 89.8926C86.0039 90.083 86.2811 90.2354 86.5858 90.3496C86.8947 90.4639 87.2459 90.521 87.6395 90.521C87.8722 90.521 88.0796 90.4935 88.2616 90.4385C88.4435 90.3792 88.6022 90.2713 88.7376 90.1147C88.8773 89.9582 88.9471 89.7487 88.9471 89.4863C88.9471 89.334 88.9133 89.1901 88.8456 89.0547C88.7821 88.9193 88.6805 88.8114 88.5409 88.731C88.4054 88.6463 88.2721 88.5807 88.141 88.5342C87.9251 88.4538 87.7093 88.3882 87.4935 88.3374C87.2819 88.2824 87.0026 88.1999 86.6556 88.0898C86.4229 88.0179 86.2028 87.9163 85.9955 87.7852C85.7881 87.6497 85.6061 87.4678 85.4496 87.2393C85.2972 87.0107 85.221 86.6955 85.221 86.2935C85.221 85.883 85.3459 85.5296 85.5956 85.2334C85.8452 84.9372 86.1584 84.7362 86.535 84.6304C86.9116 84.5203 87.2777 84.4653 87.6331 84.4653C88.1579 84.4653 88.5789 84.5267 88.8963 84.6494C89.2179 84.7679 89.4951 84.9097 89.7279 85.0747C89.8633 85.172 89.8823 85.2842 89.785 85.4111L89.4994 85.792C89.4105 85.9147 89.273 85.9105 89.0868 85.7793C88.9302 85.6693 88.708 85.5656 88.4203 85.4683C88.1325 85.3709 87.8807 85.3223 87.6649 85.3223C87.3983 85.3223 87.1698 85.3519 86.9793 85.4111C86.7889 85.4704 86.6345 85.5719 86.516 85.7158C86.3975 85.8597 86.3382 86.029 86.3382 86.2236C86.3382 86.3717 86.3615 86.505 86.4081 86.6235C86.4546 86.7378 86.5414 86.8436 86.6683 86.9409C86.7953 87.0382 86.973 87.1165 87.2015 87.1758C87.557 87.2689 87.8807 87.3535 88.1727 87.4297C88.4689 87.5059 88.7355 87.599 88.9725 87.709C89.2814 87.8529 89.5184 88.0116 89.6834 88.1851C89.8527 88.3586 89.9691 88.5469 90.0326 88.75C90.096 88.9489 90.1278 89.1711 90.1278 89.4165C90.1278 89.8693 89.9924 90.2523 89.7215 90.5654C89.4549 90.8786 89.1566 91.0881 88.8265 91.1938C88.4964 91.2954 88.0986 91.3462 87.6331 91.3462C87.0026 91.3462 86.4609 91.2573 86.0081 91.0796C85.5596 90.8976 85.2697 90.7432 85.1385 90.6162ZM20.3124 107.238C20.1009 107.238 19.9951 107.122 19.9951 106.889V98.4849C19.9951 98.2521 20.1009 98.1357 20.3124 98.1357H20.8964C21.108 98.1357 21.2138 98.2521 21.2138 98.4849V106.889C21.2138 107.122 21.108 107.238 20.8964 107.238H20.3124ZM23.7399 107.238C23.5495 107.238 23.4543 107.143 23.4543 106.953V100.859C23.4543 100.668 23.5495 100.573 23.7399 100.573H24.2731C24.4636 100.573 24.5588 100.668 24.5588 100.859V101.367H24.5842C24.8592 101.062 25.1555 100.836 25.4728 100.688C25.7902 100.539 26.1859 100.465 26.6598 100.465C27.43 100.465 27.9823 100.683 28.3166 101.119C28.6551 101.551 28.8244 102.143 28.8244 102.896V106.953C28.8244 107.143 28.7292 107.238 28.5388 107.238H27.9929C27.8024 107.238 27.7072 107.143 27.7072 106.953V103.201C27.7072 102.372 27.5697 101.847 27.2946 101.627C27.0195 101.403 26.6704 101.291 26.2472 101.291C25.6971 101.291 25.2803 101.456 24.9968 101.786C24.7132 102.111 24.5715 102.672 24.5715 103.468V106.953C24.5715 107.143 24.4763 107.238 24.2858 107.238H23.7399ZM30.5126 103.906C30.5126 102.996 30.7327 102.196 31.1728 101.506C31.6129 100.812 32.2561 100.465 33.1025 100.465C33.5891 100.465 33.9784 100.546 34.2704 100.707C34.5624 100.867 34.8248 101.087 35.0575 101.367H35.0702C35.0618 101.24 35.0575 101.111 35.0575 100.979V98.1548C35.0575 97.9644 35.1528 97.8691 35.3432 97.8691H35.8891C36.0795 97.8691 36.1747 97.9644 36.1747 98.1548V106.953C36.1747 107.143 36.0795 107.238 35.8891 107.238H35.3559C35.2035 107.238 35.121 107.143 35.1083 106.953L35.0702 106.445H35.0575C34.8248 106.724 34.5624 106.944 34.2704 107.105C33.9784 107.266 33.5891 107.346 33.1025 107.346C32.2561 107.346 31.6129 107.001 31.1728 106.312C30.7327 105.618 30.5126 104.816 30.5126 103.906ZM31.6933 103.906C31.6933 104.684 31.8266 105.315 32.0932 105.797C32.364 106.28 32.8211 106.521 33.4643 106.521C33.9213 106.521 34.3001 106.367 34.6005 106.058C34.9052 105.744 35.0575 105.271 35.0575 104.636V103.176C35.0575 102.541 34.9052 102.069 34.6005 101.76C34.3001 101.447 33.9213 101.291 33.4643 101.291C32.8211 101.291 32.364 101.532 32.0932 102.014C31.8266 102.497 31.6933 103.127 31.6933 103.906ZM37.882 103.906C37.882 102.856 38.1444 102.021 38.6691 101.398C39.1938 100.776 39.945 100.465 40.9225 100.465C41.735 100.465 42.4079 100.751 42.9411 101.322C43.4785 101.889 43.7472 102.797 43.7472 104.045C43.7472 104.236 43.6605 104.331 43.487 104.331H39.0627C39.1346 105.148 39.3547 105.717 39.7228 106.039C40.091 106.356 40.5078 106.515 40.9733 106.515C41.4642 106.515 41.8408 106.432 42.1032 106.267C42.3656 106.102 42.5581 105.939 42.6808 105.778C42.8162 105.601 42.9474 105.567 43.0744 105.677L43.4489 106C43.5462 106.085 43.5462 106.201 43.4489 106.35C43.3685 106.472 43.1379 106.669 42.757 106.94C42.3804 107.211 41.7858 107.346 40.9733 107.346C39.9154 107.346 39.1346 107.035 38.631 106.413C38.1317 105.791 37.882 104.955 37.882 103.906ZM39.0373 103.506H42.6237C42.6068 102.913 42.4544 102.395 42.1667 101.951C41.8789 101.502 41.4557 101.278 40.8971 101.278C40.4062 101.278 39.9894 101.443 39.6466 101.773C39.3039 102.099 39.1007 102.676 39.0373 103.506ZM45.7592 109.777C45.5688 109.777 45.4735 109.682 45.4735 109.492V100.859C45.4735 100.668 45.5688 100.573 45.7592 100.573H46.2924C46.4447 100.573 46.5272 100.668 46.5399 100.859L46.578 101.367H46.5907C46.8235 101.087 47.0858 100.867 47.3778 100.707C47.6698 100.546 48.0591 100.465 48.5458 100.465C49.3922 100.465 50.0354 100.812 50.4755 101.506C50.9156 102.196 51.1356 102.996 51.1356 103.906C51.1356 104.816 50.9156 105.618 50.4755 106.312C50.0354 107.001 49.3922 107.346 48.5458 107.346C48.0591 107.346 47.6698 107.266 47.3778 107.105C47.0858 106.944 46.8235 106.724 46.5907 106.445H46.578C46.5865 106.572 46.5907 106.701 46.5907 106.832V109.492C46.5907 109.682 46.4955 109.777 46.3051 109.777H45.7592ZM46.5907 104.636C46.5907 105.271 46.741 105.744 47.0414 106.058C47.3461 106.367 47.727 106.521 48.184 106.521C48.8272 106.521 49.2821 106.28 49.5487 105.797C49.8196 105.315 49.955 104.684 49.955 103.906C49.955 103.127 49.8196 102.497 49.5487 102.014C49.2821 101.532 48.8272 101.291 48.184 101.291C47.727 101.291 47.3461 101.447 47.0414 101.76C46.741 102.069 46.5907 102.541 46.5907 103.176V104.636ZM52.4811 103.906C52.4811 102.856 52.7435 102.021 53.2682 101.398C53.7929 100.776 54.5441 100.465 55.5216 100.465C56.3341 100.465 57.007 100.751 57.5402 101.322C58.0776 101.889 58.3463 102.797 58.3463 104.045C58.3463 104.236 58.2596 104.331 58.0861 104.331H53.6618C53.7337 105.148 53.9538 105.717 54.3219 106.039C54.6901 106.356 55.1069 106.515 55.5724 106.515C56.0633 106.515 56.4399 106.432 56.7023 106.267C56.9647 106.102 57.1572 105.939 57.2799 105.778C57.4153 105.601 57.5465 105.567 57.6735 105.677L58.048 106C58.1453 106.085 58.1453 106.201 58.048 106.35C57.9676 106.472 57.737 106.669 57.3561 106.94C56.9795 107.211 56.3849 107.346 55.5724 107.346C54.5145 107.346 53.7337 107.035 53.2301 106.413C52.7308 105.791 52.4811 104.955 52.4811 103.906ZM53.6364 103.506H57.2228C57.2059 102.913 57.0535 102.395 56.7658 101.951C56.478 101.502 56.0548 101.278 55.4962 101.278C55.0053 101.278 54.5885 101.443 54.2457 101.773C53.903 102.099 53.6998 102.676 53.6364 103.506ZM60.3583 107.238C60.1679 107.238 60.0726 107.143 60.0726 106.953V100.859C60.0726 100.668 60.1679 100.573 60.3583 100.573H60.8915C61.0819 100.573 61.1771 100.668 61.1771 100.859V101.367H61.2025C61.4776 101.062 61.7738 100.836 62.0912 100.688C62.4086 100.539 62.8042 100.465 63.2782 100.465C64.0484 100.465 64.6006 100.683 64.9349 101.119C65.2735 101.551 65.4428 102.143 65.4428 102.896V106.953C65.4428 107.143 65.3475 107.238 65.1571 107.238H64.6112C64.4208 107.238 64.3256 107.143 64.3256 106.953V103.201C64.3256 102.372 64.188 101.847 63.913 101.627C63.6379 101.403 63.2888 101.291 62.8656 101.291C62.3155 101.291 61.8986 101.456 61.6151 101.786C61.3316 102.111 61.1898 102.672 61.1898 103.468V106.953C61.1898 107.143 61.0946 107.238 60.9042 107.238H60.3583ZM67.131 103.906C67.131 102.996 67.351 102.196 67.7911 101.506C68.2312 100.812 68.8745 100.465 69.7208 100.465C70.2075 100.465 70.5968 100.546 70.8888 100.707C71.1808 100.867 71.4432 101.087 71.6759 101.367H71.6886C71.6801 101.24 71.6759 101.111 71.6759 100.979V98.1548C71.6759 97.9644 71.7711 97.8691 71.9615 97.8691H72.5074C72.6979 97.8691 72.7931 97.9644 72.7931 98.1548V106.953C72.7931 107.143 72.6979 107.238 72.5074 107.238H71.9742C71.8219 107.238 71.7394 107.143 71.7267 106.953L71.6886 106.445H71.6759C71.4432 106.724 71.1808 106.944 70.8888 107.105C70.5968 107.266 70.2075 107.346 69.7208 107.346C68.8745 107.346 68.2312 107.001 67.7911 106.312C67.351 105.618 67.131 104.816 67.131 103.906ZM68.3116 103.906C68.3116 104.684 68.4449 105.315 68.7115 105.797C68.9824 106.28 69.4394 106.521 70.0826 106.521C70.5397 106.521 70.9184 106.367 71.2189 106.058C71.5236 105.744 71.6759 105.271 71.6759 104.636V103.176C71.6759 102.541 71.5236 102.069 71.2189 101.76C70.9184 101.447 70.5397 101.291 70.0826 101.291C69.4394 101.291 68.9824 101.532 68.7115 102.014C68.4449 102.497 68.3116 103.127 68.3116 103.906ZM75.1478 107.238C74.9574 107.238 74.8622 107.143 74.8622 106.953V100.859C74.8622 100.668 74.9574 100.573 75.1478 100.573H75.6937C75.8841 100.573 75.9794 100.668 75.9794 100.859V106.953C75.9794 107.143 75.8841 107.238 75.6937 107.238H75.1478ZM75.1478 99.3672C74.9574 99.3672 74.8622 99.272 74.8622 99.0815V98.5356C74.8622 98.3452 74.9574 98.25 75.1478 98.25H75.6937C75.8841 98.25 75.9794 98.3452 75.9794 98.5356V99.0815C75.9794 99.272 75.8841 99.3672 75.6937 99.3672H75.1478ZM77.6803 103.906C77.6803 102.856 77.9426 102.021 78.4674 101.398C78.9921 100.776 79.7433 100.465 80.7208 100.465C81.5333 100.465 82.2062 100.751 82.7394 101.322C83.2768 101.889 83.5455 102.797 83.5455 104.045C83.5455 104.236 83.4588 104.331 83.2853 104.331H78.8609C78.9329 105.148 79.1529 105.717 79.5211 106.039C79.8893 106.356 80.3061 106.515 80.7716 106.515C81.2625 106.515 81.6391 106.432 81.9015 106.267C82.1638 106.102 82.3564 105.939 82.4791 105.778C82.6145 105.601 82.7457 105.567 82.8727 105.677L83.2472 106C83.3445 106.085 83.3445 106.201 83.2472 106.35C83.1668 106.472 82.9361 106.669 82.5553 106.94C82.1786 107.211 81.5841 107.346 80.7716 107.346C79.7136 107.346 78.9329 107.035 78.4293 106.413C77.9299 105.791 77.6803 104.955 77.6803 103.906ZM78.8355 103.506H82.422C82.405 102.913 82.2527 102.395 81.9649 101.951C81.6772 101.502 81.254 101.278 80.6954 101.278C80.2045 101.278 79.7877 101.443 79.4449 101.773C79.1021 102.099 78.899 102.676 78.8355 103.506ZM85.5575 107.238C85.367 107.238 85.2718 107.143 85.2718 106.953V100.859C85.2718 100.668 85.367 100.573 85.5575 100.573H86.0907C86.2811 100.573 86.3763 100.668 86.3763 100.859V101.367H86.4017C86.6768 101.062 86.973 100.836 87.2904 100.688C87.6078 100.539 88.0034 100.465 88.4774 100.465C89.2476 100.465 89.7998 100.683 90.1341 101.119C90.4727 101.551 90.6419 102.143 90.6419 102.896V106.953C90.6419 107.143 90.5467 107.238 90.3563 107.238H89.8104C89.62 107.238 89.5247 107.143 89.5247 106.953V103.201C89.5247 102.372 89.3872 101.847 89.1122 101.627C88.8371 101.403 88.488 101.291 88.0648 101.291C87.5147 101.291 87.0978 101.456 86.8143 101.786C86.5308 102.111 86.389 102.672 86.389 103.468V106.953C86.389 107.143 86.2938 107.238 86.1034 107.238H85.5575ZM92.3682 101.411C92.1778 101.411 92.0826 101.337 92.0826 101.189V100.795C92.0826 100.647 92.1778 100.573 92.3682 100.573H93.1173V100.002C93.1173 99.9173 93.1384 99.8369 93.1807 99.7607L93.6251 98.9546C93.7055 98.8065 93.7711 98.7324 93.8219 98.7324H94.044C94.171 98.7324 94.2345 98.8065 94.2345 98.9546V100.573H95.5865C95.7769 100.573 95.8721 100.647 95.8721 100.795V101.189C95.8721 101.337 95.7769 101.411 95.5865 101.411H94.2345V105.455C94.2345 105.899 94.3 106.189 94.4312 106.324C94.5666 106.455 94.7275 106.521 94.9137 106.521C95.0575 106.521 95.2289 106.479 95.4278 106.394C95.6309 106.309 95.7706 106.237 95.8468 106.178C95.9229 106.119 95.9822 106.138 96.0245 106.235L96.234 106.724C96.2678 106.809 96.2424 106.876 96.1578 106.927C95.9928 107.025 95.7515 107.12 95.4342 107.213C95.1168 107.302 94.7994 107.346 94.482 107.346C94.0419 107.346 93.7034 107.188 93.4664 106.87C93.2336 106.553 93.1173 106.104 93.1173 105.524V101.411H92.3682ZM97.4017 103.906C97.4017 102.856 97.6641 102.021 98.1888 101.398C98.7135 100.776 99.4647 100.465 100.442 100.465C101.255 100.465 101.928 100.751 102.461 101.322C102.998 101.889 103.267 102.797 103.267 104.045C103.267 104.236 103.18 104.331 103.007 104.331H98.5824C98.6543 105.148 98.8743 105.717 99.2425 106.039C99.6107 106.356 100.028 106.515 100.493 106.515C100.984 106.515 101.361 106.432 101.623 106.267C101.885 106.102 102.078 105.939 102.201 105.778C102.336 105.601 102.467 105.567 102.594 105.677L102.969 106C103.066 106.085 103.066 106.201 102.969 106.35C102.888 106.472 102.658 106.669 102.277 106.94C101.9 107.211 101.305 107.346 100.493 107.346C99.4351 107.346 98.6543 107.035 98.1507 106.413C97.6514 105.791 97.4017 104.955 97.4017 103.906ZM98.557 103.506H102.143C102.126 102.913 101.974 102.395 101.686 101.951C101.399 101.502 100.975 101.278 100.417 101.278C99.9259 101.278 99.5091 101.443 99.1663 101.773C98.8236 102.099 98.6204 102.676 98.557 103.506ZM104.733 106.616C104.602 106.493 104.574 106.379 104.65 106.273L104.936 105.874C105.029 105.747 105.167 105.753 105.349 105.893C105.598 106.083 105.876 106.235 106.18 106.35C106.489 106.464 106.84 106.521 107.234 106.521C107.467 106.521 107.674 106.493 107.856 106.438C108.038 106.379 108.197 106.271 108.332 106.115C108.472 105.958 108.542 105.749 108.542 105.486C108.542 105.334 108.508 105.19 108.44 105.055C108.377 104.919 108.275 104.811 108.135 104.731C108 104.646 107.867 104.581 107.735 104.534C107.52 104.454 107.304 104.388 107.088 104.337C106.876 104.282 106.597 104.2 106.25 104.09C106.017 104.018 105.797 103.916 105.59 103.785C105.383 103.65 105.201 103.468 105.044 103.239C104.892 103.011 104.815 102.695 104.815 102.293C104.815 101.883 104.94 101.53 105.19 101.233C105.44 100.937 105.753 100.736 106.129 100.63C106.506 100.52 106.872 100.465 107.228 100.465C107.752 100.465 108.173 100.527 108.491 100.649C108.812 100.768 109.09 100.91 109.322 101.075C109.458 101.172 109.477 101.284 109.379 101.411L109.094 101.792C109.005 101.915 108.867 101.91 108.681 101.779C108.525 101.669 108.302 101.566 108.015 101.468C107.727 101.371 107.475 101.322 107.259 101.322C106.993 101.322 106.764 101.352 106.574 101.411C106.383 101.47 106.229 101.572 106.11 101.716C105.992 101.86 105.933 102.029 105.933 102.224C105.933 102.372 105.956 102.505 106.003 102.624C106.049 102.738 106.136 102.844 106.263 102.941C106.39 103.038 106.567 103.117 106.796 103.176C107.151 103.269 107.475 103.354 107.767 103.43C108.063 103.506 108.33 103.599 108.567 103.709C108.876 103.853 109.113 104.012 109.278 104.185C109.447 104.359 109.564 104.547 109.627 104.75C109.69 104.949 109.722 105.171 109.722 105.417C109.722 105.869 109.587 106.252 109.316 106.565C109.049 106.879 108.751 107.088 108.421 107.194C108.091 107.295 107.693 107.346 107.228 107.346C106.597 107.346 106.055 107.257 105.603 107.08C105.154 106.898 104.864 106.743 104.733 106.616Z" fill="white"/>
</svg>
