<svg width="189" height="110" viewBox="0 0 189 110" fill="none" xmlns="http://www.w3.org/2000/svg">
<path d="M65.6759 88.4614C65.6759 87.0942 66.0137 86.0239 66.6895 85.2505C67.3692 84.4731 68.3438 84.0845 69.6134 84.0845C70.3555 84.0845 70.9688 84.2114 71.4532 84.4653C71.9376 84.7153 72.2852 85.0591 72.4962 85.4966C72.6055 85.7231 72.588 85.8794 72.4434 85.9653L71.9805 86.2349C71.8243 86.3247 71.6856 86.2505 71.5645 86.0122C71.4356 85.7661 71.2247 85.5356 70.9317 85.3208C70.6387 85.106 70.2188 84.9985 69.672 84.9985C68.6954 84.9985 67.9845 85.3032 67.5391 85.9126C67.0977 86.5181 66.877 87.3677 66.877 88.4614C66.877 89.5552 67.0977 90.4067 67.5391 91.0161C67.9845 91.6216 68.6954 91.9243 69.672 91.9243C70.2345 91.9243 70.6837 91.7954 71.0196 91.5376C71.3595 91.2798 71.6055 91.0103 71.7579 90.729C71.879 90.5024 72.0196 90.4341 72.1798 90.5239L72.6661 90.7993C72.8067 90.8813 72.8184 91.0376 72.7012 91.2681C72.4708 91.7173 72.0958 92.0923 71.5762 92.3931C71.0567 92.6899 70.4024 92.8384 69.6134 92.8384C68.3438 92.8384 67.3692 92.4517 66.6895 91.6782C66.0137 90.9009 65.6759 89.8286 65.6759 88.4614ZM74.0897 89.5864C74.0897 88.6685 74.3319 87.9106 74.8162 87.313C75.3045 86.7114 76.0174 86.4106 76.9549 86.4106C77.8924 86.4106 78.6034 86.7114 79.0877 87.313C79.576 87.9106 79.8202 88.6685 79.8202 89.5864C79.8202 90.5044 79.576 91.2642 79.0877 91.8657C78.6034 92.4634 77.8924 92.7622 76.9549 92.7622C76.0174 92.7622 75.3045 92.4634 74.8162 91.8657C74.3319 91.2642 74.0897 90.5044 74.0897 89.5864ZM75.1795 89.5864C75.1795 90.4067 75.3416 91.0142 75.6659 91.4087C75.9901 91.8032 76.4198 92.0005 76.9549 92.0005C77.4901 92.0005 77.9198 91.8032 78.244 91.4087C78.5682 91.0142 78.7303 90.4067 78.7303 89.5864C78.7303 88.7661 78.5682 88.1587 78.244 87.7642C77.9198 87.3696 77.4901 87.1724 76.9549 87.1724C76.4198 87.1724 75.9901 87.3696 75.6659 87.7642C75.3416 88.1587 75.1795 88.7661 75.1795 89.5864ZM81.6539 92.6626C81.4781 92.6626 81.3902 92.5747 81.3902 92.3989V86.7739C81.3902 86.5981 81.4781 86.5103 81.6539 86.5103H82.1461C82.3219 86.5103 82.4098 86.5981 82.4098 86.7739V87.2427H82.4332C82.6871 86.9614 82.9605 86.7524 83.2535 86.6157C83.5465 86.479 83.9117 86.4106 84.3492 86.4106C85.0602 86.4106 85.5699 86.6118 85.8785 87.0142C86.191 87.4126 86.3473 87.9595 86.3473 88.6548V92.3989C86.3473 92.5747 86.2594 92.6626 86.0836 92.6626H85.5797C85.4039 92.6626 85.316 92.5747 85.316 92.3989V88.936C85.316 88.1704 85.1891 87.686 84.9352 87.4829C84.6812 87.2759 84.359 87.1724 83.9684 87.1724C83.4605 87.1724 83.0758 87.3247 82.8141 87.6294C82.5523 87.9302 82.4215 88.4478 82.4215 89.1821V92.3989C82.4215 92.5747 82.3336 92.6626 82.1578 92.6626H81.6539ZM87.9994 92.0884C87.8783 91.9751 87.8529 91.8696 87.9232 91.772L88.1869 91.4028C88.2728 91.2856 88.3998 91.2915 88.5677 91.4204C88.7982 91.5962 89.0541 91.7368 89.3353 91.8423C89.6205 91.9478 89.9447 92.0005 90.308 92.0005C90.5228 92.0005 90.7142 91.9751 90.8822 91.9243C91.0502 91.8696 91.1966 91.77 91.3216 91.6255C91.4505 91.481 91.515 91.2876 91.515 91.0454C91.515 90.9048 91.4837 90.772 91.4212 90.647C91.3627 90.522 91.2689 90.4224 91.14 90.3481C91.015 90.27 90.892 90.2095 90.7709 90.1665C90.5716 90.0923 90.3724 90.0317 90.1732 89.9849C89.9779 89.9341 89.7201 89.8579 89.3998 89.7563C89.1849 89.6899 88.9818 89.5962 88.7904 89.4751C88.599 89.3501 88.431 89.1821 88.2865 88.9712C88.1459 88.7603 88.0755 88.4692 88.0755 88.0981C88.0755 87.7192 88.1908 87.3931 88.4212 87.1196C88.6517 86.8462 88.9408 86.6606 89.2884 86.563C89.6361 86.4614 89.974 86.4106 90.3021 86.4106C90.7865 86.4106 91.1752 86.4673 91.4681 86.5806C91.765 86.6899 92.0209 86.8208 92.2357 86.9731C92.3607 87.063 92.3783 87.1665 92.2884 87.2837L92.0248 87.6353C91.9427 87.7485 91.8158 87.7446 91.6439 87.6235C91.4994 87.522 91.2943 87.4263 91.0287 87.3364C90.763 87.2466 90.5306 87.2017 90.3314 87.2017C90.0853 87.2017 89.8744 87.229 89.6986 87.2837C89.5228 87.3384 89.3802 87.4321 89.2709 87.5649C89.1615 87.6978 89.1068 87.854 89.1068 88.0337C89.1068 88.1704 89.1283 88.2935 89.1712 88.4028C89.2142 88.5083 89.2943 88.606 89.4115 88.6958C89.5287 88.7856 89.6927 88.8579 89.9037 88.9126C90.2318 88.9985 90.5306 89.0767 90.8002 89.147C91.0736 89.2173 91.3197 89.3032 91.5384 89.4048C91.8236 89.5376 92.0423 89.6841 92.1947 89.8442C92.3509 90.0044 92.4584 90.1782 92.517 90.3657C92.5755 90.5493 92.6048 90.7544 92.6048 90.981C92.6048 91.3989 92.4798 91.7524 92.2298 92.0415C91.9837 92.3306 91.7084 92.5239 91.4037 92.6216C91.099 92.7153 90.7318 92.7622 90.3021 92.7622C89.7201 92.7622 89.2201 92.6802 88.8021 92.5161C88.388 92.3481 88.1205 92.2056 87.9994 92.0884ZM93.9991 90.5181V86.7739C93.9991 86.5981 94.087 86.5103 94.2628 86.5103H94.7667C94.9425 86.5103 95.0304 86.5981 95.0304 86.7739V90.2368C95.0304 91.0024 95.1573 91.4888 95.4112 91.6958C95.6652 91.8989 95.9796 92.0005 96.3546 92.0005C96.8468 92.0005 97.2237 91.8501 97.4855 91.5493C97.7472 91.2446 97.878 90.7251 97.878 89.9907V86.7739C97.878 86.5981 97.9659 86.5103 98.1417 86.5103H98.6456C98.8214 86.5103 98.9093 86.5981 98.9093 86.7739V92.3989C98.9093 92.5747 98.8214 92.6626 98.6456 92.6626H98.1534C97.9777 92.6626 97.8898 92.5747 97.8898 92.3989V91.9302H97.8663C97.6124 92.2114 97.339 92.4204 97.046 92.5571C96.753 92.6938 96.3956 92.7622 95.9737 92.7622C95.2902 92.7622 94.7902 92.563 94.4737 92.1646C94.1573 91.7622 93.9991 91.2134 93.9991 90.5181ZM101.077 92.6626C100.901 92.6626 100.813 92.5747 100.813 92.3989V85.0864C100.813 85.0083 100.833 84.9341 100.872 84.8638L101.282 84.1196C101.356 83.9829 101.417 83.9146 101.464 83.9146H101.669C101.786 83.9146 101.845 83.9829 101.845 84.1196V92.3989C101.845 92.5747 101.757 92.6626 101.581 92.6626H101.077ZM103.45 87.2837C103.274 87.2837 103.186 87.2153 103.186 87.0786V86.7153C103.186 86.5786 103.274 86.5103 103.45 86.5103H104.141V85.9829C104.141 85.9048 104.161 85.8306 104.2 85.7603L104.61 85.0161C104.684 84.8794 104.745 84.811 104.792 84.811H104.997C105.114 84.811 105.173 84.8794 105.173 85.0161V86.5103H106.421C106.596 86.5103 106.684 86.5786 106.684 86.7153V87.0786C106.684 87.2153 106.596 87.2837 106.421 87.2837H105.173V91.0161C105.173 91.4263 105.233 91.6938 105.354 91.8188C105.479 91.9399 105.628 92.0005 105.799 92.0005C105.932 92.0005 106.09 91.9614 106.274 91.8833C106.462 91.8052 106.59 91.7388 106.661 91.6841C106.731 91.6294 106.786 91.647 106.825 91.7368L107.018 92.188C107.049 92.2661 107.026 92.3286 106.948 92.3755C106.796 92.4653 106.573 92.5532 106.28 92.6392C105.987 92.7212 105.694 92.7622 105.401 92.7622C104.995 92.7622 104.682 92.6157 104.464 92.3228C104.249 92.0298 104.141 91.6157 104.141 91.0806V87.2837H103.45ZM108.096 91.022C108.096 90.3267 108.42 89.8169 109.069 89.4927C109.721 89.1685 110.694 88.979 111.987 88.9243V88.5259C111.987 88.1587 111.903 87.8423 111.735 87.5767C111.571 87.3071 111.243 87.1724 110.75 87.1724C110.438 87.1724 110.188 87.2036 110 87.2661C109.813 87.3247 109.641 87.4048 109.485 87.5063C109.332 87.604 109.186 87.731 109.045 87.8872C108.94 88.0044 108.84 88.0103 108.746 87.9048L108.442 87.5532C108.356 87.4556 108.385 87.3384 108.53 87.2017C108.737 87.0063 108.938 86.8599 109.133 86.7622C109.329 86.6646 109.571 86.5825 109.86 86.5161C110.153 86.4458 110.45 86.4106 110.75 86.4106C111.567 86.4106 112.149 86.6216 112.496 87.0435C112.844 87.4614 113.018 88.0356 113.018 88.7661V92.3989C113.018 92.5747 112.93 92.6626 112.754 92.6626H112.227C112.075 92.6626 111.998 92.5747 111.998 92.3989V92.1118H111.987C111.678 92.354 111.375 92.5239 111.079 92.6216C110.786 92.7153 110.457 92.7622 110.094 92.7622C109.454 92.7622 108.959 92.6099 108.612 92.3052C108.268 91.9966 108.096 91.5688 108.096 91.022ZM109.162 91.0454C109.162 91.2876 109.213 91.4829 109.315 91.6313C109.416 91.7759 109.557 91.8696 109.737 91.9126C109.916 91.9517 110.104 91.9712 110.299 91.9712C110.6 91.9712 110.885 91.9419 111.155 91.8833C111.424 91.8247 111.702 91.6704 111.987 91.4204V89.6919C111.198 89.7505 110.635 89.8228 110.299 89.9087C109.963 89.9907 109.69 90.1353 109.479 90.3423C109.268 90.5454 109.162 90.7798 109.162 91.0454ZM114.688 92.0884C114.567 91.9751 114.541 91.8696 114.611 91.772L114.875 91.4028C114.961 91.2856 115.088 91.2915 115.256 91.4204C115.486 91.5962 115.742 91.7368 116.024 91.8423C116.309 91.9478 116.633 92.0005 116.996 92.0005C117.211 92.0005 117.402 91.9751 117.57 91.9243C117.738 91.8696 117.885 91.77 118.01 91.6255C118.139 91.481 118.203 91.2876 118.203 91.0454C118.203 90.9048 118.172 90.772 118.11 90.647C118.051 90.522 117.957 90.4224 117.828 90.3481C117.703 90.27 117.58 90.2095 117.459 90.1665C117.26 90.0923 117.061 90.0317 116.861 89.9849C116.666 89.9341 116.408 89.8579 116.088 89.7563C115.873 89.6899 115.67 89.5962 115.479 89.4751C115.287 89.3501 115.119 89.1821 114.975 88.9712C114.834 88.7603 114.764 88.4692 114.764 88.0981C114.764 87.7192 114.879 87.3931 115.11 87.1196C115.34 86.8462 115.629 86.6606 115.977 86.563C116.324 86.4614 116.662 86.4106 116.99 86.4106C117.475 86.4106 117.863 86.4673 118.156 86.5806C118.453 86.6899 118.709 86.8208 118.924 86.9731C119.049 87.063 119.067 87.1665 118.977 87.2837L118.713 87.6353C118.631 87.7485 118.504 87.7446 118.332 87.6235C118.188 87.522 117.983 87.4263 117.717 87.3364C117.451 87.2466 117.219 87.2017 117.02 87.2017C116.774 87.2017 116.563 87.229 116.387 87.2837C116.211 87.3384 116.069 87.4321 115.959 87.5649C115.85 87.6978 115.795 87.854 115.795 88.0337C115.795 88.1704 115.817 88.2935 115.86 88.4028C115.902 88.5083 115.983 88.606 116.1 88.6958C116.217 88.7856 116.381 88.8579 116.592 88.9126C116.92 88.9985 117.219 89.0767 117.488 89.147C117.762 89.2173 118.008 89.3032 118.227 89.4048C118.512 89.5376 118.731 89.6841 118.883 89.8442C119.039 90.0044 119.147 90.1782 119.205 90.3657C119.264 90.5493 119.293 90.7544 119.293 90.981C119.293 91.3989 119.168 91.7524 118.918 92.0415C118.672 92.3306 118.397 92.5239 118.092 92.6216C117.787 92.7153 117.42 92.7622 116.99 92.7622C116.408 92.7622 115.908 92.6802 115.49 92.5161C115.076 92.3481 114.809 92.2056 114.688 92.0884ZM63.7191 106.663C63.5238 106.663 63.4261 106.555 63.4261 106.34V98.5825C63.4261 98.3677 63.5238 98.2603 63.7191 98.2603H64.2581C64.4534 98.2603 64.5511 98.3677 64.5511 98.5825V106.34C64.5511 106.555 64.4534 106.663 64.2581 106.663H63.7191ZM66.8829 106.663C66.7071 106.663 66.6192 106.575 66.6192 106.399V100.774C66.6192 100.598 66.7071 100.51 66.8829 100.51H67.3751C67.5509 100.51 67.6387 100.598 67.6387 100.774V101.243H67.6622C67.9161 100.961 68.1895 100.752 68.4825 100.616C68.7755 100.479 69.1407 100.411 69.5782 100.411C70.2891 100.411 70.7989 100.612 71.1075 101.014C71.42 101.413 71.5762 101.959 71.5762 102.655V106.399C71.5762 106.575 71.4884 106.663 71.3126 106.663H70.8087C70.6329 106.663 70.545 106.575 70.545 106.399V102.936C70.545 102.17 70.418 101.686 70.1641 101.483C69.9102 101.276 69.588 101.172 69.1973 101.172C68.6895 101.172 68.3048 101.325 68.043 101.629C67.7813 101.93 67.6505 102.448 67.6505 103.182V106.399C67.6505 106.575 67.5626 106.663 67.3868 106.663H66.8829ZM73.1346 103.586C73.1346 102.747 73.3377 102.008 73.744 101.372C74.1502 100.731 74.744 100.411 75.5252 100.411C75.9745 100.411 76.3338 100.485 76.6034 100.633C76.8729 100.782 77.1151 100.985 77.3299 101.243H77.3416C77.3338 101.125 77.3299 101.006 77.3299 100.885V98.2778C77.3299 98.1021 77.4178 98.0142 77.5936 98.0142H78.0975C78.2733 98.0142 78.3612 98.1021 78.3612 98.2778V106.399C78.3612 106.575 78.2733 106.663 78.0975 106.663H77.6053C77.4647 106.663 77.3885 106.575 77.3768 106.399L77.3416 105.93H77.3299C77.1151 106.188 76.8729 106.391 76.6034 106.54C76.3338 106.688 75.9745 106.762 75.5252 106.762C74.744 106.762 74.1502 106.444 73.744 105.807C73.3377 105.167 73.1346 104.426 73.1346 103.586ZM74.2245 103.586C74.2245 104.305 74.3475 104.887 74.5936 105.333C74.8436 105.778 75.2655 106 75.8592 106C76.2811 106 76.6307 105.858 76.9081 105.573C77.1893 105.284 77.3299 104.846 77.3299 104.26V102.913C77.3299 102.327 77.1893 101.891 76.9081 101.606C76.6307 101.317 76.2811 101.172 75.8592 101.172C75.2655 101.172 74.8436 101.395 74.5936 101.84C74.3475 102.286 74.2245 102.868 74.2245 103.586ZM80.5348 106.663C80.359 106.663 80.2711 106.575 80.2711 106.399V100.774C80.2711 100.598 80.359 100.51 80.5348 100.51H81.0387C81.2145 100.51 81.3023 100.598 81.3023 100.774V106.399C81.3023 106.575 81.2145 106.663 81.0387 106.663H80.5348ZM80.5348 99.397C80.359 99.397 80.2711 99.3091 80.2711 99.1333V98.6294C80.2711 98.4536 80.359 98.3657 80.5348 98.3657H81.0387C81.2145 98.3657 81.3023 98.4536 81.3023 98.6294V99.1333C81.3023 99.3091 81.2145 99.397 81.0387 99.397H80.5348ZM82.7377 100.797C82.6712 100.606 82.724 100.51 82.8959 100.51H83.5345C83.6595 100.51 83.7474 100.586 83.7982 100.739L85.0404 104.606C85.142 104.922 85.2103 105.141 85.2455 105.262C85.2845 105.379 85.3197 105.526 85.3509 105.702H85.3744C85.4056 105.526 85.4388 105.379 85.474 105.262C85.513 105.141 85.5834 104.922 85.6849 104.606L86.9271 100.739C86.9779 100.586 87.0658 100.51 87.1908 100.51H87.8295C88.0013 100.51 88.0541 100.606 87.9877 100.797L86.0658 106.305C85.9837 106.543 85.8783 106.663 85.7494 106.663H84.9759C84.847 106.663 84.7416 106.543 84.6595 106.305L82.7377 100.797ZM89.4874 106.663C89.3116 106.663 89.2238 106.575 89.2238 106.399V100.774C89.2238 100.598 89.3116 100.51 89.4874 100.51H89.9913C90.1671 100.51 90.255 100.598 90.255 100.774V106.399C90.255 106.575 90.1671 106.663 89.9913 106.663H89.4874ZM89.4874 99.397C89.3116 99.397 89.2238 99.3091 89.2238 99.1333V98.6294C89.2238 98.4536 89.3116 98.3657 89.4874 98.3657H89.9913C90.1671 98.3657 90.255 98.4536 90.255 98.6294V99.1333C90.255 99.3091 90.1671 99.397 89.9913 99.397H89.4874ZM91.8251 103.586C91.8251 102.747 92.0282 102.008 92.4345 101.372C92.8407 100.731 93.4345 100.411 94.2157 100.411C94.6649 100.411 95.0243 100.485 95.2938 100.633C95.5634 100.782 95.8055 100.985 96.0204 101.243H96.0321C96.0243 101.125 96.0204 101.006 96.0204 100.885V98.2778C96.0204 98.1021 96.1083 98.0142 96.2841 98.0142H96.788C96.9638 98.0142 97.0516 98.1021 97.0516 98.2778V106.399C97.0516 106.575 96.9638 106.663 96.788 106.663H96.2958C96.1552 106.663 96.079 106.575 96.0673 106.399L96.0321 105.93H96.0204C95.8055 106.188 95.5634 106.391 95.2938 106.54C95.0243 106.688 94.6649 106.762 94.2157 106.762C93.4345 106.762 92.8407 106.444 92.4345 105.807C92.0282 105.167 91.8251 104.426 91.8251 103.586ZM92.9149 103.586C92.9149 104.305 93.038 104.887 93.2841 105.333C93.5341 105.778 93.9559 106 94.5497 106C94.9716 106 95.3212 105.858 95.5985 105.573C95.8798 105.284 96.0204 104.846 96.0204 104.26V102.913C96.0204 102.327 95.8798 101.891 95.5985 101.606C95.3212 101.317 94.9716 101.172 94.5497 101.172C93.9559 101.172 93.5341 101.395 93.2841 101.84C93.038 102.286 92.9149 102.868 92.9149 103.586ZM98.9498 104.518V100.774C98.9498 100.598 99.0377 100.51 99.2135 100.51H99.7174C99.8932 100.51 99.9811 100.598 99.9811 100.774V104.237C99.9811 105.002 100.108 105.489 100.362 105.696C100.616 105.899 100.93 106 101.305 106C101.798 106 102.174 105.85 102.436 105.549C102.698 105.245 102.829 104.725 102.829 103.991V100.774C102.829 100.598 102.917 100.51 103.092 100.51H103.596C103.772 100.51 103.86 100.598 103.86 100.774V106.399C103.86 106.575 103.772 106.663 103.596 106.663H103.104C102.928 106.663 102.84 106.575 102.84 106.399V105.93H102.817C102.563 106.211 102.29 106.42 101.997 106.557C101.704 106.694 101.346 106.762 100.924 106.762C100.241 106.762 99.7409 106.563 99.4245 106.165C99.108 105.762 98.9498 105.213 98.9498 104.518ZM105.43 105.022C105.43 104.327 105.754 103.817 106.403 103.493C107.055 103.168 108.028 102.979 109.321 102.924V102.526C109.321 102.159 109.237 101.842 109.069 101.577C108.905 101.307 108.577 101.172 108.084 101.172C107.772 101.172 107.522 101.204 107.334 101.266C107.147 101.325 106.975 101.405 106.819 101.506C106.666 101.604 106.52 101.731 106.379 101.887C106.274 102.004 106.174 102.01 106.08 101.905L105.776 101.553C105.69 101.456 105.719 101.338 105.864 101.202C106.071 101.006 106.272 100.86 106.467 100.762C106.662 100.665 106.905 100.583 107.194 100.516C107.487 100.446 107.784 100.411 108.084 100.411C108.901 100.411 109.483 100.622 109.83 101.043C110.178 101.461 110.352 102.036 110.352 102.766V106.399C110.352 106.575 110.264 106.663 110.088 106.663H109.561C109.409 106.663 109.332 106.575 109.332 106.399V106.112H109.321C109.012 106.354 108.709 106.524 108.412 106.622C108.12 106.715 107.791 106.762 107.428 106.762C106.787 106.762 106.293 106.61 105.946 106.305C105.602 105.997 105.43 105.569 105.43 105.022ZM106.496 105.045C106.496 105.288 106.547 105.483 106.649 105.631C106.75 105.776 106.891 105.87 107.071 105.913C107.25 105.952 107.438 105.971 107.633 105.971C107.934 105.971 108.219 105.942 108.489 105.883C108.758 105.825 109.036 105.67 109.321 105.42V103.692C108.532 103.75 107.969 103.823 107.633 103.909C107.297 103.991 107.024 104.135 106.813 104.342C106.602 104.545 106.496 104.78 106.496 105.045ZM112.526 106.663C112.35 106.663 112.262 106.575 112.262 106.399V99.0864C112.262 99.0083 112.281 98.9341 112.32 98.8638L112.731 98.1196C112.805 97.9829 112.865 97.9146 112.912 97.9146H113.117C113.235 97.9146 113.293 97.9829 113.293 98.1196V106.399C113.293 106.575 113.205 106.663 113.029 106.663H112.526ZM114.863 103.586C114.863 102.618 115.105 101.846 115.59 101.272C116.074 100.698 116.768 100.411 117.67 100.411C118.42 100.411 119.041 100.674 119.533 101.202C120.029 101.725 120.277 102.563 120.277 103.715C120.277 103.891 120.197 103.979 120.037 103.979H115.953C116.019 104.733 116.223 105.258 116.562 105.555C116.902 105.848 117.287 105.995 117.717 105.995C118.17 105.995 118.518 105.918 118.76 105.766C119.002 105.614 119.18 105.463 119.293 105.315C119.418 105.151 119.539 105.12 119.656 105.221L120.002 105.52C120.092 105.598 120.092 105.706 120.002 105.842C119.928 105.956 119.715 106.137 119.363 106.387C119.016 106.637 118.467 106.762 117.717 106.762C116.74 106.762 116.019 106.475 115.555 105.901C115.094 105.327 114.863 104.555 114.863 103.586ZM115.93 103.217H119.24C119.225 102.67 119.084 102.192 118.818 101.782C118.553 101.368 118.162 101.161 117.646 101.161C117.193 101.161 116.809 101.313 116.492 101.618C116.176 101.918 115.988 102.452 115.93 103.217ZM121.631 106.088C121.509 105.975 121.484 105.87 121.554 105.772L121.818 105.403C121.904 105.286 122.031 105.292 122.199 105.42C122.429 105.596 122.685 105.737 122.966 105.842C123.252 105.948 123.576 106 123.939 106C124.154 106 124.345 105.975 124.513 105.924C124.681 105.87 124.828 105.77 124.953 105.625C125.082 105.481 125.146 105.288 125.146 105.045C125.146 104.905 125.115 104.772 125.052 104.647C124.994 104.522 124.9 104.422 124.771 104.348C124.646 104.27 124.523 104.209 124.402 104.167C124.203 104.092 124.004 104.032 123.804 103.985C123.609 103.934 123.351 103.858 123.031 103.756C122.816 103.69 122.613 103.596 122.422 103.475C122.23 103.35 122.062 103.182 121.918 102.971C121.777 102.76 121.707 102.469 121.707 102.098C121.707 101.719 121.822 101.393 122.052 101.12C122.283 100.846 122.572 100.661 122.92 100.563C123.267 100.461 123.605 100.411 123.933 100.411C124.418 100.411 124.806 100.467 125.099 100.581C125.396 100.69 125.652 100.821 125.867 100.973C125.992 101.063 126.009 101.167 125.92 101.284L125.656 101.635C125.574 101.749 125.447 101.745 125.275 101.624C125.131 101.522 124.925 101.426 124.66 101.336C124.394 101.247 124.162 101.202 123.963 101.202C123.716 101.202 123.506 101.229 123.33 101.284C123.154 101.338 123.011 101.432 122.902 101.565C122.793 101.698 122.738 101.854 122.738 102.034C122.738 102.17 122.759 102.293 122.802 102.403C122.845 102.508 122.925 102.606 123.043 102.696C123.16 102.786 123.324 102.858 123.535 102.913C123.863 102.999 124.162 103.077 124.431 103.147C124.705 103.217 124.951 103.303 125.17 103.405C125.455 103.538 125.674 103.684 125.826 103.844C125.982 104.004 126.09 104.178 126.148 104.366C126.207 104.549 126.236 104.754 126.236 104.981C126.236 105.399 126.111 105.752 125.861 106.042C125.615 106.331 125.34 106.524 125.035 106.622C124.73 106.715 124.363 106.762 123.933 106.762C123.351 106.762 122.851 106.68 122.433 106.516C122.019 106.348 121.752 106.206 121.631 106.088Z" fill="white"/>
<path d="M92.5 36.3528C101.613 36.3528 109 28.5046 109 18.8233C109 9.14205 101.613 1.29382 92.5 1.29382C83.3873 1.29382 76 9.14205 76 18.8233C76 28.5046 83.3873 36.3528 92.5 36.3528Z" stroke="white" stroke-width="1.5" stroke-miterlimit="10"/>
<path d="M67 55.4759V47.1321C67 41.1777 71.5236 36.3528 77.1061 36.3528H108.894C114.476 36.3528 119 41.1777 119 47.1321V55.4759" stroke="white" stroke-width="1.5" stroke-miterlimit="10"/>
</svg>
