<svg width="143" height="110" viewBox="0 0 143 110" fill="none" xmlns="http://www.w3.org/2000/svg">
<path d="M40.3 92.6609C40.1047 92.6609 40.007 92.5535 40.007 92.3386V84.5808C40.007 84.366 40.1047 84.2585 40.3 84.2585H42.7609C44.0891 84.2585 44.9855 84.4832 45.4504 84.9324C45.9152 85.3777 46.1477 85.991 46.1477 86.7722C46.1477 87.5535 45.9152 88.1687 45.4504 88.6179C44.9855 89.0632 44.0891 89.2859 42.7609 89.2859H41.132V92.3386C41.132 92.5535 41.0344 92.6609 40.8391 92.6609H40.3ZM41.132 88.325H42.7785C43.6379 88.325 44.2238 88.2039 44.5363 87.9617C44.8488 87.7156 45.0051 87.3191 45.0051 86.7722C45.0051 86.2253 44.8488 85.8308 44.5363 85.5886C44.2238 85.3425 43.6379 85.2195 42.7785 85.2195H41.132V88.325ZM48.0107 92.6609C47.8349 92.6609 47.747 92.573 47.747 92.3972V86.7722C47.747 86.5964 47.8349 86.5085 48.0107 86.5085H48.5029C48.6787 86.5085 48.7666 86.5964 48.7666 86.7722V87.4753H48.79C48.9775 87.1238 49.1982 86.8582 49.4521 86.6785C49.706 86.4988 50.0224 86.4089 50.4013 86.4089C50.6513 86.4089 50.8271 86.4304 50.9287 86.4734C51.0185 86.5085 51.0517 86.5671 51.0283 86.6492L50.8935 87.1296C50.874 87.2 50.8232 87.2273 50.7412 87.2117C50.6045 87.1843 50.4755 87.1707 50.3545 87.1707C49.8974 87.1707 49.5205 87.3777 49.2236 87.7917C48.9267 88.2019 48.7783 88.7625 48.7783 89.4734V92.3972C48.7783 92.573 48.6904 92.6609 48.5146 92.6609H48.0107ZM51.8835 89.5847C51.8835 88.6667 52.1257 87.9089 52.6101 87.3113C53.0984 86.7097 53.8112 86.4089 54.7487 86.4089C55.6862 86.4089 56.3972 86.7097 56.8816 87.3113C57.3698 87.9089 57.614 88.6667 57.614 89.5847C57.614 90.5027 57.3698 91.2625 56.8816 91.864C56.3972 92.4617 55.6862 92.7605 54.7487 92.7605C53.8112 92.7605 53.0984 92.4617 52.6101 91.864C52.1257 91.2625 51.8835 90.5027 51.8835 89.5847ZM52.9734 89.5847C52.9734 90.405 53.1355 91.0125 53.4597 91.407C53.7839 91.8015 54.2136 91.9988 54.7487 91.9988C55.2839 91.9988 55.7136 91.8015 56.0378 91.407C56.362 91.0125 56.5241 90.405 56.5241 89.5847C56.5241 88.7644 56.362 88.157 56.0378 87.7625C55.7136 87.3679 55.2839 87.1707 54.7487 87.1707C54.2136 87.1707 53.7839 87.3679 53.4597 87.7625C53.1355 88.157 52.9734 88.7644 52.9734 89.5847ZM58.8501 89.5847C58.8501 88.6667 59.0766 87.9089 59.5298 87.3113C59.9868 86.7097 60.6841 86.4089 61.6216 86.4089C62.2544 86.4089 62.7368 86.5222 63.0688 86.7488C63.4048 86.9714 63.6469 87.2 63.7954 87.4343C63.8774 87.5632 63.8598 87.6667 63.7427 87.7449L63.3735 87.9851C63.2563 88.0671 63.1391 88.0144 63.0219 87.8269C62.9087 87.6472 62.7485 87.4929 62.5415 87.364C62.3384 87.2351 62.0317 87.1707 61.6216 87.1707C61.0864 87.1707 60.6723 87.3679 60.3794 87.7625C60.0864 88.157 59.9399 88.7644 59.9399 89.5847C59.9399 90.405 60.0864 91.0125 60.3794 91.407C60.6723 91.8015 61.0864 91.9988 61.6216 91.9988C62.0552 91.9988 62.3872 91.9167 62.6177 91.7527C62.8481 91.5847 63.0161 91.4031 63.1216 91.2078C63.2231 91.0242 63.3384 90.9714 63.4673 91.0496L63.8598 91.2839C63.977 91.3542 63.9946 91.4597 63.9126 91.6003C63.8149 91.7683 63.5923 92.0046 63.2446 92.3093C62.9009 92.6101 62.3598 92.7605 61.6216 92.7605C60.6841 92.7605 59.9868 92.4617 59.5298 91.864C59.0766 91.2625 58.8501 90.5027 58.8501 89.5847ZM65.1018 89.5847C65.1018 88.616 65.344 87.8445 65.8284 87.2703C66.3127 86.696 67.0061 86.4089 67.9084 86.4089C68.6584 86.4089 69.2795 86.6726 69.7717 87.2C70.2678 87.7234 70.5159 88.5613 70.5159 89.7136C70.5159 89.8894 70.4358 89.9773 70.2756 89.9773H66.1916C66.258 90.7312 66.4612 91.2566 66.801 91.5535C67.1409 91.8464 67.5256 91.9929 67.9553 91.9929C68.4084 91.9929 68.7561 91.9167 68.9983 91.7644C69.2405 91.6121 69.4182 91.4617 69.5315 91.3132C69.6565 91.1492 69.7776 91.1179 69.8948 91.2195L70.2405 91.5183C70.3303 91.5964 70.3303 91.7039 70.2405 91.8406C70.1662 91.9539 69.9534 92.1355 69.6018 92.3855C69.2541 92.6355 68.7053 92.7605 67.9553 92.7605C66.9787 92.7605 66.258 92.4734 65.7932 91.8992C65.3323 91.325 65.1018 90.5535 65.1018 89.5847ZM66.1682 89.2156H69.4787C69.4631 88.6687 69.3225 88.1902 69.0569 87.78C68.7912 87.366 68.4006 87.1589 67.885 87.1589C67.4319 87.1589 67.0471 87.3113 66.7307 87.616C66.4143 87.9167 66.2268 88.45 66.1682 89.2156ZM71.8691 92.0867C71.748 91.9734 71.7227 91.8679 71.793 91.7703L72.0566 91.4011C72.1426 91.2839 72.2695 91.2898 72.4375 91.4187C72.668 91.5945 72.9238 91.7351 73.2051 91.8406C73.4902 91.946 73.8145 91.9988 74.1777 91.9988C74.3926 91.9988 74.584 91.9734 74.752 91.9226C74.9199 91.8679 75.0664 91.7683 75.1914 91.6238C75.3203 91.4792 75.3848 91.2859 75.3848 91.0437C75.3848 90.9031 75.3535 90.7703 75.291 90.6453C75.2324 90.5203 75.1387 90.4207 75.0098 90.3464C74.8848 90.2683 74.7617 90.2078 74.6406 90.1648C74.4414 90.0906 74.2422 90.03 74.043 89.9832C73.8477 89.9324 73.5898 89.8562 73.2695 89.7546C73.0547 89.6882 72.8516 89.5945 72.6602 89.4734C72.4688 89.3484 72.3008 89.1804 72.1562 88.9695C72.0156 88.7585 71.9453 88.4675 71.9453 88.0964C71.9453 87.7175 72.0605 87.3914 72.291 87.1179C72.5215 86.8445 72.8105 86.6589 73.1582 86.5613C73.5059 86.4597 73.8438 86.4089 74.1719 86.4089C74.6562 86.4089 75.0449 86.4656 75.3379 86.5789C75.6348 86.6882 75.8906 86.8191 76.1055 86.9714C76.2305 87.0613 76.248 87.1648 76.1582 87.282L75.8945 87.6335C75.8125 87.7468 75.6855 87.7429 75.5137 87.6218C75.3691 87.5203 75.1641 87.4246 74.8984 87.3347C74.6328 87.2449 74.4004 87.2 74.2012 87.2C73.9551 87.2 73.7441 87.2273 73.5684 87.282C73.3926 87.3367 73.25 87.4304 73.1406 87.5632C73.0312 87.696 72.9766 87.8523 72.9766 88.032C72.9766 88.1687 72.998 88.2917 73.041 88.4011C73.084 88.5066 73.1641 88.6042 73.2812 88.6941C73.3984 88.7839 73.5625 88.8562 73.7734 88.9109C74.1016 88.9968 74.4004 89.075 74.6699 89.1453C74.9434 89.2156 75.1895 89.3015 75.4082 89.4031C75.6934 89.5359 75.9121 89.6824 76.0645 89.8425C76.2207 90.0027 76.3281 90.1765 76.3867 90.364C76.4453 90.5476 76.4746 90.7527 76.4746 90.9792C76.4746 91.3972 76.3496 91.7507 76.0996 92.0398C75.8535 92.3289 75.5781 92.5222 75.2734 92.6199C74.9688 92.7136 74.6016 92.7605 74.1719 92.7605C73.5898 92.7605 73.0898 92.6785 72.6719 92.5144C72.2578 92.3464 71.9902 92.2039 71.8691 92.0867ZM77.5466 89.5847C77.5466 88.6667 77.7888 87.9089 78.2732 87.3113C78.7615 86.7097 79.4744 86.4089 80.4119 86.4089C81.3494 86.4089 82.0603 86.7097 82.5447 87.3113C83.033 87.9089 83.2771 88.6667 83.2771 89.5847C83.2771 90.5027 83.033 91.2625 82.5447 91.864C82.0603 92.4617 81.3494 92.7605 80.4119 92.7605C79.4744 92.7605 78.7615 92.4617 78.2732 91.864C77.7888 91.2625 77.5466 90.5027 77.5466 89.5847ZM78.6365 89.5847C78.6365 90.405 78.7986 91.0125 79.1228 91.407C79.447 91.8015 79.8767 91.9988 80.4119 91.9988C80.947 91.9988 81.3767 91.8015 81.7009 91.407C82.0252 91.0125 82.1873 90.405 82.1873 89.5847C82.1873 88.7644 82.0252 88.157 81.7009 87.7625C81.3767 87.3679 80.947 87.1707 80.4119 87.1707C79.8767 87.1707 79.447 87.3679 79.1228 87.7625C78.7986 88.157 78.6365 88.7644 78.6365 89.5847ZM84.6069 92.0867C84.4859 91.9734 84.4605 91.8679 84.5308 91.7703L84.7944 91.4011C84.8804 91.2839 85.0073 91.2898 85.1753 91.4187C85.4058 91.5945 85.6616 91.7351 85.9429 91.8406C86.228 91.946 86.5523 91.9988 86.9155 91.9988C87.1304 91.9988 87.3218 91.9734 87.4898 91.9226C87.6577 91.8679 87.8042 91.7683 87.9292 91.6238C88.0581 91.4792 88.1226 91.2859 88.1226 91.0437C88.1226 90.9031 88.0913 90.7703 88.0288 90.6453C87.9702 90.5203 87.8765 90.4207 87.7476 90.3464C87.6226 90.2683 87.4995 90.2078 87.3784 90.1648C87.1792 90.0906 86.98 90.03 86.7808 89.9832C86.5855 89.9324 86.3277 89.8562 86.0073 89.7546C85.7925 89.6882 85.5894 89.5945 85.398 89.4734C85.2066 89.3484 85.0386 89.1804 84.8941 88.9695C84.7534 88.7585 84.6831 88.4675 84.6831 88.0964C84.6831 87.7175 84.7984 87.3914 85.0288 87.1179C85.2593 86.8445 85.5484 86.6589 85.896 86.5613C86.2437 86.4597 86.5816 86.4089 86.9097 86.4089C87.3941 86.4089 87.7827 86.4656 88.0757 86.5789C88.3726 86.6882 88.6284 86.8191 88.8433 86.9714C88.9683 87.0613 88.9859 87.1648 88.896 87.282L88.6323 87.6335C88.5503 87.7468 88.4234 87.7429 88.2515 87.6218C88.1069 87.5203 87.9019 87.4246 87.6362 87.3347C87.3706 87.2449 87.1382 87.2 86.939 87.2C86.6929 87.2 86.4819 87.2273 86.3062 87.282C86.1304 87.3367 85.9878 87.4304 85.8784 87.5632C85.7691 87.696 85.7144 87.8523 85.7144 88.032C85.7144 88.1687 85.7359 88.2917 85.7788 88.4011C85.8218 88.5066 85.9019 88.6042 86.0191 88.6941C86.1362 88.7839 86.3003 88.8562 86.5112 88.9109C86.8394 88.9968 87.1382 89.075 87.4077 89.1453C87.6812 89.2156 87.9273 89.3015 88.146 89.4031C88.4312 89.5359 88.6499 89.6824 88.8023 89.8425C88.9585 90.0027 89.0659 90.1765 89.1245 90.364C89.1831 90.5476 89.2124 90.7527 89.2124 90.9792C89.2124 91.3972 89.0874 91.7507 88.8374 92.0398C88.5913 92.3289 88.3159 92.5222 88.0112 92.6199C87.7066 92.7136 87.3394 92.7605 86.9097 92.7605C86.3277 92.7605 85.8277 92.6785 85.4097 92.5144C84.9956 92.3464 84.728 92.2039 84.6069 92.0867ZM95.3116 92.6609C95.1162 92.6609 95.0186 92.5535 95.0186 92.3386V84.5808C95.0186 84.366 95.1162 84.2585 95.3116 84.2585H95.8506C96.0459 84.2585 96.1436 84.366 96.1436 84.5808V92.3386C96.1436 92.5535 96.0459 92.6609 95.8506 92.6609H95.3116ZM98.4754 92.6609C98.2996 92.6609 98.2117 92.573 98.2117 92.3972V86.7722C98.2117 86.5964 98.2996 86.5085 98.4754 86.5085H98.9676C99.1434 86.5085 99.2312 86.5964 99.2312 86.7722V87.241H99.2547C99.5086 86.9597 99.782 86.7507 100.075 86.614C100.368 86.4773 100.733 86.4089 101.171 86.4089C101.882 86.4089 102.391 86.6101 102.7 87.0125C103.012 87.4109 103.169 87.9578 103.169 88.6531V92.3972C103.169 92.573 103.081 92.6609 102.905 92.6609H102.401C102.225 92.6609 102.137 92.573 102.137 92.3972V88.9343C102.137 88.1687 102.011 87.6843 101.757 87.4812C101.503 87.2742 101.18 87.1707 100.79 87.1707C100.282 87.1707 99.8973 87.323 99.6355 87.6277C99.3738 87.9285 99.243 88.446 99.243 89.1804V92.3972C99.243 92.573 99.1551 92.6609 98.9793 92.6609H98.4754ZM46.3171 102.46C46.3171 101.093 46.655 100.022 47.3308 99.2488C48.0105 98.4714 48.9851 98.0828 50.2546 98.0828C50.9968 98.0828 51.6101 98.2097 52.0945 98.4636C52.5788 98.7136 52.9265 99.0574 53.1374 99.4949C53.2468 99.7214 53.2292 99.8777 53.0847 99.9636L52.6218 100.233C52.4655 100.323 52.3269 100.249 52.2058 100.01C52.0769 99.7644 51.8659 99.5339 51.573 99.3191C51.28 99.1042 50.8601 98.9968 50.3132 98.9968C49.3366 98.9968 48.6257 99.3015 48.1804 99.9109C47.739 100.516 47.5183 101.366 47.5183 102.46C47.5183 103.553 47.739 104.405 48.1804 105.014C48.6257 105.62 49.3366 105.923 50.3132 105.923C50.8757 105.923 51.3249 105.794 51.6609 105.536C52.0007 105.278 52.2468 105.009 52.3991 104.727C52.5202 104.501 52.6609 104.432 52.821 104.522L53.3073 104.798C53.448 104.88 53.4597 105.036 53.3425 105.266C53.112 105.716 52.737 106.091 52.2175 106.391C51.698 106.688 51.0437 106.837 50.2546 106.837C48.9851 106.837 48.0105 106.45 47.3308 105.677C46.655 104.899 46.3171 103.827 46.3171 102.46ZM54.7309 103.585C54.7309 102.667 54.9731 101.909 55.4575 101.311C55.9458 100.71 56.6587 100.409 57.5962 100.409C58.5337 100.409 59.2446 100.71 59.729 101.311C60.2173 101.909 60.4614 102.667 60.4614 103.585C60.4614 104.503 60.2173 105.262 59.729 105.864C59.2446 106.462 58.5337 106.76 57.5962 106.76C56.6587 106.76 55.9458 106.462 55.4575 105.864C54.9731 105.262 54.7309 104.503 54.7309 103.585ZM55.8208 103.585C55.8208 104.405 55.9829 105.012 56.3071 105.407C56.6313 105.802 57.061 105.999 57.5962 105.999C58.1313 105.999 58.561 105.802 58.8852 105.407C59.2094 105.012 59.3716 104.405 59.3716 103.585C59.3716 102.764 59.2094 102.157 58.8852 101.762C58.561 101.368 58.1313 101.171 57.5962 101.171C57.061 101.171 56.6313 101.368 56.3071 101.762C55.9829 102.157 55.8208 102.764 55.8208 103.585ZM62.2952 106.661C62.1194 106.661 62.0315 106.573 62.0315 106.397V100.772C62.0315 100.596 62.1194 100.509 62.2952 100.509H62.7873C62.9631 100.509 63.051 100.596 63.051 100.772V101.241H63.0745C63.3284 100.96 63.6037 100.751 63.9006 100.614C64.1975 100.477 64.4827 100.409 64.7561 100.409C65.26 100.409 65.6467 100.536 65.9162 100.79C66.1897 101.04 66.3655 101.292 66.4436 101.546H66.467C66.6819 101.225 66.9534 100.956 67.2815 100.737C67.6096 100.518 67.9592 100.409 68.3303 100.409C68.9514 100.409 69.4202 100.61 69.7366 101.012C70.053 101.411 70.2112 101.958 70.2112 102.653V106.397C70.2112 106.573 70.1233 106.661 69.9475 106.661H69.4436C69.2678 106.661 69.1799 106.573 69.1799 106.397V102.993C69.1799 102.227 69.0842 101.733 68.8928 101.51C68.7014 101.284 68.4065 101.171 68.008 101.171C67.6174 101.171 67.2912 101.339 67.0295 101.675C66.7678 102.007 66.637 102.509 66.637 103.18V106.397C66.637 106.573 66.5491 106.661 66.3733 106.661H65.8694C65.6936 106.661 65.6057 106.573 65.6057 106.397V102.993C65.6057 102.227 65.51 101.733 65.3186 101.51C65.1272 101.284 64.8323 101.171 64.4338 101.171C64.0432 101.171 63.717 101.323 63.4553 101.628C63.1936 101.928 63.0627 102.446 63.0627 103.18V106.397C63.0627 106.573 62.9748 106.661 62.7991 106.661H62.2952ZM72.3672 109.005C72.1914 109.005 72.1035 108.917 72.1035 108.741V100.772C72.1035 100.596 72.1914 100.509 72.3672 100.509H72.8594C73 100.509 73.0762 100.596 73.0879 100.772L73.123 101.241H73.1348C73.3496 100.983 73.5918 100.78 73.8613 100.632C74.1309 100.483 74.4902 100.409 74.9395 100.409C75.7207 100.409 76.3145 100.729 76.7207 101.37C77.127 102.007 77.3301 102.745 77.3301 103.585C77.3301 104.425 77.127 105.165 76.7207 105.805C76.3145 106.442 75.7207 106.76 74.9395 106.76C74.4902 106.76 74.1309 106.686 73.8613 106.538C73.5918 106.389 73.3496 106.186 73.1348 105.928H73.123C73.1309 106.046 73.1348 106.165 73.1348 106.286V108.741C73.1348 108.917 73.0469 109.005 72.8711 109.005H72.3672ZM73.1348 104.259C73.1348 104.844 73.2734 105.282 73.5508 105.571C73.832 105.856 74.1836 105.999 74.6055 105.999C75.1992 105.999 75.6191 105.776 75.8652 105.331C76.1152 104.885 76.2402 104.303 76.2402 103.585C76.2402 102.866 76.1152 102.284 75.8652 101.839C75.6191 101.393 75.1992 101.171 74.6055 101.171C74.1836 101.171 73.832 101.315 73.5508 101.604C73.2734 101.889 73.1348 102.325 73.1348 102.911V104.259ZM78.572 105.02C78.572 104.325 78.8962 103.815 79.5447 103.491C80.197 103.167 81.1697 102.977 82.4627 102.923V102.524C82.4627 102.157 82.3787 101.841 82.2107 101.575C82.0466 101.305 81.7185 101.171 81.2263 101.171C80.9138 101.171 80.6638 101.202 80.4763 101.264C80.2888 101.323 80.117 101.403 79.9607 101.505C79.8084 101.602 79.6619 101.729 79.5212 101.885C79.4158 102.003 79.3162 102.009 79.2224 101.903L78.9177 101.552C78.8318 101.454 78.8611 101.337 79.0056 101.2C79.2127 101.005 79.4138 100.858 79.6091 100.76C79.8045 100.663 80.0466 100.581 80.3357 100.514C80.6287 100.444 80.9255 100.409 81.2263 100.409C82.0427 100.409 82.6248 100.62 82.9724 101.042C83.3201 101.46 83.4939 102.034 83.4939 102.764V106.397C83.4939 106.573 83.406 106.661 83.2302 106.661H82.7029C82.5505 106.661 82.4744 106.573 82.4744 106.397V106.11H82.4627C82.1541 106.352 81.8513 106.522 81.5545 106.62C81.2615 106.714 80.9334 106.76 80.5701 106.76C79.9295 106.76 79.4353 106.608 79.0877 106.303C78.7439 105.995 78.572 105.567 78.572 105.02ZM79.6384 105.044C79.6384 105.286 79.6892 105.481 79.7908 105.63C79.8923 105.774 80.033 105.868 80.2127 105.911C80.3923 105.95 80.5798 105.969 80.7752 105.969C81.0759 105.969 81.3611 105.94 81.6306 105.882C81.9002 105.823 82.1775 105.669 82.4627 105.419V103.69C81.6736 103.749 81.1111 103.821 80.7752 103.907C80.4392 103.989 80.1658 104.134 79.9548 104.341C79.7439 104.544 79.6384 104.778 79.6384 105.044ZM85.6675 106.661C85.4917 106.661 85.4038 106.573 85.4038 106.397V100.772C85.4038 100.596 85.4917 100.509 85.6675 100.509H86.1597C86.3355 100.509 86.4234 100.596 86.4234 100.772V101.241H86.4468C86.7007 100.96 86.9741 100.751 87.2671 100.614C87.5601 100.477 87.9253 100.409 88.3628 100.409C89.0737 100.409 89.5835 100.61 89.8921 101.012C90.2046 101.411 90.3609 101.958 90.3609 102.653V106.397C90.3609 106.573 90.273 106.661 90.0972 106.661H89.5933C89.4175 106.661 89.3296 106.573 89.3296 106.397V102.934C89.3296 102.169 89.2027 101.684 88.9487 101.481C88.6948 101.274 88.3726 101.171 87.9819 101.171C87.4741 101.171 87.0894 101.323 86.8277 101.628C86.5659 101.928 86.4351 102.446 86.4351 103.18V106.397C86.4351 106.573 86.3472 106.661 86.1714 106.661H85.6675ZM91.8255 100.796C91.7552 100.604 91.8079 100.509 91.9837 100.509H92.6223C92.7513 100.509 92.8391 100.585 92.886 100.737L94.1165 104.604C94.1516 104.71 94.2044 104.876 94.2747 105.102C94.3489 105.325 94.4016 105.524 94.4329 105.7H94.4446C94.4759 105.524 94.513 105.366 94.5559 105.225C94.6028 105.081 94.6712 104.874 94.761 104.604L96.0032 100.737C96.054 100.585 96.1419 100.509 96.2669 100.509H96.9055C97.0813 100.509 97.1341 100.604 97.0638 100.796L95.0891 106.303C94.718 107.339 94.386 108.063 94.093 108.477C93.8001 108.895 93.3626 109.104 92.7805 109.104C92.4759 109.104 92.2337 109.059 92.054 108.969C91.972 108.93 91.9446 108.87 91.972 108.788L92.1243 108.313C92.1516 108.231 92.2044 108.208 92.2825 108.243C92.4427 108.309 92.597 108.343 92.7454 108.343C93.0188 108.343 93.2415 108.194 93.4134 107.897C93.5852 107.604 93.722 107.309 93.8235 107.012L93.9407 106.667L91.8255 100.796Z" fill="white"/>
<path d="M87.8185 13.1228C89.2018 10.9358 91.1525 11.1626 92.323 13.0497C93.4934 11.6673 94.5362 11.3089 95.6002 11.916C96.8061 12.6108 97.026 13.6056 96.416 15.522C96.8629 15.6317 97.3594 15.6682 97.7638 15.8731C99.0123 16.5021 99.3598 17.9942 98.6008 19.3328C96.4231 23.1801 94.2311 27.0202 92.0392 30.8603C91.9754 30.97 91.9186 31.087 91.7484 31.4162C93.0039 30.7945 94.068 30.2678 95.1391 29.7339C95.4016 29.6022 95.6499 29.4559 95.9123 29.3462C96.9338 28.922 98.0475 29.3462 98.5157 30.3336C98.991 31.3211 98.6363 32.4841 97.6219 33.0253C95.5789 34.1225 93.5289 35.2124 91.4433 36.2291C89.8686 36.9971 88.2157 37.6115 86.6339 38.3795C86.2224 38.577 85.8607 39.0232 85.6337 39.4401C84.3994 41.7295 83.2147 44.0408 82.0159 46.3449C81.9308 46.5131 81.8315 46.6667 81.6967 46.8935C81.4981 46.7911 81.2994 46.696 81.0937 46.5936C81.1008 46.4912 81.0937 46.4034 81.1221 46.3449C82.4628 43.8068 83.7751 41.2541 85.1868 38.7598C85.4705 38.2551 86.0735 37.8748 86.6055 37.6042C87.4922 37.158 88.4782 36.9239 89.3649 36.4777C91.8831 35.2124 94.3801 33.9031 96.87 32.5718C97.2459 32.3744 97.7212 32.0598 97.8205 31.6941C97.934 31.2845 97.8134 30.6701 97.5651 30.3044C97.253 29.8363 96.6784 29.7777 96.1393 30.0484C94.6355 30.8018 93.1245 31.5625 91.6207 32.3158C91.4788 32.389 91.344 32.4987 91.1951 32.5206C90.961 32.5572 90.7127 32.5353 90.4715 32.5426C90.507 32.3232 90.4928 32.0672 90.5921 31.8843C91.2518 30.6847 91.9399 29.5071 92.6138 28.3149C94.3943 25.1916 96.1677 22.0757 97.9482 18.9597C98.3313 18.2941 98.4164 17.6431 97.9482 16.9922C97.5439 16.4289 96.948 16.1876 96.3521 16.4363C95.9123 16.6191 95.4654 17.0214 95.2172 17.4457C93.692 20.0276 92.2236 22.6462 90.7411 25.2574C90.663 25.3964 90.6134 25.572 90.4999 25.667C90.3013 25.828 90.0672 25.9304 89.8473 26.062C89.8615 25.7987 89.7905 25.4842 89.904 25.2794C91.7697 21.9586 93.6566 18.6598 95.5364 15.3537C96.2741 14.0591 96.1961 13.1375 95.2952 12.6035C94.373 12.0549 93.6069 12.406 92.855 13.7226C91.1667 16.6776 89.4784 19.6327 87.7972 22.5877C87.7334 22.7047 87.6908 22.851 87.5915 22.9315C87.3929 23.0924 87.1588 23.2094 86.9389 23.3484C86.9389 23.0851 86.8609 22.7705 86.9673 22.5731C87.7476 21.1394 88.5775 19.7277 89.3862 18.3088C90.0388 17.1677 90.6985 16.034 91.3298 14.8856C91.8406 13.964 91.642 13.0204 90.8759 12.5523C90.0956 12.0769 89.1947 12.3402 88.6697 13.2472C87.0879 15.9828 85.5273 18.733 83.9596 21.4832C83.8673 21.6441 83.7964 21.8343 83.6616 21.9513C83.5623 22.0391 83.3211 22.0976 83.2573 22.0391C83.1509 21.9367 83.0658 21.7173 83.0941 21.5783C83.1509 21.3515 83.2999 21.1467 83.4204 20.9346C84.5058 19.0256 85.5982 17.1165 86.6906 15.2074C86.797 15.0246 86.9034 14.8344 86.9885 14.6369C87.3148 13.8616 87.0595 12.9912 86.3998 12.5816C85.6904 12.1427 84.7966 12.3109 84.3213 13.0643C83.6687 14.1103 83.0799 15.1928 82.4699 16.268C81.0795 18.711 79.6963 21.1614 78.2917 23.6044C77.4973 24.9868 77.0787 26.4716 77.0716 28.0735C77.0646 29.9679 76.5396 31.6795 75.5749 33.2813C74.1633 35.622 72.7942 37.9845 71.3825 40.3251C71.1272 40.7494 71.113 41.0566 71.3684 41.4881C72.553 43.5288 73.688 45.5915 74.8584 47.6395C76.1566 49.9143 75.4401 51.4942 72.9077 51.8526C73.7305 54.4419 73.0637 55.6927 70.9073 55.8682C70.9073 56.7313 71.0279 57.6091 70.8576 58.421C70.7654 58.8598 70.2476 59.2987 69.8149 59.5474C68.7295 60.1764 67.6939 59.7449 66.8213 58.6038C66.4099 58.8964 65.9843 59.2402 65.5232 59.5255C64.4237 60.213 63.0688 59.7961 62.3665 58.5526C60.2739 54.8735 58.1955 51.187 56.11 47.5006C55.9539 47.2226 55.7907 46.952 55.4715 46.6814C55.429 47.0544 55.3793 47.4274 55.3509 47.8005C55.2871 48.9049 55.2445 50.0167 55.1665 51.1139C55.0885 52.233 54.1592 53.0888 53.1164 53.0449C52.0453 53.001 51.1799 52.1086 51.2224 50.9749C51.3572 47.3323 51.5417 43.6898 51.7048 40.0472C51.7048 39.9667 51.7048 39.8789 51.7403 39.8058C52.4638 38.2917 51.7828 37.1214 51.0096 35.856C46.413 28.388 41.8518 20.8834 37.2693 13.3862C37.17 13.2252 37.0423 13.0716 37.0068 12.8961C36.9784 12.7717 37.0423 12.5523 37.1345 12.4865C37.2267 12.4207 37.4608 12.4426 37.5459 12.5231C37.7162 12.684 37.8368 12.9034 37.9573 13.1082C42.7385 20.92 47.5054 28.7391 52.3007 36.5363C52.8327 37.4067 52.8611 38.2332 52.6908 39.228C52.4284 40.7347 52.3503 42.2781 52.2652 43.8068C52.1304 46.0962 52.0595 48.3929 51.9673 50.6896C51.9318 51.5966 52.3645 52.2037 53.0881 52.2696C53.8471 52.3427 54.4146 51.8088 54.4784 50.8725C54.599 49.1244 54.6629 47.3689 54.7905 45.6134C54.8118 45.3062 55.0175 45.0137 55.1381 44.7211C55.3509 44.9332 55.6205 45.1161 55.7624 45.3721C58.0962 49.4681 60.4087 53.5788 62.7283 57.6895C62.8702 57.9455 63.0121 58.2089 63.1823 58.4429C63.6505 59.0866 64.4875 59.2621 65.1472 58.8818C65.8353 58.4795 66.1404 57.6895 65.8637 56.9435C65.7502 56.6436 65.58 56.3656 65.4239 56.0877C63.9484 53.4691 62.4659 50.8652 61.0117 48.2393C60.8769 47.9979 60.9478 47.6469 60.9194 47.3396C61.1606 47.5225 61.4869 47.6615 61.6288 47.9029C63.5228 51.2017 65.3884 54.5224 67.2682 57.8285C67.4527 58.1503 67.6584 58.4795 67.935 58.7136C68.4813 59.1817 69.1126 59.1817 69.6872 58.7867C70.283 58.3771 70.5597 57.7773 70.3256 57.0312C70.2121 56.6801 70.0277 56.3437 69.8432 56.0219C68.1691 53.0595 66.495 50.0972 64.8209 47.1348C64.7003 46.9227 64.5656 46.7179 64.5017 46.4912C64.4663 46.3741 64.5514 46.1547 64.6436 46.0889C64.7358 46.0304 64.9628 46.0596 65.055 46.1401C65.204 46.2791 65.3033 46.4839 65.4097 46.6667C66.8072 49.139 68.2046 51.6186 69.6091 54.0835C70.1624 55.049 71.0491 55.3489 71.8507 54.8808C72.6523 54.4127 72.8438 53.4618 72.2976 52.4817C70.8009 49.8192 69.2828 47.1641 67.8074 44.4943C67.63 44.1725 67.5307 43.4411 67.5945 43.4118C68.1904 43.1631 68.2259 43.7995 68.4103 44.1213C69.5808 46.1401 70.7157 48.1735 71.8649 50.1996C72.2551 50.8945 72.858 51.1431 73.6029 50.9822C74.2626 50.8433 74.674 50.3751 74.752 49.7022C74.7946 49.3292 74.7024 48.883 74.5179 48.5538C72.5104 44.9478 70.4746 41.3565 68.4316 37.7724C67.7435 36.5582 66.7646 35.6146 65.58 34.9344C63.8988 33.9689 62.6716 32.5865 61.7565 30.8603C60.5506 28.5855 59.295 26.34 58.0891 24.0652C57.8337 23.5824 57.55 23.385 56.9967 23.3923C54.7693 23.4288 52.5419 23.4069 50.3145 23.4069C47.9381 23.4069 46.945 21.805 47.9736 19.5083C47.023 19.4059 46.1008 19.245 45.5617 18.3088C45.0155 17.3579 45.1999 16.4509 45.6752 15.5512C43.8096 15.2294 42.9867 14.4321 43.0364 13.0351C43.079 11.6453 43.9444 10.87 45.6823 10.7091C45.5546 10.3799 45.3915 10.08 45.3064 9.75089C44.8878 8.14172 46.0299 6.76661 47.8033 6.7593C51.8396 6.7593 55.8759 6.7593 59.9121 6.7593C60.2739 6.7593 60.6357 6.7593 61.0755 6.58375C60.352 6.08637 59.6284 5.58899 58.9119 5.09161C58.4083 4.74783 57.8905 4.426 57.4152 4.04565C56.5143 3.32152 56.3511 2.16585 56.9754 1.23692C57.5854 0.32993 58.7133 0.0812401 59.6922 0.710279C61.2032 1.67578 62.7141 2.65591 64.1825 3.69456C66.0339 5.00384 67.8215 6.4082 69.6801 7.70286C70.0915 7.98812 70.7016 8.11246 71.2123 8.09783C80.1148 7.80526 89.0173 7.48342 97.9198 7.1689C98.0759 7.1689 98.2532 7.11039 98.388 7.1689C98.5937 7.25668 98.764 7.41759 98.9555 7.54194C98.7782 7.65165 98.6008 7.84914 98.4164 7.85646C96.4302 7.95886 94.4369 8.04663 92.4506 8.11246C85.2506 8.36847 78.0506 8.62447 70.8434 8.82927C70.2688 8.8439 69.6162 8.56596 69.1268 8.22949C68.1124 7.53462 67.2186 6.63495 66.2042 5.94008C63.9839 4.41137 61.721 2.94117 59.4723 1.46366C58.692 0.951655 57.9472 1.06137 57.5429 1.71967C57.1527 2.35602 57.3372 3.08746 58.0607 3.59216C59.4936 4.59423 60.9478 5.55242 62.3736 6.56181C62.5935 6.72272 62.7141 7.03724 62.8773 7.27862C62.6148 7.35908 62.3594 7.49805 62.097 7.50537C57.3301 7.52 52.556 7.52 47.7891 7.50537C47.1081 7.50537 46.5406 7.68823 46.1789 8.30264C45.5192 9.42906 46.3136 10.7164 47.6969 10.7237C50.7117 10.7457 53.7265 10.7237 56.7342 10.731C56.9186 10.731 57.1173 10.6871 57.2804 10.7456C57.4507 10.8042 57.5783 10.9651 57.7273 11.0821C57.5925 11.2065 57.4719 11.3893 57.3088 11.4478C57.1173 11.5137 56.8974 11.4698 56.6845 11.4698C53.1448 11.4698 49.6122 11.4698 46.0725 11.4698C45.81 11.4698 45.5475 11.4698 45.2851 11.4844C44.3629 11.5649 43.7174 12.2305 43.7245 13.0863C43.7245 13.9786 44.4055 14.6589 45.3773 14.6662C48.8603 14.6808 52.3503 14.6662 55.8333 14.6954C56.2093 14.6954 56.798 14.3955 56.8761 15.1124C56.8832 15.1855 56.2022 15.4342 55.8404 15.4342C53.1661 15.4634 50.4918 15.4415 47.8246 15.4488C46.6683 15.4488 45.9519 16.0486 45.9235 17.0214C45.8951 17.9942 46.6683 18.6672 47.8459 18.6672C50.8039 18.6672 53.7691 18.6672 56.7271 18.6672C56.9399 18.6672 57.1598 18.6306 57.3513 18.6891C57.4932 18.733 57.5925 18.9085 57.7131 19.0256C57.5996 19.1499 57.5003 19.3255 57.3655 19.3767C57.174 19.4425 56.9541 19.4059 56.7413 19.4059C54.5139 19.4059 52.2865 19.4059 50.0591 19.4059C49.3568 19.4059 48.761 19.6107 48.4134 20.2836C47.8459 21.3954 48.5978 22.595 49.903 22.6096C52.5206 22.6316 55.1452 22.6316 57.7628 22.6096C59.5433 22.595 61.3309 22.6535 63.0972 22.4487C64.0761 22.339 65.0479 21.8562 65.9488 21.3881C67.403 20.6274 68.8998 20.13 70.5313 20.152C73.2269 20.1886 75.9296 20.2324 78.6251 20.3129C79.143 20.3275 79.4196 20.152 79.675 19.6985C80.888 17.5188 82.1294 15.361 83.3708 13.2033C84.6051 11.0602 86.4281 11.0236 87.7901 13.1009L87.8185 13.1228ZM58.6069 23.4142C58.7204 23.6702 58.7701 23.8165 58.841 23.9482C60.1462 26.3473 61.3663 28.8049 62.7922 31.1236C63.459 32.2061 64.4095 33.2301 65.4523 33.9104C67.3321 35.1319 68.7934 36.6533 69.8078 38.6721C70.0489 39.1548 70.3469 39.601 70.6732 40.1569C72.3189 37.3482 73.9717 34.715 75.4117 31.9648C75.9721 30.8895 76.2701 29.5583 76.3268 28.3295C76.419 26.2083 76.9723 24.3066 78.0648 22.5292C78.3343 22.0903 78.5684 21.6295 78.9515 20.9419C75.8161 20.9419 72.9148 20.8322 70.0206 20.9931C68.7863 21.059 67.5094 21.5271 66.3815 22.0903C64.7429 22.9168 63.0901 23.4435 61.2599 23.3996C60.4087 23.3776 59.5575 23.3996 58.5998 23.3996L58.6069 23.4142Z" fill="white" stroke="white" stroke-width="0.5" stroke-miterlimit="10"/>
</svg>
