<svg width="142" height="120" viewBox="0 0 142 120" fill="none" xmlns="http://www.w3.org/2000/svg">
<path d="M51.5216 40.0047L52.4259 58.8708H74.239V49.8242C75.6793 49.9175 77.7231 49.9875 80.1674 49.8358C83.9443 49.6025 85.8508 49.4625 86.8249 48.331C87.2671 47.8177 87.542 47.1586 87.4584 41.7224C87.4345 39.8968 87.3747 38.3569 87.3269 37.2312C89.6875 37.0154 92.0541 36.7996 94.4147 36.5779C92.2094 33.4166 90.0042 30.2552 87.799 27.0938C89.0241 18.4438 85.7432 10.0155 79.1395 5.33176C69.5297 -1.48675 54.2247 0.566389 47.1549 11.1529C40.9575 20.427 42.1509 32.0631 51.5216 39.4298L51.5216 40.0047Z" stroke="#FFFDFF" stroke-width="1.5" stroke-miterlimit="10"/>
<path d="M65.1378 38.6433C68.3716 38.6433 70.9932 31.732 70.9932 23.2065C70.9932 14.681 68.3716 7.76965 65.1378 7.76965C61.904 7.76965 59.2825 14.681 59.2825 23.2065C59.2825 31.732 61.904 38.6433 65.1378 38.6433Z" fill="#242424" stroke="white" stroke-width="1.2" stroke-miterlimit="10"/>
<path d="M79.0491 30.1056C80.6135 27.503 75.7426 21.9887 68.1695 17.7891C60.5965 13.5896 53.1891 12.295 51.6247 14.8976C50.0602 17.5003 54.9312 23.0145 62.5042 27.2141C70.0773 31.4137 77.4846 32.7082 79.0491 30.1056Z" stroke="white" stroke-width="1.2" stroke-miterlimit="10"/>
<path d="M68.1695 27.2153C75.7426 23.0157 80.6135 17.5014 79.0491 14.8988C77.4847 12.2962 70.0772 13.5907 62.5042 17.7903C54.9312 21.9899 50.0602 27.5041 51.6247 30.1068C53.1891 32.7094 60.5965 31.4148 68.1695 27.2153Z" stroke="white" stroke-width="1.2" stroke-miterlimit="10"/>
<path d="M65.1378 24.8034C66.6077 24.8034 67.7994 23.6118 67.7994 22.1419C67.7994 20.6719 66.6077 19.4803 65.1378 19.4803C63.6679 19.4803 62.4763 20.6719 62.4763 22.1419C62.4763 23.6118 63.6679 24.8034 65.1378 24.8034Z" fill="white"/>
<path d="M77.381 57.8062H49.7012V61H77.381V57.8062Z" fill="white"/>
<path d="M9.39828 100C9.18669 100 9.0809 99.8836 9.0809 99.6509V91.2466C9.0809 91.0138 9.18669 90.8975 9.39828 90.8975H12.0643C13.5031 90.8975 14.4743 91.1408 14.9779 91.6274C15.4815 92.1099 15.7332 92.7743 15.7332 93.6206C15.7332 94.467 15.4815 95.1335 14.9779 95.6201C14.4743 96.1025 13.5031 96.3438 12.0643 96.3438H10.2996V99.6509C10.2996 99.8836 10.1939 100 9.98227 100H9.39828ZM10.2996 95.3027H12.0833C13.0143 95.3027 13.6491 95.1715 13.9876 94.9092C14.3262 94.6426 14.4954 94.2131 14.4954 93.6206C14.4954 93.0282 14.3262 92.6007 13.9876 92.3384C13.6491 92.0718 13.0143 91.9385 12.0833 91.9385H10.2996V95.3027ZM17.7515 100C17.5611 100 17.4659 99.9048 17.4659 99.7144V93.6206C17.4659 93.4302 17.5611 93.335 17.7515 93.335H18.2847C18.4752 93.335 18.5704 93.4302 18.5704 93.6206V94.3823H18.5958C18.7989 94.0015 19.038 93.7137 19.3131 93.519C19.5881 93.3244 19.9309 93.2271 20.3414 93.2271C20.6122 93.2271 20.8026 93.2503 20.9127 93.2969C21.01 93.335 21.046 93.3984 21.0206 93.4873L20.8746 94.0078C20.8534 94.084 20.7984 94.1136 20.7096 94.0967C20.5614 94.0671 20.4218 94.0522 20.2906 94.0522C19.7955 94.0522 19.3871 94.2765 19.0655 94.7251C18.7439 95.1694 18.5831 95.7767 18.5831 96.5469V99.7144C18.5831 99.9048 18.4879 100 18.2974 100H17.7515ZM21.9471 96.6675C21.9471 95.673 22.2095 94.8521 22.7342 94.2046C23.2632 93.5529 24.0355 93.2271 25.0511 93.2271C26.0667 93.2271 26.8369 93.5529 27.3616 94.2046C27.8906 94.8521 28.1551 95.673 28.1551 96.6675C28.1551 97.6619 27.8906 98.485 27.3616 99.1367C26.8369 99.7842 26.0667 100.108 25.0511 100.108C24.0355 100.108 23.2632 99.7842 22.7342 99.1367C22.2095 98.485 21.9471 97.6619 21.9471 96.6675ZM23.1278 96.6675C23.1278 97.5562 23.3034 98.2142 23.6546 98.6416C24.0058 99.069 24.4713 99.2827 25.0511 99.2827C25.6308 99.2827 26.0963 99.069 26.4476 98.6416C26.7988 98.2142 26.9744 97.5562 26.9744 96.6675C26.9744 95.7788 26.7988 95.1208 26.4476 94.6934C26.0963 94.266 25.6308 94.0522 25.0511 94.0522C24.4713 94.0522 24.0058 94.266 23.6546 94.6934C23.3034 95.1208 23.1278 95.7788 23.1278 96.6675ZM29.4942 96.6675C29.4942 95.673 29.7396 94.8521 30.2305 94.2046C30.7256 93.5529 31.481 93.2271 32.4966 93.2271C33.1822 93.2271 33.7048 93.3498 34.0645 93.5952C34.4284 93.8364 34.6908 94.084 34.8516 94.3379C34.9405 94.4775 34.9214 94.5897 34.7945 94.6743L34.3946 94.9346C34.2676 95.0234 34.1407 94.9663 34.0137 94.7632C33.891 94.5685 33.7175 94.4014 33.4932 94.2617C33.2732 94.1221 32.941 94.0522 32.4966 94.0522C31.9169 94.0522 31.4683 94.266 31.1509 94.6934C30.8336 95.1208 30.6749 95.7788 30.6749 96.6675C30.6749 97.5562 30.8336 98.2142 31.1509 98.6416C31.4683 99.069 31.9169 99.2827 32.4966 99.2827C32.9664 99.2827 33.3261 99.1938 33.5757 99.0161C33.8254 98.8341 34.0074 98.6374 34.1216 98.4258C34.2317 98.2269 34.3565 98.1698 34.4962 98.2544L34.9214 98.5083C35.0484 98.5845 35.0674 98.6987 34.9786 98.8511C34.8728 99.033 34.6316 99.2891 34.2549 99.6191C33.8825 99.945 33.2964 100.108 32.4966 100.108C31.481 100.108 30.7256 99.7842 30.2305 99.1367C29.7396 98.485 29.4942 97.6619 29.4942 96.6675ZM36.2669 96.6675C36.2669 95.618 36.5293 94.7822 37.054 94.1602C37.5787 93.5381 38.3299 93.2271 39.3074 93.2271C40.1199 93.2271 40.7928 93.5127 41.326 94.084C41.8634 94.651 42.1321 95.5588 42.1321 96.8071C42.1321 96.9976 42.0454 97.0928 41.8719 97.0928H37.4476C37.5195 97.9095 37.7396 98.4787 38.1077 98.8003C38.4759 99.1177 38.8927 99.2764 39.3582 99.2764C39.8491 99.2764 40.2257 99.1938 40.4881 99.0288C40.7505 98.8638 40.943 98.7008 41.0657 98.54C41.2011 98.3623 41.3323 98.3285 41.4593 98.4385L41.8338 98.7622C41.9311 98.8468 41.9311 98.9632 41.8338 99.1113C41.7534 99.234 41.5228 99.4308 41.1419 99.7017C40.7653 99.9725 40.1707 100.108 39.3582 100.108C38.3003 100.108 37.5195 99.7969 37.0159 99.1748C36.5166 98.5527 36.2669 97.717 36.2669 96.6675ZM37.4222 96.2676H41.0086C40.9917 95.6751 40.8393 95.1567 40.5516 94.7124C40.2638 94.2638 39.8406 94.0396 39.282 94.0396C38.7911 94.0396 38.3743 94.2046 38.0315 94.5347C37.6888 94.8605 37.4856 95.4382 37.4222 96.2676ZM43.5982 99.3779C43.467 99.2552 43.4395 99.141 43.5157 99.0352L43.8013 98.6353C43.8944 98.5083 44.0319 98.5146 44.2139 98.6543C44.4636 98.8447 44.7408 98.9971 45.0454 99.1113C45.3544 99.2256 45.7056 99.2827 46.0992 99.2827C46.3319 99.2827 46.5393 99.2552 46.7212 99.2002C46.9032 99.141 47.0619 99.033 47.1973 98.8765C47.337 98.7199 47.4068 98.5104 47.4068 98.248C47.4068 98.0957 47.3729 97.9518 47.3052 97.8164C47.2417 97.681 47.1402 97.5731 47.0005 97.4927C46.8651 97.408 46.7318 97.3424 46.6006 97.2959C46.3848 97.2155 46.169 97.1499 45.9532 97.0991C45.7416 97.0441 45.4623 96.9616 45.1153 96.8516C44.8825 96.7796 44.6625 96.6781 44.4551 96.5469C44.2478 96.4115 44.0658 96.2295 43.9092 96.001C43.7569 95.7725 43.6807 95.4572 43.6807 95.0552C43.6807 94.6447 43.8055 94.2913 44.0552 93.9951C44.3049 93.6989 44.618 93.4979 44.9947 93.3921C45.3713 93.2821 45.7373 93.2271 46.0928 93.2271C46.6176 93.2271 47.0386 93.2884 47.356 93.4111C47.6776 93.5296 47.9548 93.6714 48.1875 93.8364C48.323 93.9338 48.342 94.0459 48.2447 94.1729L47.959 94.5537C47.8702 94.6764 47.7326 94.6722 47.5464 94.541C47.3898 94.431 47.1677 94.3273 46.8799 94.23C46.5922 94.1326 46.3404 94.084 46.1245 94.084C45.8579 94.084 45.6294 94.1136 45.439 94.1729C45.2486 94.2321 45.0941 94.3337 44.9756 94.4775C44.8571 94.6214 44.7979 94.7907 44.7979 94.9854C44.7979 95.1335 44.8212 95.2668 44.8677 95.3853C44.9143 95.4995 45.001 95.6053 45.128 95.7026C45.2549 95.8 45.4327 95.8783 45.6612 95.9375C46.0166 96.0306 46.3404 96.1152 46.6324 96.1914C46.9286 96.2676 47.1952 96.3607 47.4322 96.4707C47.7411 96.6146 47.9781 96.7733 48.1431 96.9468C48.3124 97.1203 48.4287 97.3086 48.4922 97.5117C48.5557 97.7106 48.5874 97.9328 48.5874 98.1782C48.5874 98.631 48.452 99.014 48.1812 99.3271C47.9146 99.6403 47.6162 99.8498 47.2862 99.9556C46.9561 100.057 46.5583 100.108 46.0928 100.108C45.4623 100.108 44.9206 100.019 44.4678 99.8413C44.0192 99.6593 43.7294 99.5049 43.5982 99.3779ZM49.7488 96.6675C49.7488 95.673 50.0112 94.8521 50.5359 94.2046C51.0649 93.5529 51.8372 93.2271 52.8528 93.2271C53.8684 93.2271 54.6386 93.5529 55.1634 94.2046C55.6923 94.8521 55.9568 95.673 55.9568 96.6675C55.9568 97.6619 55.6923 98.485 55.1634 99.1367C54.6386 99.7842 53.8684 100.108 52.8528 100.108C51.8372 100.108 51.0649 99.7842 50.5359 99.1367C50.0112 98.485 49.7488 97.6619 49.7488 96.6675ZM50.9295 96.6675C50.9295 97.5562 51.1051 98.2142 51.4563 98.6416C51.8076 99.069 52.2731 99.2827 52.8528 99.2827C53.4326 99.2827 53.8981 99.069 54.2493 98.6416C54.6005 98.2142 54.7762 97.5562 54.7762 96.6675C54.7762 95.7788 54.6005 95.1208 54.2493 94.6934C53.8981 94.266 53.4326 94.0522 52.8528 94.0522C52.2731 94.0522 51.8076 94.266 51.4563 94.6934C51.1051 95.1208 50.9295 95.7788 50.9295 96.6675ZM57.3975 99.3779C57.2663 99.2552 57.2388 99.141 57.315 99.0352L57.6006 98.6353C57.6937 98.5083 57.8312 98.5146 58.0132 98.6543C58.2629 98.8447 58.5401 98.9971 58.8447 99.1113C59.1537 99.2256 59.5049 99.2827 59.8985 99.2827C60.1312 99.2827 60.3386 99.2552 60.5205 99.2002C60.7025 99.141 60.8612 99.033 60.9966 98.8765C61.1362 98.7199 61.2061 98.5104 61.2061 98.248C61.2061 98.0957 61.1722 97.9518 61.1045 97.8164C61.041 97.681 60.9395 97.5731 60.7998 97.4927C60.6644 97.408 60.5311 97.3424 60.3999 97.2959C60.1841 97.2155 59.9683 97.1499 59.7525 97.0991C59.5409 97.0441 59.2616 96.9616 58.9146 96.8516C58.6818 96.7796 58.4618 96.6781 58.2544 96.5469C58.0471 96.4115 57.8651 96.2295 57.7085 96.001C57.5562 95.7725 57.48 95.4572 57.48 95.0552C57.48 94.6447 57.6048 94.2913 57.8545 93.9951C58.1042 93.6989 58.4173 93.4979 58.794 93.3921C59.1706 93.2821 59.5366 93.2271 59.8921 93.2271C60.4168 93.2271 60.8379 93.2884 61.1553 93.4111C61.4769 93.5296 61.7541 93.6714 61.9868 93.8364C62.1223 93.9338 62.1413 94.0459 62.044 94.1729L61.7583 94.5537C61.6695 94.6764 61.5319 94.6722 61.3457 94.541C61.1891 94.431 60.967 94.3273 60.6792 94.23C60.3915 94.1326 60.1397 94.084 59.9238 94.084C59.6572 94.084 59.4287 94.1136 59.2383 94.1729C59.0479 94.2321 58.8934 94.3337 58.7749 94.4775C58.6564 94.6214 58.5972 94.7907 58.5972 94.9854C58.5972 95.1335 58.6205 95.2668 58.667 95.3853C58.7136 95.4995 58.8003 95.6053 58.9273 95.7026C59.0542 95.8 59.232 95.8783 59.4605 95.9375C59.8159 96.0306 60.1397 96.1152 60.4317 96.1914C60.7279 96.2676 60.9945 96.3607 61.2315 96.4707C61.5404 96.6146 61.7774 96.7733 61.9424 96.9468C62.1117 97.1203 62.228 97.3086 62.2915 97.5117C62.355 97.7106 62.3867 97.9328 62.3867 98.1782C62.3867 98.631 62.2513 99.014 61.9805 99.3271C61.7139 99.6403 61.4155 99.8498 61.0855 99.9556C60.7554 100.057 60.3576 100.108 59.8921 100.108C59.2616 100.108 58.7199 100.019 58.2671 99.8413C57.8185 99.6593 57.5287 99.5049 57.3975 99.3779ZM68.9941 100C68.7826 100 68.6768 99.8836 68.6768 99.6509V91.2466C68.6768 91.0138 68.7826 90.8975 68.9941 90.8975H71.3364C73.1307 90.8975 74.377 91.2952 75.0752 92.0908C75.7777 92.8822 76.1289 93.9972 76.1289 95.436C76.1289 96.8748 75.7777 97.9963 75.0752 98.8003C74.377 99.6001 73.1307 100 71.3364 100H68.9941ZM69.8955 98.959H71.2793C72.6758 98.959 73.6152 98.6628 74.0977 98.0703C74.5843 97.4779 74.8276 96.5998 74.8276 95.436C74.8276 94.2723 74.5843 93.3963 74.0977 92.8081C73.6152 92.2199 72.6758 91.9258 71.2793 91.9258H69.8955V98.959ZM77.5124 96.6675C77.5124 95.618 77.7748 94.7822 78.2995 94.1602C78.8243 93.5381 79.5754 93.2271 80.553 93.2271C81.3655 93.2271 82.0383 93.5127 82.5715 94.084C83.109 94.651 83.3777 95.5588 83.3777 96.8071C83.3777 96.9976 83.2909 97.0928 83.1174 97.0928H78.6931C78.765 97.9095 78.9851 98.4787 79.3533 98.8003C79.7214 99.1177 80.1382 99.2764 80.6037 99.2764C81.0946 99.2764 81.4713 99.1938 81.7336 99.0288C81.996 98.8638 82.1885 98.7008 82.3113 98.54C82.4467 98.3623 82.5779 98.3285 82.7048 98.4385L83.0793 98.7622C83.1767 98.8468 83.1767 98.9632 83.0793 99.1113C82.9989 99.234 82.7683 99.4308 82.3874 99.7017C82.0108 99.9725 81.4162 100.108 80.6037 100.108C79.5458 100.108 78.765 99.7969 78.2615 99.1748C77.7621 98.5527 77.5124 97.717 77.5124 96.6675ZM78.6677 96.2676H82.2541C82.2372 95.6751 82.0849 95.1567 81.7971 94.7124C81.5093 94.2638 81.0862 94.0396 80.5276 94.0396C80.0367 94.0396 79.6199 94.2046 79.2771 94.5347C78.9343 94.8605 78.7312 95.4382 78.6677 96.2676ZM89.3757 95.4487C89.3757 93.9676 89.7418 92.8081 90.4738 91.9702C91.2102 91.1281 92.266 90.707 93.6413 90.707C94.4454 90.707 95.1098 90.8446 95.6345 91.1196C96.1592 91.3905 96.5359 91.7629 96.7644 92.2368C96.8829 92.4823 96.8638 92.6515 96.7072 92.7446L96.2058 93.0366C96.0365 93.134 95.8863 93.0535 95.7551 92.7954C95.6154 92.5288 95.3869 92.2791 95.0695 92.0464C94.7522 91.8136 94.2973 91.6973 93.7048 91.6973C92.6469 91.6973 91.8767 92.0273 91.3943 92.6875C90.9161 93.3434 90.677 94.2638 90.677 95.4487C90.677 96.6336 90.9161 97.5562 91.3943 98.2163C91.8767 98.8722 92.6469 99.2002 93.7048 99.2002C94.3142 99.2002 94.8008 99.0605 95.1648 98.7812C95.5329 98.502 95.7995 98.21 95.9646 97.9053C96.0958 97.6598 96.2481 97.5858 96.4216 97.6831L96.9485 97.9814C97.1008 98.0703 97.1135 98.2396 96.9865 98.4893C96.7369 98.9759 96.3306 99.3822 95.7678 99.708C95.205 100.03 94.4961 100.19 93.6413 100.19C92.266 100.19 91.2102 99.7715 90.4738 98.9336C89.7418 98.0915 89.3757 96.9299 89.3757 95.4487ZM98.4907 98.2227C98.4907 97.4694 98.8419 96.9172 99.5444 96.5659C100.251 96.2147 101.305 96.0094 102.706 95.9502V95.5186C102.706 95.1208 102.615 94.778 102.433 94.4902C102.255 94.1982 101.899 94.0522 101.366 94.0522C101.028 94.0522 100.757 94.0861 100.554 94.1538C100.351 94.2173 100.164 94.304 99.9951 94.4141C99.83 94.5199 99.6713 94.6574 99.519 94.8267C99.4047 94.9536 99.2968 94.96 99.1953 94.8457L98.8652 94.4648C98.7721 94.359 98.8038 94.2321 98.9604 94.084C99.1847 93.8724 99.4026 93.7137 99.6142 93.6079C99.8258 93.5021 100.088 93.4132 100.401 93.3413C100.719 93.2651 101.04 93.2271 101.366 93.2271C102.251 93.2271 102.881 93.4556 103.258 93.9126C103.634 94.3654 103.823 94.9875 103.823 95.7788V99.7144C103.823 99.9048 103.727 100 103.537 100H102.966C102.801 100 102.718 99.9048 102.718 99.7144V99.4033H102.706C102.371 99.6657 102.043 99.8498 101.722 99.9556C101.404 100.057 101.049 100.108 100.655 100.108C99.9612 100.108 99.4259 99.9429 99.0493 99.6128C98.6769 99.2785 98.4907 98.8151 98.4907 98.2227ZM99.646 98.248C99.646 98.5104 99.701 98.722 99.811 98.8828C99.921 99.0394 100.073 99.141 100.268 99.1875C100.463 99.2298 100.666 99.251 100.877 99.251C101.203 99.251 101.512 99.2192 101.804 99.1558C102.096 99.0923 102.397 98.9251 102.706 98.6543V96.7817C101.851 96.8452 101.241 96.9235 100.877 97.0166C100.513 97.1055 100.217 97.262 99.9887 97.4863C99.7602 97.7064 99.646 97.9603 99.646 98.248ZM106.177 100C105.987 100 105.892 99.9048 105.892 99.7144V93.6206C105.892 93.4302 105.987 93.335 106.177 93.335H106.711C106.901 93.335 106.996 93.4302 106.996 93.6206V94.1284H107.022C107.297 93.8237 107.595 93.5973 107.917 93.4492C108.238 93.3011 108.547 93.2271 108.843 93.2271C109.389 93.2271 109.808 93.3646 110.1 93.6396C110.397 93.9105 110.587 94.1834 110.672 94.4585H110.697C110.93 94.1115 111.224 93.8195 111.579 93.5825C111.935 93.3455 112.314 93.2271 112.716 93.2271C113.388 93.2271 113.896 93.445 114.239 93.8809C114.582 94.3125 114.753 94.9049 114.753 95.6582V99.7144C114.753 99.9048 114.658 100 114.467 100H113.922C113.731 100 113.636 99.9048 113.636 99.7144V96.0264C113.636 95.1969 113.532 94.6616 113.325 94.4204C113.118 94.175 112.798 94.0522 112.366 94.0522C111.943 94.0522 111.59 94.2342 111.306 94.5981C111.023 94.9578 110.881 95.5016 110.881 96.2295V99.7144C110.881 99.9048 110.786 100 110.595 100H110.05C109.859 100 109.764 99.9048 109.764 99.7144V96.0264C109.764 95.1969 109.66 94.6616 109.453 94.4204C109.245 94.175 108.926 94.0522 108.494 94.0522C108.071 94.0522 107.718 94.2173 107.434 94.5474C107.151 94.8732 107.009 95.4339 107.009 96.2295V99.7144C107.009 99.9048 106.914 100 106.723 100H106.177ZM117.089 100C116.898 100 116.803 99.9048 116.803 99.7144V90.9165C116.803 90.7261 116.898 90.6309 117.089 90.6309H117.635C117.825 90.6309 117.92 90.7261 117.92 90.9165V93.7412C117.92 93.8724 117.916 94.0015 117.908 94.1284H117.92C118.153 93.8491 118.415 93.6291 118.707 93.4683C118.999 93.3075 119.389 93.2271 119.875 93.2271C120.722 93.2271 121.365 93.5741 121.805 94.2681C122.245 94.9578 122.465 95.7576 122.465 96.6675C122.465 97.5773 122.245 98.3792 121.805 99.0732C121.365 99.763 120.722 100.108 119.875 100.108C119.389 100.108 118.999 100.028 118.707 99.8667C118.415 99.7059 118.153 99.4858 117.92 99.2065H117.908L117.87 99.7144C117.857 99.9048 117.774 100 117.622 100H117.089ZM117.92 97.3975C117.92 98.0322 118.071 98.5062 118.371 98.8193C118.676 99.1283 119.057 99.2827 119.514 99.2827C120.157 99.2827 120.612 99.0415 120.878 98.5591C121.149 98.0767 121.285 97.4461 121.285 96.6675C121.285 95.8888 121.149 95.2583 120.878 94.7759C120.612 94.2935 120.157 94.0522 119.514 94.0522C119.057 94.0522 118.676 94.2088 118.371 94.522C118.071 94.8309 117.92 95.3027 117.92 95.9375V97.3975ZM124.458 100C124.268 100 124.173 99.9048 124.173 99.7144V93.6206C124.173 93.4302 124.268 93.335 124.458 93.335H125.004C125.195 93.335 125.29 93.4302 125.29 93.6206V99.7144C125.29 99.9048 125.195 100 125.004 100H124.458ZM124.458 92.1289C124.268 92.1289 124.173 92.0337 124.173 91.8433V91.2974C124.173 91.1069 124.268 91.0117 124.458 91.0117H125.004C125.195 91.0117 125.29 91.1069 125.29 91.2974V91.8433C125.29 92.0337 125.195 92.1289 125.004 92.1289H124.458ZM126.991 96.6675C126.991 95.673 127.253 94.8521 127.778 94.2046C128.307 93.5529 129.079 93.2271 130.095 93.2271C131.11 93.2271 131.88 93.5529 132.405 94.2046C132.934 94.8521 133.199 95.673 133.199 96.6675C133.199 97.6619 132.934 98.485 132.405 99.1367C131.88 99.7842 131.11 100.108 130.095 100.108C129.079 100.108 128.307 99.7842 127.778 99.1367C127.253 98.485 126.991 97.6619 126.991 96.6675ZM128.171 96.6675C128.171 97.5562 128.347 98.2142 128.698 98.6416C129.049 99.069 129.515 99.2827 130.095 99.2827C130.674 99.2827 131.14 99.069 131.491 98.6416C131.842 98.2142 132.018 97.5562 132.018 96.6675C132.018 95.7788 131.842 95.1208 131.491 94.6934C131.14 94.266 130.674 94.0522 130.095 94.0522C129.515 94.0522 129.049 94.266 128.698 94.6934C128.347 95.1208 128.171 95.7788 128.171 96.6675ZM16.317 116C16.1054 116 15.9996 115.884 15.9996 115.651V107.247C15.9996 107.014 16.1054 106.897 16.317 106.897H21.8712C22.1039 106.897 22.2203 106.993 22.2203 107.183V107.653C22.2203 107.843 22.1039 107.938 21.8712 107.938H17.2183V110.757H21.4903C21.7231 110.757 21.8394 110.852 21.8394 111.042V111.512C21.8394 111.703 21.7231 111.798 21.4903 111.798H17.2183V114.959H22.0616C22.2943 114.959 22.4107 115.054 22.4107 115.245V115.714C22.4107 115.905 22.2943 116 22.0616 116H16.317ZM24.429 116C24.2386 116 24.1434 115.905 24.1434 115.714V109.621C24.1434 109.43 24.2386 109.335 24.429 109.335H24.9622C25.1527 109.335 25.2479 109.43 25.2479 109.621V110.128H25.2733C25.5483 109.824 25.8445 109.597 26.1619 109.449C26.4793 109.301 26.875 109.227 27.3489 109.227C28.1191 109.227 28.6714 109.445 29.0057 109.881C29.3442 110.312 29.5135 110.905 29.5135 111.658V115.714C29.5135 115.905 29.4183 116 29.2278 116H28.682C28.4915 116 28.3963 115.905 28.3963 115.714V111.963C28.3963 111.133 28.2588 110.609 27.9837 110.389C27.7086 110.164 27.3595 110.052 26.9363 110.052C26.3862 110.052 25.9694 110.217 25.6859 110.547C25.4023 110.873 25.2606 111.434 25.2606 112.229V115.714C25.2606 115.905 25.1653 116 24.9749 116H24.429ZM31.2335 110.173C31.043 110.173 30.9478 110.099 30.9478 109.951V109.557C30.9478 109.409 31.043 109.335 31.2335 109.335H31.9127V108.389C31.9127 107.682 32.1031 107.196 32.4839 106.929C32.8648 106.658 33.3007 106.523 33.7916 106.523C34.0836 106.523 34.3184 106.538 34.4962 106.567C34.6781 106.597 34.8918 106.663 35.1373 106.764C35.2304 106.802 35.2579 106.87 35.2198 106.967L35.023 107.469C34.9892 107.553 34.9151 107.57 34.8008 107.52C34.7077 107.477 34.5935 107.439 34.4581 107.405C34.3226 107.367 34.1767 107.348 34.0201 107.348C33.6688 107.348 33.4149 107.433 33.2584 107.602C33.106 107.771 33.0298 108.095 33.0298 108.573V109.335H34.1915C34.3819 109.335 34.4771 109.409 34.4771 109.557V109.951C34.4771 110.099 34.3819 110.173 34.1915 110.173H33.0298V115.714C33.0298 115.905 32.9346 116 32.7442 116H32.1983C32.0079 116 31.9127 115.905 31.9127 115.714V110.173H31.2335ZM35.6004 112.667C35.6004 111.673 35.8628 110.852 36.3875 110.205C36.9165 109.553 37.6888 109.227 38.7044 109.227C39.72 109.227 40.4902 109.553 41.0149 110.205C41.5439 110.852 41.8084 111.673 41.8084 112.667C41.8084 113.662 41.5439 114.485 41.0149 115.137C40.4902 115.784 39.72 116.108 38.7044 116.108C37.6888 116.108 36.9165 115.784 36.3875 115.137C35.8628 114.485 35.6004 113.662 35.6004 112.667ZM36.7811 112.667C36.7811 113.556 36.9567 114.214 37.3079 114.642C37.6591 115.069 38.1246 115.283 38.7044 115.283C39.2841 115.283 39.7496 115.069 40.1009 114.642C40.4521 114.214 40.6277 113.556 40.6277 112.667C40.6277 111.779 40.4521 111.121 40.1009 110.693C39.7496 110.266 39.2841 110.052 38.7044 110.052C38.1246 110.052 37.6591 110.266 37.3079 110.693C36.9567 111.121 36.7811 111.779 36.7811 112.667ZM43.1475 112.667C43.1475 111.758 43.3676 110.958 43.8077 110.268C44.2478 109.574 44.891 109.227 45.7373 109.227C46.224 109.227 46.6133 109.307 46.9053 109.468C47.1973 109.629 47.4597 109.849 47.6924 110.128H47.7051L47.7432 109.621C47.7559 109.43 47.8384 109.335 47.9908 109.335H48.524C48.7144 109.335 48.8096 109.43 48.8096 109.621V118.253C48.8096 118.444 48.7144 118.539 48.524 118.539H47.9781C47.7876 118.539 47.6924 118.444 47.6924 118.253V115.594C47.6924 115.463 47.6967 115.333 47.7051 115.207H47.6924C47.4597 115.486 47.1973 115.706 46.9053 115.867C46.6133 116.028 46.224 116.108 45.7373 116.108C44.891 116.108 44.2478 115.763 43.8077 115.073C43.3676 114.379 43.1475 113.577 43.1475 112.667ZM44.3282 112.667C44.3282 113.446 44.4615 114.077 44.7281 114.559C44.9989 115.042 45.4559 115.283 46.0992 115.283C46.5562 115.283 46.9349 115.128 47.2354 114.819C47.5401 114.506 47.6924 114.032 47.6924 113.397V111.938C47.6924 111.303 47.5401 110.831 47.2354 110.522C46.9349 110.209 46.5562 110.052 46.0992 110.052C45.4559 110.052 44.9989 110.293 44.7281 110.776C44.4615 111.258 44.3282 111.889 44.3282 112.667ZM50.866 113.677V109.621C50.866 109.43 50.9612 109.335 51.1516 109.335H51.6975C51.888 109.335 51.9832 109.43 51.9832 109.621V113.372C51.9832 114.201 52.1207 114.728 52.3958 114.953C52.6708 115.173 53.0115 115.283 53.4178 115.283C53.951 115.283 54.3593 115.12 54.6428 114.794C54.9264 114.464 55.0681 113.901 55.0681 113.105V109.621C55.0681 109.43 55.1634 109.335 55.3538 109.335H55.8997C56.0901 109.335 56.1853 109.43 56.1853 109.621V115.714C56.1853 115.905 56.0901 116 55.8997 116H55.3665C55.1761 116 55.0808 115.905 55.0808 115.714V115.207H55.0554C54.7804 115.511 54.4842 115.738 54.1668 115.886C53.8494 116.034 53.4622 116.108 53.0052 116.108C52.2646 116.108 51.7229 115.892 51.3802 115.46C51.0374 115.025 50.866 114.43 50.866 113.677ZM57.8862 112.667C57.8862 111.618 58.1486 110.782 58.6734 110.16C59.1981 109.538 59.9492 109.227 60.9268 109.227C61.7393 109.227 62.4121 109.513 62.9453 110.084C63.4828 110.651 63.7515 111.559 63.7515 112.807C63.7515 112.998 63.6647 113.093 63.4912 113.093H59.0669C59.1389 113.91 59.3589 114.479 59.7271 114.8C60.0952 115.118 60.5121 115.276 60.9776 115.276C61.4684 115.276 61.8451 115.194 62.1074 115.029C62.3698 114.864 62.5624 114.701 62.6851 114.54C62.8205 114.362 62.9517 114.328 63.0786 114.438L63.4531 114.762C63.5505 114.847 63.5505 114.963 63.4531 115.111C63.3727 115.234 63.1421 115.431 62.7612 115.702C62.3846 115.972 61.7901 116.108 60.9776 116.108C59.9196 116.108 59.1389 115.797 58.6353 115.175C58.1359 114.553 57.8862 113.717 57.8862 112.667ZM59.0415 112.268H62.6279C62.611 111.675 62.4587 111.157 62.1709 110.712C61.8832 110.264 61.46 110.04 60.9014 110.04C60.4105 110.04 59.9937 110.205 59.6509 110.535C59.3081 110.861 59.105 111.438 59.0415 112.268ZM70.2192 115.314C69.995 115.111 69.9357 114.934 70.0415 114.781L70.3716 114.305C70.4858 114.14 70.6699 114.153 70.9238 114.343C71.2581 114.593 71.6051 114.798 71.9648 114.959C72.3288 115.12 72.7689 115.2 73.2852 115.2C73.666 115.2 73.9876 115.143 74.25 115.029C74.5124 114.915 74.7218 114.752 74.8784 114.54C75.0392 114.324 75.1196 114.064 75.1196 113.759C75.1196 113.539 75.0858 113.336 75.0181 113.15C74.9546 112.959 74.8509 112.801 74.707 112.674C74.5632 112.547 74.4129 112.447 74.2563 112.375C73.9982 112.257 73.611 112.119 73.0947 111.963C72.5827 111.806 72.1341 111.637 71.749 111.455C71.3682 111.273 71.0635 111.053 70.835 110.795C70.6107 110.537 70.4604 110.272 70.3843 110.001C70.3123 109.726 70.2764 109.413 70.2764 109.062C70.2764 108.525 70.4329 108.061 70.7461 107.672C71.0592 107.283 71.4422 107.024 71.895 106.897C72.3521 106.771 72.8154 106.707 73.2852 106.707C73.8226 106.707 74.2902 106.777 74.688 106.917C75.0858 107.056 75.4412 107.238 75.7544 107.462C75.9744 107.619 76.0252 107.784 75.9067 107.958L75.583 108.421C75.4857 108.561 75.2952 108.531 75.0117 108.332C74.7959 108.18 74.5314 108.038 74.2183 107.907C73.9093 107.771 73.6025 107.704 73.2979 107.704C72.9085 107.704 72.5848 107.75 72.3267 107.843C72.0685 107.932 71.8654 108.084 71.7173 108.3C71.5692 108.516 71.4951 108.766 71.4951 109.049C71.4951 109.227 71.512 109.392 71.5459 109.544C71.5798 109.693 71.6665 109.845 71.8062 110.001C71.9458 110.158 72.1151 110.279 72.314 110.363C72.5806 110.478 72.9932 110.613 73.5518 110.77C74.1146 110.922 74.6055 111.11 75.0244 111.334C75.4137 111.542 75.693 111.76 75.8623 111.988C76.0358 112.213 76.1691 112.458 76.2622 112.725C76.3595 112.987 76.4082 113.283 76.4082 113.613C76.4082 114.214 76.2537 114.716 75.9448 115.118C75.6359 115.52 75.2699 115.799 74.8467 115.956C74.4235 116.112 73.8924 116.19 73.2534 116.19C72.4875 116.19 71.8527 116.102 71.3491 115.924C70.8455 115.746 70.4689 115.543 70.2192 115.314ZM78.3821 116C78.1916 116 78.0964 115.905 78.0964 115.714V109.621C78.0964 109.43 78.1916 109.335 78.3821 109.335H78.928C79.1184 109.335 79.2136 109.43 79.2136 109.621V115.714C79.2136 115.905 79.1184 116 78.928 116H78.3821ZM78.3821 108.129C78.1916 108.129 78.0964 108.034 78.0964 107.843V107.297C78.0964 107.107 78.1916 107.012 78.3821 107.012H78.928C79.1184 107.012 79.2136 107.107 79.2136 107.297V107.843C79.2136 108.034 79.1184 108.129 78.928 108.129H78.3821ZM81.0161 115.378C80.8849 115.255 80.8574 115.141 80.9336 115.035L81.2192 114.635C81.3123 114.508 81.4498 114.515 81.6318 114.654C81.8815 114.845 82.1587 114.997 82.4634 115.111C82.7723 115.226 83.1235 115.283 83.5171 115.283C83.7498 115.283 83.9572 115.255 84.1391 115.2C84.3211 115.141 84.4798 115.033 84.6152 114.876C84.7549 114.72 84.8247 114.51 84.8247 114.248C84.8247 114.096 84.7908 113.952 84.7231 113.816C84.6596 113.681 84.5581 113.573 84.4184 113.493C84.283 113.408 84.1497 113.342 84.0185 113.296C83.8027 113.215 83.5869 113.15 83.3711 113.099C83.1595 113.044 82.8802 112.962 82.5332 112.852C82.3004 112.78 82.0804 112.678 81.873 112.547C81.6657 112.411 81.4837 112.229 81.3271 112.001C81.1748 111.772 81.0986 111.457 81.0986 111.055C81.0986 110.645 81.2234 110.291 81.4731 109.995C81.7228 109.699 82.0359 109.498 82.4126 109.392C82.7892 109.282 83.1553 109.227 83.5107 109.227C84.0355 109.227 84.4565 109.288 84.7739 109.411C85.0955 109.53 85.3727 109.671 85.6054 109.836C85.7409 109.934 85.7599 110.046 85.6626 110.173L85.3769 110.554C85.2881 110.676 85.1505 110.672 84.9643 110.541C84.8078 110.431 84.5856 110.327 84.2978 110.23C84.0101 110.133 83.7583 110.084 83.5425 110.084C83.2759 110.084 83.0473 110.114 82.8569 110.173C82.6665 110.232 82.512 110.334 82.3935 110.478C82.275 110.621 82.2158 110.791 82.2158 110.985C82.2158 111.133 82.2391 111.267 82.2856 111.385C82.3322 111.5 82.4189 111.605 82.5459 111.703C82.6728 111.8 82.8506 111.878 83.0791 111.938C83.4345 112.031 83.7583 112.115 84.0503 112.191C84.3465 112.268 84.6131 112.361 84.8501 112.471C85.159 112.615 85.396 112.773 85.561 112.947C85.7303 113.12 85.8467 113.309 85.9101 113.512C85.9736 113.711 86.0053 113.933 86.0053 114.178C86.0053 114.631 85.8699 115.014 85.5991 115.327C85.3325 115.64 85.0342 115.85 84.7041 115.956C84.374 116.057 83.9762 116.108 83.5107 116.108C82.8802 116.108 82.3385 116.019 81.8857 115.841C81.4372 115.659 81.1473 115.505 81.0161 115.378ZM87.2048 110.173C87.0144 110.173 86.9192 110.099 86.9192 109.951V109.557C86.9192 109.409 87.0144 109.335 87.2048 109.335H87.9538V108.764C87.9538 108.679 87.975 108.599 88.0173 108.522L88.4616 107.716C88.542 107.568 88.6076 107.494 88.6584 107.494H88.8806C89.0075 107.494 89.071 107.568 89.071 107.716V109.335H90.4231C90.6135 109.335 90.7087 109.409 90.7087 109.557V109.951C90.7087 110.099 90.6135 110.173 90.4231 110.173H89.071V114.216C89.071 114.661 89.1366 114.951 89.2678 115.086C89.4032 115.217 89.564 115.283 89.7502 115.283C89.8941 115.283 90.0655 115.24 90.2644 115.156C90.4675 115.071 90.6071 114.999 90.6833 114.94C90.7595 114.881 90.8187 114.9 90.8611 114.997L91.0705 115.486C91.1044 115.57 91.079 115.638 90.9944 115.689C90.8293 115.786 90.5881 115.882 90.2707 115.975C89.9533 116.063 89.636 116.108 89.3186 116.108C88.8785 116.108 88.5399 115.949 88.3029 115.632C88.0702 115.314 87.9538 114.866 87.9538 114.286V110.173H87.2048ZM94.4663 108.7C94.2547 108.7 94.2293 108.588 94.3901 108.364L95.2724 107.126C95.3824 106.969 95.5538 106.891 95.7866 106.891H96.4912C96.7408 106.891 96.7705 107.001 96.58 107.221L95.4502 108.516C95.3444 108.639 95.173 108.7 94.936 108.7H94.4663ZM92.2382 112.667C92.2382 111.618 92.5006 110.782 93.0254 110.16C93.5501 109.538 94.3012 109.227 95.2788 109.227C96.0913 109.227 96.7641 109.513 97.2973 110.084C97.8348 110.651 98.1035 111.559 98.1035 112.807C98.1035 112.998 98.0167 113.093 97.8432 113.093H93.4189C93.4908 113.91 93.7109 114.479 94.0791 114.8C94.4472 115.118 94.8641 115.276 95.3296 115.276C95.8204 115.276 96.1971 115.194 96.4594 115.029C96.7218 114.864 96.9143 114.701 97.0371 114.54C97.1725 114.362 97.3037 114.328 97.4306 114.438L97.8051 114.762C97.9025 114.847 97.9025 114.963 97.8051 115.111C97.7247 115.234 97.4941 115.431 97.1132 115.702C96.7366 115.972 96.1421 116.108 95.3296 116.108C94.2716 116.108 93.4908 115.797 92.9873 115.175C92.4879 114.553 92.2382 113.717 92.2382 112.667ZM93.3935 112.268H96.9799C96.963 111.675 96.8107 111.157 96.5229 110.712C96.2352 110.264 95.812 110.04 95.2534 110.04C94.7625 110.04 94.3457 110.205 94.0029 110.535C93.6601 110.861 93.457 111.438 93.3935 112.268ZM100.115 116C99.925 116 99.8298 115.905 99.8298 115.714V109.621C99.8298 109.43 99.925 109.335 100.115 109.335H100.649C100.839 109.335 100.934 109.43 100.934 109.621V110.128H100.96C101.235 109.824 101.533 109.597 101.855 109.449C102.176 109.301 102.485 109.227 102.781 109.227C103.327 109.227 103.746 109.365 104.038 109.64C104.335 109.91 104.525 110.183 104.61 110.458H104.635C104.868 110.111 105.162 109.819 105.517 109.583C105.873 109.346 106.251 109.227 106.654 109.227C107.326 109.227 107.834 109.445 108.177 109.881C108.52 110.312 108.691 110.905 108.691 111.658V115.714C108.691 115.905 108.596 116 108.405 116H107.86C107.669 116 107.574 115.905 107.574 115.714V112.026C107.574 111.197 107.47 110.662 107.263 110.42C107.056 110.175 106.736 110.052 106.304 110.052C105.881 110.052 105.528 110.234 105.244 110.598C104.961 110.958 104.819 111.502 104.819 112.229V115.714C104.819 115.905 104.724 116 104.533 116H103.987C103.797 116 103.702 115.905 103.702 115.714V112.026C103.702 111.197 103.598 110.662 103.391 110.42C103.183 110.175 102.864 110.052 102.432 110.052C102.009 110.052 101.656 110.217 101.372 110.547C101.089 110.873 100.947 111.434 100.947 112.229V115.714C100.947 115.905 100.852 116 100.661 116H100.115ZM111.027 116C110.836 116 110.741 115.905 110.741 115.714V109.621C110.741 109.43 110.836 109.335 111.027 109.335H111.573C111.763 109.335 111.858 109.43 111.858 109.621V115.714C111.858 115.905 111.763 116 111.573 116H111.027ZM111.027 108.129C110.836 108.129 110.741 108.034 110.741 107.843V107.297C110.741 107.107 110.836 107.012 111.027 107.012H111.573C111.763 107.012 111.858 107.107 111.858 107.297V107.843C111.858 108.034 111.763 108.129 111.573 108.129H111.027ZM113.559 112.667C113.559 111.673 113.805 110.852 114.296 110.205C114.791 109.553 115.546 109.227 116.562 109.227C117.247 109.227 117.77 109.35 118.13 109.595C118.494 109.836 118.756 110.084 118.917 110.338C119.006 110.478 118.987 110.59 118.86 110.674L118.46 110.935C118.333 111.023 118.206 110.966 118.079 110.763C117.956 110.569 117.783 110.401 117.558 110.262C117.338 110.122 117.006 110.052 116.562 110.052C115.982 110.052 115.533 110.266 115.216 110.693C114.899 111.121 114.74 111.779 114.74 112.667C114.74 113.556 114.899 114.214 115.216 114.642C115.533 115.069 115.982 115.283 116.562 115.283C117.031 115.283 117.391 115.194 117.641 115.016C117.89 114.834 118.072 114.637 118.187 114.426C118.297 114.227 118.422 114.17 118.561 114.254L118.987 114.508C119.113 114.584 119.132 114.699 119.044 114.851C118.938 115.033 118.697 115.289 118.32 115.619C117.948 115.945 117.362 116.108 116.562 116.108C115.546 116.108 114.791 115.784 114.296 115.137C113.805 114.485 113.559 113.662 113.559 112.667ZM120.332 112.667C120.332 111.673 120.594 110.852 121.119 110.205C121.648 109.553 122.42 109.227 123.436 109.227C124.452 109.227 125.222 109.553 125.747 110.205C126.275 110.852 126.54 111.673 126.54 112.667C126.54 113.662 126.275 114.485 125.747 115.137C125.222 115.784 124.452 116.108 123.436 116.108C122.42 116.108 121.648 115.784 121.119 115.137C120.594 114.485 120.332 113.662 120.332 112.667ZM121.513 112.667C121.513 113.556 121.688 114.214 122.039 114.642C122.391 115.069 122.856 115.283 123.436 115.283C124.016 115.283 124.481 115.069 124.832 114.642C125.184 114.214 125.359 113.556 125.359 112.667C125.359 111.779 125.184 111.121 124.832 110.693C124.481 110.266 124.016 110.052 123.436 110.052C122.856 110.052 122.391 110.266 122.039 110.693C121.688 111.121 121.513 111.779 121.513 112.667Z" fill="white"/>
</svg>
