<svg width="445" height="21" viewBox="0 0 445 21" fill="none" xmlns="http://www.w3.org/2000/svg">
<path d="M0.59 20V6H4.13L9.32 14.67L7.85 14.69L12.75 6H16.28V20H12.73L12.8 10.66L13.44 10.9L9.64 17.49H7.23L3.26 10.9L3.89 10.66L3.96 20H0.59ZM29.8872 20L35.0572 6H39.3772L44.5572 20H40.4072L39.5272 17.33H34.7972L33.9272 20H29.8872ZM35.6072 14.27H38.6972L37.1572 9.85L35.6072 14.27ZM58.1642 20V6H63.9742C65.0409 6 65.9709 6.17 66.7642 6.51C67.5642 6.85 68.1809 7.34333 68.6142 7.99C69.0542 8.63 69.2742 9.40667 69.2742 10.32C69.2742 11 69.1476 11.6 68.8942 12.12C68.6476 12.6333 68.3109 13.0667 67.8842 13.42C67.4576 13.7733 66.9809 14.04 66.4542 14.22L70.0642 20H65.7142L62.8442 15.01H61.8442V20H58.1642ZM61.8442 12.1H63.5642C64.1842 12.1 64.6709 11.9833 65.0242 11.75C65.3842 11.51 65.5642 11.1133 65.5642 10.56C65.5642 10 65.3909 9.6 65.0442 9.36C64.7042 9.12 64.2276 9 63.6142 9H61.8442V12.1ZM84.0509 20V6H87.7309V20H84.0509ZM84.0809 4.6L85.8209 0.91H89.4209L87.3309 4.6H84.0809ZM101.336 20L106.506 6H110.826L116.006 20H111.856L110.976 17.33H106.246L105.376 20H101.336ZM107.056 14.27H110.146L108.606 9.85L107.056 14.27ZM146.106 20V6H156.216V9.18H149.786V11.39H155.116V14.31H149.786V16.78H156.296V20H146.106ZM176.987 20.3C175.654 20.3 174.534 20.04 173.627 19.52C172.727 18.9933 172.044 18.2667 171.577 17.34C171.117 16.4133 170.887 15.3467 170.887 14.14V6H174.567V14.31C174.567 15.17 174.777 15.81 175.197 16.23C175.624 16.6433 176.221 16.85 176.987 16.85C177.754 16.85 178.347 16.6433 178.767 16.23C179.187 15.81 179.397 15.17 179.397 14.31V6H183.097V14.14C183.097 15.34 182.864 16.4033 182.397 17.33C181.937 18.2567 181.254 18.9833 180.347 19.51C179.441 20.0367 178.321 20.3 176.987 20.3ZM205.261 20.3C204.188 20.3 203.174 20.1333 202.221 19.8C201.268 19.4667 200.424 18.9867 199.691 18.36C198.964 17.7333 198.391 16.97 197.971 16.07C197.558 15.1633 197.351 14.14 197.351 13C197.351 11.8733 197.551 10.86 197.951 9.96C198.351 9.06 198.908 8.29333 199.621 7.66C200.334 7.02667 201.158 6.54333 202.091 6.21C203.031 5.87 204.038 5.7 205.111 5.7C205.598 5.7 206.114 5.73667 206.661 5.81C207.208 5.88333 207.771 6.02 208.351 6.22C208.931 6.41333 209.504 6.69333 210.071 7.06L208.551 9.9C208.078 9.6 207.581 9.37667 207.061 9.23C206.541 9.08333 205.978 9.01 205.371 9.01C204.711 9.01 204.118 9.10333 203.591 9.29C203.064 9.47 202.618 9.73333 202.251 10.08C201.891 10.4267 201.614 10.85 201.421 11.35C201.234 11.85 201.141 12.41 201.141 13.03C201.141 13.9433 201.334 14.7033 201.721 15.31C202.114 15.9167 202.641 16.37 203.301 16.67C203.961 16.97 204.691 17.12 205.491 17.12C205.771 17.12 206.048 17.1 206.321 17.06C206.594 17.0133 206.848 16.9567 207.081 16.89V14.71H204.321V11.81H210.281V19.15C209.848 19.3833 209.338 19.59 208.751 19.77C208.171 19.9433 207.574 20.0733 206.961 20.16C206.348 20.2533 205.781 20.3 205.261 20.3ZM225.27 20V6H235.38V9.18H228.95V11.39H234.28V14.31H228.95V16.78H235.46V20H225.27ZM250.121 20V6H253.781L259.111 14.05V6H262.671V20H259.011L253.681 11.83V20H250.121ZM277.844 20V6H281.524V20H277.844ZM295.129 20L300.299 6H304.619L309.799 20H305.649L304.769 17.33H300.039L299.169 20H295.129ZM300.849 14.27H303.939L302.399 9.85L300.849 14.27ZM344.909 20.3C343.815 20.3 342.752 20.1367 341.719 19.81C340.692 19.4833 339.822 19.01 339.109 18.39L340.829 15.67C341.115 15.9833 341.485 16.2567 341.939 16.49C342.399 16.7233 342.889 16.9033 343.409 17.03C343.929 17.1567 344.429 17.22 344.909 17.22C345.515 17.22 346.012 17.1267 346.399 16.94C346.792 16.7467 346.989 16.47 346.989 16.11C346.989 15.79 346.842 15.5267 346.549 15.32C346.262 15.1067 345.729 14.8967 344.949 14.69L343.829 14.38C342.349 13.9733 341.285 13.4133 340.639 12.7C339.999 11.9867 339.679 11.1333 339.679 10.14C339.679 9.50667 339.812 8.92333 340.079 8.39C340.352 7.85 340.732 7.38 341.219 6.98C341.712 6.58 342.289 6.27 342.949 6.05C343.615 5.83 344.335 5.72 345.109 5.72C346.202 5.72 347.219 5.88 348.159 6.2C349.105 6.51333 349.865 6.95 350.439 7.51L348.659 10.16C348.412 9.88667 348.102 9.65 347.729 9.45C347.362 9.24333 346.959 9.08333 346.519 8.97C346.079 8.85 345.635 8.79 345.189 8.79C344.795 8.79 344.449 8.84 344.149 8.94C343.855 9.04 343.629 9.18 343.469 9.36C343.309 9.53333 343.229 9.73667 343.229 9.97C343.229 10.17 343.292 10.3367 343.419 10.47C343.545 10.6033 343.759 10.73 344.059 10.85C344.359 10.97 344.765 11.1033 345.279 11.25L346.399 11.58C347.872 12.0133 348.935 12.5533 349.589 13.2C350.242 13.8467 350.569 14.68 350.569 15.7C350.569 16.6067 350.335 17.4067 349.869 18.1C349.409 18.7933 348.752 19.3333 347.899 19.72C347.052 20.1067 346.055 20.3 344.909 20.3ZM364.75 20V6H368.43V20H364.75ZM383.606 20V6H387.286V16.64H392.746V20H383.606ZM409.102 20L404.002 6H408.162L411.262 15.37L414.342 6H418.412L413.332 20H409.102ZM429.688 20L434.858 6H439.178L444.358 20H440.208L439.328 17.33H434.598L433.728 20H429.688ZM435.408 14.27H438.498L436.958 9.85L435.408 14.27Z" fill="white"/>
</svg>
