<svg width="599" height="664" viewBox="0 0 599 664" fill="none" xmlns="http://www.w3.org/2000/svg">
<g opacity="0.13" clip-path="url(#clip0_28_695)">
<path d="M302.258 65.7287C223.411 110.64 144.571 155.543 65.7245 200.454V463.934L302.711 598.208L533.275 467.922V200.454C456.272 155.543 379.261 110.64 302.258 65.7287Z" stroke="white" stroke-width="1.3" stroke-miterlimit="10"/>
<path d="M302.711 598.201C379.566 465.614 456.421 333.034 533.275 200.447H65.7245C144.72 333.034 223.716 465.614 302.711 598.201Z" stroke="white" stroke-miterlimit="10"/>
<path d="M302.371 201.69C262.962 223.595 223.546 245.499 184.136 267.404V399.066C223.609 421.43 263.082 443.794 302.555 466.165C340.483 444.591 378.403 423.018 416.331 401.445C416.813 356.767 417.288 312.089 417.77 267.411C379.304 245.507 340.837 223.602 302.371 201.697V201.69Z" stroke="white" stroke-width="1.3" stroke-miterlimit="10"/>
<path d="M417.77 267.397C300.762 245.351 183.754 223.298 66.7454 201.252" stroke="white" stroke-miterlimit="10"/>
<path d="M532.155 201.097C455.627 289.45 379.091 377.804 302.563 466.15C223.957 377.853 145.351 289.549 66.7525 201.252C221.901 289.93 377.042 378.609 532.191 467.287C416.175 444.542 300.166 421.797 184.151 399.052C223.56 288.187 262.976 177.321 302.385 66.4558C340.37 178.112 378.361 289.768 416.345 401.431C299.713 422.016 183.08 442.601 66.4476 463.186" stroke="white" stroke-miterlimit="10"/>
<path d="M533.275 467.915C532.744 467.308 532.219 466.694 531.687 466.087C455.251 377.945 378.815 289.81 302.371 201.683C223.723 288.85 145.082 376.018 66.4335 463.186C183.548 397.923 300.656 332.66 417.77 267.397" stroke="white" stroke-miterlimit="10"/>
<path d="M418.479 334.093C454.194 334.093 483.147 304.529 483.147 268.061C483.147 231.592 454.194 202.029 418.479 202.029C382.764 202.029 353.811 231.592 353.811 268.061C353.811 304.529 382.764 334.093 418.479 334.093Z" stroke="white" stroke-width="1.5" stroke-miterlimit="10"/>
<path d="M417.77 465.967C454.339 465.967 483.984 436.448 483.984 400.034C483.984 363.62 454.339 334.1 417.77 334.1C381.201 334.1 351.556 363.62 351.556 400.034C351.556 436.448 381.201 465.967 417.77 465.967Z" stroke="white" stroke-width="1.5" stroke-miterlimit="10"/>
<path d="M300.953 531.59C337.914 531.59 367.876 501.754 367.876 464.95C367.876 428.146 337.914 398.311 300.953 398.311C263.993 398.311 234.031 428.146 234.031 464.95C234.031 501.754 263.993 531.59 300.953 531.59Z" stroke="white" stroke-width="1.5" stroke-miterlimit="10"/>
<path d="M186.681 332.851C223.25 332.851 252.895 303.331 252.895 266.917C252.895 230.503 223.25 200.984 186.681 200.984C150.113 200.984 120.468 230.503 120.468 266.917C120.468 303.331 150.113 332.851 186.681 332.851Z" stroke="white" stroke-width="1.5" stroke-miterlimit="10"/>
<path d="M301.563 265.675C338.59 265.675 368.606 235.786 368.606 198.916C368.606 162.045 338.59 132.156 301.563 132.156C264.536 132.156 234.52 162.045 234.52 198.916C234.52 235.786 264.536 265.675 301.563 265.675Z" stroke="white" stroke-width="1.5" stroke-miterlimit="10"/>
<path d="M66.7454 267.193C103.314 267.193 132.959 237.673 132.959 201.259C132.959 164.845 103.314 135.326 66.7454 135.326C30.1766 135.326 0.531738 164.845 0.531738 201.259C0.531738 237.673 30.1766 267.193 66.7454 267.193Z" stroke="white" stroke-width="1.5" stroke-miterlimit="10"/>
<path d="M67.8513 529.077C104.42 529.077 134.065 499.557 134.065 463.143C134.065 426.729 104.42 397.21 67.8513 397.21C31.2825 397.21 1.63757 426.729 1.63757 463.143C1.63757 499.557 31.2825 529.077 67.8513 529.077Z" stroke="white" stroke-width="1.5" stroke-miterlimit="10"/>
<path d="M303.08 663.471C339.649 663.471 369.294 633.951 369.294 597.537C369.294 561.123 339.649 531.604 303.08 531.604C266.511 531.604 236.866 561.123 236.866 597.537C236.866 633.951 266.511 663.471 303.08 663.471Z" stroke="white" stroke-width="1.5" stroke-miterlimit="10"/>
<path d="M532.255 532.338C568.823 532.338 598.468 502.819 598.468 466.405C598.468 429.991 568.823 400.471 532.255 400.471C495.686 400.471 466.041 429.991 466.041 466.405C466.041 502.819 495.686 532.338 532.255 532.338Z" stroke="white" stroke-width="1.5" stroke-miterlimit="10"/>
<path d="M532.255 268.456C568.823 268.456 598.468 238.937 598.468 202.523C598.468 166.109 568.823 136.589 532.255 136.589C495.686 136.589 466.041 166.109 466.041 202.523C466.041 238.937 495.686 268.456 532.255 268.456Z" stroke="white" stroke-width="1.5" stroke-miterlimit="10"/>
<path d="M301.854 398.311C339.041 398.311 369.187 369.007 369.187 332.858C369.187 296.709 339.041 267.404 301.854 267.404C264.666 267.404 234.52 296.709 234.52 332.858C234.52 369.007 264.666 398.311 301.854 398.311Z" stroke="white" stroke-width="1.51" stroke-miterlimit="10"/>
<path d="M302.258 65.7287C223.652 198.217 145.046 330.705 66.4406 463.193C222.05 464.767 377.666 466.341 533.275 467.922C456.272 333.86 379.261 199.798 302.258 65.7287Z" stroke="white" stroke-miterlimit="10"/>
<path d="M303.08 597.537L417.77 267.404C455.896 245.302 494.022 223.206 532.155 201.104C416.147 223.206 300.145 245.302 184.136 267.404C223.787 377.451 263.43 487.498 303.08 597.537ZM303.08 597.537C302.846 420.512 302.605 243.488 302.371 66.4628" stroke="white" stroke-miterlimit="10"/>
<path d="M301.563 132.396C338.132 132.396 367.777 102.877 367.777 66.4628C367.777 30.0488 338.132 0.529442 301.563 0.529442C264.994 0.529442 235.349 30.0488 235.349 66.4628C235.349 102.877 264.994 132.396 301.563 132.396Z" stroke="white" stroke-width="1.5" stroke-miterlimit="10"/>
<path d="M182.988 464.011C220.195 464.011 250.357 433.977 250.357 396.927C250.357 359.878 220.195 329.843 182.988 329.843C145.781 329.843 115.619 359.878 115.619 396.927C115.619 433.977 145.781 464.011 182.988 464.011Z" stroke="white" stroke-width="1.5" stroke-miterlimit="10"/>
<path opacity="0.46" d="M299.45 368.655C319.606 368.655 335.946 352.385 335.946 332.314C335.946 312.244 319.606 295.973 299.45 295.973C279.294 295.973 262.955 312.244 262.955 332.314C262.955 352.385 279.294 368.655 299.45 368.655Z" fill="white"/>
<path opacity="0.46" d="M65.7245 238.37C85.8804 238.37 102.22 222.099 102.22 202.029C102.22 181.958 85.8804 165.688 65.7245 165.688C45.5686 165.688 29.229 181.958 29.229 202.029C29.229 222.099 45.5686 238.37 65.7245 238.37Z" fill="white"/>
<path opacity="0.46" d="M303.08 102.07C323.236 102.07 339.575 85.7993 339.575 65.7287C339.575 45.6581 323.236 29.3876 303.08 29.3876C282.924 29.3876 266.584 45.6581 266.584 65.7287C266.584 85.7993 282.924 102.07 303.08 102.07Z" fill="white"/>
<path opacity="0.46" d="M532.155 237.325C552.311 237.325 568.651 221.054 568.651 200.984C568.651 180.913 552.311 164.643 532.155 164.643C511.999 164.643 495.66 180.913 495.66 200.984C495.66 221.054 511.999 237.325 532.155 237.325Z" fill="white"/>
<path opacity="0.46" d="M299.854 235.257C320.01 235.257 336.35 218.986 336.35 198.916C336.35 178.845 320.01 162.574 299.854 162.574C279.698 162.574 263.359 178.845 263.359 198.916C263.359 218.986 279.698 235.257 299.854 235.257Z" fill="white"/>
<path opacity="0.46" d="M418.479 303.428C438.635 303.428 454.975 287.157 454.975 267.087C454.975 247.016 438.635 230.746 418.479 230.746C398.323 230.746 381.984 247.016 381.984 267.087C381.984 287.157 398.323 303.428 418.479 303.428Z" fill="white"/>
<path opacity="0.46" d="M532.155 502.746C552.311 502.746 568.651 486.475 568.651 466.405C568.651 446.334 552.311 430.064 532.155 430.064C511.999 430.064 495.66 446.334 495.66 466.405C495.66 486.475 511.999 502.746 532.155 502.746Z" fill="white"/>
<path opacity="0.46" d="M417.217 438.224C437.373 438.224 453.713 421.954 453.713 401.883C453.713 381.812 437.373 365.542 417.217 365.542C397.061 365.542 380.722 381.812 380.722 401.883C380.722 421.954 397.061 438.224 417.217 438.224Z" fill="white"/>
<path opacity="0.46" d="M300.953 502.138C321.109 502.138 337.449 485.868 337.449 465.797C337.449 445.727 321.109 429.456 300.953 429.456C280.797 429.456 264.458 445.727 264.458 465.797C264.458 485.868 280.797 502.138 300.953 502.138Z" fill="white"/>
<path opacity="0.46" d="M303.08 634.542C323.236 634.542 339.575 618.271 339.575 598.201C339.575 578.13 323.236 561.86 303.08 561.86C282.924 561.86 266.584 578.13 266.584 598.201C266.584 618.271 282.924 634.542 303.08 634.542Z" fill="white"/>
<path opacity="0.46" d="M182.988 434.257C203.144 434.257 219.483 417.986 219.483 397.916C219.483 377.845 203.144 361.575 182.988 361.575C162.832 361.575 146.492 377.845 146.492 397.916C146.492 417.986 162.832 434.257 182.988 434.257Z" fill="white"/>
<path opacity="0.46" d="M66.4335 499.484C86.5894 499.484 102.929 483.214 102.929 463.143C102.929 443.073 86.5894 426.802 66.4335 426.802C46.2776 426.802 29.938 443.073 29.938 463.143C29.938 483.214 46.2776 499.484 66.4335 499.484Z" fill="white"/>
<path opacity="0.46" d="M182.988 302.016C203.144 302.016 219.483 285.745 219.483 265.675C219.483 245.604 203.144 229.334 182.988 229.334C162.832 229.334 146.492 245.604 146.492 265.675C146.492 285.745 162.832 302.016 182.988 302.016Z" fill="white"/>
</g>
<defs>
<clipPath id="clip0_28_695">
<rect width="599" height="664" fill="white"/>
</clipPath>
</defs>
</svg>
