<svg width="23" height="26" viewBox="0 0 23 26" fill="none" xmlns="http://www.w3.org/2000/svg">
<g clip-path="url(#clip0_1_514)">
<path d="M6.7191 0.0571289C6.7191 0.0571289 8.09214 9.0498 2.37219 12.3014H15.1788V1.0923" stroke="white" stroke-miterlimit="10"/>
<path d="M15.1785 12.3014V26" stroke="white" stroke-miterlimit="10"/>
<path d="M19.2542 18.1823C18.9125 18.5252 17.0839 20.2844 14.2113 20.278C11.6044 20.2653 9.88969 18.7983 9.48474 18.4299" stroke="black" stroke-width="1.24" stroke-miterlimit="10"/>
<path d="M18.7982 21.8847C18.5008 21.9482 16.8241 22.3356 15.856 21.2814C15.1537 20.513 14.9702 19.319 15.4131 18.5379C15.9889 17.5154 17.3113 17.6678 19.3867 16.9438C20.5129 16.5501 21.886 15.8833 23.3413 14.702C22.7718 18.4998 21.0634 21.3894 18.7982 21.8911V21.8847Z" stroke="white" stroke-miterlimit="10"/>
<path d="M11.5523 21.8847C11.8181 21.9482 13.5138 22.3483 14.4945 21.2814C15.1969 20.5129 15.3804 19.319 14.9375 18.5378C14.3743 17.5408 13.0962 17.6678 10.9639 16.9438C9.3314 16.3913 8.09124 15.6355 7.26868 15.0576C7.74956 18.6521 9.37569 21.3893 11.5523 21.891V21.8847Z" stroke="white" stroke-miterlimit="10"/>
</g>
<defs>
<clipPath id="clip0_1_514">
<rect width="23" height="26" fill="white"/>
</clipPath>
</defs>
</svg>
